<?xml version="1.0" ?><svg viewBox="0 0 64 64" xmlns="http://www.w3.org/2000/svg"><g id="drug-virus-covid19-corona-health"><path d="M16,30h2a1,1,0,0,0,0-2H16a1,1,0,0,0,0,2Z"/><path d="M16,34h2a1,1,0,0,0,0-2H16a1,1,0,0,0,0,2Z"/><path d="M16,38h2a1,1,0,0,0,0-2H16a1,1,0,0,0,0,2Z"/><path d="M36,28H22a1,1,0,0,0,0,2H36a1,1,0,0,0,0-2Z"/><path d="M36,32H22a1,1,0,0,0,0,2H36a1,1,0,0,0,0-2Z"/><path d="M34,40H16a1,1,0,0,0,0,2H34a1,1,0,0,0,0-2Z"/><path d="M36,36H22a1,1,0,0,0,0,2H36a1,1,0,0,0,0-2Z"/><path d="M34,44H16a1,1,0,0,0,0,2H34a1,1,0,0,0,0-2Z"/><path d="M34,48H16a1,1,0,0,0,0,2H34a1,1,0,0,0,0-2Z"/><path d="M58,52a3,3,0,0,0-3-3H51a2.966,2.966,0,0,0-1,.184V48a3,3,0,0,0-6,0v4a2.987,2.987,0,0,0,5,2.22A2.981,2.981,0,0,0,51,55h4A3,3,0,0,0,58,52ZM47,47a1,1,0,0,1,1,1v1H46V48A1,1,0,0,1,47,47Zm0,6a1,1,0,0,1-1-1V51h2v1A1,1,0,0,1,47,53Zm3-1a1,1,0,0,1,1-1h1v2H51A1,1,0,0,1,50,52Zm5,1H54V51h1a1,1,0,0,1,0,2Z"/><path d="M55,38V37h3a1,1,0,0,0,1-1V32a3.009,3.009,0,0,0-3-3H51V13.08a.967.967,0,0,0-.29-.7L40.71,2.3A1,1,0,0,0,40,2H8A1,1,0,0,0,7,3V55a1,1,0,0,0,1,1H38v5a1,1,0,0,0,1,1H61a1,1,0,0,0,1-1V45A7.008,7.008,0,0,0,55,38Zm1-7a1,1,0,0,1,1,1v3H43V32a1,1,0,0,1,1-1ZM41,5.43,47.52,12H42a1,1,0,0,1-1-1ZM38,45v9H9V4H39v7a3.009,3.009,0,0,0,3,3h7V29H44a3.009,3.009,0,0,0-3,3v4a1,1,0,0,0,1,1h3v1A7.008,7.008,0,0,0,38,45ZM60,56H58a1,1,0,0,0,0,2h2v2H40V58H54a1,1,0,0,0,0-2H40V46h3a1,1,0,0,0,0-2H40.1A5.017,5.017,0,0,1,45,40a2.006,2.006,0,0,0,2-2V37h6v1a2.006,2.006,0,0,0,2,2,5.017,5.017,0,0,1,4.9,4H51a1,1,0,0,0,0,2h9Z"/><path d="M32,8H26v5H21v6h5v5h6V19h5V13H32Zm3,7v2H30v5H28V17H23V15h5V10h2v5Z"/></g></svg>