<?xml version="1.0" ?><svg viewBox="0 0 64 64" xmlns="http://www.w3.org/2000/svg"><g id="doctor-virus-covid19-corona-mask"><polygon points="33 6 31 6 31 9 28 9 28 11 31 11 31 14 33 14 33 11 36 11 36 9 33 9 33 6"/><path d="M49,42H39V38.26A15.126,15.126,0,0,0,46.69,28H48a3.009,3.009,0,0,0,3-3V22a3.009,3.009,0,0,0-3-3H47V18a1,1,0,0,0,1-1V11a9.014,9.014,0,0,0-9-9H25a9.014,9.014,0,0,0-9,9v6a1,1,0,0,0,1,1v1H16a3.009,3.009,0,0,0-3,3v3a3.009,3.009,0,0,0,3,3h1.31A15.126,15.126,0,0,0,25,38.26V42H15A13.012,13.012,0,0,0,2,55v6a1,1,0,0,0,1,1H61a1,1,0,0,0,1-1V55A13.012,13.012,0,0,0,49,42ZM47,25V21h1a1,1,0,0,1,1,1v3a1,1,0,0,1-1,1H46.96C46.99,25.67,47,25.34,47,25ZM16,26a1,1,0,0,1-1-1V22a1,1,0,0,1,1-1h1v4c0,.34.01.67.04,1Zm29-1a13,13,0,0,1-3,8.28V26.36l3-3.6ZM18,11a7.008,7.008,0,0,1,7-7H39a7.008,7.008,0,0,1,7,7v5H18Zm4,22.28A12.983,12.983,0,0,1,19,25V22.76l3,3.6ZM19,19.64V18H45v1.64l-4.38,5.25-8.4-1.87a1.087,1.087,0,0,0-.44,0l-8.4,1.87Zm5,15.6V26.8l8-1.78,8,1.78v8.44a13.378,13.378,0,0,1-2.43,1.51,13.082,13.082,0,0,1-11.14,0A13.378,13.378,0,0,1,24,35.24Zm13,3.9V43a5,5,0,0,1-10,0V39.14a14.965,14.965,0,0,0,10,0ZM19,53a1,1,0,1,1-1,1A1,1,0,0,1,19,53Zm41,7H4V55A11.007,11.007,0,0,1,15,44h3v7.18a3,3,0,1,0,2,0V44h5.07a7,7,0,0,0,13.86,0H44v5.08A7,7,0,0,0,38,56a1,1,0,0,0,1,1h2V55h-.9a5,5,0,0,1,9.8,0H49v2h2a1,1,0,0,0,1-1,7,7,0,0,0-6-6.92V44h3A11.007,11.007,0,0,1,60,55Z"/><path d="M26,22h1a1,1,0,0,0,0-2H26a1,1,0,0,0,0,2Z"/><path d="M37,22h1a1,1,0,0,0,0-2H37a1,1,0,0,0,0,2Z"/></g></svg>