<?xml version="1.0" ?><svg viewBox="0 0 64 64" xmlns="http://www.w3.org/2000/svg"><g id="coronavirus-virus-covid19-corona-bat"><path d="M3,21H6a9.011,9.011,0,0,1,9,9,1,1,0,0,0,1,1,14.609,14.609,0,0,1,13.758,9.7l1.3,3.64a1,1,0,0,0,1.884,0l1.3-3.639A14.613,14.613,0,0,1,48,31a1,1,0,0,0,1-1,9.01,9.01,0,0,1,9-9h3a1,1,0,0,0,.97-1.243l-.091-.363A20.953,20.953,0,0,0,46.6,4.12l-.361-.09A1,1,0,0,0,45,5a10.952,10.952,0,0,1-8,10.584V10a1,1,0,0,0-1.707-.707l-1.172,1.171a3.071,3.071,0,0,1-4.243,0L28.707,9.293A1,1,0,0,0,27,10v5.584A10.951,10.951,0,0,1,19,5a1,1,0,0,0-1.242-.97l-.361.09A20.954,20.954,0,0,0,2.121,19.394l-.091.363A1,1,0,0,0,3,21ZM17.062,6.285A12.94,12.94,0,0,0,27.835,17.816,1,1,0,0,0,29,16.83V12.344a5.109,5.109,0,0,0,6,0V16.83a1,1,0,0,0,1.165.986A12.939,12.939,0,0,0,46.937,6.284,18.953,18.953,0,0,1,59.7,19H58A11.015,11.015,0,0,0,47.043,29.027a16.619,16.619,0,0,0-14.685,11l-.358,1-.358-1A16.62,16.62,0,0,0,16.958,29.027,11.016,11.016,0,0,0,6,19H4.3A18.951,18.951,0,0,1,17.062,6.285Z"/><path d="M57,45a1.993,1.993,0,0,0-1.722,1H53.9a4.961,4.961,0,0,0-.732-1.753l.978-.978a1.976,1.976,0,0,0,.51.074h0a2,2,0,0,0,0-4h0a2,2,0,0,0-2,2,2.036,2.036,0,0,0,.074.512l-.978.978A4.969,4.969,0,0,0,50,42.1V40.722a2,2,0,1,0-2,0V42.1a4.969,4.969,0,0,0-1.753.732l-.978-.978a2.036,2.036,0,0,0,.074-.512,1.985,1.985,0,0,0-.586-1.414,2.092,2.092,0,0,0-1.414-.586,2,2,0,0,0,0,4h0a1.976,1.976,0,0,0,.51-.074l.978.978A4.961,4.961,0,0,0,44.1,46H42.722a2,2,0,1,0,0,2H44.1a4.961,4.961,0,0,0,.732,1.753l-.978.978a1.976,1.976,0,0,0-.51-.074h0a2,2,0,0,0,0,4h0a2,2,0,0,0,2-2,2.036,2.036,0,0,0-.074-.512l.978-.978A4.969,4.969,0,0,0,48,51.9v1.379a2,2,0,1,0,2,0V51.9a4.969,4.969,0,0,0,1.753-.732l.978.978a2.036,2.036,0,0,0-.074.512,2,2,0,0,0,2,2h0a2,2,0,0,0,0-4h0a1.976,1.976,0,0,0-.51.074l-.978-.978A4.961,4.961,0,0,0,53.9,48h1.379A2,2,0,1,0,57,45Zm-8,5a3,3,0,1,1,3-3A3,3,0,0,1,49,50Z"/><path d="M49,34A13,13,0,1,0,62,47,13.015,13.015,0,0,0,49,34Zm0,24A11,11,0,1,1,60,47,11.013,11.013,0,0,1,49,58Z"/><path d="M23,45a1.993,1.993,0,0,0-1.722,1H19.9a4.961,4.961,0,0,0-.732-1.753l.978-.978a1.95,1.95,0,0,0,1.926-.512h0a2,2,0,0,0,0-2.827,2.047,2.047,0,0,0-2.828,0,1.95,1.95,0,0,0-.512,1.926l-.978.978A4.961,4.961,0,0,0,16,42.1V40.722a2,2,0,1,0-2,0V42.1a4.961,4.961,0,0,0-1.753.732l-.978-.978a1.95,1.95,0,0,0-.512-1.926h0a2.046,2.046,0,0,0-2.827,0,1.989,1.989,0,0,0,1.925,3.34l.978.978A4.961,4.961,0,0,0,10.1,46H8.722a2,2,0,1,0,0,2H10.1a4.961,4.961,0,0,0,.732,1.753l-.99.99a2.034,2.034,0,0,0-1.914.5h0a2.012,2.012,0,1,0,3.34.9l.978-.978A4.961,4.961,0,0,0,14,51.9v1.379a2,2,0,1,0,2,0V51.9a4.961,4.961,0,0,0,1.753-.732l.978.978a1.95,1.95,0,0,0,.512,1.926h0a2,2,0,1,0,2.828-2.828,2.033,2.033,0,0,0-1.914-.5l-.99-.99A4.961,4.961,0,0,0,19.9,48h1.379A2,2,0,1,0,23,45Zm-8,5a3,3,0,1,1,3-3A3,3,0,0,1,15,50Z"/><path d="M15,34A13,13,0,1,0,28,47,13.015,13.015,0,0,0,15,34Zm0,24A11,11,0,1,1,26,47,11.013,11.013,0,0,1,15,58Z"/><path d="M58.759,35.755a.872.872,0,0,0,.1.006,1,1,0,0,0,.994-.9A28.285,28.285,0,0,0,60,32a27.994,27.994,0,0,0-1.3-8.438,1,1,0,1,0-1.906.6,26.181,26.181,0,0,1,1.066,10.494A1,1,0,0,0,58.759,35.755Z"/><path d="M22.283,7.876a26.212,26.212,0,0,1,19.439,0,.984.984,0,0,0,.374.073,1,1,0,0,0,.374-1.928,28.227,28.227,0,0,0-20.935,0,1,1,0,0,0,.748,1.855Z"/><path d="M6.5,23.051a1,1,0,0,0-1.251.659A28,28,0,0,0,4,32a28.348,28.348,0,0,0,.185,3.237,1,1,0,0,0,.992.885,1.127,1.127,0,0,0,.116-.006,1,1,0,0,0,.879-1.109A26.392,26.392,0,0,1,6,32a26.015,26.015,0,0,1,1.158-7.7A1,1,0,0,0,6.5,23.051Z"/><path d="M37.854,57.338a26.357,26.357,0,0,1-11.527.041,1,1,0,1,0-.435,1.953A28.257,28.257,0,0,0,38.3,59.288a1,1,0,0,0-.449-1.95Z"/></g></svg>