<?xml version="1.0" ?><svg viewBox="0 0 64 64" xmlns="http://www.w3.org/2000/svg"><g id="virus-covid19-travel-coronavirus-airplane"><path d="M4,14a1.993,1.993,0,0,0,1.722-1H7.1a4.969,4.969,0,0,0,.732,1.753l-.979.979a2,2,0,1,0,1.414,1.414l.979-.979A4.969,4.969,0,0,0,11,16.9v1.379a2,2,0,1,0,2,0V16.9a4.969,4.969,0,0,0,1.753-.732l.979.979a2,2,0,1,0,1.414-1.414l-.979-.979A4.969,4.969,0,0,0,16.9,13h1.379a2,2,0,1,0,0-2H16.9a4.969,4.969,0,0,0-.732-1.753l.979-.979a2,2,0,1,0-1.414-1.414l-.979.979A4.969,4.969,0,0,0,13,7.1V5.722a2,2,0,1,0-2,0V7.1a4.969,4.969,0,0,0-1.753.732l-.979-.979A2,2,0,1,0,6.854,8.268l.979.979A4.969,4.969,0,0,0,7.1,11H5.722A2,2,0,1,0,4,14Zm8-5a3,3,0,1,1-3,3A3,3,0,0,1,12,9Z"/><path d="M51,36H39.5l-6.3-8.4A9.048,9.048,0,0,0,26,24H18a1,1,0,0,0-.8,1.6L25,36H13.781l-1.052-4.215A5,5,0,0,0,7.88,28H3a1,1,0,0,0-1,1v8A13.015,13.015,0,0,0,15,50H25L17.2,60.4A1,1,0,0,0,18,62h8a9.044,9.044,0,0,0,7.2-3.6L39.5,50H59a3.017,3.017,0,0,0,3-3A11.013,11.013,0,0,0,51,36Zm6.689,5H53a1,1,0,0,1-1-1V38.059A8.978,8.978,0,0,1,57.689,41ZM20,26h6a7.041,7.041,0,0,1,5.6,2.8L37,36H27.5ZM31.6,57.2A7.035,7.035,0,0,1,26,60H20L30.5,46H40Zm28.094-9.488A.957.957,0,0,1,59,48H41l1.8-2.4A1,1,0,0,0,42,44H30a1,1,0,0,0-.8.4L26.5,48H15A11.013,11.013,0,0,1,4,37V30H7.88a3,3,0,0,1,2.91,2.272l1.24,4.97A1,1,0,0,0,13,38H50v2a3,3,0,0,0,3,3h6.05A8.921,8.921,0,0,1,60,47,.978.978,0,0,1,59.694,47.712Z"/><path d="M17,40H16a1,1,0,0,0,0,2h1a1,1,0,0,0,0-2Z"/><path d="M22,40H21a1,1,0,0,0,0,2h1a1,1,0,0,0,0-2Z"/><path d="M27,40H26a1,1,0,0,0,0,2h1a1,1,0,0,0,0-2Z"/><path d="M32,40H31a1,1,0,0,0,0,2h1a1,1,0,0,0,0-2Z"/><path d="M37,40H36a1,1,0,0,0,0,2h1a1,1,0,0,0,0-2Z"/><path d="M42,40H41a1,1,0,0,0,0,2h1a1,1,0,0,0,0-2Z"/><path d="M47,40H46a1,1,0,0,0,0,2h1a1,1,0,0,0,0-2Z"/><path d="M35.05,20.05A3,3,0,0,0,37.882,18h1.134a7.964,7.964,0,0,0,1.619,3.951l-.812.812a3.006,3.006,0,1,0,1.436,1.392l.79-.79A7.912,7.912,0,0,0,46,24.989v1.16a3.006,3.006,0,1,0,2-.031V24.974a7.91,7.91,0,0,0,3.908-1.651l.855.854a3.006,3.006,0,1,0,1.392-1.436l-.848-.848A7.955,7.955,0,0,0,54.883,18h1.266a3.006,3.006,0,1,0-.031-2H54.869a7.947,7.947,0,0,0-1.6-3.85l.913-.913a3.006,3.006,0,1,0-1.436-1.392l-.89.89A7.908,7.908,0,0,0,48,9.127V7.851a3.008,3.008,0,1,0-2,.03V9.112a7.9,7.9,0,0,0-3.893,1.58l-.87-.869a3.006,3.006,0,1,0-1.392,1.436l.833.833A7.936,7.936,0,0,0,39.031,16h-1.18a3,3,0,1,0-2.8,4.05Zm4.243,6.142a1,1,0,1,1,0-1.414A1,1,0,0,1,39.293,26.192ZM47.05,29.95a1,1,0,1,1,1-1A1,1,0,0,1,47.05,29.95Zm9.142-5.243a1,1,0,1,1-1.414,0A1,1,0,0,1,56.192,24.707ZM58.95,15.95a1,1,0,1,1-1,1A1,1,0,0,1,58.95,15.95ZM54.707,7.808a1,1,0,1,1,0,1.414A1,1,0,0,1,54.707,7.808ZM51.192,21.293a6,6,0,1,1,0-8.485A5.957,5.957,0,0,1,51.192,21.293ZM46.95,4.05a1,1,0,1,1-1,1A1,1,0,0,1,46.95,4.05ZM37.808,9.293a1,1,0,1,1,1.414,0A1,1,0,0,1,37.808,9.293ZM35.05,16.05a1,1,0,1,1-1,1A1,1,0,0,1,35.05,16.05Z"/><circle cx="47" cy="14" r="2"/><circle cx="44" cy="18" r="2"/><circle cx="50" cy="18" r="2"/></g></svg>