<?xml version="1.0" ?><svg viewBox="0 0 64 64" xmlns="http://www.w3.org/2000/svg"><g id="virus-covid19-temperature-coronavirus-warning"><path d="M31.586,26.757a1.029,1.029,0,0,0-1.414,0L18.858,38.071a1,1,0,0,0,0,1.414l5.657,5.657a1,1,0,0,0,1.414,0L37.242,33.828a1,1,0,0,0,0-1.414ZM25.222,43.021l-4.243-4.243,9.9-9.9,4.242,4.243Z"/><path d="M3,22H23a1,1,0,0,0,.876-1.483l-9.926-18A1,1,0,0,0,13.077,2h0a1,1,0,0,0-.873.512l-10.074,18A1,1,0,0,0,3,22ZM13.067,5.059,21.307,20H4.706Z"/><path d="M13,9a1,1,0,0,0-1,1v4a1,1,0,0,0,2,0V10A1,1,0,0,0,13,9Z"/><path d="M13,16a1,1,0,0,0-1,1v1a1,1,0,0,0,2,0V17A1,1,0,0,0,13,16Z"/><path d="M17.443,40.9a1.029,1.029,0,0,0-1.414,0l-4.949,4.95a1,1,0,0,0,0,1.414l5.656,5.657a1,1,0,0,0,1.414,0L23.1,47.971a1,1,0,0,0,0-1.414Zm0,9.9L13.2,46.556l3.535-3.535,4.243,4.243Z"/><path d="M59.99,4.01a4.985,4.985,0,0,0-7.07,0l-6.05,6.05a27.157,27.157,0,0,1-10.56,6.53l-.18.06a29.173,29.173,0,0,0-11.34,7L4.01,44.44a7,7,0,0,0,0,9.89l5.66,5.66a6.989,6.989,0,0,0,9.89,0L40.35,39.21a29.173,29.173,0,0,0,7-11.34l.06-.18a27.157,27.157,0,0,1,6.53-10.56l6.05-6.05a4.985,4.985,0,0,0,0-7.07ZM14.62,60.04a4.976,4.976,0,0,1-3.54-1.46L5.42,52.92a5,5,0,0,1-.63-6.29L17.37,59.21A4.941,4.941,0,0,1,14.62,60.04Zm37.9-44.32a29.173,29.173,0,0,0-7,11.34l-.06.18A27.157,27.157,0,0,1,38.93,37.8L18.86,57.87,6.13,45.14,26.21,25.07a27.048,27.048,0,0,1,10.55-6.53l.19-.06a29.209,29.209,0,0,0,11.33-7l1.1-1.11,2.13,2.12,2.12,2.13Zm6.06-6.05L55.04,13.2l-2.12-2.12L50.8,8.96l3.53-3.54a3.088,3.088,0,0,1,4.25,0,3.006,3.006,0,0,1,0,4.25Z"/></g></svg>