<?xml version="1.0" ?><svg viewBox="0 0 64 64" xmlns="http://www.w3.org/2000/svg"><g id="virus-covid19-global-coronavirus-location"><path d="M45,39V37.816a2.746,2.746,0,0,0,.285-.117l.837.837a1,1,0,0,0,1.414-1.414l-.837-.837A2.746,2.746,0,0,0,46.816,36H48a1,1,0,0,0,0-2H46.816a2.746,2.746,0,0,0-.117-.285l.837-.837a1,1,0,0,0-1.414-1.414l-.837.837A2.746,2.746,0,0,0,45,32.184V31a1,1,0,0,0-2,0v1.184a2.746,2.746,0,0,0-.285.117l-.837-.837a1,1,0,0,0-1.414,1.414l.837.837a2.746,2.746,0,0,0-.117.285H40a1,1,0,0,0,0,2h1.184a2.746,2.746,0,0,0,.117.285l-.837.837a1,1,0,1,0,1.414,1.414l.837-.837a2.746,2.746,0,0,0,.285.117V39a1,1,0,0,0,2,0Zm-2-4a1,1,0,1,1,1,1A1,1,0,0,1,43,35Z"/><path d="M50,11h1.184a2.746,2.746,0,0,0,.117.285l-.837.837a1,1,0,1,0,1.414,1.414l.837-.837a2.746,2.746,0,0,0,.285.117V14a1,1,0,0,0,2,0V12.816a2.746,2.746,0,0,0,.285-.117l.837.837a1,1,0,1,0,1.414-1.414l-.837-.837A2.746,2.746,0,0,0,56.816,11H58a1,1,0,0,0,0-2H56.816a2.746,2.746,0,0,0-.117-.285l.837-.837a1,1,0,1,0-1.414-1.414l-.837.837A2.746,2.746,0,0,0,55,7.184V6a1,1,0,0,0-2,0V7.184a2.746,2.746,0,0,0-.285.117l-.837-.837a1,1,0,0,0-1.414,1.414l.837.837A2.746,2.746,0,0,0,51.184,9H50a1,1,0,0,0,0,2Zm5-1a1,1,0,1,1-1-1A1,1,0,0,1,55,10Z"/><path d="M62,10A7.992,7.992,0,0,0,47.05,6.06,30.029,30.029,0,1,0,58.29,17.57C60.14,15.17,62,12.21,62,10ZM54,4a6,6,0,0,1,6,6c0,2.52-3.84,7.21-6,9.55-2.16-2.34-6-7.03-6-9.55A6,6,0,0,1,54,4ZM4,32A28.048,28.048,0,0,1,24,5.17V10a1,1,0,0,1-.3.72.918.918,0,0,1-.65.28h-.01A3,3,0,0,0,20,14v1.59A7.9,7.9,0,0,0,17,15a8.011,8.011,0,0,0-8,8c0,4.15,6.54,10.94,7.29,11.7a.99.99,0,0,0,1.42,0c.59-.59,4.71-4.87,6.48-8.7h2.92a4.317,4.317,0,0,1,4.01,2.69,4.032,4.032,0,0,1-.81,4.49l-.07.06A5.928,5.928,0,0,1,26,35H24a3.041,3.041,0,0,0-2.4,1.2l-1.99,2.66A2.949,2.949,0,0,0,19,40.67l.01,7.92-1.67-1.66a2.065,2.065,0,0,1-.54-1.02l-.5-2.5A3.007,3.007,0,0,0,13.36,41H5.49A27.94,27.94,0,0,1,4,32Zm19-9a4.581,4.581,0,0,1-.35,1.57.358.358,0,0,0-.04.11c-1.04,2.57-3.87,5.98-5.61,7.87-2.16-2.34-6-7.03-6-9.55a6,6,0,0,1,12,0Zm9,37c-.67,0-1.34-.03-2-.08V57a1,1,0,0,0-.14-.51L27.2,52.06,29.5,49h7.81a3,3,0,0,0,2.96-2.51l.44-2.66c1.23,1.48,2.3,2.59,2.58,2.87a.99.99,0,0,0,1.42,0c.31-.31,1.59-1.64,3-3.39A1.01,1.01,0,0,1,48,44v1a3.009,3.009,0,0,0,3,3h.36a1,1,0,0,1,.58.18l1.87,1.35A27.935,27.935,0,0,1,32,60Zm6-25a6,6,0,0,1,12,0c0,1.65-1.64,4.22-3.39,6.46,0,.01-.01.02-.02.03-.91,1.17-1.85,2.25-2.59,3.06C41.84,42.21,38,37.52,38,35ZM55.01,47.92,53.1,46.55A3.043,3.043,0,0,0,51.36,46H51a1,1,0,0,1-1-1V44a2.973,2.973,0,0,0-1.07-2.28C50.55,39.5,52,36.96,52,35a8,8,0,0,0-16,0c0,2.08,1.64,4.82,3.37,7.13a3.073,3.073,0,0,0-.64,1.38l-.44,2.66a1.007,1.007,0,0,1-.98.83H29a1.014,1.014,0,0,0-.8.4l-3,4a1,1,0,0,0-.06,1.11L28,57.28v2.43A28.1,28.1,0,0,1,6.25,43h7.11a1.006,1.006,0,0,1,.98.8l.5,2.51a3.891,3.891,0,0,0,1.09,2.03l1.66,1.67a1.99,1.99,0,0,0,1.41.58,2.108,2.108,0,0,0,.77-.15A2,2,0,0,0,21,48.59V40.67a.984.984,0,0,1,.2-.6l2-2.67A1.014,1.014,0,0,1,24,37h2a7.917,7.917,0,0,0,5.66-2.35l.08-.07a6.068,6.068,0,0,0,1.22-6.67A6.277,6.277,0,0,0,27.11,24H24.88A5.048,5.048,0,0,0,25,23a7.986,7.986,0,0,0-3-6.24V14a.949.949,0,0,1,.31-.71.869.869,0,0,1,.7-.29A2.97,2.97,0,0,0,26,10V4.65A28.21,28.21,0,0,1,32,4a27.145,27.145,0,0,1,3,.18V12a3.009,3.009,0,0,0,3,3h2a1,1,0,0,1,1,1v3a1,1,0,0,0,1,1h1.93a1,1,0,0,1,.83.45l2.81,4.21A2.993,2.993,0,0,0,50.07,26h4.24a.989.989,0,0,1,.98.84l.72,4.32a1.016,1.016,0,0,0,.46.69L59.92,34A27.688,27.688,0,0,1,55.01,47.92Zm4.98-16.23-2.08-1.3-.65-3.88A2.978,2.978,0,0,0,54.31,24H50.07a1,1,0,0,1-.83-.45l-2.81-4.21A2.993,2.993,0,0,0,43.93,18H43V16a3.009,3.009,0,0,0-3-3H38a1,1,0,0,1-1-1V4.46a27.738,27.738,0,0,1,9.28,3.47A7.836,7.836,0,0,0,46,10c0,4.15,6.54,10.94,7.29,11.7a.99.99,0,0,0,1.42,0c.25-.25,1.14-1.18,2.22-2.45A28.081,28.081,0,0,1,59.99,31.69Z"/><path d="M19.816,22a2.746,2.746,0,0,0-.117-.285l.837-.837a1,1,0,0,0-1.414-1.414l-.837.837A2.746,2.746,0,0,0,18,20.184V19a1,1,0,0,0-2,0v1.184a2.746,2.746,0,0,0-.285.117l-.837-.837a1,1,0,1,0-1.414,1.414l.837.837a2.746,2.746,0,0,0-.117.285H13a1,1,0,0,0,0,2h1.184a2.746,2.746,0,0,0,.117.285l-.837.837a1,1,0,1,0,1.414,1.414l.837-.837a2.746,2.746,0,0,0,.285.117V27a1,1,0,0,0,2,0V25.816a2.746,2.746,0,0,0,.285-.117l.837.837a1,1,0,0,0,1.414-1.414l-.837-.837A2.746,2.746,0,0,0,19.816,24H21a1,1,0,0,0,0-2ZM16,23a1,1,0,1,1,1,1A1,1,0,0,1,16,23Z"/></g></svg>