<?xml version="1.0" ?><svg viewBox="0 0 64 64" xmlns="http://www.w3.org/2000/svg"><g id="virus-covid19-door-spray-hygiene"><path d="M41,42a4,4,0,0,0-3,6.645V53a3,3,0,0,0,6,0V48.645A4,4,0,0,0,41,42Zm1.343,5.476A1,1,0,0,0,42,48.23V53a1,1,0,0,1-2,0V48.23a1,1,0,0,0-.343-.754A1.949,1.949,0,0,1,39,46a2,2,0,0,1,4,0A1.949,1.949,0,0,1,42.343,47.476Z"/><path d="M60,29.18V7a5,5,0,0,0-5-5H35a5,5,0,0,0-5,5V57a5,5,0,0,0,5,5H55a5,5,0,0,0,5-5V34.82A2.98,2.98,0,0,0,62,32,3.01,3.01,0,0,0,60,29.18ZM58,57a3.009,3.009,0,0,1-3,3H35a3.009,3.009,0,0,1-3-3V7a3.009,3.009,0,0,1,3-3H55a3.009,3.009,0,0,1,3,3V29H47.32a7,7,0,1,0,0,6H58ZM46,32a5,5,0,1,1-5-5A5,5,0,0,1,46,32Zm13.69.71A.928.928,0,0,1,59,33H47.92a6.29,6.29,0,0,0,0-2H59a1,1,0,0,1,1,1A.949.949,0,0,1,59.69,32.71Z"/><rect height="2" width="2" x="22" y="20"/><rect height="2" width="2" x="26" y="18"/><rect height="2" width="2" x="26" y="14"/><rect height="2" width="2" x="26" y="26"/><rect height="2" width="2" x="22" y="16"/><rect height="2" width="2" x="22" y="24"/><rect height="2" width="2" x="26" y="22"/><rect height="2" width="2" x="40" y="13"/><rect height="2" width="2" x="48" y="13"/><rect height="2" width="2" x="44" y="13"/><path d="M20,24V18a1,1,0,0,0-1-1H13.42A12.951,12.951,0,0,0,2.61,22.79l-.44.66a.963.963,0,0,0-.05,1.02A.984.984,0,0,0,3,25H8v2a1,1,0,0,0-1,1v2.38a8.984,8.984,0,0,1-2.09,5.76l-.36.44A11.029,11.029,0,0,0,2,43.62V61a1,1,0,0,0,1,1H19a1,1,0,0,0,1-1V43.62a11.029,11.029,0,0,0-2.55-7.04l-.36-.44A8.984,8.984,0,0,1,15,30.38V28a1,1,0,0,0-1-1V25h.99a4.991,4.991,0,0,0,2.22,4.01l1.24.82A.939.939,0,0,0,19,30a1,1,0,0,0,.55-1.83l-1.23-.83A2.987,2.987,0,0,1,17,25h2A1,1,0,0,0,20,24ZM18,60H4V56H18Zm0-6H4V44H18ZM15.55,37.42l.36.44A8.946,8.946,0,0,1,17.85,42H4.15a8.946,8.946,0,0,1,1.94-4.14l.36-.44A11.029,11.029,0,0,0,9,30.38V29h4v1.38A11.029,11.029,0,0,0,15.55,37.42ZM10,27V25h2v2Zm8-4H4.94a10.961,10.961,0,0,1,8.48-4H18Z"/><path d="M35,19H55a1,1,0,0,0,1-1V10a1,1,0,0,0-1-1H35a1,1,0,0,0-1,1v8A1,1,0,0,0,35,19Zm1-8H54v6H36Z"/></g></svg>