<?xml version="1.0" ?><svg viewBox="0 0 64 64" xmlns="http://www.w3.org/2000/svg"><g id="workhome-virus-covid19-corona-home"><path d="M37,25a5,5,0,1,0-5,5A5.006,5.006,0,0,0,37,25Zm-5,3a3,3,0,1,1,3-3A3,3,0,0,1,32,28Z"/><path d="M38,30H26a5.006,5.006,0,0,0-5,5V45a1,1,0,0,0,1,1h4V57a1,1,0,0,0,1,1H37a1,1,0,0,0,1-1V46h4a1,1,0,0,0,1-1V35A5.006,5.006,0,0,0,38,30Zm3,14H38V35a1,1,0,0,0-2,0V56H33V48a1,1,0,0,0-2,0v8H28V35a1,1,0,0,0-2,0v9H23V35a3,3,0,0,1,3-3H38a3,3,0,0,1,3,3Z"/><path d="M57.2,25.074A12.99,12.99,0,1,0,38.412,7.484L32.844,2.27a1,1,0,0,0-1.364,0l-29.16,27A1,1,0,0,0,3,31H9V61a1,1,0,0,0,1,1H54a1,1,0,0,0,1-1V31h6a1,1,0,0,0,.684-1.73ZM49,26a10.953,10.953,0,0,1-7.034-2.552l4.281-4.281A4.961,4.961,0,0,0,48,19.9v1.379a2,2,0,1,0,2,0V19.9a4.969,4.969,0,0,0,1.753-.732l.979.979a2,2,0,1,0,1.415-1.414l-.98-.979A4.961,4.961,0,0,0,53.9,16h1.379a2,2,0,1,0,0-2H53.9a4.961,4.961,0,0,0-.732-1.753l4.281-4.281A10.992,10.992,0,0,1,49,26ZM46,15a3,3,0,0,1,3-3,2.951,2.951,0,0,1,1.285.3L46.3,16.285A2.951,2.951,0,0,1,46,15Zm6,0a3,3,0,0,1-3,3,2.951,2.951,0,0,1-1.285-.3L51.7,13.715A2.951,2.951,0,0,1,52,15ZM49,4a10.953,10.953,0,0,1,7.034,2.552l-4.281,4.281A4.961,4.961,0,0,0,50,10.1V8.722a2,2,0,1,0-2,0V10.1a4.969,4.969,0,0,0-1.753.732l-.979-.979a2,2,0,1,0-1.415,1.414l.98.979A4.961,4.961,0,0,0,44.1,14H42.722a2,2,0,1,0,0,2H44.1a4.961,4.961,0,0,0,.732,1.753l-4.281,4.281A10.992,10.992,0,0,1,49,4Zm5,25a1,1,0,0,0-1,1V60H11V30a1,1,0,0,0-1-1H5.552l26.6-24.634,5.207,4.875A12.975,12.975,0,0,0,55.514,26.233L58.469,29Z"/></g></svg>