<?xml version="1.0" ?><svg viewBox="0 0 64 64" xmlns="http://www.w3.org/2000/svg"><g id="virus-covid19-corona-spray-handwash"><path d="M41.99,39.74a3.037,3.037,0,0,0-2.21-2.61,2.97,2.97,0,0,0,.21-1.39A3.073,3.073,0,0,0,36.89,33H29.46A3.989,3.989,0,0,0,30,31V30a1,1,0,0,0-1-1H18.66a4.994,4.994,0,0,0-3.54,1.46l-.66.66a2.956,2.956,0,0,1-2.12.88H10V31a1,1,0,0,0-1-1H3a1,1,0,0,0-1,1V49a1,1,0,0,0,1,1H9a1,1,0,0,0,1-1V48h2.34a2.956,2.956,0,0,1,2.12.88l.66.66A4.994,4.994,0,0,0,18.66,51H33a3,3,0,0,0,3-3,3,3,0,0,0-.17-1H37a3,3,0,0,0,3-3,2.873,2.873,0,0,0-.21-1.1,2.942,2.942,0,0,0,1.32-.77A2.977,2.977,0,0,0,41.99,39.74ZM8,48H4V32H8Zm31.69-7.29A.928.928,0,0,1,39,41H27a1,1,0,0,0,0,2H37a1,1,0,0,1,1,1,.949.949,0,0,1-.31.71A.928.928,0,0,1,37,45H27a1,1,0,0,0,0,2h6a1,1,0,0,1,1,1,.949.949,0,0,1-.31.71A.928.928,0,0,1,33,49H18.66a2.956,2.956,0,0,1-2.12-.88l-.66-.66A4.994,4.994,0,0,0,12.34,46H10V34h2.34a4.994,4.994,0,0,0,3.54-1.46l.66-.66A2.956,2.956,0,0,1,18.66,31H28a2.006,2.006,0,0,1-2,2H23a1,1,0,0,0-1,1,3.009,3.009,0,0,1-3,3H18a1,1,0,0,0,0,2h1a5.009,5.009,0,0,0,4.9-4H36.89a1.092,1.092,0,0,1,1.11.91.985.985,0,0,1-.31.8A.928.928,0,0,1,37,37H27a1,1,0,0,0,0,2H38.89a1.092,1.092,0,0,1,1.11.91A.985.985,0,0,1,39.69,40.71Z"/><path d="M61,28H59V25a1,1,0,0,0-1-1H57V15a1,1,0,0,0-1-1H50a1,1,0,0,0-1,1v1H47a1,1,0,0,0-1,1v3a1,1,0,0,0,1,1h2v3H48a1,1,0,0,0-1,1v3H45a1,1,0,0,0-1,1V61a1,1,0,0,0,1,1H61a1,1,0,0,0,1-1V29A1,1,0,0,0,61,28Zm-4-2v2H54V26ZM51,16h4v8H51Zm-3,3V18h1v1Zm1,7h3v2H49ZM46,50h3a1,1,0,0,0,0-2H46V46h7a1,1,0,0,0,0-2H46V42h7a1,1,0,0,0,0-2H46V38H56V52H46ZM60,60H46V54H57a1,1,0,0,0,1-1V37a1,1,0,0,0-1-1H46V30H60Z"/><path d="M43,18H42a1,1,0,0,0,0,2h1a1,1,0,0,0,0-2Z"/><path d="M37,20h1a1,1,0,0,0,0-2H37a1,1,0,0,0,0,2Z"/><path d="M32,20h1a1,1,0,0,0,0-2H32a1,1,0,0,0,0,2Z"/><path d="M27,20h1a1,1,0,0,0,0-2H27a1,1,0,0,0,0,2Z"/><path d="M42.036,22.134l-.866.5a1,1,0,1,0,1,1.732l.866-.5a1,1,0,0,0-1-1.732Z"/><path d="M37.706,24.634l-.866.5a1,1,0,1,0,1,1.732l.866-.5a1,1,0,0,0-1-1.732Z"/><path d="M33.376,27.134l-.866.5a1,1,0,1,0,1,1.732l.866-.5a1,1,0,0,0-1-1.732Z"/><path d="M41.17,15.366l.866.5a1,1,0,0,0,1-1.732l-.866-.5a1,1,0,1,0-1,1.732Z"/><path d="M36.84,12.866l.866.5a1,1,0,1,0,1-1.732l-.866-.5a1,1,0,1,0-1,1.732Z"/><path d="M32.51,10.366l.866.5a1,1,0,1,0,1-1.732l-.866-.5a1,1,0,0,0-1,1.732Z"/></g></svg>