<?xml version="1.0" ?><svg viewBox="0 0 64 64" xmlns="http://www.w3.org/2000/svg"><g id="virus-covid19-corona-roll-hygiene"><path d="M21,23c3.976,0,8-1.374,8-4s-4.024-4-8-4-8,1.374-8,4S17.024,23,21,23Zm0-6c3.722,0,6,1.3,6,2s-2.278,2-6,2-6-1.3-6-2S17.278,17,21,17Z"/><path d="M61.454,18.109a1,1,0,0,0-1.042.082l-.413.3a16.954,16.954,0,0,1-20,0l-.047-.034C39.477,12.552,31.337,8,21,8,10.346,8,2,12.832,2,19V51c0,6.168,8.346,11,19,11,9.633,0,17.356-3.955,18.753-9.271a18.908,18.908,0,0,0,21.422-.62l.413-.3A1,1,0,0,0,62,51V19A1,1,0,0,0,61.454,18.109ZM21,10c9.215,0,17,4.122,17,9s-7.785,9-17,9S4,23.878,4,19,11.785,10,21,10Zm0,50a28.28,28.28,0,0,1-9-1.422V57.31a1,1,0,0,0-2,0v.48C6.357,56.125,4,53.679,4,51V23.967a15.486,15.486,0,0,0,6,4.047v1.3a1,1,0,1,0,2,0v-.584A31.03,31.03,0,0,0,21,30c7.545,0,13.914-2.429,17-6.033V51C38,55.878,30.215,60,21,60Zm39-9.509h0a16.954,16.954,0,0,1-20,0h0V20.9a18.935,18.935,0,0,0,20,0Z"/><path d="M11,44.31a1,1,0,0,0-1,1v2a1,1,0,0,0,2,0v-2A1,1,0,0,0,11,44.31Z"/><path d="M11,50.31a1,1,0,0,0-1,1v2a1,1,0,0,0,2,0v-2A1,1,0,0,0,11,50.31Z"/><path d="M11,32.31a1,1,0,0,0-1,1v2a1,1,0,0,0,2,0v-2A1,1,0,0,0,11,32.31Z"/><path d="M11,38.31a1,1,0,0,0-1,1v2a1,1,0,0,0,2,0v-2A1,1,0,0,0,11,38.31Z"/></g></svg>