<?xml version="1.0" ?><svg viewBox="0 0 64 64" xmlns="http://www.w3.org/2000/svg"><g id="virus-covid19-corona-rip-dead"><path d="M46.142,13h-1.42a2,2,0,1,0,0,2h1.42a3.915,3.915,0,0,0,.425,1.019l-1.006,1.006a2,2,0,1,0,1.414,1.414l1.006-1.006A3.915,3.915,0,0,0,49,17.858v1.42a2,2,0,1,0,2,0v-1.42a3.915,3.915,0,0,0,1.019-.425l1.006,1.006a2,2,0,1,0,1.414-1.414l-1.006-1.006A3.915,3.915,0,0,0,53.858,15h1.42a2,2,0,1,0,0-2h-1.42a3.915,3.915,0,0,0-.425-1.019l1.006-1.006a2.016,2.016,0,0,0,.511.074,2,2,0,1,0-1.925-1.488l-1.006,1.006A3.915,3.915,0,0,0,51,10.142V8.722a2,2,0,1,0-2,0v1.42a3.915,3.915,0,0,0-1.019.425L46.975,9.561a1.993,1.993,0,1,0-1.925,1.488,2.016,2.016,0,0,0,.511-.074l1.006,1.006A3.915,3.915,0,0,0,46.142,13ZM50,12a2,2,0,1,1-2,2A2,2,0,0,1,50,12Z"/><path d="M61.38,60.08,58,58.68V54.86A4,4,0,0,0,61,51V48a1,1,0,0,0-2,0v3a1.988,1.988,0,0,1-1,1.72V48a1,1,0,0,0-2,0v4.72A1.988,1.988,0,0,1,55,51V48a1,1,0,0,0-2,0v3a4,4,0,0,0,3,3.86v2.99l-5-2.07V25.95a12,12,0,1,0-8.86-21A18.978,18.978,0,0,0,13,21V55.78L8,57.85V54.86A4,4,0,0,0,11,51V48a1,1,0,0,0-2,0v3a1.988,1.988,0,0,1-1,1.72V48a1,1,0,0,0-2,0v4.72A1.988,1.988,0,0,1,5,51V48a1,1,0,0,0-2,0v3a4,4,0,0,0,3,3.86v3.82l-3.38,1.4A1,1,0,0,0,3,62H61a1,1,0,0,0,.38-1.92ZM50,4A10,10,0,1,1,40,14,10.016,10.016,0,0,1,50,4ZM15,21A17.024,17.024,0,0,1,32,4a16.8,16.8,0,0,1,8.71,2.41A11.989,11.989,0,0,0,49,25.95V54.98a46.621,46.621,0,0,0-34,0ZM8.03,60l6.76-2.8a44.74,44.74,0,0,1,34.42,0L55.97,60Z"/><path d="M24.81,31.92A4,4,0,0,0,24,24H21a1,1,0,0,0-1,1V37a1,1,0,0,0,2,0V32h.46l3.71,5.55A1,1,0,0,0,27,38a.939.939,0,0,0,.55-.17.99.99,0,0,0,.28-1.38ZM22,30V26h2a2,2,0,0,1,0,4Z"/><path d="M32,38a1,1,0,0,0,1-1V25a1,1,0,0,0-2,0V37A1,1,0,0,0,32,38Z"/><path d="M37,38a1,1,0,0,0,1-1V32h2a4,4,0,0,0,0-8H37a1,1,0,0,0-1,1V37A1,1,0,0,0,37,38Zm1-12h2a2,2,0,0,1,0,4H38Z"/><path d="M21,44H43a1,1,0,0,0,0-2H21a1,1,0,0,0,0,2Z"/><path d="M40,46H24a1,1,0,0,0,0,2H40a1,1,0,0,0,0-2Z"/></g></svg>