<?xml version="1.0" ?><svg viewBox="0 0 64 64" xmlns="http://www.w3.org/2000/svg"><g id="virus-covid19-corona-people-spreading"><path d="M8.722,17h1.42a3.915,3.915,0,0,0,.425,1.019L9.561,19.025a2,2,0,1,0,1.414,1.414l1.006-1.006A3.915,3.915,0,0,0,13,19.858v1.42a2,2,0,1,0,2,0v-1.42a3.915,3.915,0,0,0,1.019-.425l1.006,1.006a2,2,0,1,0,1.414-1.414l-1.006-1.006A3.915,3.915,0,0,0,17.858,17h1.42a2,2,0,1,0,0-2h-1.42a3.915,3.915,0,0,0-.425-1.019l1.006-1.006a2.016,2.016,0,0,0,.511.074,2,2,0,1,0-1.925-1.488l-1.006,1.006A3.915,3.915,0,0,0,15,12.142v-1.42a2,2,0,1,0-2,0v1.42a3.915,3.915,0,0,0-1.019.425l-1.006-1.006A1.993,1.993,0,1,0,9.05,13.049a2.016,2.016,0,0,0,.511-.074l1.006,1.006A3.915,3.915,0,0,0,10.142,15H8.722a2,2,0,1,0,0,2ZM14,14a2,2,0,1,1-2,2A2,2,0,0,1,14,14Z"/><path d="M17,38H13.62a4,4,0,1,0-5.24,0H5a3.009,3.009,0,0,0-3,3v7a1,1,0,0,0,1,1H6V59a1,1,0,0,0,1,1h8a1,1,0,0,0,1-1V49h3a1,1,0,0,0,1-1V41A3.009,3.009,0,0,0,17,38Zm-6-5a2,2,0,1,1-2,2A2.006,2.006,0,0,1,11,33Zm7,14H16V43a1,1,0,0,0-2,0V58H12V50a1,1,0,0,0-2,0v8H8V43a1,1,0,0,0-2,0v4H4V41a1,1,0,0,1,1-1H17a1,1,0,0,1,1,1Z"/><path d="M59,40H55.62a4,4,0,1,0-5.24,0H47a2.974,2.974,0,0,0-2,.78A2.974,2.974,0,0,0,43,40H39.62a4,4,0,1,0-5.24,0H31a3.009,3.009,0,0,0-3,3v7a1,1,0,0,0,1,1h3V61a1,1,0,0,0,1,1h8a1,1,0,0,0,1-1V51h6V61a1,1,0,0,0,1,1h8a1,1,0,0,0,1-1V51h3a1,1,0,0,0,1-1V43A3.009,3.009,0,0,0,59,40ZM37,35a2,2,0,1,1-2,2A2.006,2.006,0,0,1,37,35Zm7,14H42V45a1,1,0,0,0-2,0V60H38V52a1,1,0,0,0-2,0v8H34V45a1,1,0,0,0-2,0v4H30V43a1,1,0,0,1,1-1H43a1,1,0,0,1,1,1Zm9-14a2,2,0,1,1-2,2A2.006,2.006,0,0,1,53,35Zm7,14H58V45a1,1,0,0,0-2,0V60H54V52a1,1,0,0,0-2,0v8H50V45a1,1,0,0,0-2,0v4H46V43a1,1,0,0,1,1-1H59a1,1,0,0,1,1,1Z"/><path d="M59,9H55.62a4,4,0,1,0-5.24,0H47a2.974,2.974,0,0,0-2,.78A2.974,2.974,0,0,0,43,9H39.62a4,4,0,1,0-5.24,0H31a3.009,3.009,0,0,0-3,3v7a1,1,0,0,0,1,1h3V30a1,1,0,0,0,1,1h8a1,1,0,0,0,1-1V20h6V30a1,1,0,0,0,1,1h8a1,1,0,0,0,1-1V20h3a1,1,0,0,0,1-1V12A3.009,3.009,0,0,0,59,9ZM37,4a2,2,0,1,1-2,2A2.006,2.006,0,0,1,37,4Zm7,14H42V14a1,1,0,0,0-2,0V29H38V21a1,1,0,0,0-2,0v8H34V14a1,1,0,0,0-2,0v4H30V12a1,1,0,0,1,1-1H43a1,1,0,0,1,1,1ZM53,4a2,2,0,1,1-2,2A2.006,2.006,0,0,1,53,4Zm7,14H58V14a1,1,0,0,0-2,0V29H54V21a1,1,0,0,0-2,0v8H50V14a1,1,0,0,0-2,0v4H46V12a1,1,0,0,1,1-1H59a1,1,0,0,1,1,1Z"/><path d="M14,28A12,12,0,1,0,2,16,12.013,12.013,0,0,0,14,28ZM14,6A10,10,0,1,1,4,16,10.011,10.011,0,0,1,14,6Z"/><path d="M30.707,33.293l-5-5A1,1,0,0,0,24,29v2H19a1,1,0,0,0-1,1v4a1,1,0,0,0,1,1h5v2a1,1,0,0,0,1.707.707l5-5A1,1,0,0,0,30.707,33.293ZM26,36.586V36a1,1,0,0,0-1-1H20V33h5a1,1,0,0,0,1-1v-.586L28.586,34Z"/></g></svg>