<?xml version="1.0" ?><svg viewBox="0 0 64 64" xmlns="http://www.w3.org/2000/svg"><g id="virus-covid19-corona-mask-tempurature"><path d="M25,20H24a1,1,0,0,0,0,2h1a1,1,0,0,0,0-2Z"/><path d="M36,20H35a1,1,0,0,0,0,2h1a1,1,0,0,0,0-2Z"/><path d="M45,42H38a1,1,0,0,1-1-1V38.26A15.126,15.126,0,0,0,44.69,28H46a3.009,3.009,0,0,0,3-3V22a3.009,3.009,0,0,0-3-3H45V18a1,1,0,0,0,1-1V11a9.014,9.014,0,0,0-9-9H23a9.014,9.014,0,0,0-9,9v6a1,1,0,0,0,1,1v1H14a3.009,3.009,0,0,0-3,3v3a3.009,3.009,0,0,0,3,3h1.31A15.126,15.126,0,0,0,23,38.26V41a1,1,0,0,1-1,1H15A13.012,13.012,0,0,0,2,55v6a1,1,0,0,0,1,1H57a1,1,0,0,0,1-1V55A13.012,13.012,0,0,0,45,42Zm0-17V21h1a1,1,0,0,1,1,1v3a1,1,0,0,1-1,1H44.96C44.99,25.67,45,25.34,45,25ZM14,26a1,1,0,0,1-1-1V22a1,1,0,0,1,1-1h1v4c0,.34.01.67.04,1Zm29-1a13,13,0,0,1-3,8.28V26.36l3-3.6ZM16,11a7.008,7.008,0,0,1,7-7H37a7.008,7.008,0,0,1,7,7v5h-.69a6.977,6.977,0,0,1-4.95-2.05l-2.65-2.66a1.014,1.014,0,0,0-1.42,0l-2.64,2.65A7.034,7.034,0,0,1,26.69,16H16Zm4,22.28A12.983,12.983,0,0,1,17,25V22.76l3,3.6ZM17,19.64V18h9.69a9.04,9.04,0,0,0,6.38-2.65L35,13.42l1.95,1.94A8.882,8.882,0,0,0,43,17.99v1.65l-4.38,5.25-8.4-1.87a1.087,1.087,0,0,0-.44,0l-8.4,1.87Zm5,15.6V26.8l8-1.78,8,1.78v8.44a13.378,13.378,0,0,1-2.43,1.51,13.082,13.082,0,0,1-11.14,0A13.378,13.378,0,0,1,22,35.24ZM22,44a3.009,3.009,0,0,0,3-3V39.14a14.965,14.965,0,0,0,10,0V41a3.009,3.009,0,0,0,3,3h3.9c-.75,3.94-5.79,7-11.9,7s-11.15-3.06-11.9-7ZM56,60H45V55a1,1,0,0,0-2,0v5H17V55a1,1,0,0,0-2,0v5H4V55A11.007,11.007,0,0,1,15,44h1.07c.71,5.05,6.68,9,13.93,9s13.22-3.95,13.93-9H45A11.007,11.007,0,0,1,56,55Z"/><path d="M59,29.53V12a4,4,0,0,0-8,0V29.53a6,6,0,1,0,8,0ZM53,12a2.006,2.006,0,0,1,2-2,2.015,2.015,0,0,1,2,2v.01L55,12v2l2,.01v1L55,15v2l2,.01v1L53,18Zm2,26a4,4,0,0,1-2.4-7.2A1.014,1.014,0,0,0,53,30V20l4,.01v1L55,21v2l2,.01v1L55,24v2l2,.01v1L55,27v2l2,.01V30a1.014,1.014,0,0,0,.4.8A4,4,0,0,1,55,38Z"/><circle cx="55" cy="34" r="2"/><path d="M55,6a1,1,0,0,0,1-1V3a1,1,0,0,0-2,0V5A1,1,0,0,0,55,6Z"/><path d="M49.343,7.757a1,1,0,0,0,1.414-1.414L49.343,4.929a1,1,0,0,0-1.414,1.414Z"/><path d="M62.071,4.929a1,1,0,0,0-1.414,0L59.243,6.343a1,1,0,1,0,1.414,1.414l1.414-1.414A1,1,0,0,0,62.071,4.929Z"/></g></svg>