<?xml version="1.0" ?><svg viewBox="0 0 64 64" xmlns="http://www.w3.org/2000/svg"><g id="virus-covid19-corona-lung-coronavirus"><path d="M44.722,15h1.42a3.915,3.915,0,0,0,.425,1.019l-1.005,1.006a2,2,0,1,0,1.412,1.415l1.007-1.007A3.915,3.915,0,0,0,49,17.858v1.42a2,2,0,1,0,2,0v-1.42a3.915,3.915,0,0,0,1.019-.425l1.006,1.007a2,2,0,0,0,.509,1.923h0a2,2,0,1,0,.9-3.339l-1.006-1.006A3.915,3.915,0,0,0,53.858,15h1.42a2,2,0,1,0,0-2h-1.42a3.915,3.915,0,0,0-.425-1.019l1.006-1.006a2.015,2.015,0,0,0,.51.074A2.006,2.006,0,1,0,53.026,9.56l-1.007,1.007A3.915,3.915,0,0,0,51,10.142V8.722a2,2,0,1,0-2,0v1.42a3.915,3.915,0,0,0-1.019.425L46.975,9.56a2,2,0,0,0-.509-1.923h0a2,2,0,1,0-1.415,3.413,2.022,2.022,0,0,0,.511-.074l1.006,1.006A3.915,3.915,0,0,0,46.142,13h-1.42a2,2,0,1,0,0,2ZM50,12a2,2,0,1,1-2,2A2,2,0,0,1,50,12Z"/><path d="M62,53.6l-2.33-19.61a17.027,17.027,0,0,0-4.207-9.322,11.993,11.993,0,1,0-16.013-4.95A5.01,5.01,0,0,0,37,24v7.382l-2-1V3a1,1,0,0,0-2,0V31a1,1,0,0,0,.553.895L41,35.618v1.761l-8.511-4.273a1,1,0,0,0-.893,0L23,37.385V35.618L30.447,31.9A1,1,0,0,0,31,31V3a1,1,0,0,0-2,0V30.382l-2,1V24a5.006,5.006,0,0,0-5-5h-.79A17.013,17.013,0,0,0,4.327,33.992L2,53.6a7,7,0,0,0,6.922,7.828,7.225,7.225,0,0,0,1.455-.15l6.28-1.31A13.057,13.057,0,0,0,27,47.24V37.627l5.039-2.509L37,37.609V47.24A13.057,13.057,0,0,0,47.346,59.969l6.282,1.31a7.2,7.2,0,0,0,1.453.15A7,7,0,0,0,62,53.6ZM25,47.24a11.048,11.048,0,0,1-8.754,10.771L9.968,59.32a5,5,0,0,1-5.985-5.482l2.33-19.609A15.012,15.012,0,0,1,21.21,21H22a3,3,0,0,1,3,3v8.382l-2.658,1.329-3.132-4.7a3.2,3.2,0,1,0-1.774.944L20.132,34H15.3l-2.748-1.832a1,1,0,0,0-1.11,1.664L13.2,35l-1.752,1.168a1,1,0,0,0,1.11,1.664L15.3,36H21v2.5L17.667,41H15.162l-2.846-.949a1,1,0,0,0-.632,1.9l3,1A1,1,0,0,0,15,43h2v4H12.816a3,3,0,1,0,0,2H17v1.586l-2.707,2.707a1,1,0,1,0,1.414,1.414l3-3A1,1,0,0,0,19,51V42.5L21,41v4a1,1,0,0,0,2,0V39.619l2-1ZM17,28a1,1,0,1,1,1-1A1,1,0,0,1,17,28ZM11,48a1,1,0,1,1-1-1A1,1,0,0,1,11,48ZM50,4A10,10,0,1,1,40,14,10.011,10.011,0,0,1,50,4Zm8.443,54.1a4.959,4.959,0,0,1-4.409,1.217l-6.28-1.31A11.048,11.048,0,0,1,39,47.24V38.613l2,1V45a1,1,0,0,0,2,0V41l2,1.5V51a1,1,0,0,0,.293.707l3,3a1,1,0,0,0,1.414-1.414L47,50.586V49h4.184a3,3,0,1,0,0-2H47V43h2a1,1,0,0,0,.316-.051l3-1a1,1,0,0,0-.632-1.9L48.838,41H46.333L43,38.5V36h5.7l2.748,1.832a1,1,0,1,0,1.11-1.664l-2.266-1.51.348-.7A2.9,2.9,0,0,0,51,34a3.015,3.015,0,1,0-2.156-.923L48.382,34H43.767l2.09-3.485a1,1,0,0,0-1.714-1.03l-2.524,4.206L39,32.382V24a3,3,0,0,1,1.559-2.618,11.952,11.952,0,0,0,12.911,4.1,15.018,15.018,0,0,1,4.217,8.744l2.33,19.612A4.929,4.929,0,0,1,58.443,58.1ZM53,48a1,1,0,1,1,1,1A1,1,0,0,1,53,48ZM50,31a1,1,0,1,1,1,1A1,1,0,0,1,50,31Z"/><path d="M42,47a1,1,0,0,0-1,1v1a1,1,0,0,0,2,0V48A1,1,0,0,0,42,47Z"/><path d="M55,38a1,1,0,0,0-1,1v1a1,1,0,0,0,2,0V39A1,1,0,0,0,55,38Z"/><path d="M54,54H53a1,1,0,0,0,0,2h1a1,1,0,0,0,0-2Z"/><path d="M22,47a1,1,0,0,0-1,1v1a1,1,0,0,0,2,0V48A1,1,0,0,0,22,47Z"/><path d="M9,41a1,1,0,0,0,1-1V39a1,1,0,0,0-2,0v1A1,1,0,0,0,9,41Z"/><path d="M11,54H10a1,1,0,0,0,0,2h1a1,1,0,0,0,0-2Z"/></g></svg>