<?xml version="1.0" ?><svg viewBox="0 0 64 64" xmlns="http://www.w3.org/2000/svg"><g id="virus-covid19-corona-lung-breath"><path d="M39.585,34.8a4.946,4.946,0,0,0-4.507.688c-.027.02-.051.043-.078.063V30a1,1,0,0,0-2,0V41a1,1,0,0,0,.758.97l2.6.652a.841.841,0,0,1,.637.825.841.841,0,0,1-1.1.8l-3.579-1.193a1,1,0,0,0-.632,0l-3.579,1.193a.845.845,0,1,1-.469-1.622l2.606-.652A1,1,0,0,0,31,41V34.01a1,1,0,1,0-2,0v1.545c-.027-.02-.051-.043-.078-.063a4.947,4.947,0,0,0-4.51-.687A10.827,10.827,0,0,0,17,45.089V51.28a5,5,0,0,0,4.993,5,5.043,5.043,0,0,0,.83-.069l2.317-.382A6.977,6.977,0,0,0,31,48.918v-3.53l1-.334,1,.334v3.53a6.977,6.977,0,0,0,5.86,6.907l2.314.382a5.076,5.076,0,0,0,.832.069,5,5,0,0,0,4.994-5V45.089A10.828,10.828,0,0,0,39.585,34.8ZM29,48.918a4.983,4.983,0,0,1-4.187,4.933l-2.319.383A3,3,0,0,1,19,51.28V45.089A8.829,8.829,0,0,1,25.048,36.7,3,3,0,0,1,29,39.55v.669l-1.85.462A2.84,2.84,0,0,0,25,43.447a2.841,2.841,0,0,0,3.738,2.7L29,46.054ZM45,51.28a3,3,0,0,1-3.5,2.953l-2.316-.382A4.983,4.983,0,0,1,35,48.918V46.054l.262.088a2.852,2.852,0,0,0,.907.148,2.848,2.848,0,0,0,.68-5.609L35,40.219V39.55A3,3,0,0,1,38.955,36.7,8.828,8.828,0,0,1,45,45.089Z"/><path d="M30,32a1,1,0,0,0,1-1V30a1,1,0,0,0-2,0v1A1,1,0,0,0,30,32Z"/><path d="M34,28a1,1,0,0,0,1-1V26a1,1,0,0,0-2,0v1A1,1,0,0,0,34,28Z"/><path d="M58.93,39.94a13.821,13.821,0,0,0-8.04-10.75.355.355,0,0,0-.09-.04A13.638,13.638,0,0,0,45.29,28H38V22.79A11,11,0,1,0,22.56,9.53c-.01.02-.01.04-.02.06l-2.48,7.08A.99.99,0,0,0,21,18h2v5a1,1,0,0,0,1,1h2v4H18.71a13.673,13.673,0,0,0-5.51,1.15.355.355,0,0,0-.09.04A13.821,13.821,0,0,0,5.07,39.93L2.01,60.86a.994.994,0,0,0,.23.79A1.011,1.011,0,0,0,3,62h9a1,1,0,0,0,.99-.88L14,52.56l1.01,8.56A1,1,0,0,0,16,62H48a1,1,0,0,0,.99-.88L50,52.56l1.01,8.56A1,1,0,0,0,52,62h9a1.011,1.011,0,0,0,.76-.35.994.994,0,0,0,.23-.79ZM52.89,60l-1.9-16.12a1,1,0,0,0-1.98,0L47.11,60H16.89l-1.9-16.12a1,1,0,0,0-1.98,0L11.11,60H4.16L7.05,40.2a11.812,11.812,0,0,1,6.8-9.15.355.355,0,0,0,.09-.04A11.6,11.6,0,0,1,18.71,30H27a1,1,0,0,0,1-1V24h1v3a1,1,0,0,0,2,0V24a2.006,2.006,0,0,0-2-2H25V18h5a3.009,3.009,0,0,1,3,3v2a1,1,0,0,0,2,0V21a5,5,0,0,0-5-5H22.41l2.04-5.81c.01-.03.02-.05.03-.08A9,9,0,1,1,36.6,21.24a1.011,1.011,0,0,0-.6.92V29a1,1,0,0,0,1,1h8.29a11.6,11.6,0,0,1,4.77,1.01.412.412,0,0,0,.08.03,11.834,11.834,0,0,1,6.81,9.17L59.84,60Z"/><path d="M18,19H13a1,1,0,0,0,0,2h5a1,1,0,0,0,0-2Z"/><path d="M3,21H4a1,1,0,0,0,0-2H3a1,1,0,0,0,0,2Z"/><path d="M8,19a1,1,0,0,0,0,2H9a1,1,0,0,0,0-2Z"/><path d="M11.938,27.5a.992.992,0,0,0,.5-.134l6.063-3.5a1,1,0,1,0-1-1.732l-6.063,3.5a1,1,0,0,0,.5,1.866Z"/><path d="M3.644,30.134l-.867.5a1,1,0,1,0,1,1.732l.867-.5a1,1,0,1,0-1-1.732Z"/><path d="M7.608,30a.992.992,0,0,0,.5-.134l.867-.5a1,1,0,1,0-1-1.732l-.867.5A1,1,0,0,0,7.608,30Z"/><path d="M11.437,14.366l6.063,3.5a1,1,0,1,0,1-1.732l-6.063-3.5a1,1,0,0,0-1,1.732Z"/><path d="M2.777,9.366l.867.5a1,1,0,1,0,1-1.732l-.867-.5a1,1,0,1,0-1,1.732Z"/><path d="M7.107,11.866l.867.5a1,1,0,1,0,1-1.732l-.867-.5a1,1,0,1,0-1,1.732Z"/><path d="M41,42v1a1,1,0,0,0,2,0V42a1,1,0,0,0-2,0Z"/><path d="M39.707,50.293a1,1,0,0,0-1.414,1.414l1,1a1,1,0,0,0,1.414-1.414Z"/><circle cx="41" cy="47" r="2"/><circle cx="25" cy="50" r="2"/><path d="M22,46H21a1,1,0,0,0,0,2h1a1,1,0,0,0,0-2Z"/><path d="M22,44a1,1,0,0,0,1-1V42a1,1,0,0,0-2,0v1A1,1,0,0,0,22,44Z"/><path d="M25,40h1a1,1,0,0,0,0-2H25a1,1,0,0,0,0,2Z"/><path d="M40,39a1,1,0,0,0-1-1H38a1,1,0,0,0,0,2h1A1,1,0,0,0,40,39Z"/><circle cx="30" cy="20" r="1"/><circle cx="27" cy="20" r="1"/></g></svg>