<?xml version="1.0" ?><svg viewBox="0 0 64 64" xmlns="http://www.w3.org/2000/svg"><g id="virus-covid19-corona-lab-search"><path d="M19,12H3a1,1,0,0,0-1,1v8a1,1,0,0,0,1,1H4V55a7,7,0,0,0,14,0V22h1a1,1,0,0,0,1-1V13A1,1,0,0,0,19,12ZM16,55A5,5,0,0,1,6,55V42H16Zm0-15H6V30H16Zm0-12H6V22H16Zm2-8H4V14H6v4a1,1,0,0,0,2,0V14h2v4a1,1,0,0,0,2,0V14h2v4a1,1,0,0,0,2,0V14h2Z"/><path d="M8,34h6a1,1,0,0,0,0-2H8a1,1,0,0,0,0,2Z"/><path d="M8,38h6a1,1,0,0,0,0-2H8a1,1,0,0,0,0,2Z"/><path d="M51,18a1.993,1.993,0,0,0-1.722,1h-1.42a3.915,3.915,0,0,0-.425-1.019l1.006-1.006a2,2,0,1,0-1.414-1.414l-1.006,1.006A3.915,3.915,0,0,0,45,16.142v-1.42a2,2,0,1,0-2,0v1.42a3.915,3.915,0,0,0-1.019.425l-1.006-1.006a2,2,0,1,0-1.414,1.414l1.006,1.006A3.915,3.915,0,0,0,40.142,19h-1.42a2,2,0,1,0,0,2h1.42a3.915,3.915,0,0,0,.425,1.019l-1.006,1.006a2,2,0,1,0,1.414,1.414l1.006-1.006A3.915,3.915,0,0,0,43,23.858v1.42a2,2,0,1,0,2,0v-1.42a3.915,3.915,0,0,0,1.019-.425l1.006,1.006a2,2,0,1,0,1.414-1.414l-1.006-1.006A3.915,3.915,0,0,0,47.858,21h1.42A2,2,0,1,0,51,18Zm-7,4a2,2,0,1,1,2-2A2,2,0,0,1,44,22Z"/><path d="M62,20A18,18,0,1,0,40,37.536V42H39a1,1,0,0,0-1,1V56a6,6,0,0,0,12,0V43a1,1,0,0,0-1-1H48V37.536A18.019,18.019,0,0,0,62,20ZM28,20A16,16,0,1,1,44,36,16.019,16.019,0,0,1,28,20ZM48,56a4,4,0,0,1-8,0V44h8ZM46,42H42V37.882a17.008,17.008,0,0,0,4,0Z"/><path d="M58,20A14,14,0,1,0,44,34,14.015,14.015,0,0,0,58,20ZM32,20A12,12,0,1,1,44,32,12.013,12.013,0,0,1,32,20Z"/><path d="M30,47a1,1,0,0,1-1-1V44H21a1,1,0,0,1-1-1V39a1,1,0,0,1,1-1h8V36a1,1,0,0,1,1.64-.768l6,5a1,1,0,0,1,0,1.536l-6,5A1,1,0,0,1,30,47Zm-8-5h8a1,1,0,0,1,1,1v.865L34.438,41,31,38.135V39a1,1,0,0,1-1,1H22Z"/></g></svg>