<?xml version="1.0" ?><svg viewBox="0 0 64 64" xmlns="http://www.w3.org/2000/svg"><g id="virus-covid19-travel-coronavirus-warning"><path d="M5,8H6.184a2.746,2.746,0,0,0,.117.285l-.836.837a1,1,0,1,0,1.414,1.414L7.715,9.7A2.746,2.746,0,0,0,8,9.816V11a1,1,0,0,0,2,0V9.816a2.746,2.746,0,0,0,.285-.117l.836.837a1,1,0,0,0,1.414-1.414L11.7,8.285A2.746,2.746,0,0,0,11.816,8H13a1,1,0,0,0,0-2H11.816a2.746,2.746,0,0,0-.117-.285l.836-.837a1,1,0,0,0-1.414-1.414l-.836.837A2.746,2.746,0,0,0,10,4.184V3A1,1,0,0,0,8,3V4.184a2.746,2.746,0,0,0-.285.117l-.836-.837A1,1,0,0,0,5.465,4.878l.836.837A2.746,2.746,0,0,0,6.184,6H5A1,1,0,0,0,5,8Zm5-1A1,1,0,1,1,9,6,1,1,0,0,1,10,7Z"/><path d="M51,8h1.184a2.746,2.746,0,0,0,.117.285l-.836.837a1,1,0,1,0,1.414,1.414l.836-.837A2.746,2.746,0,0,0,54,9.816V11a1,1,0,0,0,2,0V9.816a2.746,2.746,0,0,0,.285-.117l.836.837a1,1,0,1,0,1.414-1.414L57.7,8.285A2.746,2.746,0,0,0,57.816,8H59a1,1,0,0,0,0-2H57.816a2.746,2.746,0,0,0-.117-.285l.836-.837a1,1,0,1,0-1.414-1.414l-.836.837A2.746,2.746,0,0,0,56,4.184V3a1,1,0,0,0-2,0V4.184a2.746,2.746,0,0,0-.285.117l-.836-.837a1,1,0,1,0-1.414,1.414l.836.837A2.746,2.746,0,0,0,52.184,6H51a1,1,0,0,0,0,2Zm5-1a1,1,0,1,1-1-1A1,1,0,0,1,56,7Z"/><path d="M59,20H54.97l-3.02-5.48a1,1,0,0,0-.87-.52h-.01a1.013,1.013,0,0,0-.87.51L47.13,20H45V13a5,5,0,0,0-5-5H24a5,5,0,0,0-5,5v7H5a3.009,3.009,0,0,0-3,3V55a3.009,3.009,0,0,0,3,3H9v1a3.009,3.009,0,0,0,3,3h2a3.009,3.009,0,0,0,3-3V58H47v1a3.009,3.009,0,0,0,3,3h2a3.009,3.009,0,0,0,3-3V58h4a3.009,3.009,0,0,0,3-3V23A3.009,3.009,0,0,0,59,20ZM12,22h2V56H12ZM10,56H5a1,1,0,0,1-1-1V23a1,1,0,0,1,1-1h5Zm5,3a1,1,0,0,1-1,1H12a1,1,0,0,1-1-1V58h4ZM51.07,17.06,59.31,32H42.71ZM52,34V56H50V34ZM21,13a3.009,3.009,0,0,1,3-3H40a3.009,3.009,0,0,1,3,3v7H41V13a1,1,0,0,0-1-1H24a1,1,0,0,0-1,1v7H21Zm18,1v6H25V14Zm9,42H16V22H46.01L40.13,32.51a.994.994,0,0,0,.01,1A1.012,1.012,0,0,0,41,34h7Zm5,3a1,1,0,0,1-1,1H50a1,1,0,0,1-1-1V58h4Zm7-4a1,1,0,0,1-1,1H54V34h6Zm0-25.88L56.08,22H59a1,1,0,0,1,1,1Z"/><path d="M51,27a1,1,0,0,0,1-1V22a1,1,0,0,0-2,0v4A1,1,0,0,0,51,27Z"/><path d="M51,31a1,1,0,0,0,1-1V29a1,1,0,0,0-2,0v1A1,1,0,0,0,51,31Z"/><path d="M27,26H19a1,1,0,0,0-1,1v4a1,1,0,0,0,1,1h8a1,1,0,0,0,1-1V27A1,1,0,0,0,27,26Zm-1,4H20V28h6Z"/><path d="M24,35a4,4,0,1,0,4,4A4,4,0,0,0,24,35Zm0,6a2,2,0,1,1,2-2A2,2,0,0,1,24,41Z"/><path d="M38,41v4a1,1,0,0,0,1,1h4a1,1,0,0,0,1-1V41a1,1,0,0,0-1-1H39A1,1,0,0,0,38,41Zm2,1h2v2H40Z"/><path d="M39.689,48.105l-2.53-1.264L35.9,44.31a1.042,1.042,0,0,0-1.79,0l-1.264,2.531-2.53,1.264a1,1,0,0,0,0,1.79l2.53,1.264L34.1,53.69a1,1,0,0,0,1.79,0l1.264-2.531,2.53-1.264a1,1,0,0,0,0-1.79ZM35.967,49.52a.987.987,0,0,0-.447.447L35,51.006l-.52-1.039a.987.987,0,0,0-.447-.447L32.994,49l1.039-.52a.987.987,0,0,0,.447-.447L35,46.994l.52,1.039a.987.987,0,0,0,.447.447l1.039.52Z"/></g></svg>