<?xml version="1.0" ?><svg viewBox="0 0 64 64" xmlns="http://www.w3.org/2000/svg"><g id="virus-covid19-corona-hand-drug"><path d="M58.42,35.9a4.047,4.047,0,0,0-5.47-1.47l-10.04,5.8A3.916,3.916,0,0,0,41.66,38a4.041,4.041,0,0,0-2.67-1H30.83a.99.99,0,0,1-.71-.29l-.24-.25A4.988,4.988,0,0,0,26.35,35s-7.99.01-8.19.02a5.1,5.1,0,0,0-3.04,1.44L12.5,39.09l-.93-.94a1.008,1.008,0,0,0-1.42,0L2.49,45.8a1.033,1.033,0,0,0-.29.71,1.052,1.052,0,0,0,.29.71L16.63,61.37a1.033,1.033,0,0,0,.71.29,1.052,1.052,0,0,0,.71-.29l7.66-7.66a1.008,1.008,0,0,0,0-1.42l-.8-.79.21-.21a.99.99,0,0,1,.71-.29h13.1a4.9,4.9,0,0,0,2.5-.67l15.52-8.96a4.019,4.019,0,0,0,1.47-5.47ZM17.34,59.25,4.61,46.51l6.25-6.24L23.59,53ZM55.95,39.63,40.42,48.6a2.942,2.942,0,0,1-1.49.4H25.83a2.956,2.956,0,0,0-2.12.88l-.21.21L13.91,40.5l2.63-2.62a2.936,2.936,0,0,1,1.8-.86c.11-.01,8.01-.02,8.01-.02a2.933,2.933,0,0,1,2.11.88l.25.24a2.956,2.956,0,0,0,2.12.88h8.16a2.02,2.02,0,0,1,1.34.5,1.912,1.912,0,0,1,.66,1.28,1.785,1.785,0,0,1-.13.92,1.862,1.862,0,0,1-.45.71A1.983,1.983,0,0,1,39,43H32.42a1,1,0,0,0,0,2H39a4,4,0,0,0,2.83-1.17,3.911,3.911,0,0,0,.78-1.12l11.34-6.54a1.991,1.991,0,0,1,1.91-.04,1.85,1.85,0,0,1,.82.77,1.949,1.949,0,0,1,.27,1A1.97,1.97,0,0,1,55.95,39.63Z"/><path d="M43,18a5,5,0,0,0-5,5v8a5,5,0,0,0,10,0V23A5,5,0,0,0,43,18Zm3,13a3,3,0,0,1-6,0V28h6Zm0-5H40V23a3,3,0,0,1,6,0Z"/><path d="M34.36,17.29l-5.65-5.65a5,5,0,0,0-7.07,7.07l5.65,5.65a5,5,0,0,0,7.07-7.07Zm-11.31,0a3,3,0,1,1,4.24-4.24l2.12,2.12-4.24,4.24Zm9.9,5.66a3,3,0,0,1-4.24,0l-2.12-2.12,4.24-4.24,2.12,2.12A3,3,0,0,1,32.95,22.95Z"/><path d="M60.36,3.64a5,5,0,0,0-7.07,0L47.64,9.29a5,5,0,0,0,0,7.07,4.985,4.985,0,0,0,7.07,0l5.65-5.65A5,5,0,0,0,60.36,3.64ZM53.29,14.95a3,3,0,0,1-4.24-4.24l2.12-2.12,4.24,4.24Zm5.66-5.66-2.12,2.12L52.59,7.17l2.12-2.12a3,3,0,0,1,4.24,4.24Z"/></g></svg>