<?xml version="1.0" ?><svg viewBox="0 0 64 64" xmlns="http://www.w3.org/2000/svg"><g id="virus-covid19-corona-hand-coronavirus"><path d="M39,30a1.993,1.993,0,0,0-1.722,1h-1.42a3.915,3.915,0,0,0-.425-1.019l1.006-1.006a2.015,2.015,0,0,0,.51.074,2.006,2.006,0,1,0-1.923-1.489l-1.007,1.007A3.915,3.915,0,0,0,33,28.142v-1.42a2,2,0,1,0-2,0v1.42a3.915,3.915,0,0,0-1.019.425L28.975,27.56a2,2,0,0,0-.509-1.923h0a2,2,0,1,0-1.415,3.413,2.022,2.022,0,0,0,.511-.074l1.006,1.006A3.915,3.915,0,0,0,28.142,31h-1.42a2,2,0,1,0,0,2h1.42a3.915,3.915,0,0,0,.425,1.019l-1,1.006a2,2,0,1,0,1.412,1.415l1.007-1.007A3.915,3.915,0,0,0,31,35.858v1.42a2,2,0,1,0,2,0v-1.42a3.915,3.915,0,0,0,1.019-.425l1.006,1.007a2,2,0,0,0,.509,1.923h0a2,2,0,1,0,.9-3.339l-1.006-1.006A3.915,3.915,0,0,0,35.858,33h1.42A2,2,0,1,0,39,30Zm-7,4a2,2,0,1,1,2-2A2,2,0,0,1,32,34Z"/><path d="M60,18V15h1a1,1,0,0,0,1-1V3a1,1,0,0,0-2,0V13H42V3a1,1,0,0,0-2,0V14a1,1,0,0,0,1,1h1v3a1,1,0,0,0,1,1v3.34a3,3,0,0,1-.88,2.12l-.45.46A11.949,11.949,0,0,0,24,23.08V21a2.954,2.954,0,0,0-.87-2.11A3.066,3.066,0,0,0,20,18.17V18a2.954,2.954,0,0,0-.87-2.11A3.066,3.066,0,0,0,16,15.17V14a3.022,3.022,0,0,0-3.27-2.99A3.087,3.087,0,0,0,10,14.11v.06a3.009,3.009,0,0,0-1.27-.16A3.087,3.087,0,0,0,6,17.11v6.06A3,3,0,0,0,5,23H4a2.006,2.006,0,0,0-2,2V37.34a5.036,5.036,0,0,0,1.46,3.54l.66.66A3,3,0,0,1,5,43.66V47a1,1,0,0,0-1,1v3H3a1,1,0,0,0-1,1v9a1,1,0,0,0,2,0V53H22v8a1,1,0,0,0,2,0V52a1,1,0,0,0-1-1H22V48a1,1,0,0,0-1-1V43.66a3,3,0,0,1,.88-2.12l.66-.66a4.689,4.689,0,0,0,.62-.79A11.939,11.939,0,0,0,40,40.92V41a2.006,2.006,0,0,0,2,2h1a3,3,0,0,0,1-.17v6.06a3.087,3.087,0,0,0,2.72,3.1A3.035,3.035,0,0,0,48,51.83v.06a3.087,3.087,0,0,0,2.72,3.1c.1.01.2.01.29.01a2.924,2.924,0,0,0,2.1-.87A2.971,2.971,0,0,0,54,52V50.83a3.1,3.1,0,0,0,3.11-.7A2.971,2.971,0,0,0,58,48v-.17a3.1,3.1,0,0,0,3.11-.7A2.971,2.971,0,0,0,62,45V28.66a5.036,5.036,0,0,0-1.46-3.54l-.66-.66A3,3,0,0,1,59,22.34V19A1,1,0,0,0,60,18ZM44,15H58v2H44ZM20,51H6V49H20Zm1.83-12.67a2.926,2.926,0,0,1-.71,1.13l-.66.66A5.036,5.036,0,0,0,19,43.66V47H7V43.66a5.036,5.036,0,0,0-1.46-3.54l-.66-.66A3,3,0,0,1,4,37.34V25H5a1,1,0,0,1,1,1v3a1,1,0,0,0,1,1,3.009,3.009,0,0,1,3,3,1,1,0,0,0,2,0,5.009,5.009,0,0,0-4-4.9V17.11a1.073,1.073,0,0,1,.92-1.1.938.938,0,0,1,.79.3A.928.928,0,0,1,10,17v9a1,1,0,0,0,2,0V14.11a1.073,1.073,0,0,1,.92-1.1.91.91,0,0,1,.79.3A.928.928,0,0,1,14,14V26a1,1,0,0,0,2,0V18a1,1,0,0,1,1-1,.949.949,0,0,1,.71.31A.928.928,0,0,1,18,18v8a1,1,0,0,0,2,0V21a1,1,0,0,1,1-1,.949.949,0,0,1,.71.31A.928.928,0,0,1,22,21v4.38a11.91,11.91,0,0,0-.17,12.95ZM32,42A10,10,0,1,1,42,32,10.016,10.016,0,0,1,32,42ZM59.12,26.54A3,3,0,0,1,60,28.66V45a.949.949,0,0,1-.31.71A.928.928,0,0,1,59,46a1,1,0,0,1-1-1V40a1,1,0,0,0-2,0v8a.949.949,0,0,1-.31.71A.928.928,0,0,1,55,49a1,1,0,0,1-1-1V40a1,1,0,0,0-2,0V52a.976.976,0,0,1-.3.71.962.962,0,0,1-.79.28,1.074,1.074,0,0,1-.91-1.1V40a1,1,0,0,0-2,0v9a.976.976,0,0,1-.3.71.962.962,0,0,1-.79.28,1.074,1.074,0,0,1-.91-1.1V37.9A5.009,5.009,0,0,0,50,33a1,1,0,0,0-2,0,3.009,3.009,0,0,1-3,3,1,1,0,0,0-1,1v3a1,1,0,0,1-1,1H42V38.62a11.9,11.9,0,0,0,.74-11.93c.05-.05.09-.1.14-.15l.66-.66A5.036,5.036,0,0,0,45,22.34V19H57v3.34a5.036,5.036,0,0,0,1.46,3.54Z"/><path d="M41,51H39.858a3.915,3.915,0,0,0-.425-1.019l.809-.81a1,1,0,0,0-1.414-1.414l-.809.81A3.915,3.915,0,0,0,37,48.142V47a1,1,0,0,0-2,0v1.142a3.915,3.915,0,0,0-1.019.425l-.809-.81a1,1,0,1,0-1.414,1.414l.809.81A3.915,3.915,0,0,0,32.142,51H31a1,1,0,0,0,0,2h1.142a3.915,3.915,0,0,0,.425,1.019l-.809.81a1,1,0,1,0,1.414,1.414l.809-.81A3.915,3.915,0,0,0,35,55.858V57a1,1,0,0,0,2,0V55.858a3.915,3.915,0,0,0,1.019-.425l.809.81a1,1,0,0,0,1.414-1.414l-.809-.81A3.915,3.915,0,0,0,39.858,53H41a1,1,0,0,0,0-2Zm-5,3a2,2,0,1,1,2-2A2,2,0,0,1,36,54Z"/><path d="M23,11h1.142a3.915,3.915,0,0,0,.425,1.019l-.809.81a1,1,0,1,0,1.414,1.414l.809-.81A3.915,3.915,0,0,0,27,13.858V15a1,1,0,0,0,2,0V13.858a3.915,3.915,0,0,0,1.019-.425l.809.81a1,1,0,0,0,1.414-1.414l-.809-.81A3.915,3.915,0,0,0,31.858,11H33a1,1,0,0,0,0-2H31.858a3.915,3.915,0,0,0-.425-1.019l.809-.81a1,1,0,0,0-1.414-1.414l-.809.81A3.915,3.915,0,0,0,29,6.142V5a1,1,0,0,0-2,0V6.142a3.915,3.915,0,0,0-1.019.425l-.809-.81a1,1,0,0,0-1.414,1.414l.809.81A3.915,3.915,0,0,0,24.142,9H23a1,1,0,0,0,0,2Zm5-3a2,2,0,1,1-2,2A2,2,0,0,1,28,8Z"/></g></svg>