<?xml version="1.0" ?><svg viewBox="0 0 64 64" xmlns="http://www.w3.org/2000/svg"><g id="virus-covid19-corona-eye-coronavirus"><path d="M34.816,55h1.462a2,2,0,1,0,0-2H34.816a2.746,2.746,0,0,0-.117-.285l1.033-1.033a2.022,2.022,0,0,0,.511.074,1.988,1.988,0,0,0,1.414-.585h0a2,2,0,1,0-3.34-.9L33.285,51.3A2.746,2.746,0,0,0,33,51.184V49.722a2,2,0,1,0-2,0v1.462a2.746,2.746,0,0,0-.285.117l-1.033-1.033a1.993,1.993,0,1,0-1.925,1.488,2.016,2.016,0,0,0,.511-.074L29.3,52.715a2.746,2.746,0,0,0-.117.285H27.722a2,2,0,1,0,0,2h1.462a2.746,2.746,0,0,0,.117.285l-1.033,1.033a2,2,0,1,0,1.414,1.414L30.715,56.7a2.746,2.746,0,0,0,.285.117v1.462a2,2,0,1,0,2,0V56.816a2.746,2.746,0,0,0,.285-.117l1.033,1.033a2,2,0,1,0,1.413-1.414L34.7,55.285A2.746,2.746,0,0,0,34.816,55ZM33,54a1,1,0,1,1-1-1A1,1,0,0,1,33,54Z"/><path d="M32,34A11,11,0,1,1,43,23,11.013,11.013,0,0,1,32,34Zm0-20a9,9,0,1,0,9,9A9.011,9.011,0,0,0,32,14Z"/><path d="M32,38C23.507,38,3.3,24.407,2.44,23.829a1,1,0,0,1,0-1.658C3.3,21.593,23.507,8,32,8S60.7,21.593,61.56,22.171a1,1,0,0,1,0,1.658C60.7,24.407,40.493,38,32,38ZM4.815,23C9.392,25.984,25.256,36,32,36S54.607,25.985,59.185,23C54.608,20.016,38.744,10,32,10S9.393,20.015,4.815,23Z"/><path d="M61,16a.987.987,0,0,1-.5-.135C60.294,15.747,39.921,4,32,4S3.706,15.747,3.5,15.865a1,1,0,1,1-1-1.73C3.354,13.639,23.544,2,32,2S60.646,13.639,61.5,14.135A1,1,0,0,1,61,16Z"/><path d="M32,28a5,5,0,1,1,5-5A5.006,5.006,0,0,1,32,28Zm0-8a3,3,0,1,0,3,3A3,3,0,0,0,32,20Z"/><path d="M55.886,32.874a1,1,0,0,1-.914-.594c-.125-.28-.263-.558-.41-.832a1,1,0,0,1,1.764-.944q.255.476.472.963a1,1,0,0,1-.912,1.407Z"/><path d="M47.325,51.676a1,1,0,0,1-.473-1.881c.542-.292,1.073-.6,1.578-.926a1,1,0,1,1,1.078,1.683c-.547.351-1.123.689-1.711,1.005A1,1,0,0,1,47.325,51.676Zm4.668-3.283a1,1,0,0,1-.678-1.735c.452-.417.877-.85,1.266-1.288a1,1,0,0,1,1.5,1.326,19.5,19.5,0,0,1-1.406,1.432A1,1,0,0,1,51.993,48.393Zm3.51-4.482a1,1,0,0,1-.885-1.464,12.442,12.442,0,0,0,.71-1.616,1,1,0,0,1,1.885.672,14.67,14.67,0,0,1-.823,1.872A1,1,0,0,1,55.5,43.911Zm1.49-5.473h-.034a1,1,0,0,1-.966-1.033c0-.135.007-.27.007-.405a11.346,11.346,0,0,0-.081-1.347,1,1,0,0,1,1.986-.237A13.422,13.422,0,0,1,58,37c0,.158,0,.315-.009.472A1,1,0,0,1,56.993,38.438Z"/><path d="M42.889,53.584a1,1,0,0,1-.319-1.948c.308-.1.614-.211.913-.323a1,1,0,1,1,.7,1.874c-.322.12-.647.234-.976.345A1.008,1.008,0,0,1,42.889,53.584Z"/><path d="M3.21,61.79A1,1,0,0,1,2.5,60.083l1.414-1.415a1,1,0,0,1,1.415,1.415L3.917,61.5A1,1,0,0,1,3.21,61.79Zm4.36-4.115a1,1,0,0,1-.589-1.809A15.1,15.1,0,0,1,8.8,54.734,1,1,0,0,1,9.732,56.5a13.077,13.077,0,0,0-1.575.981A1,1,0,0,1,7.57,57.675Zm5.448-2.4a1,1,0,0,1-.2-1.98,15.124,15.124,0,0,1,2.124-.275,1,1,0,1,1,.113,2,13.2,13.2,0,0,0-1.839.238A.976.976,0,0,1,13.018,55.279ZM21,55H19a1,1,0,0,1,0-2h2a1,1,0,0,1,0,2Z"/></g></svg>