<?xml version="1.0" ?><svg viewBox="0 0 64 64" xmlns="http://www.w3.org/2000/svg"><g id="virus-covid19-corona-dead-rip"><path d="M56,44a1.993,1.993,0,0,0-1.722,1H52.9a4.961,4.961,0,0,0-.732-1.753l.978-.978a1.95,1.95,0,0,0,1.926-.512h0a2,2,0,0,0,0-2.827,2.047,2.047,0,0,0-2.828,0,1.95,1.95,0,0,0-.512,1.926l-.978.978A4.961,4.961,0,0,0,49,41.1V39.722a2,2,0,1,0-2,0V41.1a4.961,4.961,0,0,0-1.753.732l-.978-.978a1.95,1.95,0,0,0-.512-1.926h0a2.047,2.047,0,0,0-2.827,0,1.989,1.989,0,0,0,1.925,3.34l.978.978A4.961,4.961,0,0,0,43.1,45H41.722a2,2,0,1,0,0,2H43.1a4.961,4.961,0,0,0,.732,1.753l-.99.99a2.034,2.034,0,0,0-1.914.5h0a2.012,2.012,0,1,0,3.34.9l.978-.978A4.961,4.961,0,0,0,47,50.9v1.379a2,2,0,1,0,2,0V50.9a4.961,4.961,0,0,0,1.753-.732l.978.978a1.95,1.95,0,0,0,.512,1.926h0a2,2,0,1,0,2.828-2.828,2.033,2.033,0,0,0-1.914-.5l-.99-.99A4.961,4.961,0,0,0,52.9,47h1.379A2,2,0,1,0,56,44Zm-8,5a3,3,0,1,1,3-3A3,3,0,0,1,48,49Z"/><path d="M37.606,20.4,31.17,8.523A1,1,0,0,0,30.291,8H15.709a1,1,0,0,0-.879.523L8.394,20.4a1,1,0,0,0-.1.7L15.989,55.22a1,1,0,0,0,.976.78h12.07a1,1,0,0,0,.976-.78L37.7,21.094A1,1,0,0,0,37.606,20.4ZM28.235,54H17.765L10.332,21.021,16.3,10H29.7l5.972,11.021Z"/><path d="M26,13a1,1,0,0,0-1-1H21a1,1,0,0,0-1,1v5H15a1,1,0,0,0-1,1v4a1,1,0,0,0,1,1h5v9a1,1,0,0,0,1,1h4a1,1,0,0,0,1-1V24h5a1,1,0,0,0,1-1V19a1,1,0,0,0-1-1H26Zm4,7v2H25a1,1,0,0,0-1,1v9H22V23a1,1,0,0,0-1-1H16V20h5a1,1,0,0,0,1-1V14h2v5a1,1,0,0,0,1,1Z"/><path d="M48,32a13.9,13.9,0,0,0-7.03,1.912l3.007-13.7a1,1,0,0,0-.093-.682l-9-17A1,1,0,0,0,34,2H12a1,1,0,0,0-.884.532l-9,17a1,1,0,0,0-.093.682l9,41A1,1,0,0,0,12,62H34a1,1,0,0,0,.977-.786l1.576-7.18A13.994,13.994,0,1,0,48,32ZM33.2,60H12.8L4.055,20.144,12.6,4H33.4l8.547,16.144-3.42,15.579A13.945,13.945,0,0,0,35.085,51.4ZM48,58A12,12,0,1,1,60,46,12.013,12.013,0,0,1,48,58Z"/></g></svg>