<?xml version="1.0" ?><svg viewBox="0 0 64 64" xmlns="http://www.w3.org/2000/svg"><g id="virus-covid19-corona-cough-breath"><path d="M24.105,21.447a1,1,0,0,0,1.342.448l4-2a1,1,0,0,0,0-1.79l-4-2a1,1,0,1,0-.894,1.79L26.764,19l-2.211,1.105A1,1,0,0,0,24.105,21.447Z"/><rect height="2" width="2" x="44" y="27"/><rect height="2" width="2" x="44" y="31"/><rect height="2" width="2" x="44" y="35"/><rect height="2" width="2" x="44" y="39"/><rect height="2" width="2" x="41" y="29"/><rect height="2" width="2" x="41" y="33"/><rect height="2" width="2" x="41" y="37"/><rect height="2" width="2" x="38" y="31"/><rect height="2" width="2" x="38" y="35"/><rect height="2" width="2" x="35" y="33"/><rect height="2" width="2" x="32" y="35"/><rect height="2" width="2" x="35" y="37"/><rect height="2" width="2" x="38" y="39"/><rect height="2" width="2" x="41" y="41"/><rect height="2" width="2" x="44" y="43"/><path d="M60.47,52.29A4.945,4.945,0,0,0,61,50.06V36.54a2.952,2.952,0,0,0-.4-1.5l-7.73-13.4a3.006,3.006,0,0,0-4.1-1.1,3,3,0,0,0-1.1,4.1l3.71,6.43A2.993,2.993,0,0,0,49,34v5.7l-.13.2a10.969,10.969,0,0,0,0,12.2l.13.2V54H48a1,1,0,0,0-1,1v6a1,1,0,0,0,1,1H60a1,1,0,0,0,1-1V55a1,1,0,0,0-1-1v-.76ZM59,60H49V56H59Zm0-9.94a3,3,0,0,1-.32,1.34l-.57,1.15A1,1,0,0,0,58,53v1H51V52a.967.967,0,0,0-.17-.55l-.3-.46a8.975,8.975,0,0,1,0-9.98l.3-.46A.967.967,0,0,0,51,40V34a1,1,0,0,1,1-1,.959.959,0,0,1,.68.28h.01c0,.01.03.03.03.04A.977.977,0,0,1,53,34v6a1,1,0,0,0,2,0V34a2.974,2.974,0,0,0-.76-1.98L49.4,23.63a.957.957,0,0,1-.1-.74,1.009,1.009,0,0,1,.47-.62,1.021,1.021,0,0,1,1.36.37l7.74,13.41a.9.9,0,0,1,.13.49Z"/><path d="M29,50H27V44h5a1,1,0,0,0,1-1V39a1,1,0,0,0-1-1H28a1.983,1.983,0,0,1-1.41-.59A2.018,2.018,0,0,1,26,35.85,2.139,2.139,0,0,1,28.17,34H32a1,1,0,0,0,1-1V31h3a.983.983,0,0,0,.81-.42,1,1,0,0,0,.14-.9L34,20.84V15a4.975,4.975,0,0,0-1.22-3.24A7.006,7.006,0,0,0,38,5V3a1,1,0,0,0-1-1H13A11.007,11.007,0,0,0,2,13V29.2a15.051,15.051,0,0,0,3.16,9.2L9,43.34V50H5a3.009,3.009,0,0,0-3,3v8a1,1,0,0,0,2,0V53a1,1,0,0,1,1-1H29a9.014,9.014,0,0,1,9,9,1,1,0,0,0,2,0A11.007,11.007,0,0,0,29,50ZM9,40.08l-2.26-2.9A13.069,13.069,0,0,1,4,29.2V13a9.014,9.014,0,0,1,9-9H36V5a5,5,0,0,1-5,5H13a4,4,0,0,0-4,4v6.17A3.014,3.014,0,0,0,7,23v5a3.014,3.014,0,0,0,2,2.83ZM18,42a1,1,0,0,0,0,2h7v6H11V31h1a1,1,0,0,0,0-2H10a1,1,0,0,1-1-1V23a.949.949,0,0,1,.31-.71A.928.928,0,0,1,10,22h2a1,1,0,0,0,0-2H11V14a2.006,2.006,0,0,1,2-2H29a3.009,3.009,0,0,1,3,3v6a1.185,1.185,0,0,0,.05.32L34.61,29H32a1,1,0,0,0-1,1v2H28.17a4.111,4.111,0,0,0-4.16,3.71A4,4,0,0,0,28,40h3v2Z"/></g></svg>