<?xml version="1.0" ?><svg viewBox="0 0 64 64" xmlns="http://www.w3.org/2000/svg"><g id="virus-covid19-corona-coronavirus-location"><path d="M32,2A22.025,22.025,0,0,0,10,24c0,11.822,20.362,36.589,21.229,37.637a1,1,0,0,0,1.542,0C33.638,60.589,54,35.822,54,24A22.025,22.025,0,0,0,32,2Zm0,57.411C28.237,54.714,12,33.872,12,24a20,20,0,0,1,40,0C52,33.87,35.763,54.713,32,59.411Z"/><path d="M32,7A16,16,0,1,0,48,23,16.019,16.019,0,0,0,32,7Zm0,30A14,14,0,1,1,46,23,14.015,14.015,0,0,1,32,37Z"/><path d="M42,21a1.993,1.993,0,0,0-1.722,1H38.92A6.947,6.947,0,0,0,37.6,18.816l.963-.963a1.943,1.943,0,0,0,1.924-.509h0a2,2,0,1,0-3.339-.9l-.963.963A6.947,6.947,0,0,0,33,16.08V14.722a2,2,0,1,0-2,0V16.08A6.947,6.947,0,0,0,27.816,17.4l-.963-.963a1.993,1.993,0,0,0-.509-1.924h0a2.015,2.015,0,1,0-.9,3.339l.963.963A6.947,6.947,0,0,0,25.08,22H23.722a2,2,0,1,0,0,2H25.08A6.947,6.947,0,0,0,26.4,27.184l-.963.963a2,2,0,0,0-1.924.509h0a2,2,0,1,0,3.339.9l.963-.963A6.947,6.947,0,0,0,31,29.92v1.358a2,2,0,1,0,2,0V29.92A6.947,6.947,0,0,0,36.184,28.6l.963.963a1.993,1.993,0,0,0,.509,1.924h0a2,2,0,1,0,.9-3.339l-.963-.963A6.947,6.947,0,0,0,38.92,24h1.358A2,2,0,1,0,42,21ZM32,28a5,5,0,1,1,5-5A5.006,5.006,0,0,1,32,28Z"/><circle cx="30" cy="22" r="2"/><circle cx="34" cy="24" r="2"/></g></svg>