<?xml version="1.0" ?><svg viewBox="0 0 64 64" xmlns="http://www.w3.org/2000/svg"><g id="virus-covid19-corona-coronavirus-cell"><path d="M58,28a4,4,0,0,0-3.858,3H50.949A18.892,18.892,0,0,0,46.1,19.312l2.262-2.262a4,4,0,1,0-1.414-1.414L44.688,17.9A18.892,18.892,0,0,0,33,13.051V9.858a4,4,0,1,0-2,0v3.193A18.892,18.892,0,0,0,19.312,17.9L17.05,15.636a4,4,0,1,0-1.414,1.414L17.9,19.312A18.892,18.892,0,0,0,13.051,31H9.858a4,4,0,1,0,0,2h3.193A18.892,18.892,0,0,0,17.9,44.688L15.636,46.95a4,4,0,1,0,1.414,1.414L19.312,46.1A18.892,18.892,0,0,0,31,50.949v3.193a4,4,0,1,0,2,0V50.949A18.892,18.892,0,0,0,44.688,46.1l2.262,2.262a4,4,0,1,0,1.414-1.414L46.1,44.688A18.892,18.892,0,0,0,50.949,33h3.193A3.993,3.993,0,1,0,58,28ZM6,34a2,2,0,1,1,2-2A2,2,0,0,1,6,34ZM48.971,12.2a2,2,0,1,1,0,2.828A2,2,0,0,1,48.971,12.2ZM30,6a2,2,0,1,1,2,2A2,2,0,0,1,30,6ZM12.2,15.029a2,2,0,1,1,2.828,0A2,2,0,0,1,12.2,15.029ZM32,15A17,17,0,1,1,15,32,17.019,17.019,0,0,1,32,15ZM15.029,51.8a2,2,0,1,1,0-2.828A2,2,0,0,1,15.029,51.8ZM34,58a2,2,0,1,1-2-2A2,2,0,0,1,34,58Zm17.8-9.029a2,2,0,1,1-2.828,0A2,2,0,0,1,51.8,48.971ZM58,34a2,2,0,1,1,2-2A2,2,0,0,1,58,34Z"/><path d="M32,25a3,3,0,1,0-3-3A3,3,0,0,0,32,25Zm0-4a1,1,0,1,1-1,1A1,1,0,0,1,32,21Z"/><path d="M25.938,28.5a3,3,0,1,0-4.1,1.1A3,3,0,0,0,25.938,28.5Zm-3.464-2a1,1,0,1,1,.366,1.366A1,1,0,0,1,22.474,26.5Z"/><path d="M25.938,35.5a3,3,0,1,0-1.1,4.1A3,3,0,0,0,25.938,35.5Zm-3.464,2a1,1,0,1,1,1.366.366A1,1,0,0,1,22.474,37.5Z"/><path d="M32,39a3,3,0,1,0,3,3A3,3,0,0,0,32,39Zm0,4a1,1,0,1,1,1-1A1,1,0,0,1,32,43Z"/><path d="M38.062,35.5a3,3,0,1,0,4.1-1.1A3,3,0,0,0,38.062,35.5Zm3.464,2a1,1,0,1,1-.366-1.366A1,1,0,0,1,41.526,37.5Z"/><path d="M38.062,28.5a3,3,0,1,0,1.1-4.1A3,3,0,0,0,38.062,28.5Zm3.464-2a1,1,0,1,1-1.366-.366A1,1,0,0,1,41.526,26.5Z"/><path d="M32,35a3,3,0,1,0-3-3A3,3,0,0,0,32,35Zm0-4a1,1,0,1,1-1,1A1,1,0,0,1,32,31Z"/></g></svg>