<?xml version="1.0" ?><svg viewBox="0 0 64 64" xmlns="http://www.w3.org/2000/svg"><g id="virus-covid19-corona-clean-handwash"><path d="M57,40H56a3.989,3.989,0,0,0-2,.54V33.11a3.073,3.073,0,0,0-2.74-3.1,2.97,2.97,0,0,0-1.39.21,3.048,3.048,0,0,0-2.61-2.21,3,3,0,0,0-2.37.86,3.063,3.063,0,0,0-.79,1.34,3.067,3.067,0,0,0-3.21.66A2.971,2.971,0,0,0,40,33v1.17a3.072,3.072,0,0,0-3.11.7A2.971,2.971,0,0,0,36,37V51.34a4.994,4.994,0,0,0,1.46,3.54l.66.66A3,3,0,0,1,39,57.66V61a1,1,0,0,0,1,1H54a1,1,0,0,0,1-1V57.66a3,3,0,0,1,.88-2.12l.66-.66A4.994,4.994,0,0,0,58,51.34V41A1,1,0,0,0,57,40ZM56,51.34a3,3,0,0,1-.88,2.12l-.66.66A4.994,4.994,0,0,0,53,57.66V60H41V57.66a4.994,4.994,0,0,0-1.46-3.54l-.66-.66A3,3,0,0,1,38,51.34V37a.949.949,0,0,1,.31-.71A.928.928,0,0,1,39,36a1,1,0,0,1,1,1v6a1,1,0,0,0,2,0V33a.949.949,0,0,1,.31-.71A.928.928,0,0,1,43,32a1,1,0,0,1,1,1V43a1,1,0,0,0,2,0V31a.949.949,0,0,1,.31-.71.926.926,0,0,1,.78-.29A1.092,1.092,0,0,1,48,31.11V43a1,1,0,0,0,2,0V33a1.028,1.028,0,0,1,1.09-1A1.092,1.092,0,0,1,52,33.11V46.1A5.009,5.009,0,0,0,48,51v1a1,1,0,0,0,2,0V51a3.009,3.009,0,0,1,3-3,1,1,0,0,0,1-1V44a2.006,2.006,0,0,1,2-2Z"/><path d="M27.13,34.89A3.066,3.066,0,0,0,24,34.17V33a2.954,2.954,0,0,0-.87-2.11,3.061,3.061,0,0,0-3.23-.68,2.942,2.942,0,0,0-.77-1.32,2.989,2.989,0,0,0-2.39-.88,3.037,3.037,0,0,0-2.61,2.21,2.97,2.97,0,0,0-1.39-.21A3.073,3.073,0,0,0,10,33.11v7.43A3.989,3.989,0,0,0,8,40H7a1,1,0,0,0-1,1V51.34a4.994,4.994,0,0,0,1.46,3.54l.66.66A3,3,0,0,1,9,57.66V61a1,1,0,0,0,1,1H24a1,1,0,0,0,1-1V57.66a3,3,0,0,1,.88-2.12l.66-.66A4.994,4.994,0,0,0,28,51.34V37A2.954,2.954,0,0,0,27.13,34.89ZM26,51.34a3,3,0,0,1-.88,2.12l-.66.66A4.994,4.994,0,0,0,23,57.66V60H11V57.66a4.994,4.994,0,0,0-1.46-3.54l-.66-.66A3,3,0,0,1,8,51.34V42a2.006,2.006,0,0,1,2,2v3a1,1,0,0,0,1,1,3.009,3.009,0,0,1,3,3v1a1,1,0,0,0,2,0V51a5.009,5.009,0,0,0-4-4.9V33.11A1.092,1.092,0,0,1,12.91,32a.985.985,0,0,1,.8.31A.928.928,0,0,1,14,33V43a1,1,0,0,0,2,0V31.11A1.092,1.092,0,0,1,16.91,30a.985.985,0,0,1,.8.31A.928.928,0,0,1,18,31V43a1,1,0,0,0,2,0V33a1,1,0,0,1,1-1,.949.949,0,0,1,.71.31A.928.928,0,0,1,22,33V43a1,1,0,0,0,2,0V37a1,1,0,0,1,1-1,.949.949,0,0,1,.71.31A.928.928,0,0,1,26,37Z"/><path d="M61,3a1,1,0,0,0-1,1V8H51.47A6.07,6.07,0,0,0,48,6.09V4h3a1,1,0,0,0,0-2H43a1,1,0,0,0,0,2h3V6.09A6.07,6.07,0,0,0,42.53,8H37a9.014,9.014,0,0,0-9,9v3H27a1,1,0,0,0-1,1v3a1,1,0,0,0,1,1H37a1,1,0,0,0,1-1V21a1,1,0,0,0-1-1H36V17a1,1,0,0,1,1-1h5.53a6,6,0,0,0,8.94,0H60v4a1,1,0,0,0,2,0V4A1,1,0,0,0,61,3ZM36,23H28V22h8Zm24-9H51a1.014,1.014,0,0,0-.8.4,4,4,0,0,1-6.4,0A1.014,1.014,0,0,0,43,14H37a3.009,3.009,0,0,0-3,3v3H30V17a7.008,7.008,0,0,1,7-7h6a1.014,1.014,0,0,0,.8-.4,4,4,0,0,1,6.4,0,1.014,1.014,0,0,0,.8.4h9Z"/><path d="M32.744,26.332a1.031,1.031,0,0,0-1.488,0C30.712,26.938,28,30.059,28,32a4,4,0,0,0,8,0C36,30.059,33.288,26.938,32.744,26.332ZM32,34a2,2,0,0,1-2-2c0-.637.939-2.125,2-3.451,1.062,1.332,2,2.831,2,3.451A2,2,0,0,1,32,34Z"/></g></svg>