<?xml version="1.0" ?><svg viewBox="0 0 64 64" xmlns="http://www.w3.org/2000/svg"><g id="people-virus-protection-distance-covid19"><path d="M44.71,17.29l-5-5a1,1,0,0,0-1.09-.21A.987.987,0,0,0,38,13v2H26V13a.987.987,0,0,0-.62-.92,1,1,0,0,0-1.09.21l-5,5a1.008,1.008,0,0,0,0,1.42l5,5a1,1,0,0,0,1.09.21A.987.987,0,0,0,26,23V21H38v2a.987.987,0,0,0,.62.92A.838.838,0,0,0,39,24a1.007,1.007,0,0,0,.71-.29l5-5A1.008,1.008,0,0,0,44.71,17.29ZM40,20.59V20a1,1,0,0,0-1-1H25a1,1,0,0,0-1,1v.59L21.41,18,24,15.41V16a1,1,0,0,0,1,1H39a1,1,0,0,0,1-1v-.59L42.59,18Z"/><path d="M23,32H18.31a6,6,0,1,0-6.62,0H7a5,5,0,0,0-5,5V47a1,1,0,0,0,1,1H8V61a1,1,0,0,0,1,1H21a1,1,0,0,0,1-1V48h5a1,1,0,0,0,1-1V37A5,5,0,0,0,23,32ZM11,27a4,4,0,1,1,4,4A4,4,0,0,1,11,27ZM26,46H22V37a1,1,0,0,0-2,0V60H16V50a1,1,0,0,0-2,0V60H10V37a1,1,0,0,0-2,0v9H4V37a3.009,3.009,0,0,1,3-3H23a3.009,3.009,0,0,1,3,3Z"/><path d="M57,32H52.31a6,6,0,1,0-6.62,0H41a5,5,0,0,0-5,5V47a1,1,0,0,0,1,1h5V61a1,1,0,0,0,1,1H55a1,1,0,0,0,1-1V48h5a1,1,0,0,0,1-1V37A5,5,0,0,0,57,32ZM45,27a4,4,0,1,1,4,4A4,4,0,0,1,45,27ZM60,46H56V37a1,1,0,0,0-2,0V60H50V50a1,1,0,0,0-2,0V60H44V37a1,1,0,0,0-2,0v9H38V37a3.009,3.009,0,0,1,3-3H57a3.009,3.009,0,0,1,3,3Z"/><path d="M40,5V9a1,1,0,0,1-2,0V5a1,1,0,0,0-2,0V9a1,1,0,0,1-2,0V5a1,1,0,0,0-2,0V9a1,1,0,0,1-2,0V5a3.009,3.009,0,0,1,3-3,2.974,2.974,0,0,1,2,.78A2.974,2.974,0,0,1,37,2,3.009,3.009,0,0,1,40,5Z"/><path d="M23,8a1,1,0,0,0,0,2h4a1,1,0,0,0,0-2H26V3a1,1,0,0,0-1.447-.895l-2,1a1,1,0,0,0,.894,1.79L24,4.618V8Z"/></g></svg>