<?xml version="1.0" ?><svg viewBox="0 0 64 64" xmlns="http://www.w3.org/2000/svg"><g id="virus-covid19-corona-cell-coronavirus"><path d="M35.126,13.666a2.994,2.994,0,0,0,3.477-.359l1,.58a8.041,8.041,0,0,0-.036,6.247l-1,.575A3.005,3.005,0,1,0,39.6,22.425l.969-.559a8.119,8.119,0,0,0,.721.841A7.936,7.936,0,0,0,46,24.989v1.16a3.006,3.006,0,1,0,2-.031V24.974a7.829,7.829,0,0,0,5.357-3.149l1.067.616a3.005,3.005,0,1,0,.973-1.748l-1.048-.605a8.039,8.039,0,0,0-.037-6.155l1.112-.642A3.005,3.005,0,1,0,54.4,11.575l-1.092.63a7.824,7.824,0,0,0-.7-.811A7.928,7.928,0,0,0,48,9.127V7.851a3.008,3.008,0,1,0-2,.03V9.112a7.93,7.93,0,0,0-4.707,2.282,8.052,8.052,0,0,0-.669.77l-1.048-.605a3,3,0,1,0-4.45,2.107Zm2.05,10.218a1,1,0,1,1,.366-1.366A1,1,0,0,1,37.176,23.884Zm19.332-1.452a1,1,0,1,1,.366,1.366A1,1,0,0,1,56.508,22.432Zm.316-12.316a1,1,0,1,1-.366,1.366A1,1,0,0,1,56.824,10.116ZM47.05,29.95a1,1,0,1,1,1-1A1,1,0,0,1,47.05,29.95Zm-.1-25.9a1,1,0,1,1-1,1A1,1,0,0,1,46.95,4.05Zm0,7a6,6,0,1,1-4.243,1.758A5.954,5.954,0,0,1,46.95,11.05Zm-11.19-.482a1,1,0,1,1,.366,1.366A1,1,0,0,1,35.76,10.568Z"/><path d="M39,39a3,3,0,0,0-2.816,2H33.949a11.941,11.941,0,0,0-2.794-6.741l1.58-1.58a2.994,2.994,0,0,0,3.408-4.821,3.073,3.073,0,0,0-4.244,0h0a3,3,0,0,0-.576,3.405l-1.582,1.582A11.941,11.941,0,0,0,23,30.051V27.816a3,3,0,1,0-2,0v2.235a11.941,11.941,0,0,0-6.741,2.794l-1.582-1.582a2.995,2.995,0,1,0-4.819.838h0a2.962,2.962,0,0,0,3.405.576l1.582,1.582A11.941,11.941,0,0,0,10.051,41H7.816a3,3,0,1,0,0,2h2.235a11.941,11.941,0,0,0,2.794,6.741l-1.582,1.582a2.992,2.992,0,1,0,.838,4.819h0a3,3,0,0,0,.576-3.405l1.582-1.582A11.941,11.941,0,0,0,21,53.949v2.235a3,3,0,1,0,2,0V53.949a11.941,11.941,0,0,0,6.741-2.794l1.582,1.582a2.995,2.995,0,1,0,4.819-.838,3.079,3.079,0,0,0-3.4-.568l-1.59-1.59A11.941,11.941,0,0,0,33.949,43h2.235A2.995,2.995,0,1,0,39,39Zm-5.687-9.728a1.026,1.026,0,0,1,1.415,0,1,1,0,0,1,0,1.415,1.028,1.028,0,0,1-1.415,0A1,1,0,0,1,33.313,29.272ZM22,24a1,1,0,1,1-1,1A1,1,0,0,1,22,24ZM9.272,30.687a1,1,0,1,1,1.415,0A1,1,0,0,1,9.272,30.687ZM5,43a1,1,0,1,1,1-1A1,1,0,0,1,5,43Zm5.687,11.728a1,1,0,1,1,0-1.415A1,1,0,0,1,10.687,54.728ZM22,60a1,1,0,1,1,1-1A1,1,0,0,1,22,60Zm12.728-6.687a1,1,0,0,1,0,1.416,1.025,1.025,0,0,1-1.414,0,1,1,0,0,1,1.415-1.415ZM22,52A10,10,0,1,1,32,42,10.011,10.011,0,0,1,22,52Zm17-9a1,1,0,1,1,1-1A1,1,0,0,1,39,43Z"/><path d="M20,34a3,3,0,1,0,3,3A3,3,0,0,0,20,34Zm0,4a1,1,0,1,1,1-1A1,1,0,0,1,20,38Z"/><path d="M60,50a1.993,1.993,0,0,0-1.722,1H56.9a4.961,4.961,0,0,0-.732-1.753l.98-.979a2,2,0,1,0-1.415-1.414l-.979.979A4.969,4.969,0,0,0,53,47.1V45.722a2,2,0,1,0-2,0V47.1a4.969,4.969,0,0,0-1.753.732l-.979-.979a2,2,0,1,0-1.415,1.414l.98.979A4.961,4.961,0,0,0,47.1,51H45.722a2,2,0,1,0,0,2H47.1a4.961,4.961,0,0,0,.732,1.753l-.98.979a2,2,0,1,0,1.415,1.414l.979-.979A4.969,4.969,0,0,0,51,56.9v1.379a2,2,0,1,0,2,0V56.9a4.969,4.969,0,0,0,1.753-.732l.979.979a2,2,0,1,0,1.415-1.414l-.98-.979A4.961,4.961,0,0,0,56.9,53h1.379A2,2,0,1,0,60,50Zm-8,5a3,3,0,1,1,3-3A3,3,0,0,1,52,55Z"/><path d="M6.938,9.232a1.987,1.987,0,0,0,1,.269,1.9,1.9,0,0,0,1-.273l1.231.711A3.958,3.958,0,0,0,10,11a3.958,3.958,0,0,0,.161,1.061l-1.231.711a2.038,2.038,0,0,0-.474-.2,1.989,1.989,0,0,0-1.518.2h0a2,2,0,1,0,2.991,1.737l1.222-.7A3.991,3.991,0,0,0,13,14.858v1.42a2,2,0,1,0,2,0v-1.42A3.991,3.991,0,0,0,16.849,13.8l1.222.705a1.994,1.994,0,0,0,.991,1.727h0a1.979,1.979,0,0,0,1,.268,2,2,0,1,0-.988-3.728l-1.231-.711A3.958,3.958,0,0,0,18,11a3.958,3.958,0,0,0-.161-1.061l1.231-.711a1.9,1.9,0,0,0,1,.273,1.987,1.987,0,0,0,1-.269h0A2,2,0,1,0,18.071,7.5l-1.222.7A3.991,3.991,0,0,0,15,7.142V5.722a2,2,0,1,0-2,0v1.42A3.991,3.991,0,0,0,11.151,8.2L9.929,7.5a1.994,1.994,0,0,0-.991-1.727h0a2,2,0,0,0-2,3.464ZM14,9a2,2,0,1,1-2,2A2,2,0,0,1,14,9Z"/><circle cx="47" cy="14" r="2"/><circle cx="44" cy="18" r="2"/><circle cx="50" cy="18" r="2"/><path d="M18,42a3,3,0,1,0,3,3A3,3,0,0,0,18,42Zm0,4a1,1,0,1,1,1-1A1,1,0,0,1,18,46Z"/><path d="M24,43a3,3,0,1,0,3-3A3,3,0,0,0,24,43Zm4,0a1,1,0,1,1-1-1A1,1,0,0,1,28,43Z"/></g></svg>