<?xml version="1.0" ?><svg viewBox="0 0 64 64" xmlns="http://www.w3.org/2000/svg"><g id="virus-covid19-corona-bus-car"><path d="M58.28,34.42a.71.71,0,0,0-.1-.14A16.97,16.97,0,0,0,45,28H33V25.95a12,12,0,1,0-2,0V28H5a3.009,3.009,0,0,0-3,3V53a3.009,3.009,0,0,0,3,3H9.09a5.993,5.993,0,0,0,11.82,0H43.09a5.993,5.993,0,0,0,11.82,0H59a3.009,3.009,0,0,0,3-3V45A16.892,16.892,0,0,0,58.28,34.42ZM56.97,36a14.939,14.939,0,0,1,2.98,8H49a1,1,0,0,1-1-1V37a1,1,0,0,1,1-1ZM22,14A10,10,0,1,1,32,24,10.016,10.016,0,0,1,22,14ZM4,36H15a1,1,0,0,1,1,1v6a1,1,0,0,1-1,1H4ZM15,59a4,4,0,1,1,4-4A4,4,0,0,1,15,59Zm34,0a4,4,0,1,1,4-4A4,4,0,0,1,49,59Zm11-6a1,1,0,0,1-1,1H54.91a5.993,5.993,0,0,0-11.82,0H20.91A5.993,5.993,0,0,0,9.09,54H5a1,1,0,0,1-1-1V46H15a3.009,3.009,0,0,0,3-3V37a3.009,3.009,0,0,0-3-3H4V31a1,1,0,0,1,1-1H45a14.932,14.932,0,0,1,10.16,4H49a3.009,3.009,0,0,0-3,3v6a3.009,3.009,0,0,0,3,3H60Z"/><path d="M27,34H23a3,3,0,0,0-3,3v6a3,3,0,0,0,3,3h4a3,3,0,0,0,3-3V37A3,3,0,0,0,27,34Zm1,9a1,1,0,0,1-1,1H23a1,1,0,0,1-1-1V37a1,1,0,0,1,1-1h4a1,1,0,0,1,1,1Z"/><path d="M39,34H35a3,3,0,0,0-3,3v6a3,3,0,0,0,3,3h4a3,3,0,0,0,3-3V37A3,3,0,0,0,39,34Zm1,9a1,1,0,0,1-1,1H35a1,1,0,0,1-1-1V37a1,1,0,0,1,1-1h4a1,1,0,0,1,1,1Z"/><path d="M34,21a1.993,1.993,0,0,0-1-1.722v-1.42a3.915,3.915,0,0,0,1.019-.425l1.006,1.007a2,2,0,0,0,.509,1.923h0a2,2,0,1,0,.9-3.339l-1.006-1.006A3.915,3.915,0,0,0,35.858,15h1.42a2,2,0,1,0,0-2h-1.42a3.915,3.915,0,0,0-.425-1.019l1.006-1.006a2.015,2.015,0,0,0,.51.074A2.006,2.006,0,1,0,35.026,9.56l-1.007,1.007A3.915,3.915,0,0,0,33,10.142V8.722a2,2,0,1,0-2,0v1.42a3.915,3.915,0,0,0-1.019.425L28.975,9.56a2,2,0,0,0-.509-1.923h0a2,2,0,1,0-1.415,3.413,2.022,2.022,0,0,0,.511-.074l1.006,1.006A3.915,3.915,0,0,0,28.142,13h-1.42a2,2,0,1,0,0,2h1.42a3.915,3.915,0,0,0,.425,1.019l-1.006,1.006a2,2,0,1,0,1.413,1.415l1.007-1.007A3.915,3.915,0,0,0,31,17.858v1.42A2,2,0,1,0,34,21Zm-4-7a2,2,0,1,1,2,2A2,2,0,0,1,30,14Z"/></g></svg>