<?xml version="1.0" ?><svg viewBox="0 0 64 64" xmlns="http://www.w3.org/2000/svg"><g id="virus-covid19-corona-breath-tempurature"><path d="M61.2,52.732A2,2,0,1,0,58.205,51l-1.269.732A3,3,0,0,0,56,51.184V49.722a2,2,0,1,0-2,0v1.462a3,3,0,0,0-.936.543L51.8,51a2,2,0,1,0-1,1.732l1.26.728a2.728,2.728,0,0,0,0,1.09l-1.26.728a2,2,0,1,0,1,1.732l1.269-.732a3,3,0,0,0,.936.543v1.462a2,2,0,1,0,2,0V56.816a3,3,0,0,0,.936-.543l1.269.732a2,2,0,1,0,1-1.732l-1.26-.728a2.728,2.728,0,0,0,0-1.09l1.26-.728A1.991,1.991,0,0,0,61.2,52.732ZM55,55a1,1,0,1,1,1-1A1,1,0,0,1,55,55Z"/><path d="M59,29.53V12a4,4,0,0,0-8,0V29.53a6,6,0,1,0,8,0ZM53,12a2.006,2.006,0,0,1,2-2,2.015,2.015,0,0,1,2,2v.01L55,12v2l2,.01v1L55,15v2l2,.01v1L53,18Zm2,26a4,4,0,0,1-2.4-7.2A1.014,1.014,0,0,0,53,30V20l4,.01v1L55,21v2l2,.01v1L55,24v2l2,.01v1L55,27v2l2,.01V30a1.014,1.014,0,0,0,.4.8A4,4,0,0,1,55,38Z"/><circle cx="55" cy="34" r="2"/><path d="M55,6a1,1,0,0,0,1-1V3a1,1,0,0,0-2,0V5A1,1,0,0,0,55,6Z"/><path d="M49.343,7.757a1,1,0,0,0,1.414-1.414L49.343,4.929a1,1,0,0,0-1.414,1.414Z"/><path d="M59.95,8.05a1,1,0,0,0,.707-.293l1.414-1.414a1,1,0,1,0-1.414-1.414L59.243,6.343A1,1,0,0,0,59.95,8.05Z"/><path d="M24.105,21.447a1,1,0,0,0,1.342.448l4-2a1,1,0,0,0,0-1.79l-4-2a1,1,0,1,0-.894,1.79L26.764,19l-2.211,1.105A1,1,0,0,0,24.105,21.447Z"/><path d="M29,50H27V44h5a1,1,0,0,0,1-1V39a1,1,0,0,0-1-1H28a2.006,2.006,0,0,1-1.99-2.15A2.121,2.121,0,0,1,28.17,34H32a1,1,0,0,0,1-1V31h3a.983.983,0,0,0,.81-.42,1,1,0,0,0,.14-.9L34,20.84V15a4.975,4.975,0,0,0-1.22-3.24A7.006,7.006,0,0,0,38,5V3a1,1,0,0,0-1-1H13A11.007,11.007,0,0,0,2,13V29.2a15.051,15.051,0,0,0,3.16,9.2L9,43.34V50H5a3.009,3.009,0,0,0-3,3v8a1,1,0,0,0,2,0V53a1,1,0,0,1,1-1H29a9.014,9.014,0,0,1,9,9,1,1,0,0,0,2,0A11.007,11.007,0,0,0,29,50ZM9,40.08l-2.26-2.9A13.069,13.069,0,0,1,4,29.2V13a9.014,9.014,0,0,1,9-9H36V5a5,5,0,0,1-5,5H13a4,4,0,0,0-4,4v6.17A3.014,3.014,0,0,0,7,23v5a3.014,3.014,0,0,0,2,2.83ZM18,42a1,1,0,0,0,0,2h7v6H11V31h1a1,1,0,0,0,0-2H10a1,1,0,0,1-1-1V23a.949.949,0,0,1,.31-.71A.928.928,0,0,1,10,22h2a1,1,0,0,0,0-2H11V14a2.006,2.006,0,0,1,2-2H29a3.009,3.009,0,0,1,3,3v6a1.185,1.185,0,0,0,.05.32L34.61,29H32a1,1,0,0,0-1,1v2H28.17a4.111,4.111,0,0,0-4.16,3.71A4,4,0,0,0,28,40h3v2Z"/><path d="M32,35a1,1,0,0,0,0,2H42a1,1,0,0,0,0-2Z"/><path d="M40,39H36a1,1,0,0,0,0,2h4a3,3,0,0,1,3,3v4a1,1,0,0,0,2,0V44A5.006,5.006,0,0,0,40,39Z"/><path d="M39,33h3a5.006,5.006,0,0,0,5-5V27a1,1,0,0,0-2,0v1a3,3,0,0,1-3,3H39a1,1,0,0,0,0,2Z"/><path d="M44,51a1,1,0,0,0-1,1v1a1,1,0,0,0,2,0V52A1,1,0,0,0,44,51Z"/><path d="M44,56a1,1,0,0,0-1,1v1a1,1,0,0,0,2,0V57A1,1,0,0,0,44,56Z"/><path d="M47,35H46a1,1,0,0,0,0,2h1a1,1,0,0,0,0-2Z"/></g></svg>