<?xml version="1.0" ?><svg viewBox="0 0 64 64" xmlns="http://www.w3.org/2000/svg"><g id="virus-covid19-corona-breath-cough"><path d="M49,42H41.3a5.994,5.994,0,0,0-2.08-.88L39,41.09V38.26A15.126,15.126,0,0,0,46.69,28H48a3.009,3.009,0,0,0,3-3V22a3.009,3.009,0,0,0-3-3H47V18a1,1,0,0,0,1-1V11a9.014,9.014,0,0,0-9-9H25a9.014,9.014,0,0,0-9,9v6a1,1,0,0,0,1,1v1H16a3.009,3.009,0,0,0-3,3v3a3.009,3.009,0,0,0,3,3h1.31A15.126,15.126,0,0,0,25,38.26v3.1a6.044,6.044,0,0,0-1.3.64H15A13.012,13.012,0,0,0,2,55v6a1,1,0,0,0,1,1H61a1,1,0,0,0,1-1V55A13.012,13.012,0,0,0,49,42ZM47,25V21h1a1,1,0,0,1,1,1v3a1,1,0,0,1-1,1H46.96C46.99,25.67,47,25.34,47,25ZM16,26a1,1,0,0,1-1-1V22a1,1,0,0,1,1-1h1v4c0,.34.01.67.04,1Zm2-15a7.008,7.008,0,0,1,7-7H39a7.008,7.008,0,0,1,7,7v5h-.69a6.977,6.977,0,0,1-4.95-2.05l-2.65-2.66a1.008,1.008,0,0,0-1.42,0l-2.65,2.66A6.977,6.977,0,0,1,28.69,16H18Zm1,14V18h9.69a8.942,8.942,0,0,0,6.36-2.64L37,13.41l1.95,1.95A8.882,8.882,0,0,0,45,17.99V25a13.087,13.087,0,0,1-7.43,11.75,12.836,12.836,0,0,1-2.57.89V35.63c3.02-.74,5-2.53,5-4.63,0-2.8-3.51-5-8-5s-8,2.2-8,5c0,2.1,1.98,3.89,5,4.63v2.01a12.836,12.836,0,0,1-2.57-.89A13.087,13.087,0,0,1,19,25ZM37,39.13v1.95a6.637,6.637,0,0,0-.74.18.961.961,0,0,1-.85-.15A1,1,0,0,1,35,40.3v-.61A14.159,14.159,0,0,0,37,39.13Zm-8,.56v.39a.979.979,0,0,1-.33.73,1.031,1.031,0,0,1-.85.24,7.5,7.5,0,0,0-.82-.04V39.13A14.159,14.159,0,0,0,29,39.69Zm-5.97,6.8a4.054,4.054,0,0,1,3.55-3.47,3.938,3.938,0,0,1,.97.02,3.1,3.1,0,0,0,2.44-.73A2.959,2.959,0,0,0,31,40.08V32a1,1,0,0,0-2,0v1.56c-1.79-.54-3-1.53-3-2.56,0-1.42,2.46-3,6-3s6,1.58,6,3c0,1.03-1.21,2.02-3,2.56V32a1,1,0,0,0-2,0v8.3a2.953,2.953,0,0,0,1.22,2.41,2.9,2.9,0,0,0,2.62.46,4.139,4.139,0,0,1,1.98-.09A4,4,0,0,1,38,51a5.256,5.256,0,0,1-.83-.08A1,1,0,0,0,36,52.04,4,4,0,0,1,28,52a1,1,0,0,0-1-1,4,4,0,0,1-3.97-4.51ZM60,60H50.02L50,55.99A.994.994,0,0,0,49,55h-.01A1,1,0,0,0,48,56.01L48.02,60H15.98L16,56.01A1,1,0,0,0,15.01,55H15a.994.994,0,0,0-1,.99L13.98,60H4V55A11.007,11.007,0,0,1,15,44h6.83a5.812,5.812,0,0,0-.78,2.24,6,6,0,0,0,5.02,6.69A6,6,0,0,0,37.92,53a5.921,5.921,0,0,0,4.71-2.18,6.029,6.029,0,0,0,1.25-5A5.575,5.575,0,0,0,43.19,44H49A11.007,11.007,0,0,1,60,55Z"/><path d="M38,46a1,1,0,0,1,1,1,1,1,0,0,0,2,0,3,3,0,0,0-3-3,1,1,0,0,0,0,2Z"/><path d="M32,55a3,3,0,0,0,3-3,1,1,0,0,0-2,0,1,1,0,0,1-1,1,1,1,0,0,0,0,2Z"/><path d="M27,49a1,1,0,0,0,0-2,1,1,0,0,0-2,0A2,2,0,0,0,27,49Z"/><path d="M32,49a1,1,0,0,0,1-1V46a1,1,0,0,0-2,0v2A1,1,0,0,0,32,49Z"/><path d="M26,22h1a1,1,0,0,0,0-2H26a1,1,0,0,0,0,2Z"/><path d="M37,22h1a1,1,0,0,0,0-2H37a1,1,0,0,0,0,2Z"/></g></svg>