<?xml version="1.0" ?><svg viewBox="0 0 64 64" xmlns="http://www.w3.org/2000/svg"><g id="virus-covid19-corona-ambulance-mobilephone"><path d="M59.79,40.11l-2.77-10a.578.578,0,0,0-.05-.14A5.015,5.015,0,0,0,52.4,27H50V26a3,3,0,0,0-6,0v1H30V5a3.009,3.009,0,0,0-3-3H11A3.009,3.009,0,0,0,8,5V27H5a3.009,3.009,0,0,0-3,3V56a3.009,3.009,0,0,0,3,3h7.81a5.989,5.989,0,0,0,10.38,0H44.81a5.989,5.989,0,0,0,10.38,0H59a3.009,3.009,0,0,0,3-3V43A3,3,0,0,0,59.79,40.11ZM57.68,40H47a1,1,0,0,1-1-1V33a1,1,0,0,1,1-1h8.47ZM46,26a1,1,0,0,1,2,0v1H46ZM10,5a1,1,0,0,1,1-1H27a1,1,0,0,1,1,1V31a1,1,0,0,1-1,1H11a1,1,0,0,1-1-1Zm2.09,52H5a1,1,0,0,1-1-1V55h8.09a5.6,5.6,0,0,0,0,2ZM18,60a4,4,0,1,1,4-4A4,4,0,0,1,18,60Zm26.09-3H23.91a5.6,5.6,0,0,0,0-2H44.09a5.6,5.6,0,0,0,0,2ZM50,60a4,4,0,1,1,4-4A4,4,0,0,1,50,60Zm10-4a1,1,0,0,1-1,1H55.91a5.6,5.6,0,0,0,0-2H60Zm0-6H59a1,1,0,0,1,0-2h1Zm0-4H59a3,3,0,0,0,0,6h1v1H55.19a5.989,5.989,0,0,0-10.38,0H23.19a5.989,5.989,0,0,0-10.38,0H4V30a1,1,0,0,1,1-1H8v2a3.009,3.009,0,0,0,3,3H27a3.009,3.009,0,0,0,3-3V29H52.4a3.026,3.026,0,0,1,2.24,1H47a3.009,3.009,0,0,0-3,3v6a3.009,3.009,0,0,0,3,3H59a1,1,0,0,1,1,1Z"/><path d="M47,45h2a1,1,0,0,0,0-2H47a1,1,0,0,0,0,2Z"/><path d="M7,45H9v2a1,1,0,0,0,1,1h4a1,1,0,0,0,1-1V45h2a1,1,0,0,0,1-1V40a1,1,0,0,0-1-1H15V37a1,1,0,0,0-1-1H10a1,1,0,0,0-1,1v2H7a1,1,0,0,0-1,1v4A1,1,0,0,0,7,45Zm1-4h2a1,1,0,0,0,1-1V38h2v2a1,1,0,0,0,1,1h2v2H14a1,1,0,0,0-1,1v2H11V44a1,1,0,0,0-1-1H8Z"/><path d="M48,21V19a1,1,0,0,0-2,0v2a1,1,0,0,0,2,0Z"/><path d="M42.757,23.757a1,1,0,0,0,.707-1.707L42.05,20.636a1,1,0,0,0-1.414,1.414l1.414,1.414A1,1,0,0,0,42.757,23.757Z"/><path d="M51.95,23.464l1.414-1.414a1,1,0,0,0-1.414-1.414L50.536,22.05a1,1,0,1,0,1.414,1.414Z"/><path d="M18,7h2a1,1,0,0,0,0-2H18a1,1,0,0,0,0,2Z"/><path d="M21,29H17a1,1,0,0,0,0,2h4a1,1,0,0,0,0-2Z"/><path d="M13,20a1.993,1.993,0,0,0,1.722-1h1.462a2.746,2.746,0,0,0,.117.285l-1.033,1.033a2,2,0,1,0,1.414,1.414L17.715,20.7a2.746,2.746,0,0,0,.285.117v1.462a2,2,0,1,0,2,0V20.816a2.746,2.746,0,0,0,.285-.117l1.033,1.033a2,2,0,1,0,1.414-1.414L21.7,19.285A2.746,2.746,0,0,0,21.816,19h1.462a2,2,0,1,0,0-2H21.816a2.746,2.746,0,0,0-.117-.285l1.033-1.033a2.016,2.016,0,0,0,.511.074,2,2,0,1,0-1.925-1.488L20.285,15.3A2.746,2.746,0,0,0,20,15.184V13.722a2,2,0,1,0-2,0v1.462a2.746,2.746,0,0,0-.285.117l-1.033-1.033a1.993,1.993,0,1,0-1.925,1.488,2.016,2.016,0,0,0,.511-.074L16.3,16.715a2.746,2.746,0,0,0-.117.285H14.722A2,2,0,1,0,13,20Zm5-2a1,1,0,1,1,1,1A1,1,0,0,1,18,18Z"/><path d="M59,2H40a3.009,3.009,0,0,0-3,3v.43L32.49,8.14a1,1,0,0,0,0,1.72L37,12.57V13a3.009,3.009,0,0,0,3,3H59a3.009,3.009,0,0,0,3-3V5A3.009,3.009,0,0,0,59,2Zm1,11a1,1,0,0,1-1,1H40a1,1,0,0,1-1-1V12a.99.99,0,0,0-.49-.86L34.94,9l3.57-2.14A.99.99,0,0,0,39,6V5a1,1,0,0,1,1-1H59a1,1,0,0,1,1,1Z"/><path d="M43,6H42a1,1,0,0,0,0,2h1a1,1,0,0,0,0-2Z"/><path d="M57,6H47a1,1,0,0,0,0,2H57a1,1,0,0,0,0-2Z"/><path d="M43,10H42a1,1,0,0,0,0,2h1a1,1,0,0,0,0-2Z"/><path d="M57,10H47a1,1,0,0,0,0,2H57a1,1,0,0,0,0-2Z"/><path d="M23,45h5a1,1,0,0,0,1-1V38a1,1,0,0,0-1-1H23a1,1,0,0,0-1,1v6A1,1,0,0,0,23,45Zm1-6h3v4H24Z"/><path d="M32,45h5a1,1,0,0,0,1-1V38a1,1,0,0,0-1-1H32a1,1,0,0,0-1,1v6A1,1,0,0,0,32,45Zm1-6h3v4H33Z"/><path d="M41,51a1,1,0,0,0,1-1V32a1,1,0,0,0-2,0V50A1,1,0,0,0,41,51Z"/><circle cx="50" cy="56" r="2"/><circle cx="18" cy="56" r="2"/></g></svg>