<?xml version="1.0" ?><svg viewBox="0 0 64 64" xmlns="http://www.w3.org/2000/svg"><g id="virus-cell-covid19-corona-lab"><path d="M24,13A11,11,0,1,0,13,24,11.013,11.013,0,0,0,24,13ZM4,13a9,9,0,1,1,9,9A9.01,9.01,0,0,1,4,13Z"/><path d="M15,19a1.993,1.993,0,0,0-1-1.722V15.816a2.746,2.746,0,0,0,.285-.117l1.033,1.033a2,2,0,1,0,1.413-1.414L15.7,14.285A2.746,2.746,0,0,0,15.816,14h1.462a2,2,0,1,0,0-2H15.816a2.746,2.746,0,0,0-.117-.285l1.033-1.033a2.022,2.022,0,0,0,.511.074,1.988,1.988,0,0,0,1.414-.585h0a2,2,0,1,0-3.34-.9L14.285,10.3A2.746,2.746,0,0,0,14,10.184V8.722a2,2,0,1,0-2,0v1.462a2.746,2.746,0,0,0-.285.117L10.682,9.268a1.993,1.993,0,1,0-1.925,1.488,2.022,2.022,0,0,0,.511-.074L10.3,11.715a2.746,2.746,0,0,0-.117.285H8.722a2,2,0,1,0,0,2h1.462a2.746,2.746,0,0,0,.117.285L9.268,15.318a1.993,1.993,0,0,0-1.925.511h0a2,2,0,1,0,3.34.9L11.715,15.7a2.746,2.746,0,0,0,.285.117v1.462A2,2,0,1,0,15,19Zm-1-6a1,1,0,1,1-1-1A1,1,0,0,1,14,13Z"/><path d="M62,40V34A17.051,17.051,0,0,0,46.82,17.12,6.981,6.981,0,0,0,42,14.08V11a1,1,0,0,0-1-1H38V7.82A3.01,3.01,0,0,0,40,5V3a1,1,0,0,0-1-1H29a1,1,0,0,0-1,1V5a3.01,3.01,0,0,0,2,2.82V10H27a1,1,0,0,0-1,1V31a1,1,0,0,0,1,1v3a1,1,0,0,0,1,1h1v5a1,1,0,0,0,1,1h1v3a1,1,0,0,0,1,1h4a1,1,0,0,0,1-1V42h1a1,1,0,0,0,1-1V36h1a1,1,0,0,0,1-1V32a1,1,0,0,0,1-1V27.92a7.01,7.01,0,0,0,4.62-2.76A8.982,8.982,0,0,1,54,34v4a8.972,8.972,0,0,1-2.69,6.4A7.1,7.1,0,0,0,49,44a7.008,7.008,0,0,0-7,7,6.634,6.634,0,0,0,.08,1H15a3.009,3.009,0,0,0-3,3v6a1,1,0,0,0,1,1H61a1,1,0,0,0,1-1V55a3.009,3.009,0,0,0-3-3H55.96A15.013,15.013,0,0,0,62,40ZM30,4h8V5a1,1,0,0,1-1,1H31a1,1,0,0,1-1-1Zm6,4v2H32V8ZM35,44H33V42h2Zm2-4H31V36h6Zm2-6H29V32H39Zm1-4H28V12H40v2.08a6.991,6.991,0,0,0,0,13.84Zm1-4a5,5,0,1,1,5-5A5,5,0,0,1,41,26Zm8,20a5,5,0,1,1-5,5A5,5,0,0,1,49,46Zm10,8a1,1,0,0,1,1,1v5H14V55a1,1,0,0,1,1-1H42.69a6.977,6.977,0,0,0,12.62,0Zm-3.16-4.49a7.031,7.031,0,0,0-2.69-4.13A10.988,10.988,0,0,0,56,38V34a10.991,10.991,0,0,0-8.4-10.68A7.155,7.155,0,0,0,48,21a6.566,6.566,0,0,0-.23-1.73A15.05,15.05,0,0,1,60,34v6A13.022,13.022,0,0,1,55.84,49.51Z"/><path d="M41,18a3,3,0,1,0,3,3A3,3,0,0,0,41,18Zm0,4a1,1,0,1,1,1-1A1,1,0,0,1,41,22Z"/><path d="M49,54a3,3,0,1,0-3-3A3,3,0,0,0,49,54Zm0-4a1,1,0,1,1-1,1A1,1,0,0,1,49,50Z"/><path d="M35,50a1,1,0,0,0,0-2H33a1,1,0,0,0,0,2Z"/><path d="M29,50a1,1,0,0,0,0-2H27a1,1,0,0,0,0,2Z"/><path d="M21,48a1,1,0,0,0,0,2h2a1,1,0,0,0,0-2Z"/><path d="M15,50h2a1,1,0,0,0,0-2H15a1,1,0,0,0,0,2Z"/><path d="M13,30a1,1,0,0,0,1-1V27a1,1,0,0,0-2,0v2A1,1,0,0,0,13,30Z"/><path d="M12,35a1,1,0,0,0,2,0V33a1,1,0,0,0-2,0Z"/><path d="M12,41a1,1,0,0,0,2,0V39a1,1,0,0,0-2,0Z"/><path d="M12,47a1,1,0,0,0,2,0V45a1,1,0,0,0-2,0Z"/></g></svg>