<?xml version="1.0" ?><svg viewBox="0 0 64 64" xmlns="http://www.w3.org/2000/svg"><g id="safee-virus-covid19-protect-hand"><path d="M40,20a1.993,1.993,0,0,0-1.722,1H36.9a4.961,4.961,0,0,0-.732-1.753l.978-.978a1.95,1.95,0,0,0,1.926-.512h0a2,2,0,0,0,0-2.827,2.046,2.046,0,0,0-2.828,0,1.95,1.95,0,0,0-.512,1.926l-.978.978A4.961,4.961,0,0,0,33,17.1V15.722a2,2,0,1,0-2,0V17.1a4.961,4.961,0,0,0-1.753.732l-.978-.978a1.95,1.95,0,0,0-.512-1.926h0a2.046,2.046,0,0,0-2.827,0,1.989,1.989,0,0,0,1.925,3.34l.978.978A4.961,4.961,0,0,0,27.1,21H25.722a2,2,0,1,0,0,2H27.1a4.961,4.961,0,0,0,.732,1.753l-.991.99a2.032,2.032,0,0,0-1.913.5h0a2.012,2.012,0,1,0,3.34.9l.978-.978A4.961,4.961,0,0,0,31,26.9v1.379a2,2,0,1,0,2,0V26.9a4.961,4.961,0,0,0,1.753-.732l.978.978a1.95,1.95,0,0,0,.512,1.926h0a2,2,0,1,0,2.828-2.828,2.029,2.029,0,0,0-1.913-.5l-.991-.99A4.961,4.961,0,0,0,36.9,23h1.379A2,2,0,1,0,40,20Zm-8,5a3,3,0,1,1,3-3A3,3,0,0,1,32,25Z"/><path d="M58.582,25.922a4.1,4.1,0,0,0-4.732,3.043l-2.364,8.806a3.911,3.911,0,0,0-4.2-.134l-7.852,4.6A11.039,11.039,0,0,0,34,51.729V61a1,1,0,0,0,2,0V51.729a9.034,9.034,0,0,1,4.449-7.764l7.845-4.6a2,2,0,1,1,2,3.464l-5.731,3.309a1,1,0,1,0,1,1.732l5.731-3.309a4,4,0,0,0,1.742-4.848l2.746-10.231a2.119,2.119,0,0,1,2.387-1.6A2.007,2.007,0,0,1,59.76,29.83a1.983,1.983,0,0,1-.066.521l-4.35,16.233a2.992,2.992,0,0,1-.905,1.465l-6.761,6.01A5.009,5.009,0,0,0,46,57.8V61a1,1,0,0,0,2,0V57.8a3,3,0,0,1,1.007-2.242l6.762-6.01A4.992,4.992,0,0,0,57.276,47.1l4.35-16.231a4.007,4.007,0,0,0-3.044-4.948Z"/><path d="M24.563,42.24l-7.857-4.606a3.911,3.911,0,0,0-4.192.137L10.15,28.965a4.1,4.1,0,0,0-4.732-3.043,4.006,4.006,0,0,0-3.044,4.947L6.724,47.1a4.992,4.992,0,0,0,1.507,2.443l6.762,6.01A3,3,0,0,1,16,57.8V61a1,1,0,0,0,2,0V57.8a5.009,5.009,0,0,0-1.678-3.737l-6.761-6.01a2.99,2.99,0,0,1-.9-1.466L4.306,30.35a1.97,1.97,0,0,1-.066-.52,2.007,2.007,0,0,1,1.591-1.951,2.126,2.126,0,0,1,2.387,1.6l2.746,10.232a4,4,0,0,0,1.742,4.847l5.731,3.309a1,1,0,1,0,1-1.732l-5.731-3.308A2,2,0,0,1,15.7,39.363l7.851,4.6A9.034,9.034,0,0,1,28,51.729V61a1,1,0,0,0,2,0V51.729A11.039,11.039,0,0,0,24.563,42.24Z"/><path d="M32,9A13,13,0,1,0,45,22,13.015,13.015,0,0,0,32,9Zm0,24A11,11,0,1,1,43,22,11.013,11.013,0,0,1,32,33Z"/><path d="M32.053,42a1,1,0,0,1-.446-.1l-6.081-3.031A18.892,18.892,0,0,1,15,21.859V8a1,1,0,0,1,.7-.955l16-5a1.009,1.009,0,0,1,.6,0l16,5A1,1,0,0,1,49,8V21.892A18.9,18.9,0,0,1,38.52,38.875L32.5,41.894A1.007,1.007,0,0,1,32.053,42ZM17,8.735V21.859a16.905,16.905,0,0,0,9.417,15.215l5.635,2.808,5.571-2.795h0A16.91,16.91,0,0,0,47,21.892V8.735L32,4.048Z"/></g></svg>