<?xml version="1.0" ?><svg viewBox="0 0 64 64" xmlns="http://www.w3.org/2000/svg"><g id="people-virus-spreading-corona-covid19"><path d="M17,25H13.62a4,4,0,1,0-5.24,0H5a3.009,3.009,0,0,0-3,3v7a1,1,0,0,0,1,1H6V46a1,1,0,0,0,1,1h8a1,1,0,0,0,1-1V36h3a1,1,0,0,0,1-1V28A3.009,3.009,0,0,0,17,25Zm-6-5a2,2,0,1,1-2,2A2.006,2.006,0,0,1,11,20Zm7,14H16V30a1,1,0,0,0-2,0V45H12V37a1,1,0,0,0-2,0v8H8V30a1,1,0,0,0-2,0v4H4V28a1,1,0,0,1,1-1H17a1,1,0,0,1,1,1Z"/><path d="M43,25H39.62a4,4,0,1,0-5.24,0H31a3.009,3.009,0,0,0-3,3v7a1,1,0,0,0,1,1h3V46a1,1,0,0,0,1,1h8a1,1,0,0,0,1-1V36h3a1,1,0,0,0,1-1V28A3.009,3.009,0,0,0,43,25Zm-6-5a2,2,0,1,1-2,2A2.006,2.006,0,0,1,37,20Zm7,14H42V30a1,1,0,0,0-2,0V45H38V37a1,1,0,0,0-2,0v8H34V30a1,1,0,0,0-2,0v4H30V28a1,1,0,0,1,1-1H43a1,1,0,0,1,1,1Z"/><path d="M59,9H55.62a4,4,0,1,0-5.24,0H47a3.009,3.009,0,0,0-3,3v7a1,1,0,0,0,1,1h3V30a1,1,0,0,0,1,1h8a1,1,0,0,0,1-1V20h3a1,1,0,0,0,1-1V12A3.009,3.009,0,0,0,59,9ZM53,4a2,2,0,1,1-2,2A2.006,2.006,0,0,1,53,4Zm7,14H58V14a1,1,0,0,0-2,0V29H54V21a1,1,0,0,0-2,0v8H50V14a1,1,0,0,0-2,0v4H46V12a1,1,0,0,1,1-1H59a1,1,0,0,1,1,1Z"/><path d="M59,40H55.62a4,4,0,1,0-5.24,0H47a3.009,3.009,0,0,0-3,3v7a1,1,0,0,0,1,1h3V61a1,1,0,0,0,1,1h8a1,1,0,0,0,1-1V51h3a1,1,0,0,0,1-1V43A3.009,3.009,0,0,0,59,40Zm-6-5a2,2,0,1,1-2,2A2.006,2.006,0,0,1,53,35Zm7,14H58V45a1,1,0,0,0-2,0V60H54V52a1,1,0,0,0-2,0v8H50V45a1,1,0,0,0-2,0v4H46V43a1,1,0,0,1,1-1H59a1,1,0,0,1,1,1Z"/><rect height="2" width="2" x="17" y="21"/><rect height="2" width="2" x="20" y="19"/><rect height="2" width="2" x="20" y="23"/><rect height="2" width="2" x="23" y="17"/><rect height="2" width="2" x="23" y="21"/><rect height="2" width="2" x="23" y="25"/><path d="M37,54H35.816a2.746,2.746,0,0,0-.117-.285l.836-.837a1,1,0,1,0-1.414-1.414l-.836.837A2.746,2.746,0,0,0,34,52.184V51a1,1,0,0,0-2,0v1.184a2.746,2.746,0,0,0-.285.117l-.837-.837a1,1,0,0,0-1.414,1.414l.837.837a2.746,2.746,0,0,0-.117.285H29a1,1,0,0,0,0,2h1.184a2.746,2.746,0,0,0,.117.285l-.837.837a1,1,0,1,0,1.414,1.414l.837-.837a2.746,2.746,0,0,0,.285.117V59a1,1,0,0,0,2,0V57.816a2.746,2.746,0,0,0,.285-.117l.836.837a1,1,0,1,0,1.414-1.414l-.836-.837A2.746,2.746,0,0,0,35.816,56H37a1,1,0,0,0,0-2Zm-5,1a1,1,0,1,1,1,1A1,1,0,0,1,32,55Z"/><path d="M29,10h1.184a2.746,2.746,0,0,0,.117.285l-.837.837a1,1,0,1,0,1.414,1.414l.837-.837a2.746,2.746,0,0,0,.285.117V13a1,1,0,0,0,2,0V11.816a2.746,2.746,0,0,0,.285-.117l.836.837a1,1,0,1,0,1.414-1.414l-.836-.837A2.746,2.746,0,0,0,35.816,10H37a1,1,0,0,0,0-2H35.816a2.746,2.746,0,0,0-.117-.285l.836-.837a1,1,0,1,0-1.414-1.414l-.836.837A2.746,2.746,0,0,0,34,6.184V5a1,1,0,0,0-2,0V6.184a2.746,2.746,0,0,0-.285.117l-.837-.837a1,1,0,0,0-1.414,1.414l.837.837A2.746,2.746,0,0,0,30.184,8H29a1,1,0,0,0,0,2Zm5-1a1,1,0,1,1-1-1A1,1,0,0,1,34,9Z"/></g></svg>