<?xml version="1.0" ?><svg viewBox="0 0 64 64" xmlns="http://www.w3.org/2000/svg"><g id="people-virus-mask-protect-covid19"><path d="M42.536,18.878l.171-.171a1,1,0,0,0-1.414-1.414l-.171.171a3,3,0,0,1-4.244,0l-.171-.171a1,1,0,0,0-1.414,1.414l.171.171a5,5,0,0,0,7.072,0Z"/><path d="M49,50H41V47h1a3.009,3.009,0,0,0,3-3V42.66a8.964,8.964,0,0,0,4.15-6.1l1.83-10.39A.468.468,0,0,0,51,26a3,3,0,0,0-2.24-2.89L48,20.84V15a4.975,4.975,0,0,0-1.22-3.24A7.006,7.006,0,0,0,52,5V3a1,1,0,0,0-1-1H25A11.007,11.007,0,0,0,14,13V31.2a15.051,15.051,0,0,0,3.16,9.2,1,1,0,0,0,.14.15L23,45.46V50H15A11.007,11.007,0,0,0,4,61a1,1,0,0,0,2,0,9.014,9.014,0,0,1,9-9h8.25c.99,1.97,4.89,3,8.75,3s7.76-1.03,8.75-3H49a9.014,9.014,0,0,1,9,9,1,1,0,0,0,2,0A11.007,11.007,0,0,0,49,50ZM48,25a1,1,0,0,1,1,.93L47.18,36.22A6.986,6.986,0,0,1,40.29,42H39a3.009,3.009,0,0,1-3-3V26a1,1,0,0,1,1-1Zm-1.95-3.68L46.61,23H37a3.017,3.017,0,0,0-2.73,1.77L25,22.24V14a2.006,2.006,0,0,1,2-2H43a3.009,3.009,0,0,1,3,3v6A1.185,1.185,0,0,0,46.05,21.32ZM23,42.82,18.68,39.1A13.056,13.056,0,0,1,16,31.2V13a9.014,9.014,0,0,1,9-9H50V5a5,5,0,0,1-5,5H27a4,4,0,0,0-4,4v9H21.49a3,3,0,0,0-2.93,3.65l.94,4.22a3.975,3.975,0,0,0,3.5,3.1ZM23.41,32a1.992,1.992,0,0,1-1.96-1.57l-.93-4.21a1,1,0,0,1,.19-.85,1.022,1.022,0,0,1,.78-.37H24a.987.987,0,0,0,.94-.71L34,26.76V37.63l-9-3.3V34a1,1,0,0,0,0-2ZM34,45a1,1,0,0,0,0,2h5v4c0,.58-2.45,2-7,2s-7-1.42-7-2V36.46l9.08,3.33A4.991,4.991,0,0,0,39,44h1.29A9.034,9.034,0,0,0,43,43.58V44a1,1,0,0,1-1,1Z"/></g></svg>