<?xml version="1.0" ?><svg viewBox="0 0 64 64" xmlns="http://www.w3.org/2000/svg"><g id="people-virus-covid19-tempurature-scan"><path d="M21.465,18.878a5,5,0,0,0,7.069,0l.172-.171a1,1,0,1,0-1.412-1.416l-.173.172a3.069,3.069,0,0,1-4.243,0l-.172-.171a1,1,0,1,0-1.412,1.416Z"/><path d="M29,50H27V44h5a1,1,0,0,0,1-1V31h3a.983.983,0,0,0,.81-.42,1,1,0,0,0,.14-.9L34,20.84V15a4.975,4.975,0,0,0-1.22-3.24A7.006,7.006,0,0,0,38,5V3a1,1,0,0,0-1-1H13A11.007,11.007,0,0,0,2,13V29.2a15.051,15.051,0,0,0,3.16,9.2L9,43.34V50H5a3.009,3.009,0,0,0-3,3v8a1,1,0,0,0,2,0V53a1,1,0,0,1,1-1H29a9.014,9.014,0,0,1,9,9,1,1,0,0,0,2,0A11.007,11.007,0,0,0,29,50ZM9,40.08l-2.26-2.9A13.069,13.069,0,0,1,4,29.2V13a9.014,9.014,0,0,1,9-9H36V5a5,5,0,0,1-5,5H13a4,4,0,0,0-4,4v6.17A3.014,3.014,0,0,0,7,23v5a3.014,3.014,0,0,0,2,2.83ZM18,42a1,1,0,0,0,0,2h7v6H11V31h1a1,1,0,0,0,0-2H10a1,1,0,0,1-1-1V23a.949.949,0,0,1,.31-.71A.928.928,0,0,1,10,22h2a1,1,0,0,0,0-2H11V14a2.006,2.006,0,0,1,2-2H29a3.009,3.009,0,0,1,3,3v6a1.185,1.185,0,0,0,.05.32L34.61,29H32a1,1,0,0,0-1,1v5.97l-4,.02h-.01A1.98,1.98,0,0,1,25,34a1,1,0,0,0-2,0,3.978,3.978,0,0,0,3.99,3.99H27l4-.02V42Z"/><path d="M54.95,47.636,50,52.586l-2.121-2.122a1,1,0,1,0-1.414,1.414l2.828,2.829a1,1,0,0,0,1.414,0l5.657-5.657a1,1,0,0,0-1.414-1.414Z"/><rect height="2" width="2" x="57" y="34"/><rect height="2" width="2" x="57" y="38"/><rect height="2" width="2" x="37" y="46"/><rect height="2" width="2" x="33" y="46"/><rect height="2" width="2" x="29" y="46"/><rect height="2" width="2" x="38" y="11"/><rect height="2" width="2" x="42" y="11"/><path d="M51,40A11,11,0,1,0,62,51,11.013,11.013,0,0,0,51,40Zm0,20a9,9,0,1,1,9-9A9.01,9.01,0,0,1,51,60Z"/><path d="M61.55,12.17l-6-4A.967.967,0,0,0,55,8H47a1,1,0,0,0-1,1v6a1,1,0,0,0,1,1h3.32l1.75,4.37A1,1,0,0,0,53,21h1V31a1,1,0,0,0,1,1h6a1,1,0,0,0,1-1V13A1,1,0,0,0,61.55,12.17ZM54,19h-.32l-1.2-3H54Zm6,11H56V15a1,1,0,0,0-1-1H48V10h6.7L60,13.54Z"/></g></svg>