<?xml version="1.0" ?><svg viewBox="0 0 64 64" xmlns="http://www.w3.org/2000/svg"><g id="people-virus-corona-spreading-covid19"><path d="M17,13H15.816a2.746,2.746,0,0,0-.117-.285l.836-.837a1,1,0,0,0-1.414-1.414l-.836.837A2.746,2.746,0,0,0,14,11.184V10a1,1,0,0,0-2,0v1.184a2.746,2.746,0,0,0-.285.117l-.836-.837a1,1,0,0,0-1.414,1.414l.836.837a2.746,2.746,0,0,0-.117.285H9a1,1,0,0,0,0,2h1.184a2.746,2.746,0,0,0,.117.285l-.836.837a1,1,0,1,0,1.414,1.414l.836-.837a2.746,2.746,0,0,0,.285.117V18a1,1,0,0,0,2,0V16.816a2.746,2.746,0,0,0,.285-.117l.836.837a1,1,0,0,0,1.414-1.414l-.836-.837A2.746,2.746,0,0,0,15.816,15H17a1,1,0,0,0,0-2Zm-5,1a1,1,0,1,1,1,1A1,1,0,0,1,12,14Z"/><path d="M55,13H53.816a2.746,2.746,0,0,0-.117-.285l.836-.837a1,1,0,1,0-1.414-1.414l-.836.837A2.746,2.746,0,0,0,52,11.184V10a1,1,0,0,0-2,0v1.184a2.746,2.746,0,0,0-.285.117l-.836-.837a1,1,0,1,0-1.414,1.414l.836.837a2.746,2.746,0,0,0-.117.285H47a1,1,0,0,0,0,2h1.184a2.746,2.746,0,0,0,.117.285l-.836.837a1,1,0,1,0,1.414,1.414l.836-.837a2.746,2.746,0,0,0,.285.117V18a1,1,0,0,0,2,0V16.816a2.746,2.746,0,0,0,.285-.117l.836.837a1,1,0,1,0,1.414-1.414l-.836-.837A2.746,2.746,0,0,0,53.816,15H55a1,1,0,0,0,0-2Zm-5,1a1,1,0,1,1,1,1A1,1,0,0,1,50,14Z"/><path d="M38,40H34.62a4,4,0,1,0-5.24,0H26a3.009,3.009,0,0,0-3,3v7a1,1,0,0,0,1,1h3V61a1,1,0,0,0,1,1h8a1,1,0,0,0,1-1V51h3a1,1,0,0,0,1-1V43A3.009,3.009,0,0,0,38,40Zm-6-5a2,2,0,1,1-2,2A2.006,2.006,0,0,1,32,35Zm7,14H37V45a1,1,0,0,0-2,0V60H33V52a1,1,0,0,0-2,0v8H29V45a1,1,0,0,0-2,0v4H25V43a1,1,0,0,1,1-1H38a1,1,0,0,1,1,1Z"/><path d="M59,40H55.62a4,4,0,1,0-5.24,0H47a3.009,3.009,0,0,0-3,3v7a1,1,0,0,0,1,1h3V61a1,1,0,0,0,1,1h8a1,1,0,0,0,1-1V51h3a1,1,0,0,0,1-1V43A3.009,3.009,0,0,0,59,40Zm-6-5a2,2,0,1,1-2,2A2.006,2.006,0,0,1,53,35Zm7,14H58V45a1,1,0,0,0-2,0V60H54V52a1,1,0,0,0-2,0v8H50V45a1,1,0,0,0-2,0v4H46V43a1,1,0,0,1,1-1H59a1,1,0,0,1,1,1Z"/><path d="M17,40H13.62a4,4,0,1,0-5.24,0H5a3.009,3.009,0,0,0-3,3v7a1,1,0,0,0,1,1H6V61a1,1,0,0,0,1,1h8a1,1,0,0,0,1-1V51h3a1,1,0,0,0,1-1V43A3.009,3.009,0,0,0,17,40Zm-6-5a2,2,0,1,1-2,2A2.006,2.006,0,0,1,11,35Zm7,14H16V45a1,1,0,0,0-2,0V60H12V52a1,1,0,0,0-2,0v8H8V45a1,1,0,0,0-2,0v4H4V43a1,1,0,0,1,1-1H17a1,1,0,0,1,1,1Z"/><path d="M59,2H5A3,3,0,0,0,2,5V23a3,3,0,0,0,3,3H7.421l2.68,4.511a1,1,0,0,0,.854.489h.005a1,1,0,0,0,.855-.482L14.554,26H28.421l2.68,4.511a1,1,0,0,0,.854.489h.005a1,1,0,0,0,.855-.482L35.554,26H49.421l2.68,4.511a1,1,0,0,0,.854.489h.005a1,1,0,0,0,.855-.482L56.554,26H59a3,3,0,0,0,3-3V5A3,3,0,0,0,59,2Zm1,21a1,1,0,0,1-1,1H55.99a1,1,0,0,0-.855.482l-2.166,3.574L50.85,24.489A1,1,0,0,0,49.99,24h-15a1,1,0,0,0-.855.482l-2.166,3.574L29.85,24.489A1,1,0,0,0,28.99,24h-15a1,1,0,0,0-.855.482l-2.166,3.574L8.85,24.489A1,1,0,0,0,7.99,24H5a1,1,0,0,1-1-1V5A1,1,0,0,1,5,4H59a1,1,0,0,1,1,1Z"/><path d="M38,12a1.993,1.993,0,0,0-1.722,1H34.816a2.746,2.746,0,0,0-.117-.285l1.033-1.033a2.022,2.022,0,0,0,.511.074,1.988,1.988,0,0,0,1.414-.585h0a2,2,0,1,0-3.34-.9L33.285,11.3A2.746,2.746,0,0,0,33,11.184V9.722a2,2,0,1,0-2,0v1.462a2.746,2.746,0,0,0-.285.117l-1.033-1.033a1.993,1.993,0,1,0-1.925,1.488,2.022,2.022,0,0,0,.511-.074L29.3,12.715a2.746,2.746,0,0,0-.117.285H27.722a2,2,0,1,0,0,2h1.462a2.746,2.746,0,0,0,.117.285l-1.033,1.033a1.993,1.993,0,0,0-1.925.511h0a2,2,0,1,0,3.34.9L30.715,16.7a2.746,2.746,0,0,0,.285.117v1.462a2,2,0,1,0,2,0V16.816a2.746,2.746,0,0,0,.285-.117l1.033,1.033a2,2,0,1,0,1.413-1.414L34.7,15.285A2.746,2.746,0,0,0,34.816,15h1.462A2,2,0,1,0,38,12Zm-5,2a1,1,0,1,1-1-1A1,1,0,0,1,33,14Z"/></g></svg>