<?xml version="1.0" ?><svg viewBox="0 0 64 64" xmlns="http://www.w3.org/2000/svg"><g id="medical-virus-covid19-drug-syringe"><path d="M27,27V26h3a1,1,0,0,0,1-1V21a3.009,3.009,0,0,0-3-3H14a3.009,3.009,0,0,0-3,3v4a1,1,0,0,0,1,1h3v1a7.008,7.008,0,0,0-7,7V61a1,1,0,0,0,1,1H33a1,1,0,0,0,1-1V34A7.008,7.008,0,0,0,27,27ZM13,24V21a1,1,0,0,1,1-1H28a1,1,0,0,1,1,1v3Zm4,12H32V56H28a1,1,0,0,0,0,2h4v2H10V58H24a1,1,0,0,0,0-2H10V36h3a1,1,0,0,0,0-2H10a5,5,0,0,1,5-5,2.006,2.006,0,0,0,2-2V26h8v1a2.006,2.006,0,0,0,2,2,5,5,0,0,1,5,5H17a1,1,0,0,0,0,2Z"/><path d="M15.343,43.171a1.988,1.988,0,0,0,1.414.585,2.022,2.022,0,0,0,.511-.074L18.3,44.715a2.746,2.746,0,0,0-.117.285H16.722a2,2,0,1,0,0,2h1.462a2.746,2.746,0,0,0,.117.285l-1.033,1.033a1.993,1.993,0,0,0-1.925.511h0a2,2,0,1,0,3.34.9L19.715,48.7a2.746,2.746,0,0,0,.285.117v1.462a2,2,0,1,0,2,0V48.816a2.746,2.746,0,0,0,.285-.117l1.033,1.033a2,2,0,1,0,1.413-1.414L23.7,47.285A2.746,2.746,0,0,0,23.816,47h1.462a2,2,0,1,0,0-2H23.816a2.746,2.746,0,0,0-.117-.285l1.033-1.033a2.022,2.022,0,0,0,.511.074,1.988,1.988,0,0,0,1.414-.585h0a2,2,0,1,0-3.34-.9L22.285,43.3A2.746,2.746,0,0,0,22,43.184V41.722a2,2,0,1,0-2,0v1.462a2.746,2.746,0,0,0-.285.117l-1.033-1.033a2,2,0,1,0-3.339.9ZM20,46a1,1,0,1,1,1,1A1,1,0,0,1,20,46Z"/><path d="M55,56H51V52h3a1,1,0,0,0,1-1V15a1,1,0,0,0-1-1H52V11a1,1,0,0,0-1-1H48V3a1,1,0,0,0-2,0v7H43a1,1,0,0,0-1,1v3H40a1,1,0,0,0-1,1V51a1,1,0,0,0,1,1h3v4H39a1,1,0,0,0-1,1v4a1,1,0,0,0,1,1H55a1,1,0,0,0,1-1V57A1,1,0,0,0,55,56ZM44,12h6v2H44ZM41,50V16H53v2H50a1,1,0,0,0,0,2h3v2H48a1,1,0,0,0,0,2h5v2H50a1,1,0,0,0,0,2h3v2H48a1,1,0,0,0,0,2h5v2H50a1,1,0,0,0,0,2h3v2H48a1,1,0,0,0,0,2h5v2H50a1,1,0,0,0,0,2h3v2H48a1,1,0,0,0,0,2h5v2Zm8,2v4H45V52Zm5,8H40V58H54Z"/></g></svg>