<?xml version="1.0" ?><svg viewBox="0 0 64 64" xmlns="http://www.w3.org/2000/svg"><g id="medical-virus-covid19-drug-hand"><path d="M58.416,35.9a3.921,3.921,0,0,0-1.665-1.563,4,4,0,0,0-3.8.1L42.914,40.227A3.967,3.967,0,0,0,41.656,38a4.056,4.056,0,0,0-2.666-1H30.829a1,1,0,0,1-.708-.293l-.244-.244A4.964,4.964,0,0,0,26.345,35H18.66c-.151,0-.3.01-.5.025a5,5,0,0,0-3.039,1.438L12.5,39.086l-.933-.933a1,1,0,0,0-1.414,0L2.494,45.8a1,1,0,0,0,0,1.415l14.139,14.15a1,1,0,0,0,1.415,0l7.66-7.66a1,1,0,0,0,0-1.414l-.793-.793.207-.207A1,1,0,0,1,25.829,51h13.1a4.93,4.93,0,0,0,2.5-.674l15.52-8.96a3.962,3.962,0,0,0,2-3.466A4.012,4.012,0,0,0,58.416,35.9ZM17.34,59.246,4.615,46.51l6.244-6.237L23.586,53ZM55.95,39.634,40.421,48.6a2.935,2.935,0,0,1-1.491.4h-13.1a2.978,2.978,0,0,0-2.122.879l-.207.207L13.914,40.5l2.623-2.623a2.988,2.988,0,0,1,1.807-.86c.11-.009.213-.017.316-.017h7.685a2.979,2.979,0,0,1,2.118.877l.244.244A2.978,2.978,0,0,0,30.829,39H38.99a2.053,2.053,0,0,1,1.345.5,1.965,1.965,0,0,1,.659,1.288,1.871,1.871,0,0,1-.134.92,1.81,1.81,0,0,1-.447.708A1.986,1.986,0,0,1,39,43H32.42a1,1,0,0,0,0,2H39a3.979,3.979,0,0,0,2.828-1.173,3.846,3.846,0,0,0,.78-1.113l11.338-6.546a2.006,2.006,0,0,1,1.913-.04,1.926,1.926,0,0,1,.824.77,2.025,2.025,0,0,1,.267,1A1.983,1.983,0,0,1,55.95,39.634Z"/><path d="M53,2H37a1,1,0,0,0-1,1V9a1,1,0,0,0,1,1h2V30a6,6,0,0,0,12,0V10h2a1,1,0,0,0,1-1V3A1,1,0,0,0,53,2ZM40,8H38V4h2Zm6-4h2V8H46ZM42,4h2V8H42Zm7,26a4,4,0,0,1-8,0V17.99l8-.04Zm0-14.05-8,.04V10h8ZM52,8H50V4h2Z"/></g></svg>