<?xml version="1.0" ?><svg viewBox="0 0 64 64" xmlns="http://www.w3.org/2000/svg"><g id="hygiene-covid19-hand-coronavirus-handwash"><path d="M56,33H53V30a1,1,0,0,0-1-1H48a1,1,0,0,0-1,1v3H44a1,1,0,0,0-1,1v4a1,1,0,0,0,1,1h3v3a1,1,0,0,0,1,1h4a1,1,0,0,0,1-1V39h3a1,1,0,0,0,1-1V34A1,1,0,0,0,56,33Zm-1,4H52a1,1,0,0,0-1,1v3H49V38a1,1,0,0,0-1-1H45V35h3a1,1,0,0,0,1-1V31h2v3a1,1,0,0,0,1,1h3Z"/><path d="M37.99,50.74a3.037,3.037,0,0,0-2.21-2.61,2.97,2.97,0,0,0,.21-1.39,2.287,2.287,0,0,0-.07-.36,3.162,3.162,0,0,0,1.02-1.18,3.044,3.044,0,0,0-.61-3.36,3.151,3.151,0,0,0,.87-1.1,3.068,3.068,0,0,0-1.32-3.92l-6.43-3.71a3.961,3.961,0,0,0,1.46-1.47l.5-.86a1.01,1.01,0,0,0,.11-.76,1.056,1.056,0,0,0-.47-.61L22.1,24.24a5.057,5.057,0,0,0-3.8-.5l-.9.24a2.956,2.956,0,0,1-2.27-.3L10.5,21.01a1.01,1.01,0,0,0-1.37.37l-7,12.12a1.055,1.055,0,0,0-.1.76,1.026,1.026,0,0,0,.47.61l4.63,2.67a2.971,2.971,0,0,1,1.39,1.82l.25.91a5.164,5.164,0,0,0,1.28,2.19A2.944,2.944,0,0,1,8.34,43H3a1,1,0,0,0-1,1V58a1,1,0,0,0,1,1H8.34a2.956,2.956,0,0,1,2.12.88l.66.66A4.994,4.994,0,0,0,14.66,62H29a3,3,0,0,0,3-3,3,3,0,0,0-.17-1H33a3,3,0,0,0,3-3,2.873,2.873,0,0,0-.21-1.1,2.942,2.942,0,0,0,1.32-.77A2.977,2.977,0,0,0,37.99,50.74ZM8.13,35.8,4.37,33.63l6-10.38,3.76,2.17a5.014,5.014,0,0,0,3.79.5l.9-.25a3.035,3.035,0,0,1,2.28.31l8.08,4.66a2.009,2.009,0,0,1-2.73.74v-.01l-2.59-1.49a1,1,0,0,0-1.36.35,2.994,2.994,0,0,1-2.62,1.51,3.1,3.1,0,0,1-1.49-.39l-.86-.5a.995.995,0,1,0-1,1.72l.86.51a5.013,5.013,0,0,0,6.24-1.03l11.26,6.51a1.067,1.067,0,0,1,.49,1.34.96.96,0,0,1-.65.54.993.993,0,0,1-.75-.1l-8.66-5a1,1,0,1,0-1,1.73l8.65,5a.01.01,0,0,1,.01.01l1.64.93a1.086,1.086,0,0,1,.51,1.33.966.966,0,0,1-.28.35A3.137,3.137,0,0,0,32.89,44H32.2a1.072,1.072,0,0,0-.22-.2l-6.35-3.66A1.954,1.954,0,0,0,25,40H14.66a4.945,4.945,0,0,0-3.13,1.13,3.051,3.051,0,0,1-.83-1.39l-.24-.9A5.049,5.049,0,0,0,8.13,35.8ZM28.32,44H25.46a4.083,4.083,0,0,0,.49-1.37Zm7.37,7.71A.928.928,0,0,1,35,52H23a1,1,0,0,0,0,2H33a1,1,0,0,1,1,1,.949.949,0,0,1-.31.71A.928.928,0,0,1,33,56H23a1,1,0,0,0,0,2h6a1,1,0,0,1,1,1,.949.949,0,0,1-.31.71A.928.928,0,0,1,29,60H14.66a2.956,2.956,0,0,1-2.12-.88l-.66-.66A4.994,4.994,0,0,0,8.34,57H4V45H8.34a4.994,4.994,0,0,0,3.54-1.46l.66-.66A2.956,2.956,0,0,1,14.66,42H24a2.006,2.006,0,0,1-2,2H19a1,1,0,0,0,0,2H32.89a1.092,1.092,0,0,1,1.11.91.985.985,0,0,1-.31.8A.928.928,0,0,1,33,48H23a1,1,0,0,0,0,2H34.89a1.092,1.092,0,0,1,1.11.91A.985.985,0,0,1,35.69,51.71Z"/><path d="M59.68,25.04A8.98,8.98,0,0,0,55,22.25V21a3.01,3.01,0,0,0-2-2.82V13.82A3,3,0,0,0,52,8H32a1,1,0,0,0-1,1,5,5,0,0,0,5,5H47v4.18A3.01,3.01,0,0,0,45,21v1.25a8.984,8.984,0,0,0-6.87,9.87l2.88,23A1,1,0,0,0,42,56H58a1,1,0,0,0,.99-.88l2.88-23A9.023,9.023,0,0,0,59.68,25.04ZM36,12a3.014,3.014,0,0,1-2.83-2H52a1,1,0,0,1,0,2Zm15,8h1a1,1,0,0,1,1,1v1H51Zm-2-2V14h2v4Zm-2,3a1,1,0,0,1,1-1h1v2H47ZM59.88,31.87,57.62,50H46a1,1,0,0,0,0,2H57.37l-.25,2H42.88L40.12,31.87A6.992,6.992,0,0,1,47.06,24h5.88a6.992,6.992,0,0,1,6.94,7.87Z"/><path d="M33.256,17.332C32.712,17.938,30,21.059,30,23a4,4,0,0,0,8,0c0-1.941-2.712-5.062-3.256-5.668A1.031,1.031,0,0,0,33.256,17.332ZM34,25a2,2,0,0,1-2-2c0-.637.939-2.125,2-3.451,1.062,1.332,2,2.831,2,3.451A2,2,0,0,1,34,25Z"/></g></svg>