<?xml version="1.0" encoding="UTF-8" standalone="no"?>
<!-- Created with Inkscape (http://www.inkscape.org/) -->

<svg
   xmlns:dc="http://purl.org/dc/elements/1.1/"
   xmlns:cc="http://creativecommons.org/ns#"
   xmlns:rdf="http://www.w3.org/1999/02/22-rdf-syntax-ns#"
   xmlns:svg="http://www.w3.org/2000/svg"
   xmlns="http://www.w3.org/2000/svg"
   xmlns:sodipodi="http://sodipodi.sourceforge.net/DTD/sodipodi-0.dtd"
   xmlns:inkscape="http://www.inkscape.org/namespaces/inkscape"
   version="1.1"
   id="svg5442"
   xml:space="preserve"
   width="880"
   height="880"
   viewBox="0 0 880 880"
   sodipodi:docname="coronavirus-warning-sign-2-freesvg.org.svg"
   inkscape:version="0.92.4 (5da689c313, 2019-01-14)"><metadata
     id="metadata5448"><rdf:RDF><cc:Work
         rdf:about=""><dc:format>image/svg+xml</dc:format><dc:type
           rdf:resource="http://purl.org/dc/dcmitype/StillImage" /><dc:title></dc:title></cc:Work></rdf:RDF></metadata><defs
     id="defs5446"><clipPath
       clipPathUnits="userSpaceOnUse"
       id="clipPath5458"><path
         d="M 0,660 H 660 V 0 H 0 Z"
         id="path5456"
         inkscape:connector-curvature="0" /></clipPath></defs><sodipodi:namedview
     pagecolor="#ffffff"
     bordercolor="#666666"
     borderopacity="1"
     objecttolerance="10"
     gridtolerance="10"
     guidetolerance="10"
     inkscape:pageopacity="0"
     inkscape:pageshadow="2"
     inkscape:window-width="1920"
     inkscape:window-height="1018"
     id="namedview5444"
     showgrid="false"
     inkscape:zoom="0.67164119"
     inkscape:cx="453.05085"
     inkscape:cy="400.84746"
     inkscape:window-x="-8"
     inkscape:window-y="-8"
     inkscape:window-maximized="1"
     inkscape:current-layer="g5450" /><g
     id="g5450"
     inkscape:groupmode="layer"
     inkscape:label="coronavirus-warning-sign-publicdomainvectors.org"
     transform="matrix(1.3333333,0,0,-1.3333333,0,880)"><g
       id="g5452"><g
         id="g5454"
         clip-path="url(#clipPath5458)"><path
           d="m 331.57,639.792 c -7.761,-0.381 -14.798,-4.676 -18.685,-11.404 L 23.182,126.564 c -4.089,-7.08 -4.086,-15.796 0,-22.877 4.086,-7.082 11.631,-11.447 19.805,-11.449 l 576.994,-0.111 c 8.157,0.004 15.694,4.349 19.784,11.405 4.089,7.055 4.114,15.752 0.065,22.832 L 352.538,628.299 c -4.272,7.471 -12.371,11.909 -20.968,11.493 z"
           style="fill:none;stroke:#110f0d;stroke-width:6.09800005;stroke-linecap:round;stroke-linejoin:miter;stroke-miterlimit:4;stroke-dasharray:none;stroke-opacity:1"
           id="path5460"
           inkscape:connector-curvature="0" /><path
           d="M 332.681,616 43.791,115.582 619.181,115.471 C 523.682,282.32 428.182,449.149 332.681,616"
           style="fill:#fbca07;fill-opacity:1;fill-rule:nonzero;stroke:none"
           id="path5462"
           inkscape:connector-curvature="0" /><path
           d="M 332.681,616 43.791,115.582 619.181,115.471 C 523.682,282.32 428.182,449.149 332.681,616 Z"
           style="fill:none;stroke:#110f0d;stroke-width:15.24600029;stroke-linecap:round;stroke-linejoin:round;stroke-miterlimit:4;stroke-dasharray:none;stroke-opacity:1"
           id="path5464"
           inkscape:connector-curvature="0" /><path
           d="m 432.369,396.778 c 5.777,-7.618 4.282,-18.478 -3.336,-24.256 -3.839,-2.908 -8.497,-3.974 -12.913,-3.342 -5.829,0.833 -11.144,-0.541 -15.834,-4.098 l -12.657,-9.595 c -3.977,-3.015 -11.008,6.398 -7.1,9.363 l 12.659,9.594 c 4.691,3.556 7.449,8.304 8.218,14.14 0.585,4.424 2.867,8.623 6.704,11.531 7.619,5.778 18.483,4.283 24.259,-3.337"
           style="fill:#383435;fill-opacity:1;fill-rule:evenodd;stroke:none"
           id="path5466"
           inkscape:connector-curvature="0" /><path
           d="m 437.227,248.857 c -5.264,-7.981 -16.003,-10.184 -23.987,-4.921 -4.019,2.651 -6.573,6.693 -7.445,11.067 -1.151,5.774 -4.218,10.33 -9.13,13.571 l -13.259,8.743 c -4.167,2.748 2.373,12.509 6.468,9.809 l 13.258,-8.745 c 4.915,-3.24 10.31,-4.265 16.069,-3.05 4.367,0.921 9.086,0.163 13.106,-2.487 7.982,-5.266 10.183,-16.004 4.92,-23.987"
           style="fill:#383435;fill-opacity:1;fill-rule:evenodd;stroke:none"
           id="path5468"
           inkscape:connector-curvature="0" /><path
           d="m 226.228,244.684 c -5.577,7.768 -3.8,18.585 3.968,24.162 3.912,2.808 8.596,3.751 12.995,3.004 5.805,-0.987 11.155,0.252 15.935,3.683 l 12.905,9.262 c 4.053,2.91 10.837,-6.683 6.85,-9.544 l -12.901,-9.263 c -4.784,-3.431 -7.665,-8.105 -8.586,-13.921 -0.702,-4.405 -3.092,-8.543 -7.005,-11.351 -7.767,-5.576 -18.585,-3.8 -24.161,3.968"
           style="fill:#383435;fill-opacity:1;fill-rule:evenodd;stroke:none"
           id="path5470"
           inkscape:connector-curvature="0" /><path
           d="m 211.272,366.758 c 3.537,8.885 13.606,13.221 22.491,9.685 4.472,-1.78 7.792,-5.217 9.535,-9.327 2.299,-5.421 6.224,-9.259 11.694,-11.436 l 14.756,-5.872 c 4.637,-1.848 0.214,-12.732 -4.345,-10.916 l -14.755,5.872 c -5.471,2.177 -10.961,2.085 -16.355,-0.271 -4.088,-1.788 -8.863,-2.004 -13.337,-0.224 -8.885,3.536 -13.22,13.606 -9.684,22.489"
           style="fill:#383435;fill-opacity:1;fill-rule:evenodd;stroke:none"
           id="path5472"
           inkscape:connector-curvature="0" /><path
           d="m 330.29,447.486 c 9.564,0 17.315,-7.751 17.315,-17.314 0,-4.815 -1.967,-9.172 -5.139,-12.309 -4.185,-4.14 -6.301,-9.208 -6.301,-15.093 v -15.883 c 0,-4.992 -11.748,-4.906 -11.748,0 v 15.883 c 0,5.885 -2.116,10.953 -6.301,15.093 -3.173,3.137 -5.138,7.494 -5.138,12.309 0,9.563 7.751,17.314 17.312,17.314"
           style="fill:#383435;fill-opacity:1;fill-rule:evenodd;stroke:none"
           id="path5474"
           inkscape:connector-curvature="0" /><path
           d="m 330.292,240.648 c 43.367,0 78.736,35.371 78.736,78.738 0,43.368 -35.369,78.737 -78.736,78.737 -43.367,0 -78.738,-35.369 -78.738,-78.737 0,-43.367 35.371,-78.738 78.738,-78.738"
           style="fill:#686566;fill-opacity:1;fill-rule:evenodd;stroke:none"
           id="path5476"
           inkscape:connector-curvature="0" /><path
           d="m 387.667,373.301 c 13.244,-14.086 21.36,-33.053 21.36,-53.915 0,-43.486 -35.252,-78.738 -78.737,-78.738 -30.929,0 -57.689,17.838 -70.565,43.786 14.361,-15.278 34.753,-24.823 57.375,-24.823 43.485,0 78.736,35.252 78.736,78.738 0,12.555 -2.943,24.421 -8.169,34.952"
           style="fill:#5f5c5d;fill-opacity:1;fill-rule:evenodd;stroke:none"
           id="path5478"
           inkscape:connector-curvature="0" /><path
           d="m 313.389,389.465 c 22.768,0 36.431,-18.456 30.522,-41.223 -5.911,-22.766 -29.16,-41.222 -51.926,-41.222 -22.768,0 -36.432,18.456 -30.522,41.222 5.911,22.767 29.16,41.223 51.926,41.223"
           style="fill:#727070;fill-opacity:1;fill-rule:evenodd;stroke:none"
           id="path5480"
           inkscape:connector-curvature="0" /><path
           d="m 271.06,419.646 c 8.345,4.668 18.895,1.686 23.562,-6.66 2.352,-4.203 2.762,-8.964 1.525,-13.252 -1.632,-5.655 -0.976,-11.094 1.869,-16.249 l 5.374,-9.743 c 2.41,-4.37 -7.885,-10.032 -10.255,-5.735 l -5.374,9.743 c -2.844,5.156 -7.194,8.528 -12.867,10.098 -4.3,1.191 -8.143,4.032 -10.493,8.235 -4.669,8.345 -1.686,18.894 6.659,23.563"
           style="fill:#383435;fill-opacity:1;fill-rule:evenodd;stroke:none"
           id="path5482"
           inkscape:connector-curvature="0" /><path
           d="m 445.471,336.528 c 1.183,-9.489 -5.551,-18.14 -15.037,-19.323 -4.78,-0.597 -9.345,0.816 -12.853,3.575 -4.625,3.642 -9.909,5.08 -15.757,4.384 l -11.051,-1.311 c -4.955,-0.59 -6.325,11.078 -1.454,11.658 l 11.052,1.311 c 5.846,0.697 10.608,3.455 14.198,8.121 2.72,3.537 6.801,6.028 11.577,6.623 9.491,1.184 18.141,-5.549 19.325,-15.038"
           style="fill:#383435;fill-opacity:1;fill-rule:evenodd;stroke:none"
           id="path5484"
           inkscape:connector-curvature="0" /><path
           d="m 326.006,203.018 c -9.546,0.576 -16.815,8.783 -16.236,18.326 0.291,4.807 2.516,9.038 5.873,11.976 4.429,3.881 6.812,8.812 7.2,14.688 l 0.74,11.102 c 0.33,4.98 12.052,4.186 11.726,-0.709 l -0.737,-11.103 c -0.391,-5.876 1.449,-11.065 5.376,-15.449 2.978,-3.325 4.677,-7.79 4.387,-12.596 -0.579,-9.546 -8.785,-16.815 -18.329,-16.235"
           style="fill:#383435;fill-opacity:1;fill-rule:evenodd;stroke:none"
           id="path5486"
           inkscape:connector-curvature="0" /><path
           d="m 214.999,303.014 c -1.12,9.496 5.67,18.103 15.166,19.222 4.782,0.564 9.339,-0.878 12.827,-3.661 4.602,-3.672 9.877,-5.145 15.727,-4.49 l 11.06,1.241 c 4.959,0.555 6.253,-11.123 1.376,-11.67 l -11.058,-1.24 c -5.851,-0.655 -10.631,-3.382 -14.252,-8.024 -2.745,-3.518 -6.841,-5.981 -11.622,-6.546 -9.497,-1.118 -18.104,5.671 -19.224,15.168"
           style="fill:#383435;fill-opacity:1;fill-rule:evenodd;stroke:none"
           id="path5488"
           inkscape:connector-curvature="0" /><path
           d="m 368.121,395.734 c 8.499,-4.38 11.838,-14.822 7.458,-23.321 -2.208,-4.28 -5.95,-7.253 -10.208,-8.588 -5.617,-1.761 -9.788,-5.314 -12.515,-10.529 l -1.206,-2.302 c -2.31,-4.423 -12.714,1.037 -10.441,5.383 l 1.203,2.3 c 2.726,5.219 3.138,10.708 1.315,16.305 -1.383,4.243 -1.134,9.016 1.073,13.296 4.38,8.499 14.821,11.837 23.321,7.456"
           style="fill:#383435;fill-opacity:1;fill-rule:evenodd;stroke:none"
           id="path5490"
           inkscape:connector-curvature="0" /><path
           d="m 385.087,254.135 c -7.419,-6.031 -18.325,-4.906 -24.358,2.511 -3.037,3.739 -4.258,8.357 -3.776,12.793 0.636,5.853 -0.946,11.097 -4.633,15.686 l -1.628,2.026 c -3.124,3.89 6.043,11.236 9.117,7.411 l 1.626,-2.026 c 3.689,-4.588 8.551,-7.164 14.411,-7.735 4.441,-0.433 8.716,-2.573 11.753,-6.31 6.031,-7.418 4.906,-18.323 -2.512,-24.356"
           style="fill:#383435;fill-opacity:1;fill-rule:evenodd;stroke:none"
           id="path5492"
           inkscape:connector-curvature="0" /><path
           d="m 279.706,250.819 c -7.604,5.798 -9.066,16.663 -3.268,24.266 2.918,3.829 7.125,6.102 11.55,6.673 5.839,0.753 10.567,3.522 14.163,8.181 l 1.586,2.055 c 3.049,3.951 12.341,-3.239 9.343,-7.124 l -1.586,-2.056 c -3.599,-4.659 -4.962,-9.993 -4.143,-15.822 0.619,-4.419 -0.457,-9.075 -3.379,-12.903 -5.799,-7.604 -16.662,-9.069 -24.266,-3.27"
           style="fill:#383435;fill-opacity:1;fill-rule:evenodd;stroke:none"
           id="path5494"
           inkscape:connector-curvature="0" /><path
           d="m 317.789,306.86 c 9.421,0 17.107,7.685 17.107,17.107 0,9.424 -7.686,17.108 -17.107,17.108 -9.424,0 -17.108,-7.684 -17.108,-17.108 0,-9.422 7.684,-17.107 17.108,-17.107"
           style="fill:#383435;fill-opacity:1;fill-rule:evenodd;stroke:none"
           id="path5496"
           inkscape:connector-curvature="0" /><path
           d="m 369.215,279.961 c -5.009,-0.878 -9.07,-4.866 -9.07,-8.907 0,-4.041 4.061,-6.608 9.07,-5.727 5.009,0.878 9.067,4.865 9.067,8.908 0,4.039 -4.058,6.603 -9.067,5.726 m -47.202,-44.728 c -5.007,-0.878 -9.068,-4.865 -9.068,-8.907 0,-4.042 4.061,-6.605 9.068,-5.726 5.009,0.877 9.069,4.865 9.069,8.907 0,4.04 -4.06,6.605 -9.069,5.726 m -36.688,43.285 c -5.009,-0.878 -9.069,-4.866 -9.069,-8.906 0,-4.042 4.06,-6.607 9.069,-5.728 5.008,0.878 9.068,4.865 9.068,8.908 0,4.04 -4.06,6.605 -9.068,5.726 m -49.057,-9.276 c -5.008,-0.878 -9.069,-4.865 -9.069,-8.907 0,-4.04 4.061,-6.606 9.069,-5.726 5.009,0.878 9.069,4.867 9.069,8.905 0,4.042 -4.06,6.607 -9.069,5.728 m -8.861,49.675 c -5.01,-0.878 -9.072,-4.866 -9.072,-8.906 0,-4.041 4.062,-6.606 9.072,-5.728 5.008,0.878 9.067,4.866 9.067,8.907 0,4.041 -4.059,6.607 -9.067,5.727 m -4.194,55.815 c -5.009,-0.878 -9.069,-4.867 -9.069,-8.908 0,-4.04 4.06,-6.605 9.069,-5.727 5.009,0.878 9.068,4.866 9.068,8.907 0,4.041 -4.059,6.606 -9.068,5.728 m 52.219,43.946 c -5.01,-0.879 -9.069,-4.865 -9.069,-8.906 0,-4.042 4.059,-6.605 9.069,-5.728 5.009,0.879 9.071,4.868 9.071,8.908 0,4.042 -4.062,6.605 -9.071,5.726 m 38.131,-80.593 c -5.008,-0.877 -9.067,-4.866 -9.067,-8.906 0,-4.04 4.059,-6.605 9.067,-5.727 5.01,0.879 9.071,4.866 9.071,8.909 0,4.04 -4.061,6.604 -9.071,5.724 m 100.688,62.351 c -5.009,-0.878 -9.069,-4.866 -9.069,-8.906 0,-4.041 4.06,-6.605 9.069,-5.727 5.01,0.878 9.069,4.866 9.069,8.908 0,4.04 -4.059,6.603 -9.069,5.725 m -58.022,-4.387 c -5.006,-0.878 -9.068,-4.864 -9.068,-8.907 0,-4.039 4.062,-6.603 9.068,-5.726 5.011,0.878 9.071,4.866 9.071,8.907 0,4.041 -4.06,6.605 -9.071,5.726 m -30.503,49.057 c -5.009,-0.878 -9.071,-4.866 -9.071,-8.907 0,-4.041 4.062,-6.604 9.071,-5.725 5.007,0.878 9.068,4.865 9.068,8.906 0,4.042 -4.061,6.604 -9.068,5.726 M 419.92,273.881 c -5.008,-0.879 -9.069,-4.867 -9.069,-8.908 0,-4.041 4.061,-6.606 9.069,-5.726 5.008,0.877 9.069,4.865 9.069,8.905 0,4.042 -4.061,6.606 -9.069,5.729 m 5.358,75.336 c -5.008,-0.879 -9.07,-4.866 -9.07,-8.907 0,-4.043 4.062,-6.607 9.07,-5.727 5.01,0.877 9.069,4.866 9.069,8.907 0,4.042 -4.059,6.605 -9.069,5.727"
           style="fill:#4a4647;fill-opacity:1;fill-rule:evenodd;stroke:none"
           id="path5498"
           inkscape:connector-curvature="0" /><path
           d="m 121.077,182.228 c 2.729,0 5.363,-0.6 7.906,-1.795 1.196,-0.561 2.027,-0.841 2.495,-0.841 0.336,0 0.878,0.084 1.626,0.253 0.243,0.054 0.514,0.084 0.813,0.084 0.972,0 1.822,-0.45 2.551,-1.347 1.794,-2.168 2.691,-4.859 2.691,-8.074 0,-2.261 -0.775,-3.916 -2.326,-4.962 -0.842,-0.562 -1.786,-0.841 -2.832,-0.841 -0.953,0 -1.729,0.206 -2.327,0.616 -0.598,0.411 -1.177,1.141 -1.738,2.188 -0.804,1.475 -1.458,2.537 -1.963,3.181 -0.504,0.646 -1.121,1.23 -1.85,1.753 -1.813,1.271 -3.71,1.906 -5.691,1.906 -1.925,0 -3.453,-0.696 -4.584,-2.089 -1.131,-1.393 -1.696,-3.256 -1.696,-5.593 0,-3.214 0.813,-6.157 2.439,-8.83 2.205,-3.569 5.364,-5.356 9.476,-5.356 1.514,0 3.014,0.252 4.499,0.758 1.486,0.504 2.64,1.158 3.463,1.962 0.71,0.673 1.289,1.01 1.738,1.01 0.654,0 1.214,-0.305 1.682,-0.912 0.467,-0.608 0.701,-1.34 0.701,-2.199 0,-1.084 -0.327,-2.3 -0.981,-3.646 -0.655,-1.346 -1.44,-2.401 -2.355,-3.168 -0.393,-0.317 -1.206,-0.598 -2.439,-0.841 -0.71,-0.131 -1.654,-0.476 -2.832,-1.038 -2.766,-1.325 -5.644,-1.989 -8.634,-1.989 -3.122,0 -6.234,0.7 -9.336,2.102 -3.607,1.626 -6.458,4.121 -8.551,7.485 -2.056,3.27 -3.084,6.691 -3.084,10.261 0,4.149 1.29,7.933 3.87,11.353 2.242,2.974 5.167,5.243 8.774,6.814 2.747,1.195 5.579,1.795 8.495,1.795"
           style="fill:#110f0d;fill-opacity:1;fill-rule:nonzero;stroke:none"
           id="path5500"
           inkscape:connector-curvature="0" /><path
           d="m 160.104,174.181 c -1.57,0 -2.813,-0.702 -3.729,-2.103 -0.71,-1.047 -1.065,-2.289 -1.065,-3.727 0,-2.115 0.429,-4.558 1.289,-7.333 0.86,-2.776 1.944,-5.238 3.253,-7.387 0.579,-0.916 1.294,-1.645 2.144,-2.187 0.85,-0.542 1.715,-0.812 2.593,-0.812 1.42,0 2.565,0.532 3.434,1.597 0.87,1.066 1.304,2.467 1.304,4.206 0,2.261 -0.364,4.701 -1.093,7.316 -0.729,2.618 -1.673,4.852 -2.832,6.701 -0.71,1.14 -1.532,2.037 -2.467,2.692 -0.935,0.654 -1.878,0.999 -2.831,1.037 m 2.663,8.047 c 4.803,0 8.999,-1.374 12.587,-4.123 2.43,-1.886 4.402,-4.336 5.916,-7.345 1.476,-2.989 2.215,-5.981 2.215,-8.971 0,-4.41 -1.459,-8.353 -4.374,-11.831 -2.467,-2.951 -5.691,-5.073 -9.672,-6.363 -2.449,-0.784 -4.906,-1.177 -7.373,-1.177 -3.233,0 -6.326,0.672 -9.279,2.018 -3.57,1.627 -6.365,4.084 -8.383,7.374 -1.963,3.176 -2.944,6.68 -2.944,10.512 0,4.449 1.262,8.373 3.786,11.775 2.242,3.027 5.26,5.252 9.055,6.673 2.541,0.971 5.364,1.458 8.466,1.458"
           style="fill:#110f0d;fill-opacity:1;fill-rule:nonzero;stroke:none"
           id="path5502"
           inkscape:connector-curvature="0" /><path
           d="m 202.635,173.564 -0.309,-6.532 v -0.253 c 0,-0.673 0.098,-1.121 0.294,-1.345 0.197,-0.225 0.594,-0.336 1.192,-0.336 1.645,0 2.841,0.424 3.588,1.275 0.748,0.85 1.122,2.21 1.122,4.079 0,3.607 -1.281,5.411 -3.841,5.411 -0.729,0 -1.243,-0.169 -1.542,-0.505 -0.299,-0.337 -0.467,-0.934 -0.504,-1.794 m 1.626,-14.298 c -0.711,0 -1.164,-0.214 -1.36,-0.645 -0.197,-0.429 -0.295,-1.429 -0.295,-2.999 0,-2.374 0.15,-4.225 0.449,-5.552 0.094,-0.374 0.234,-0.662 0.421,-0.868 0.187,-0.206 0.542,-0.458 1.065,-0.757 1.122,-0.617 1.683,-1.43 1.683,-2.438 0,-1.235 -0.781,-2.109 -2.342,-2.622 -1.561,-0.514 -4.2,-0.772 -7.92,-0.772 -6.915,0 -10.372,1.309 -10.372,3.925 0,0.449 0.102,0.809 0.308,1.08 0.206,0.271 0.672,0.649 1.401,1.135 0.823,0.543 1.379,1.183 1.669,1.921 0.29,0.738 0.49,2.014 0.603,3.827 0.093,1.326 0.14,6.082 0.14,14.27 0,2.596 -0.131,4.363 -0.393,5.298 -0.261,0.934 -0.822,1.616 -1.682,2.046 -0.823,0.393 -1.374,0.752 -1.655,1.08 -0.28,0.326 -0.419,0.752 -0.419,1.276 0,0.691 0.266,1.294 0.798,1.807 0.533,0.514 1.276,0.892 2.229,1.136 0.804,0.206 1.907,0.309 3.308,0.309 0.617,0 2.159,-0.095 4.626,-0.282 0.467,-0.038 1.205,-0.055 2.215,-0.055 1.681,0 3.924,0.112 6.728,0.337 1.775,0.131 3.019,0.195 3.729,0.195 3.999,0 7.307,-0.962 9.924,-2.887 2.355,-1.739 3.532,-4.149 3.532,-7.233 0,-1.72 -0.411,-3.286 -1.234,-4.695 -0.822,-1.413 -1.952,-2.472 -3.391,-3.183 -0.599,-0.299 -0.898,-0.654 -0.898,-1.066 0,-0.541 0.458,-0.981 1.374,-1.317 1.963,-0.711 3.401,-1.785 4.317,-3.224 0.916,-1.439 1.571,-3.644 1.963,-6.616 0.169,-1.234 0.411,-2.033 0.729,-2.397 0.318,-0.364 1.056,-0.716 2.215,-1.052 0.355,-0.111 0.654,-0.35 0.897,-0.714 0.243,-0.365 0.364,-0.771 0.364,-1.22 0,-0.58 -0.224,-1.164 -0.673,-1.752 -0.448,-0.589 -1.027,-1.051 -1.737,-1.388 -1.571,-0.729 -3.72,-1.093 -6.448,-1.093 -3.646,0 -6.253,0.963 -7.822,2.888 -0.71,0.859 -1.313,1.943 -1.808,3.252 -0.496,1.307 -1.08,3.344 -1.753,6.112 -0.43,1.774 -0.976,3.027 -1.64,3.756 -0.664,0.729 -1.612,1.121 -2.845,1.177"
           style="fill:#110f0d;fill-opacity:1;fill-rule:nonzero;stroke:none"
           id="path5504"
           inkscape:connector-curvature="0" /><path
           d="m 247.941,174.181 c -1.57,0 -2.813,-0.702 -3.728,-2.103 -0.711,-1.047 -1.066,-2.289 -1.066,-3.727 0,-2.115 0.43,-4.558 1.29,-7.333 0.859,-2.776 1.943,-5.238 3.252,-7.387 0.579,-0.916 1.294,-1.645 2.144,-2.187 0.851,-0.542 1.715,-0.812 2.593,-0.812 1.421,0 2.566,0.532 3.435,1.597 0.869,1.066 1.304,2.467 1.304,4.206 0,2.261 -0.365,4.701 -1.094,7.316 -0.729,2.618 -1.673,4.852 -2.831,6.701 -0.711,1.14 -1.533,2.037 -2.468,2.692 -0.934,0.654 -1.878,0.999 -2.831,1.037 m 2.663,8.047 c 4.803,0 9,-1.374 12.588,-4.123 2.43,-1.886 4.401,-4.336 5.915,-7.345 1.476,-2.989 2.215,-5.981 2.215,-8.971 0,-4.41 -1.458,-8.353 -4.373,-11.831 -2.468,-2.951 -5.692,-5.073 -9.673,-6.363 -2.448,-0.784 -4.906,-1.177 -7.372,-1.177 -3.234,0 -6.327,0.672 -9.28,2.018 -3.57,1.627 -6.364,4.084 -8.383,7.374 -1.962,3.176 -2.943,6.68 -2.943,10.512 0,4.449 1.262,8.373 3.785,11.775 2.243,3.027 5.261,5.252 9.055,6.673 2.542,0.971 5.364,1.458 8.466,1.458"
           style="fill:#110f0d;fill-opacity:1;fill-rule:nonzero;stroke:none"
           id="path5506"
           inkscape:connector-curvature="0" /><path
           d="m 289.184,180.097 13.961,-12.224 c 1.307,-1.141 2.251,-1.71 2.832,-1.71 0.97,0 1.457,1.037 1.457,3.111 0,2.356 -0.14,3.963 -0.422,4.823 -0.279,0.859 -0.867,1.504 -1.764,1.934 -0.729,0.356 -1.244,0.734 -1.542,1.135 -0.3,0.402 -0.449,0.921 -0.449,1.557 0,1.569 1.075,2.579 3.224,3.027 0.878,0.188 2.41,0.28 4.597,0.28 2.822,0 4.775,-0.169 5.86,-0.505 1.719,-0.523 2.58,-1.512 2.58,-2.97 0,-1.216 -0.703,-2.131 -2.104,-2.748 -0.56,-0.244 -0.943,-0.458 -1.149,-0.646 -0.206,-0.186 -0.385,-0.466 -0.534,-0.84 -0.504,-1.233 -0.765,-3.569 -0.783,-7.008 v -9.14 c 0,-1.402 0.008,-3.318 0.027,-5.747 0.019,-3.289 -0.178,-5.663 -0.588,-7.121 -0.506,-1.814 -1.421,-2.719 -2.748,-2.719 -0.58,0 -1.08,0.122 -1.5,0.363 -0.421,0.244 -1.116,0.805 -2.089,1.684 l -16.625,14.886 c -1.157,1.046 -2.121,1.57 -2.886,1.57 -1.142,0 -1.711,-1.579 -1.711,-4.738 0,-2.598 0.145,-4.373 0.435,-5.328 0.289,-0.953 0.883,-1.653 1.78,-2.101 1.252,-0.617 1.878,-1.421 1.878,-2.411 0,-2.599 -2.794,-3.898 -8.382,-3.898 -2.523,0 -4.481,0.332 -5.873,0.996 -1.393,0.663 -2.089,1.602 -2.089,2.818 0,0.635 0.131,1.111 0.392,1.428 0.262,0.319 0.851,0.749 1.767,1.291 0.878,0.522 1.41,1.448 1.597,2.775 0.318,2.412 0.478,5.878 0.478,10.401 0,4.823 -0.281,8.335 -0.842,10.541 -0.206,0.804 -0.468,1.402 -0.785,1.794 -0.318,0.393 -0.841,0.767 -1.57,1.122 -0.841,0.409 -1.425,0.812 -1.752,1.205 -0.327,0.392 -0.49,0.869 -0.49,1.43 0,1.794 1.541,2.925 4.626,3.393 1.045,0.149 2.877,0.223 5.494,0.223 1.495,0 2.584,-0.116 3.266,-0.35 0.681,-0.235 1.491,-0.762 2.426,-1.583"
           style="fill:#110f0d;fill-opacity:1;fill-rule:nonzero;stroke:none"
           id="path5508"
           inkscape:connector-curvature="0" /><path
           d="m 336.564,159.014 h 5.495 c 1.009,0 1.514,0.224 1.514,0.673 0,0.617 -0.701,2.13 -2.102,4.542 -0.636,1.102 -1.122,1.839 -1.458,2.213 -0.337,0.374 -0.692,0.562 -1.066,0.562 -0.673,0 -1.233,-0.627 -1.681,-1.879 -0.076,-0.168 -0.346,-0.832 -0.814,-1.989 -0.784,-1.908 -1.178,-3.047 -1.178,-3.421 0,-0.468 0.43,-0.701 1.29,-0.701 m 19.512,3.532 5.299,-11.355 c 0.504,-1.045 0.926,-1.733 1.262,-2.059 0.336,-0.327 0.849,-0.548 1.542,-0.659 1.345,-0.206 2.017,-0.888 2.017,-2.046 0,-1.365 -0.821,-2.347 -2.466,-2.944 -1.645,-0.598 -4.336,-0.897 -8.074,-0.897 -4.223,0 -7.355,0.177 -9.391,0.531 -0.935,0.168 -1.678,0.511 -2.229,1.024 -0.552,0.514 -0.828,1.136 -0.828,1.866 0,0.559 0.145,0.993 0.435,1.302 0.29,0.309 0.828,0.594 1.612,0.855 0.879,0.3 1.317,0.805 1.317,1.515 0,1.252 -0.757,1.99 -2.269,2.215 -1.626,0.223 -3.916,0.335 -6.869,0.335 -2.487,0 -3.972,-0.149 -4.457,-0.448 -0.3,-0.187 -0.562,-0.524 -0.787,-1.01 -0.223,-0.485 -0.336,-0.953 -0.336,-1.401 0,-0.412 0.081,-0.678 0.239,-0.799 0.158,-0.121 0.678,-0.323 1.555,-0.602 1.141,-0.337 1.71,-1.011 1.71,-2.02 0,-2.224 -2.664,-3.336 -7.989,-3.336 -3.028,0 -5.253,0.206 -6.673,0.618 -1.308,0.392 -1.962,1.252 -1.962,2.578 0,0.58 0.144,1.028 0.434,1.346 0.29,0.318 0.81,0.608 1.558,0.869 1.214,0.43 2.134,1.033 2.76,1.808 0.626,0.775 1.519,2.436 2.677,4.978 l 3.954,8.662 c 1.458,3.176 2.434,5.554 2.929,7.134 0.495,1.58 0.752,3.127 0.77,4.64 0.02,1.607 0.119,2.725 0.294,3.351 0.179,0.626 0.577,1.237 1.193,1.836 1.289,1.308 2.934,1.963 4.934,1.963 1.888,0 3.692,-0.74 5.41,-2.215 2.393,-2.019 5.87,-7.898 10.429,-17.635"
           style="fill:#110f0d;fill-opacity:1;fill-rule:nonzero;stroke:none"
           id="path5510"
           inkscape:connector-curvature="0" /><path
           d="m 400.485,172.752 -12.867,-26.046 c -0.786,-1.607 -1.533,-2.715 -2.244,-3.321 -0.71,-0.608 -1.606,-0.911 -2.691,-0.911 -0.897,0 -1.7,0.196 -2.41,0.588 -0.542,0.299 -0.968,0.65 -1.276,1.051 -0.308,0.402 -0.696,1.126 -1.163,2.173 l -11.467,25.26 c -0.635,1.42 -1.21,2.387 -1.723,2.901 -0.515,0.514 -1.248,0.856 -2.202,1.024 -1.122,0.206 -1.681,0.896 -1.681,2.074 0,1.439 0.98,2.547 2.943,3.323 1.962,0.776 4.775,1.162 8.439,1.162 3.813,0 6.616,-0.289 8.41,-0.868 1.794,-0.58 2.691,-1.477 2.691,-2.691 0,-0.786 -0.485,-1.515 -1.458,-2.188 -0.748,-0.504 -1.121,-0.98 -1.121,-1.429 0,-0.411 0.168,-1 0.505,-1.766 l 3.505,-7.906 c 0.504,-1.16 1.073,-1.739 1.71,-1.739 0.616,0 1.167,0.308 1.653,0.926 0.485,0.615 1.14,1.831 1.963,3.644 1.477,3.253 2.336,5.173 2.58,5.762 0.241,0.588 0.363,1.041 0.363,1.359 0,0.635 -0.439,1.177 -1.317,1.627 -0.973,0.504 -1.458,1.148 -1.458,1.933 0,2.224 2.981,3.336 8.943,3.336 2.971,0 5.071,-0.238 6.294,-0.715 1.224,-0.476 1.836,-1.294 1.836,-2.453 0,-1.383 -0.804,-2.177 -2.411,-2.383 -1.141,-0.13 -1.878,-0.317 -2.214,-0.56 -0.598,-0.43 -1.308,-1.486 -2.132,-3.167"
           style="fill:#110f0d;fill-opacity:1;fill-rule:nonzero;stroke:none"
           id="path5512"
           inkscape:connector-curvature="0" /><path
           d="m 419.974,182.03 c 2.13,0 4.138,-0.186 6.027,-0.56 2.541,-0.505 3.812,-1.579 3.812,-3.224 0,-0.542 -0.127,-0.949 -0.379,-1.22 -0.252,-0.271 -0.892,-0.668 -1.92,-1.191 -0.86,-0.43 -1.425,-1.374 -1.696,-2.831 -0.271,-1.458 -0.407,-4.299 -0.407,-8.524 0,-7.139 0.178,-11.559 0.533,-13.259 0.13,-0.542 0.332,-0.958 0.603,-1.248 0.271,-0.29 0.743,-0.603 1.416,-0.939 1.233,-0.561 1.85,-1.374 1.85,-2.439 0,-1.496 -1.139,-2.524 -3.42,-3.084 -2.468,-0.598 -5.486,-0.898 -9.055,-0.898 -6.093,0 -9.14,1.159 -9.14,3.478 0,0.84 0.598,1.626 1.794,2.354 0.915,0.561 1.457,1.326 1.627,2.299 0.355,2.13 0.532,6.653 0.532,13.569 0,4.784 -0.244,7.849 -0.729,9.195 -0.261,0.765 -0.888,1.458 -1.878,2.075 -0.767,0.504 -1.28,0.925 -1.542,1.262 -0.262,0.336 -0.393,0.765 -0.393,1.29 0,0.803 0.389,1.443 1.164,1.92 0.775,0.475 2.145,0.901 4.107,1.275 2.337,0.467 4.7,0.7 7.094,0.7"
           style="fill:#110f0d;fill-opacity:1;fill-rule:nonzero;stroke:none"
           id="path5514"
           inkscape:connector-curvature="0" /><path
           d="m 448.429,173.564 -0.309,-6.532 v -0.253 c 0,-0.673 0.099,-1.121 0.294,-1.345 0.197,-0.225 0.595,-0.336 1.192,-0.336 1.644,0 2.841,0.424 3.589,1.275 0.746,0.85 1.12,2.21 1.12,4.079 0,3.607 -1.279,5.411 -3.839,5.411 -0.73,0 -1.244,-0.169 -1.543,-0.505 -0.298,-0.337 -0.466,-0.934 -0.504,-1.794 m 1.626,-14.298 c -0.71,0 -1.164,-0.214 -1.36,-0.645 -0.197,-0.429 -0.294,-1.429 -0.294,-2.999 0,-2.374 0.15,-4.225 0.448,-5.552 0.094,-0.374 0.234,-0.662 0.422,-0.868 0.186,-0.206 0.542,-0.458 1.064,-0.757 1.121,-0.617 1.683,-1.43 1.683,-2.438 0,-1.235 -0.78,-2.109 -2.341,-2.622 -1.561,-0.514 -4.201,-0.772 -7.921,-0.772 -6.914,0 -10.372,1.309 -10.372,3.925 0,0.449 0.102,0.809 0.308,1.08 0.206,0.271 0.673,0.649 1.402,1.135 0.822,0.543 1.378,1.183 1.668,1.921 0.29,0.738 0.491,2.014 0.603,3.827 0.093,1.326 0.141,6.082 0.141,14.27 0,2.596 -0.133,4.363 -0.393,5.298 -0.262,0.934 -0.824,1.616 -1.683,2.046 -0.822,0.393 -1.374,0.752 -1.654,1.08 -0.281,0.326 -0.42,0.752 -0.42,1.276 0,0.691 0.266,1.294 0.798,1.807 0.534,0.514 1.276,0.892 2.23,1.136 0.804,0.206 1.905,0.309 3.307,0.309 0.618,0 2.16,-0.095 4.626,-0.282 0.467,-0.038 1.206,-0.055 2.214,-0.055 1.684,0 3.925,0.112 6.73,0.337 1.775,0.131 3.018,0.195 3.728,0.195 3.999,0 7.308,-0.962 9.924,-2.887 2.356,-1.739 3.532,-4.149 3.532,-7.233 0,-1.72 -0.41,-3.286 -1.233,-4.695 -0.822,-1.413 -1.952,-2.472 -3.392,-3.183 -0.598,-0.299 -0.896,-0.654 -0.896,-1.066 0,-0.541 0.458,-0.981 1.374,-1.317 1.962,-0.711 3.4,-1.785 4.316,-3.224 0.916,-1.439 1.571,-3.644 1.963,-6.616 0.168,-1.234 0.41,-2.033 0.729,-2.397 0.317,-0.364 1.055,-0.716 2.215,-1.052 0.355,-0.111 0.653,-0.35 0.897,-0.714 0.241,-0.365 0.363,-0.771 0.363,-1.22 0,-0.58 -0.223,-1.164 -0.672,-1.752 -0.449,-0.589 -1.027,-1.051 -1.738,-1.388 -1.571,-0.729 -3.721,-1.093 -6.447,-1.093 -3.646,0 -6.253,0.963 -7.822,2.888 -0.71,0.859 -1.313,1.943 -1.809,3.252 -0.496,1.307 -1.08,3.344 -1.752,6.112 -0.43,1.774 -0.978,3.027 -1.641,3.756 -0.664,0.729 -1.612,1.121 -2.845,1.177"
           style="fill:#110f0d;fill-opacity:1;fill-rule:nonzero;stroke:none"
           id="path5516"
           inkscape:connector-curvature="0" /><path
           d="m 515.996,167.424 v -6.84 c 0,-4.131 -0.308,-7.056 -0.927,-8.774 -1.325,-3.627 -4.241,-6.253 -8.746,-7.879 -2.729,-1.009 -5.812,-1.513 -9.251,-1.513 -6,0 -10.802,1.429 -14.41,4.288 -1.757,1.401 -2.972,3.027 -3.645,4.878 -0.672,1.852 -1.008,4.523 -1.008,8.019 0,1.365 0.046,3.606 0.14,6.728 0.055,2.205 0.084,3.663 0.084,4.373 0,1.552 -0.118,2.625 -0.35,3.225 -0.235,0.597 -0.744,1.158 -1.529,1.682 -1.233,0.803 -1.85,1.7 -1.85,2.692 0,0.728 0.313,1.373 0.939,1.933 0.626,0.56 1.453,0.944 2.482,1.15 2.055,0.411 4.485,0.616 7.288,0.616 3.084,0 5.645,-0.232 7.682,-0.7 1.999,-0.448 2.999,-1.468 2.999,-3.056 0,-0.786 -0.29,-1.412 -0.869,-1.879 -0.131,-0.112 -0.691,-0.401 -1.681,-0.869 -0.6,-0.261 -1.005,-0.737 -1.22,-1.429 -0.216,-0.692 -0.323,-1.832 -0.323,-3.421 0,-1.626 -0.075,-5.139 -0.225,-10.54 -0.092,-3.215 0.776,-5.664 2.608,-7.346 1.496,-1.383 3.42,-2.074 5.775,-2.074 1.495,0 2.851,0.275 4.065,0.827 1.215,0.55 2.141,1.302 2.776,2.256 0.505,0.73 0.85,1.542 1.037,2.44 0.186,0.897 0.28,2.121 0.28,3.673 v 6.167 c -0.094,4.728 -0.228,7.499 -0.406,8.312 -0.178,0.814 -0.78,1.453 -1.808,1.92 -0.972,0.43 -1.635,0.823 -1.991,1.178 -0.354,0.355 -0.532,0.794 -0.532,1.317 0,1.121 0.668,1.94 2.004,2.453 1.337,0.514 3.481,0.771 6.434,0.771 2.897,0 4.995,-0.252 6.293,-0.756 1.299,-0.506 1.95,-1.308 1.95,-2.412 0,-0.542 -0.113,-0.943 -0.337,-1.205 -0.225,-0.262 -0.814,-0.662 -1.766,-1.205 -0.991,-0.561 -1.557,-1.163 -1.696,-1.809 -0.14,-0.644 -0.229,-3.042 -0.266,-7.191"
           style="fill:#110f0d;fill-opacity:1;fill-rule:nonzero;stroke:none"
           id="path5518"
           inkscape:connector-curvature="0" /><path
           d="m 538.903,182.228 c 1.924,0 4.448,-0.478 7.57,-1.432 0.373,-0.111 0.673,-0.168 0.897,-0.168 0.187,0 0.747,0.168 1.681,0.506 0.299,0.112 0.617,0.168 0.954,0.168 1.252,0 2.573,-0.99 3.966,-2.972 1.393,-1.981 2.089,-3.868 2.089,-5.662 0,-1.048 -0.314,-1.931 -0.94,-2.649 -0.626,-0.721 -1.387,-1.081 -2.283,-1.081 -0.748,0 -1.356,0.15 -1.824,0.449 -0.466,0.3 -1.494,1.186 -3.083,2.663 -2.242,2.093 -4.449,3.139 -6.617,3.139 -1.046,0 -1.882,-0.252 -2.508,-0.756 -0.627,-0.504 -0.94,-1.168 -0.94,-1.99 0,-1.627 1.431,-2.851 4.29,-3.672 3.868,-1.141 6.345,-1.973 7.429,-2.497 4.766,-2.317 7.148,-5.727 7.148,-10.231 0,-3.981 -1.626,-7.234 -4.877,-9.757 -3.328,-2.579 -7.672,-3.868 -13.036,-3.868 -2.393,0 -4.917,0.284 -7.57,0.855 -2.653,0.57 -4.569,1.238 -5.747,2.004 -0.898,0.597 -1.705,1.902 -2.426,3.911 -0.719,2.009 -1.079,3.966 -1.079,5.874 0,0.915 0.188,1.607 0.562,2.073 0.467,0.599 1.055,0.897 1.765,0.897 0.71,0 1.393,-0.363 2.047,-1.093 0.393,-0.411 1.317,-1.728 2.775,-3.954 0.691,-1.046 1.791,-1.916 3.294,-2.606 1.504,-0.691 3.062,-1.036 4.668,-1.036 1.383,0 2.505,0.256 3.365,0.769 0.859,0.514 1.29,1.174 1.29,1.977 0,0.748 -0.337,1.392 -1.01,1.934 -0.674,0.542 -1.766,1.047 -3.28,1.514 -2.673,0.842 -4.71,1.613 -6.112,2.313 -1.402,0.702 -2.71,1.584 -3.925,2.65 -2.952,2.617 -4.429,5.588 -4.429,8.915 0,1.645 0.383,3.246 1.149,4.808 0.767,1.56 1.851,2.912 3.252,4.051 3.141,2.635 6.972,3.954 11.495,3.954"
           style="fill:#110f0d;fill-opacity:1;fill-rule:nonzero;stroke:none"
           id="path5520"
           inkscape:connector-curvature="0" /></g></g></g></svg>