<?xml version="1.0" encoding="UTF-8" standalone="no"?>
<!-- Created with Inkscape (http://www.inkscape.org/) -->

<svg
   xmlns:dc="http://purl.org/dc/elements/1.1/"
   xmlns:cc="http://creativecommons.org/ns#"
   xmlns:rdf="http://www.w3.org/1999/02/22-rdf-syntax-ns#"
   xmlns:svg="http://www.w3.org/2000/svg"
   xmlns="http://www.w3.org/2000/svg"
   xmlns:sodipodi="http://sodipodi.sourceforge.net/DTD/sodipodi-0.dtd"
   xmlns:inkscape="http://www.inkscape.org/namespaces/inkscape"
   version="1.1"
   id="svg4761"
   xml:space="preserve"
   width="800"
   height="800"
   viewBox="0 0 800 800"
   sodipodi:docname="coronavirus-sign-sticker-freesvg.org.svg"
   inkscape:version="0.92.4 (5da689c313, 2019-01-14)"><metadata
     id="metadata4767"><rdf:RDF><cc:Work
         rdf:about=""><dc:format>image/svg+xml</dc:format><dc:type
           rdf:resource="http://purl.org/dc/dcmitype/StillImage" /><dc:title></dc:title></cc:Work></rdf:RDF></metadata><defs
     id="defs4765"><clipPath
       clipPathUnits="userSpaceOnUse"
       id="clipPath4777"><path
         d="M 0,600 H 600 V 0 H 0 Z"
         id="path4775"
         inkscape:connector-curvature="0" /></clipPath></defs><sodipodi:namedview
     pagecolor="#ffffff"
     bordercolor="#666666"
     borderopacity="1"
     objecttolerance="10"
     gridtolerance="10"
     guidetolerance="10"
     inkscape:pageopacity="0"
     inkscape:pageshadow="2"
     inkscape:window-width="1920"
     inkscape:window-height="1018"
     id="namedview4763"
     showgrid="false"
     inkscape:zoom="0.82116393"
     inkscape:cx="562.71186"
     inkscape:cy="374.57627"
     inkscape:window-x="-8"
     inkscape:window-y="-8"
     inkscape:window-maximized="1"
     inkscape:current-layer="g4769" /><g
     id="g4769"
     inkscape:groupmode="layer"
     inkscape:label="coronavirus-sign-skull-publicdomainvectors.org"
     transform="matrix(1.3333333,0,0,-1.3333333,0,800)"><g
       id="g4771"><g
         id="g4773"
         clip-path="url(#clipPath4777)"><path
           d="m 534.144,339.978 c 0,131.443 -106.556,237.999 -238,237.999 -131.444,0 -238,-106.556 -238,-237.999 0,-131.445 106.556,-238.001 238,-238.001 131.444,0 238,106.556 238,238.001"
           style="fill:#ed1c24;fill-opacity:1;fill-rule:nonzero;stroke:none"
           id="path4779"
           inkscape:connector-curvature="0" /><path
           d="m 129.589,339.978 c 0,-91.84 74.716,-166.557 166.555,-166.557 91.838,0 166.555,74.717 166.555,166.557 0,91.837 -74.717,166.554 -166.555,166.554 -91.839,0 -166.555,-74.717 -166.555,-166.554"
           style="fill:#ffffff;fill-opacity:1;fill-rule:nonzero;stroke:none"
           id="path4781"
           inkscape:connector-curvature="0" /><path
           d="m 418.497,425.593 c 6.763,-8.918 5.015,-21.629 -3.904,-28.392 -4.493,-3.405 -9.945,-4.651 -15.114,-3.912 -6.822,0.976 -13.044,-0.634 -18.535,-4.797 l -14.814,-11.23 c -4.653,-3.531 -12.883,7.487 -8.308,10.957 l 14.814,11.231 c 5.49,4.162 8.72,9.719 9.621,16.551 0.682,5.178 3.355,10.093 7.847,13.496 8.918,6.763 21.632,5.016 28.393,-3.904"
           style="fill:#357ea6;fill-opacity:1;fill-rule:evenodd;stroke:none"
           id="path4783"
           inkscape:connector-curvature="0" /><path
           d="m 424.185,252.451 c -6.163,-9.341 -18.733,-11.92 -28.077,-5.757 -4.705,3.102 -7.696,7.831 -8.713,12.953 -1.349,6.758 -4.938,12.09 -10.689,15.881 l -15.519,10.238 c -4.875,3.216 2.778,14.64 7.571,11.478 l 15.517,-10.234 c 5.755,-3.794 12.068,-4.991 18.812,-3.571 5.109,1.078 10.631,0.192 15.339,-2.911 9.34,-6.162 11.919,-18.732 5.759,-28.077"
           style="fill:#357ea6;fill-opacity:1;fill-rule:evenodd;stroke:none"
           id="path4785"
           inkscape:connector-curvature="0" /><path
           d="m 177.212,247.567 c -6.526,9.094 -4.446,21.755 4.646,28.281 4.579,3.288 10.062,4.39 15.212,3.515 6.794,-1.153 13.055,0.294 18.652,4.314 l 15.103,10.84 c 4.744,3.408 12.685,-7.824 8.018,-11.17 l -15.101,-10.84 c -5.597,-4.019 -8.971,-9.489 -10.051,-16.296 -0.82,-5.159 -3.617,-10 -8.197,-13.289 -9.092,-6.525 -21.755,-4.446 -28.282,4.645"
           style="fill:#357ea6;fill-opacity:1;fill-rule:evenodd;stroke:none"
           id="path4787"
           inkscape:connector-curvature="0" /><path
           d="m 159.708,390.455 c 4.139,10.399 15.924,15.474 26.324,11.334 5.236,-2.084 9.122,-6.107 11.161,-10.915 2.692,-6.345 7.286,-10.838 13.688,-13.386 l 17.271,-6.875 c 5.428,-2.161 0.251,-14.902 -5.086,-12.776 l -17.27,6.874 c -6.402,2.547 -12.828,2.44 -19.142,-0.319 -4.786,-2.093 -10.375,-2.344 -15.612,-0.261 -10.398,4.14 -15.473,15.925 -11.334,26.324"
           style="fill:#357ea6;fill-opacity:1;fill-rule:evenodd;stroke:none"
           id="path4789"
           inkscape:connector-curvature="0" /><path
           d="m 299.018,484.945 c 11.191,0 20.263,-9.074 20.263,-20.265 0,-5.638 -2.3,-10.737 -6.011,-14.409 -4.899,-4.846 -7.375,-10.776 -7.375,-17.667 v -18.589 c 0,-5.842 -13.754,-5.743 -13.754,0 v 18.589 c 0,6.891 -2.476,12.821 -7.374,17.667 -3.713,3.672 -6.014,8.771 -6.014,14.409 0,11.191 9.072,20.265 20.265,20.265"
           style="fill:#357ea6;fill-opacity:1;fill-rule:evenodd;stroke:none"
           id="path4791"
           inkscape:connector-curvature="0" /><path
           d="m 299.02,242.845 c 50.757,0 92.159,41.401 92.159,92.159 0,50.763 -41.402,92.162 -92.159,92.162 -50.761,0 -92.162,-41.399 -92.162,-92.162 0,-50.758 41.401,-92.159 92.162,-92.159"
           style="fill:#5fbfe5;fill-opacity:1;fill-rule:evenodd;stroke:none"
           id="path4793"
           inkscape:connector-curvature="0" /><path
           d="m 366.175,398.112 c 15.501,-16.489 25.002,-38.687 25.002,-63.108 0,-50.898 -41.262,-92.159 -92.159,-92.159 -36.204,0 -67.525,20.88 -82.597,51.249 16.809,-17.883 40.676,-29.054 67.155,-29.054 50.9,0 92.16,41.263 92.16,92.161 0,14.695 -3.445,28.585 -9.561,40.911"
           style="fill:#54b4dd;fill-opacity:1;fill-rule:evenodd;stroke:none"
           id="path4795"
           inkscape:connector-curvature="0" /><path
           d="m 279.234,417.033 c 26.651,0 42.643,-21.603 35.725,-48.252 -6.92,-26.647 -34.13,-48.252 -60.779,-48.252 -26.648,0 -42.642,21.605 -35.724,48.252 6.919,26.649 34.13,48.252 60.778,48.252"
           style="fill:#6bcbec;fill-opacity:1;fill-rule:evenodd;stroke:none"
           id="path4797"
           inkscape:connector-curvature="0" /><path
           d="m 229.689,452.358 c 9.769,5.463 22.116,1.973 27.579,-7.795 2.752,-4.919 3.232,-10.493 1.784,-15.51 -1.909,-6.621 -1.143,-12.988 2.186,-19.021 l 6.293,-11.404 c 2.821,-5.114 -9.229,-11.742 -12.004,-6.713 l -6.289,11.405 c -3.33,6.034 -8.421,9.981 -15.062,11.82 -5.034,1.392 -9.531,4.719 -12.281,9.638 -5.466,9.769 -1.975,22.117 7.794,27.58"
           style="fill:#357ea6;fill-opacity:1;fill-rule:evenodd;stroke:none"
           id="path4799"
           inkscape:connector-curvature="0" /><path
           d="m 433.834,355.069 c 1.387,-11.105 -6.497,-21.232 -17.602,-22.617 -5.592,-0.697 -10.937,0.956 -15.042,4.185 -5.413,4.262 -11.602,5.946 -18.443,5.133 l -12.936,-1.538 c -5.799,-0.688 -7.404,12.969 -1.703,13.646 l 12.937,1.538 c 6.842,0.813 12.417,4.043 16.62,9.505 3.182,4.139 7.959,7.055 13.551,7.751 11.107,1.386 21.233,-6.496 22.618,-17.603"
           style="fill:#357ea6;fill-opacity:1;fill-rule:evenodd;stroke:none"
           id="path4801"
           inkscape:connector-curvature="0" /><path
           d="m 294.002,198.798 c -11.174,0.676 -19.681,10.282 -19.004,21.452 0.339,5.626 2.945,10.576 6.873,14.016 5.185,4.544 7.974,10.316 8.43,17.189 l 0.864,12.999 c 0.387,5.83 14.108,4.9 13.726,-0.83 l -0.862,-12.997 c -0.457,-6.877 1.694,-12.95 6.291,-18.08 3.487,-3.892 5.475,-9.121 5.135,-14.745 -0.677,-11.174 -10.281,-19.683 -21.453,-19.004"
           style="fill:#357ea6;fill-opacity:1;fill-rule:evenodd;stroke:none"
           id="path4803"
           inkscape:connector-curvature="0" /><path
           d="m 164.07,315.842 c -1.311,11.116 6.637,21.19 17.752,22.501 5.598,0.659 10.93,-1.03 15.013,-4.286 5.387,-4.298 11.561,-6.023 18.409,-5.256 l 12.945,1.451 c 5.805,0.65 7.318,-13.018 1.611,-13.659 l -12.943,-1.449 c -6.849,-0.767 -12.444,-3.959 -16.683,-9.393 -3.214,-4.119 -8.007,-7.001 -13.604,-7.66 -11.115,-1.315 -21.19,6.637 -22.5,17.751"
           style="fill:#357ea6;fill-opacity:1;fill-rule:evenodd;stroke:none"
           id="path4805"
           inkscape:connector-curvature="0" /><path
           d="m 343.298,424.371 c 9.948,-5.129 13.854,-17.35 8.728,-27.299 -2.584,-5.009 -6.965,-8.487 -11.946,-10.051 -6.578,-2.062 -11.458,-6.218 -14.65,-12.325 l -1.409,-2.694 c -2.708,-5.176 -14.883,1.213 -12.224,6.301 l 1.408,2.693 c 3.191,6.108 3.672,12.532 1.537,19.084 -1.615,4.966 -1.328,10.553 1.256,15.563 5.129,9.948 17.351,13.854 27.3,8.728"
           style="fill:#357ea6;fill-opacity:1;fill-rule:evenodd;stroke:none"
           id="path4807"
           inkscape:connector-curvature="0" /><path
           d="m 363.153,258.629 c -8.683,-7.061 -21.446,-5.743 -28.508,2.941 -3.554,4.374 -4.983,9.781 -4.419,14.974 0.742,6.851 -1.111,12.989 -5.425,18.36 l -1.905,2.371 c -3.657,4.552 7.076,13.151 10.672,8.674 l 1.902,-2.369 c 4.318,-5.371 10.009,-8.387 16.869,-9.057 5.198,-0.505 10.202,-3.01 13.756,-7.383 7.06,-8.685 5.746,-21.449 -2.942,-28.511"
           style="fill:#357ea6;fill-opacity:1;fill-rule:evenodd;stroke:none"
           id="path4809"
           inkscape:connector-curvature="0" /><path
           d="m 239.81,254.749 c -8.9,6.786 -10.613,19.502 -3.827,28.404 3.417,4.481 8.339,7.14 13.519,7.808 6.834,0.885 12.369,4.124 16.578,9.578 l 1.858,2.404 c 3.567,4.626 14.442,-3.792 10.934,-8.337 l -1.856,-2.405 c -4.212,-5.457 -5.808,-11.699 -4.849,-18.523 0.725,-5.172 -0.536,-10.62 -3.955,-15.104 -6.786,-8.898 -19.504,-10.613 -28.402,-3.825"
           style="fill:#357ea6;fill-opacity:1;fill-rule:evenodd;stroke:none"
           id="path4811"
           inkscape:connector-curvature="0" /><path
           d="m 284.384,320.346 c 11.028,0 20.023,8.994 20.023,20.022 0,11.03 -8.995,20.026 -20.023,20.026 -11.031,0 -20.025,-8.996 -20.025,-20.026 0,-11.028 8.994,-20.022 20.025,-20.022"
           style="fill:#357ea6;fill-opacity:1;fill-rule:evenodd;stroke:none"
           id="path4813"
           inkscape:connector-curvature="0" /><path
           d="m 344.577,288.857 c -5.862,-1.027 -10.616,-5.695 -10.616,-10.424 0,-4.73 4.754,-7.731 10.616,-6.703 5.861,1.029 10.612,5.696 10.612,10.427 0,4.728 -4.751,7.729 -10.612,6.7 m -55.249,-52.351 c -5.86,-1.028 -10.614,-5.697 -10.614,-10.427 0,-4.73 4.754,-7.73 10.614,-6.703 5.863,1.028 10.617,5.696 10.617,10.427 0,4.729 -4.754,7.732 -10.617,6.703 m -42.943,50.665 c -5.863,-1.029 -10.614,-5.697 -10.614,-10.426 0,-4.731 4.751,-7.733 10.614,-6.703 5.862,1.026 10.615,5.695 10.615,10.425 0,4.729 -4.753,7.732 -10.615,6.704 m -57.42,-10.858 c -5.861,-1.03 -10.614,-5.697 -10.614,-10.424 0,-4.732 4.753,-7.733 10.614,-6.704 5.863,1.028 10.615,5.696 10.615,10.426 0,4.728 -4.752,7.731 -10.615,6.702 m -10.373,58.143 c -5.863,-1.027 -10.616,-5.694 -10.616,-10.424 0,-4.731 4.753,-7.732 10.616,-6.704 5.862,1.028 10.615,5.697 10.615,10.427 0,4.73 -4.753,7.732 -10.615,6.701 m -4.907,65.331 c -5.864,-1.029 -10.616,-5.696 -10.616,-10.427 0,-4.728 4.752,-7.73 10.616,-6.703 5.861,1.028 10.615,5.697 10.615,10.426 0,4.73 -4.754,7.731 -10.615,6.704 m 61.121,51.439 c -5.862,-1.029 -10.615,-5.696 -10.615,-10.425 0,-4.731 4.753,-7.732 10.615,-6.703 5.863,1.027 10.617,5.695 10.617,10.424 0,4.731 -4.754,7.733 -10.617,6.704 m 44.632,-94.331 c -5.862,-1.029 -10.613,-5.698 -10.613,-10.426 0,-4.731 4.751,-7.732 10.613,-6.704 5.864,1.028 10.617,5.695 10.617,10.427 0,4.729 -4.753,7.73 -10.617,6.703 m 117.853,72.98 c -5.862,-1.029 -10.613,-5.697 -10.613,-10.427 0,-4.73 4.751,-7.73 10.613,-6.702 5.864,1.027 10.616,5.694 10.616,10.426 0,4.729 -4.752,7.729 -10.616,6.703 m -67.912,-5.136 c -5.861,-1.028 -10.615,-5.694 -10.615,-10.426 0,-4.729 4.754,-7.73 10.615,-6.702 5.863,1.028 10.615,5.697 10.615,10.426 0,4.731 -4.752,7.731 -10.615,6.702 m -35.706,57.421 c -5.862,-1.028 -10.615,-5.697 -10.615,-10.426 0,-4.73 4.753,-7.731 10.615,-6.705 5.864,1.029 10.615,5.698 10.615,10.427 0,4.73 -4.751,7.732 -10.615,6.704 M 403.927,281.743 c -5.863,-1.027 -10.614,-5.699 -10.614,-10.427 0,-4.729 4.751,-7.731 10.614,-6.703 5.861,1.028 10.614,5.696 10.614,10.425 0,4.73 -4.753,7.731 -10.614,6.705 m 6.273,88.18 c -5.863,-1.028 -10.616,-5.697 -10.616,-10.427 0,-4.73 4.753,-7.732 10.616,-6.704 5.863,1.027 10.615,5.697 10.615,10.427 0,4.729 -4.752,7.731 -10.615,6.704"
           style="fill:#4297c1;fill-opacity:1;fill-rule:evenodd;stroke:none"
           id="path4815"
           inkscape:connector-curvature="0" /><path
           d="m 90.666,320.498 c -2.742,1.237 -4.501,3.95 -4.501,6.973 0,0.32 0.02,0.642 0.06,0.96 0.28,-0.044 0.559,-0.109 0.829,-0.194 -0.029,-0.254 -0.043,-0.511 -0.043,-0.766 0,-2.646 1.534,-5.045 3.926,-6.163 -0.07,-0.277 -0.16,-0.547 -0.271,-0.81 m 9.424,2.602 c -0.834,-1.198 -1.977,-2.121 -3.314,-2.682 -0.113,0.26 -0.207,0.527 -0.281,0.801 2.51,1.077 4.121,3.51 4.121,6.252 0,0.276 -0.017,0.553 -0.05,0.828 0.272,0.074 0.551,0.128 0.832,0.161 0.043,-0.328 0.064,-0.66 0.064,-0.989 0,-1.574 -0.474,-3.085 -1.372,-4.371 m -6.277,11.173 c -1.395,0 -2.728,-0.419 -3.87,-1.211 -0.213,0.192 -0.411,0.4 -0.593,0.621 1.306,0.941 2.843,1.436 4.463,1.436 1.619,0 3.155,-0.495 4.46,-1.434 -0.182,-0.221 -0.38,-0.429 -0.593,-0.621 -1.14,0.791 -2.473,1.209 -3.867,1.209 m 8.261,-4.577 c -3.845,0 -6.974,-3.129 -6.974,-6.974 0,-3.846 3.129,-6.974 6.974,-6.974 0.631,0 1.251,0.084 1.846,0.247 -1.085,-0.503 -2.282,-0.77 -3.524,-0.77 -2.525,0 -4.888,1.124 -6.486,3.084 l -0.179,0.218 -0.178,-0.218 c -1.597,-1.96 -3.961,-3.084 -6.486,-3.084 -1.183,0 -2.341,0.251 -3.4,0.723 0.54,-0.134 1.099,-0.2 1.667,-0.2 3.846,0 6.975,3.128 6.975,6.974 0,3.845 -3.129,6.974 -6.975,6.974 -2.88,0 -5.358,-1.755 -6.42,-4.252 0.306,1.348 0.944,2.606 1.869,3.659 1.327,1.51 3.151,2.493 5.132,2.766 l 0.298,0.041 -0.117,0.277 c -0.429,1.024 -0.648,2.112 -0.648,3.233 0,2.573 1.177,4.931 3.077,6.483 -1.065,-1.238 -1.689,-2.842 -1.689,-4.552 0,-3.847 3.129,-6.975 6.975,-6.975 3.845,0 6.974,3.128 6.974,6.975 0,1.71 -0.625,3.314 -1.69,4.552 1.901,-1.552 3.078,-3.91 3.078,-6.483 0,-1.129 -0.221,-2.224 -0.657,-3.254 l -0.115,-0.272 0.292,-0.045 c 1.949,-0.305 3.737,-1.298 5.034,-2.799 0.964,-1.115 1.609,-2.461 1.882,-3.893 -0.989,2.649 -3.545,4.539 -6.535,4.539 m -8.343,-0.27 c -1.078,0 -1.956,-0.876 -1.956,-1.955 0,-1.079 0.878,-1.956 1.956,-1.956 1.08,0 1.957,0.877 1.957,1.956 0,1.079 -0.877,1.955 -1.957,1.955"
           style="fill:#ffffff;fill-opacity:1;fill-rule:nonzero;stroke:none"
           id="path4817"
           inkscape:connector-curvature="0" /><path
           d="m 494.019,326.579 c -2.742,1.237 -4.5,3.95 -4.5,6.973 0,0.321 0.018,0.642 0.059,0.96 0.281,-0.043 0.56,-0.109 0.829,-0.193 -0.027,-0.255 -0.043,-0.512 -0.043,-0.767 0,-2.645 1.534,-5.044 3.925,-6.162 -0.068,-0.277 -0.16,-0.548 -0.27,-0.811 m 9.426,2.603 c -0.838,-1.198 -1.979,-2.121 -3.317,-2.683 -0.112,0.26 -0.206,0.528 -0.28,0.802 2.511,1.077 4.122,3.51 4.122,6.251 0,0.277 -0.019,0.554 -0.051,0.829 0.272,0.073 0.551,0.127 0.833,0.161 0.043,-0.328 0.063,-0.66 0.063,-0.99 0,-1.573 -0.473,-3.084 -1.37,-4.37 m -6.278,11.173 c -1.396,0 -2.729,-0.419 -3.871,-1.21 -0.212,0.19 -0.41,0.398 -0.592,0.62 1.306,0.94 2.843,1.435 4.463,1.435 1.617,0 3.154,-0.495 4.459,-1.433 -0.181,-0.222 -0.38,-0.43 -0.593,-0.621 -1.139,0.791 -2.473,1.209 -3.866,1.209 m 8.261,-4.578 c -3.845,0 -6.974,-3.129 -6.974,-6.974 0,-3.845 3.129,-6.974 6.974,-6.974 0.63,0 1.249,0.085 1.845,0.248 -1.085,-0.504 -2.281,-0.771 -3.525,-0.771 -2.522,0 -4.887,1.125 -6.483,3.084 l -0.18,0.219 -0.178,-0.219 c -1.598,-1.959 -3.963,-3.084 -6.488,-3.084 -1.182,0 -2.34,0.252 -3.398,0.723 0.539,-0.133 1.098,-0.2 1.667,-0.2 3.844,0 6.974,3.129 6.974,6.974 0,3.845 -3.13,6.974 -6.974,6.974 -2.88,0 -5.358,-1.755 -6.42,-4.251 0.306,1.348 0.944,2.606 1.869,3.658 1.326,1.511 3.15,2.494 5.132,2.767 l 0.297,0.04 -0.116,0.278 c -0.43,1.024 -0.648,2.112 -0.648,3.232 0,2.574 1.177,4.932 3.078,6.483 -1.067,-1.238 -1.69,-2.84 -1.69,-4.551 0,-3.847 3.129,-6.975 6.974,-6.975 3.845,0 6.974,3.128 6.974,6.975 0,1.711 -0.624,3.313 -1.691,4.551 1.902,-1.551 3.079,-3.909 3.079,-6.483 0,-1.129 -0.22,-2.223 -0.658,-3.254 l -0.113,-0.272 0.292,-0.044 c 1.948,-0.305 3.736,-1.299 5.033,-2.8 0.965,-1.115 1.608,-2.46 1.884,-3.892 -0.991,2.648 -3.546,4.538 -6.536,4.538 m -8.343,-0.269 c -1.077,0 -1.955,-0.877 -1.955,-1.956 0,-1.079 0.878,-1.956 1.955,-1.956 1.078,0 1.956,0.877 1.956,1.956 0,1.079 -0.878,1.956 -1.956,1.956"
           style="fill:#ffffff;fill-opacity:1;fill-rule:nonzero;stroke:none"
           id="path4819"
           inkscape:connector-curvature="0" /><path
           d="m 199.572,128.92 -68.656,45.006 250.845,382.672 68.657,-45.006 z"
           style="fill:#ed1c24;fill-opacity:1;fill-rule:evenodd;stroke:none"
           id="path4821"
           inkscape:connector-curvature="0" /><path
           d="m 108.359,375.649 c 0.337,-0.824 0.597,-1.712 0.782,-2.67 0.185,-0.956 0.312,-1.886 0.382,-2.791 0.07,-0.905 0.1,-1.744 0.088,-2.518 -0.012,-0.774 -0.046,-1.399 -0.104,-1.873 -0.25,-2.049 -0.823,-3.875 -1.719,-5.483 -0.896,-1.608 -2.027,-2.94 -3.392,-4.002 -1.363,-1.062 -2.924,-1.823 -4.683,-2.287 -1.757,-0.462 -3.631,-0.573 -5.62,-0.33 -2.151,0.262 -4.011,0.873 -5.581,1.832 -1.57,0.96 -2.841,2.177 -3.813,3.652 -0.971,1.473 -1.639,3.159 -2.003,5.054 -0.363,1.898 -0.415,3.914 -0.154,6.051 0.146,1.202 0.365,2.342 0.654,3.421 0.29,1.079 0.61,2.124 0.959,3.138 0.046,0.128 0.122,0.227 0.228,0.298 0.107,0.07 0.213,0.105 0.318,0.107 0.21,-0.01 0.48,-0.023 0.809,-0.041 0.328,-0.018 0.683,-0.043 1.063,-0.074 0.381,-0.03 0.769,-0.06 1.165,-0.084 0.396,-0.028 0.761,-0.052 1.097,-0.079 0.335,-0.025 0.623,-0.049 0.861,-0.071 0.239,-0.022 0.387,-0.037 0.447,-0.044 l -0.025,-1.126 c -0.931,0.024 -1.742,-0.151 -2.436,-0.527 -0.693,-0.374 -1.277,-0.872 -1.752,-1.492 -0.474,-0.619 -0.85,-1.322 -1.127,-2.11 -0.276,-0.787 -0.464,-1.581 -0.561,-2.381 -0.198,-1.617 -0.102,-3.057 0.286,-4.317 0.389,-1.259 1.006,-2.343 1.85,-3.252 0.847,-0.908 1.887,-1.638 3.122,-2.189 1.236,-0.549 2.61,-0.916 4.124,-1.101 1.766,-0.214 3.439,-0.173 5.018,0.123 1.58,0.296 2.985,0.859 4.214,1.688 1.231,0.828 2.254,1.923 3.067,3.284 0.814,1.361 1.339,3.008 1.574,4.936 0.141,1.158 0.151,2.294 0.031,3.407 -0.119,1.114 -0.326,2.253 -0.621,3.42 z"
           style="fill:#ffffff;fill-opacity:1;fill-rule:nonzero;stroke:none"
           id="path4823"
           inkscape:connector-curvature="0" /><path
           d="m 91.782,403.041 c -0.434,-1.399 -0.522,-2.687 -0.262,-3.864 0.26,-1.177 0.771,-2.232 1.529,-3.164 0.759,-0.932 1.713,-1.742 2.861,-2.427 1.15,-0.687 2.395,-1.237 3.736,-1.654 1.5,-0.466 3.027,-0.766 4.583,-0.897 1.557,-0.132 3.014,-0.025 4.373,0.319 1.36,0.345 2.565,0.964 3.618,1.858 1.053,0.893 1.824,2.126 2.311,3.696 0.435,1.4 0.511,2.691 0.23,3.874 -0.282,1.183 -0.813,2.244 -1.593,3.184 -0.781,0.938 -1.755,1.755 -2.926,2.447 -1.17,0.692 -2.426,1.247 -3.768,1.665 -1.499,0.466 -3.015,0.76 -4.55,0.885 -1.534,0.125 -2.971,0.013 -4.309,-0.339 -1.338,-0.351 -2.522,-0.978 -3.554,-1.877 -1.031,-0.9 -1.791,-2.136 -2.279,-3.706 m -1.466,1.63 c 0.573,1.841 1.375,3.415 2.407,4.723 1.033,1.307 2.251,2.318 3.655,3.031 1.404,0.715 2.98,1.112 4.728,1.196 1.747,0.083 3.613,-0.183 5.597,-0.801 2.17,-0.674 3.992,-1.589 5.464,-2.744 1.474,-1.154 2.595,-2.493 3.366,-4.016 0.771,-1.523 1.196,-3.202 1.277,-5.035 0.08,-1.833 -0.196,-3.762 -0.825,-5.79 -0.573,-1.841 -1.388,-3.415 -2.444,-4.723 -1.057,-1.308 -2.297,-2.316 -3.722,-3.023 -1.425,-0.708 -3.018,-1.097 -4.778,-1.168 -1.759,-0.071 -3.639,0.203 -5.637,0.825 -2.155,0.669 -3.963,1.58 -5.421,2.73 -1.459,1.15 -2.562,2.482 -3.313,4 -0.75,1.517 -1.153,3.188 -1.211,5.014 -0.06,1.826 0.227,3.754 0.857,5.781"
           style="fill:#ffffff;fill-opacity:1;fill-rule:nonzero;stroke:none"
           id="path4825"
           inkscape:connector-curvature="0" /><path
           d="m 115.051,430.654 c 0.468,1.055 0.793,2.033 0.977,2.932 0.185,0.899 0.199,1.724 0.042,2.472 -0.156,0.75 -0.494,1.432 -1.014,2.051 -0.52,0.619 -1.251,1.173 -2.191,1.666 -0.781,0.41 -1.54,0.622 -2.276,0.635 -0.735,0.015 -1.427,-0.138 -2.076,-0.457 -0.648,-0.318 -1.248,-0.781 -1.801,-1.386 -0.553,-0.605 -1.042,-1.311 -1.465,-2.119 -0.277,-0.53 -0.442,-0.95 -0.495,-1.26 -0.052,-0.31 0.119,-0.569 0.517,-0.777 l 20.606,-10.793 c 0.317,-0.167 0.419,-0.423 0.306,-0.768 -0.079,-0.246 -0.172,-0.514 -0.281,-0.803 -0.11,-0.289 -0.222,-0.568 -0.337,-0.836 -0.116,-0.27 -0.227,-0.515 -0.335,-0.736 -0.109,-0.223 -0.19,-0.387 -0.246,-0.493 -0.166,-0.317 -0.415,-0.389 -0.746,-0.215 l -19.929,10.438 c -0.662,0.347 -1.179,0.433 -1.551,0.255 -0.371,-0.177 -0.678,-0.498 -0.921,-0.96 -0.139,-0.267 -0.272,-0.567 -0.398,-0.905 l -1.155,0.452 c 0.468,1.442 0.999,2.916 1.593,4.42 0.593,1.503 1.279,2.997 2.056,4.481 0.334,0.635 0.711,1.291 1.131,1.965 0.42,0.675 0.881,1.312 1.38,1.91 0.5,0.6 1.038,1.136 1.616,1.611 0.577,0.473 1.194,0.829 1.851,1.067 0.657,0.239 1.352,0.34 2.083,0.303 0.731,-0.037 1.501,-0.268 2.309,-0.692 0.862,-0.45 1.553,-0.976 2.073,-1.579 0.52,-0.6 0.912,-1.262 1.175,-1.983 0.265,-0.72 0.416,-1.48 0.454,-2.277 0.039,-0.794 0,-1.611 -0.116,-2.445 l 0.119,-0.062 c 0.24,0.297 0.531,0.599 0.87,0.911 0.341,0.312 0.735,0.582 1.185,0.811 0.449,0.229 0.953,0.395 1.514,0.498 0.56,0.103 1.181,0.095 1.861,-0.025 l 5.32,-0.912 c 0.725,-0.128 1.318,-0.206 1.776,-0.236 0.458,-0.028 0.832,0 1.12,0.085 0.29,0.084 0.527,0.231 0.711,0.438 0.185,0.207 0.37,0.49 0.559,0.848 l 1.064,-0.482 c -0.079,-0.28 -0.174,-0.58 -0.283,-0.903 -0.11,-0.321 -0.228,-0.636 -0.354,-0.942 -0.127,-0.305 -0.24,-0.579 -0.342,-0.821 -0.102,-0.241 -0.184,-0.422 -0.246,-0.542 -0.222,-0.423 -0.469,-0.775 -0.741,-1.055 -0.274,-0.279 -0.603,-0.487 -0.987,-0.623 -0.383,-0.136 -0.831,-0.202 -1.343,-0.196 -0.51,0.007 -1.117,0.084 -1.815,0.231 l -5.588,1.128 c -0.793,0.163 -1.467,0.212 -2.024,0.15 -0.556,-0.064 -1.052,-0.247 -1.49,-0.549 -0.437,-0.304 -0.847,-0.731 -1.228,-1.282 -0.382,-0.551 -0.804,-1.237 -1.269,-2.058 z"
           style="fill:#ffffff;fill-opacity:1;fill-rule:nonzero;stroke:none"
           id="path4827"
           inkscape:connector-curvature="0" /><path
           d="m 125.687,468.836 c -0.891,-1.164 -1.416,-2.343 -1.579,-3.536 -0.161,-1.195 -0.046,-2.362 0.345,-3.498 0.391,-1.137 1.007,-2.226 1.848,-3.266 0.842,-1.039 1.821,-1.986 2.936,-2.841 1.246,-0.954 2.577,-1.76 3.991,-2.421 1.415,-0.659 2.82,-1.062 4.215,-1.208 1.394,-0.145 2.74,0.02 4.036,0.497 1.297,0.474 2.445,1.365 3.444,2.67 0.891,1.163 1.408,2.349 1.551,3.557 0.144,1.208 0.012,2.387 -0.397,3.538 -0.409,1.15 -1.042,2.252 -1.902,3.306 -0.859,1.053 -1.846,2.007 -2.962,2.862 -1.246,0.954 -2.568,1.754 -3.965,2.4 -1.397,0.647 -2.784,1.036 -4.161,1.167 -1.377,0.132 -2.704,-0.046 -3.983,-0.536 -1.279,-0.489 -2.417,-1.386 -3.417,-2.691 m -0.814,2.035 c 1.172,1.53 2.468,2.731 3.889,3.602 1.419,0.871 2.911,1.399 4.475,1.585 1.564,0.186 3.18,0.016 4.849,-0.508 1.669,-0.526 3.328,-1.419 4.978,-2.683 1.804,-1.382 3.198,-2.867 4.182,-4.459 0.983,-1.591 1.575,-3.235 1.774,-4.93 0.198,-1.696 0.019,-3.417 -0.539,-5.166 -0.557,-1.747 -1.481,-3.464 -2.771,-5.149 -1.173,-1.53 -2.48,-2.728 -3.922,-3.591 -1.442,-0.863 -2.954,-1.382 -4.536,-1.553 -1.582,-0.173 -3.21,0.01 -4.887,0.551 -1.677,0.539 -3.345,1.446 -5.007,2.718 -1.791,1.372 -3.174,2.85 -4.146,4.433 -0.972,1.581 -1.548,3.213 -1.729,4.895 -0.18,1.683 0.017,3.391 0.592,5.125 0.575,1.734 1.508,3.444 2.798,5.13"
           style="fill:#ffffff;fill-opacity:1;fill-rule:nonzero;stroke:none"
           id="path4829"
           inkscape:connector-curvature="0" /><path
           d="m 145.801,494.753 c 0.123,0.11 0.25,0.158 0.381,0.146 0.132,-0.012 0.292,-0.034 0.481,-0.067 l 25.257,-5.009 -13.821,14.627 c -0.12,0.134 -0.095,0.286 0.073,0.457 0.171,0.212 0.409,0.485 0.713,0.817 0.305,0.333 0.614,0.637 0.926,0.917 0.178,0.16 0.341,0.155 0.491,-0.012 l 14.167,-16.662 2.735,-3.062 c 0.12,-0.133 0.095,-0.285 -0.074,-0.455 -0.181,-0.202 -0.391,-0.42 -0.631,-0.656 -0.242,-0.235 -0.49,-0.468 -0.747,-0.696 -0.101,-0.089 -0.196,-0.14 -0.286,-0.151 -0.09,-0.011 -0.204,0.003 -0.339,0.042 l -25.445,5.053 14.165,-15.012 c 0.119,-0.134 0.095,-0.285 -0.074,-0.456 -0.17,-0.213 -0.421,-0.488 -0.752,-0.824 -0.332,-0.335 -0.637,-0.628 -0.915,-0.877 -0.179,-0.16 -0.344,-0.155 -0.492,0.013 l -15.153,17.798 -3.044,0.647 c -0.084,0.004 -0.161,0.046 -0.231,0.124 -0.13,0.144 -0.12,0.335 0.032,0.569 0.148,0.193 0.349,0.427 0.603,0.705 0.254,0.277 0.512,0.553 0.778,0.83 0.264,0.276 0.507,0.524 0.732,0.745 0.224,0.219 0.381,0.37 0.47,0.449"
           style="fill:#ffffff;fill-opacity:1;fill-rule:nonzero;stroke:none"
           id="path4831"
           inkscape:connector-curvature="0" /><path
           d="m 184.844,506.097 7.137,4.452 -9.506,7.183 z m 0.401,-1.998 1.996,-9.727 c 0.036,-0.172 -0.026,-0.325 -0.188,-0.461 -0.213,-0.169 -0.461,-0.349 -0.744,-0.545 -0.285,-0.195 -0.611,-0.407 -0.978,-0.637 -0.204,-0.126 -0.345,-0.126 -0.423,0.001 -0.024,0.038 -0.038,0.074 -0.041,0.107 l -4.321,26.336 -1.088,0.854 c -0.089,0.085 -0.145,0.148 -0.169,0.186 -0.12,0.191 -0.07,0.38 0.148,0.568 0.179,0.165 0.395,0.348 0.648,0.551 0.253,0.201 0.498,0.394 0.736,0.578 0.239,0.183 0.461,0.348 0.668,0.496 0.209,0.147 0.363,0.252 0.465,0.316 0.254,0.158 0.529,0.127 0.825,-0.094 l 22.12,-16.553 c 0.101,-0.077 0.164,-0.137 0.187,-0.174 0.134,-0.214 0.087,-0.421 -0.143,-0.617 -0.205,-0.18 -0.44,-0.376 -0.705,-0.587 -0.266,-0.21 -0.529,-0.408 -0.79,-0.598 -0.261,-0.189 -0.504,-0.358 -0.729,-0.506 -0.223,-0.15 -0.387,-0.255 -0.489,-0.32 -0.215,-0.134 -0.42,-0.129 -0.614,0.014 l -8.138,6.133 z"
           style="fill:#ffffff;fill-opacity:1;fill-rule:nonzero;stroke:none"
           id="path4833"
           inkscape:connector-curvature="0" /><path
           d="m 217.259,538.703 c -0.036,0.343 0.1,0.648 0.409,0.914 0.168,0.138 0.355,0.269 0.563,0.392 0.207,0.122 0.41,0.239 0.605,0.349 0.197,0.111 0.38,0.206 0.548,0.288 0.168,0.082 0.3,0.143 0.397,0.186 0.15,0.064 0.26,0.085 0.329,0.057 0.068,-0.027 0.118,-0.075 0.148,-0.143 0.024,-0.055 0.04,-0.186 0.05,-0.394 l 0.413,-27.588 c -0.008,-0.281 -0.07,-0.455 -0.188,-0.522 -0.062,-0.045 -0.169,-0.108 -0.321,-0.19 -0.151,-0.082 -0.311,-0.164 -0.48,-0.246 -0.168,-0.082 -0.33,-0.16 -0.484,-0.236 -0.155,-0.075 -0.26,-0.125 -0.314,-0.149 -0.082,-0.036 -0.17,-0.05 -0.264,-0.042 -0.093,0.009 -0.197,0.069 -0.311,0.182 l -17.199,17.33 c -0.529,0.537 -1.008,0.841 -1.44,0.914 -0.43,0.073 -0.865,0.013 -1.303,-0.178 -0.139,-0.06 -0.275,-0.128 -0.413,-0.204 -0.139,-0.077 -0.283,-0.164 -0.436,-0.263 l -0.616,1.076 c 0.548,0.386 1.105,0.756 1.67,1.107 0.565,0.353 1.083,0.669 1.555,0.949 0.474,0.28 0.874,0.512 1.201,0.695 0.329,0.184 0.54,0.296 0.636,0.338 0.206,0.09 0.385,0.09 0.537,0.003 0.153,-0.089 0.329,-0.229 0.526,-0.419 l 15.686,-15.935 0.082,0.035 z"
           style="fill:#ffffff;fill-opacity:1;fill-rule:nonzero;stroke:none"
           id="path4835"
           inkscape:connector-curvature="0" /><path
           d="m 230.193,543.531 c 0.734,0.368 1.435,0.704 2.102,1.007 0.667,0.303 1.262,0.561 1.784,0.775 0.522,0.213 0.958,0.387 1.308,0.519 0.352,0.133 0.578,0.215 0.678,0.244 0.459,0.133 0.756,-0.03 0.89,-0.489 l 7.014,-24.171 c 0.099,-0.346 -0.014,-0.596 -0.343,-0.753 -0.231,-0.115 -0.489,-0.232 -0.772,-0.353 -0.285,-0.122 -0.563,-0.234 -0.837,-0.337 -0.275,-0.103 -0.528,-0.193 -0.764,-0.268 -0.234,-0.077 -0.409,-0.132 -0.524,-0.164 -0.345,-0.101 -0.569,0.029 -0.673,0.388 l -6.19,21.328 c -0.116,0.403 -0.25,0.717 -0.402,0.946 -0.153,0.228 -0.326,0.392 -0.516,0.492 -0.195,0.1 -0.403,0.149 -0.628,0.145 -0.224,-0.003 -0.466,-0.042 -0.724,-0.116 -0.316,-0.093 -0.626,-0.206 -0.93,-0.34 z"
           style="fill:#ffffff;fill-opacity:1;fill-rule:nonzero;stroke:none"
           id="path4837"
           inkscape:connector-curvature="0" /><path
           d="m 259.394,538.08 c 1.124,0.255 2.103,0.579 2.934,0.968 0.832,0.39 1.501,0.872 2.006,1.444 0.507,0.574 0.852,1.254 1.037,2.041 0.185,0.786 0.193,1.704 0.026,2.752 -0.139,0.871 -0.422,1.605 -0.852,2.202 -0.428,0.599 -0.964,1.062 -1.607,1.391 -0.644,0.329 -1.373,0.534 -2.188,0.616 -0.815,0.081 -1.672,0.05 -2.574,-0.094 -0.591,-0.093 -1.026,-0.213 -1.306,-0.356 -0.28,-0.143 -0.384,-0.436 -0.313,-0.878 l 3.669,-22.967 c 0.055,-0.354 -0.089,-0.589 -0.434,-0.705 -0.244,-0.084 -0.514,-0.17 -0.811,-0.255 -0.297,-0.085 -0.587,-0.161 -0.872,-0.23 -0.284,-0.068 -0.546,-0.125 -0.79,-0.171 -0.242,-0.046 -0.423,-0.079 -0.541,-0.098 -0.354,-0.056 -0.56,0.1 -0.619,0.469 l -3.549,22.213 c -0.116,0.738 -0.358,1.203 -0.723,1.394 -0.363,0.193 -0.803,0.247 -1.319,0.164 -0.295,-0.046 -0.617,-0.121 -0.964,-0.221 l -0.328,1.197 c 1.437,0.486 2.935,0.941 4.495,1.365 1.56,0.422 3.167,0.767 4.82,1.031 0.709,0.112 1.459,0.203 2.251,0.268 0.792,0.067 1.577,0.078 2.356,0.036 0.779,-0.042 1.531,-0.153 2.257,-0.332 0.725,-0.179 1.379,-0.461 1.963,-0.845 0.583,-0.384 1.079,-0.88 1.487,-1.489 0.407,-0.608 0.683,-1.363 0.826,-2.263 0.154,-0.96 0.145,-1.829 -0.026,-2.605 -0.171,-0.777 -0.467,-1.486 -0.887,-2.128 -0.419,-0.643 -0.936,-1.219 -1.552,-1.725 -0.615,-0.508 -1.292,-0.964 -2.03,-1.369 l 0.021,-0.133 c 0.382,-0.015 0.798,-0.066 1.251,-0.152 0.453,-0.088 0.905,-0.242 1.358,-0.465 0.45,-0.223 0.886,-0.529 1.305,-0.916 0.416,-0.388 0.781,-0.889 1.091,-1.506 l 2.45,-4.81 c 0.331,-0.659 0.623,-1.18 0.873,-1.564 0.251,-0.384 0.497,-0.666 0.738,-0.848 0.24,-0.181 0.499,-0.283 0.776,-0.307 0.276,-0.023 0.614,-0.004 1.012,0.06 l 0.251,-1.141 c -0.272,-0.104 -0.57,-0.208 -0.893,-0.313 -0.325,-0.105 -0.647,-0.198 -0.966,-0.279 -0.32,-0.081 -0.607,-0.153 -0.862,-0.217 -0.255,-0.064 -0.45,-0.106 -0.582,-0.128 -0.473,-0.076 -0.902,-0.087 -1.289,-0.035 -0.388,0.052 -0.75,0.19 -1.089,0.416 -0.339,0.227 -0.659,0.546 -0.959,0.96 -0.301,0.414 -0.601,0.945 -0.902,1.593 l -2.435,5.153 c -0.345,0.732 -0.708,1.303 -1.092,1.711 -0.382,0.408 -0.827,0.697 -1.33,0.866 -0.505,0.17 -1.091,0.242 -1.76,0.219 -0.671,-0.024 -1.473,-0.095 -2.409,-0.214 z"
           style="fill:#ffffff;fill-opacity:1;fill-rule:nonzero;stroke:none"
           id="path4839"
           inkscape:connector-curvature="0" /><path
           d="m 289.853,535.845 c -0.025,-1.121 0.11,-2.068 0.403,-2.84 0.292,-0.773 0.706,-1.398 1.24,-1.872 0.535,-0.475 1.16,-0.818 1.876,-1.026 0.715,-0.208 1.492,-0.315 2.33,-0.321 1.075,-0.009 2.136,0.154 3.177,0.489 1.043,0.336 2.082,0.753 3.117,1.252 l 0.18,21.399 c 0.002,0.343 0.182,0.551 0.541,0.623 0.24,0.043 0.513,0.077 0.82,0.105 0.307,0.027 0.609,0.051 0.91,0.071 0.297,0.02 0.573,0.036 0.819,0.049 0.246,0.013 0.429,0.02 0.548,0.019 0.359,-0.004 0.539,-0.192 0.536,-0.565 l -0.207,-25.099 c -0.006,-0.358 -0.186,-0.567 -0.545,-0.623 -0.255,-0.044 -0.528,-0.082 -0.821,-0.117 -0.291,-0.035 -0.576,-0.062 -0.851,-0.082 -0.28,-0.021 -0.53,-0.033 -0.754,-0.04 -0.223,-0.005 -0.397,-0.008 -0.516,-0.006 -0.343,0.002 -0.521,0.191 -0.533,0.565 l -0.142,1.84 c -1.411,-0.766 -2.893,-1.4 -4.445,-1.903 -1.552,-0.503 -3.12,-0.747 -4.705,-0.735 -0.988,0.008 -1.921,0.151 -2.802,0.428 -0.879,0.275 -1.641,0.692 -2.287,1.252 -0.646,0.559 -1.156,1.269 -1.531,2.132 -0.373,0.863 -0.555,1.878 -0.546,3.044 l 0.134,16.283 c 0.005,0.419 -0.035,0.759 -0.115,1.022 -0.079,0.262 -0.198,0.469 -0.354,0.62 -0.156,0.15 -0.341,0.257 -0.557,0.318 -0.217,0.061 -0.459,0.094 -0.729,0.097 -0.298,0.002 -0.628,-0.018 -0.987,-0.06 l -0.125,1.234 c 0.81,0.144 1.576,0.263 2.303,0.362 0.726,0.099 1.369,0.177 1.93,0.231 0.562,0.055 1.03,0.097 1.404,0.124 0.374,0.026 0.614,0.039 0.718,0.038 0.478,-0.004 0.715,-0.245 0.713,-0.722 z"
           style="fill:#ffffff;fill-opacity:1;fill-rule:nonzero;stroke:none"
           id="path4841"
           inkscape:connector-curvature="0" /><path
           d="m 335.223,543.492 c -0.01,0.835 -0.127,1.572 -0.358,2.211 -0.232,0.639 -0.556,1.193 -0.976,1.66 -0.42,0.467 -0.921,0.844 -1.5,1.134 -0.582,0.289 -1.225,0.494 -1.933,0.617 -0.69,0.119 -1.368,0.149 -2.03,0.089 -0.664,-0.061 -1.271,-0.233 -1.819,-0.517 -0.55,-0.285 -1.019,-0.69 -1.404,-1.215 -0.388,-0.526 -0.648,-1.185 -0.787,-1.981 -0.12,-0.707 -0.057,-1.344 0.194,-1.911 0.253,-0.566 0.628,-1.086 1.132,-1.559 0.503,-0.475 1.096,-0.922 1.783,-1.343 0.685,-0.423 1.401,-0.848 2.145,-1.281 0.826,-0.491 1.646,-1.008 2.464,-1.55 0.817,-0.543 1.524,-1.155 2.13,-1.835 0.603,-0.68 1.051,-1.456 1.35,-2.326 0.298,-0.871 0.346,-1.888 0.146,-3.051 -0.175,-1.018 -0.473,-1.892 -0.895,-2.623 -0.422,-0.731 -0.937,-1.344 -1.547,-1.838 -0.608,-0.494 -1.285,-0.881 -2.032,-1.163 -0.746,-0.281 -1.53,-0.475 -2.352,-0.584 -0.824,-0.109 -1.666,-0.141 -2.532,-0.098 -0.865,0.043 -1.71,0.135 -2.535,0.277 -0.986,0.17 -1.961,0.399 -2.92,0.686 -0.959,0.286 -1.907,0.624 -2.84,1.012 -0.127,0.052 -0.224,0.134 -0.289,0.243 -0.064,0.11 -0.094,0.218 -0.091,0.323 0.023,0.315 0.072,0.773 0.146,1.375 0.072,0.602 0.152,1.214 0.235,1.836 0.085,0.623 0.163,1.186 0.236,1.69 0.07,0.502 0.114,0.799 0.129,0.887 l 1.125,-0.08 c -0.05,-0.902 0.05,-1.708 0.299,-2.419 0.251,-0.709 0.615,-1.323 1.095,-1.838 0.479,-0.515 1.061,-0.933 1.74,-1.255 0.68,-0.322 1.432,-0.554 2.256,-0.696 0.739,-0.127 1.467,-0.166 2.19,-0.116 0.72,0.05 1.383,0.217 1.984,0.5 0.604,0.282 1.117,0.691 1.543,1.225 0.426,0.533 0.711,1.219 0.858,2.06 0.117,0.691 0.05,1.31 -0.205,1.855 -0.254,0.544 -0.633,1.053 -1.136,1.527 -0.503,0.473 -1.093,0.919 -1.773,1.34 -0.678,0.42 -1.38,0.853 -2.107,1.297 -0.824,0.505 -1.643,1.037 -2.456,1.594 -0.816,0.558 -1.521,1.184 -2.122,1.879 -0.602,0.696 -1.047,1.49 -1.342,2.382 -0.295,0.892 -0.34,1.935 -0.133,3.13 0.248,1.443 0.741,2.602 1.476,3.477 0.734,0.874 1.612,1.527 2.635,1.958 1.023,0.43 2.142,0.669 3.356,0.718 1.215,0.049 2.432,-0.032 3.656,-0.243 0.809,-0.14 1.682,-0.355 2.619,-0.645 0.936,-0.291 1.805,-0.611 2.61,-0.962 0.129,-0.053 0.222,-0.134 0.289,-0.243 0.064,-0.109 0.093,-0.218 0.091,-0.324 -0.024,-0.314 -0.068,-0.75 -0.133,-1.307 -0.066,-0.558 -0.134,-1.123 -0.202,-1.695 -0.068,-0.572 -0.135,-1.088 -0.199,-1.547 -0.063,-0.46 -0.103,-0.733 -0.118,-0.822 z"
           style="fill:#ffffff;fill-opacity:1;fill-rule:nonzero;stroke:none"
           id="path4843"
           inkscape:connector-curvature="0" /><path
           d="m 383.295,507.328 c -0.887,-0.071 -1.816,-0.051 -2.782,0.063 -0.967,0.112 -1.892,0.272 -2.776,0.478 -0.883,0.206 -1.693,0.432 -2.427,0.676 -0.736,0.246 -1.321,0.467 -1.755,0.665 -1.879,0.858 -3.448,1.957 -4.708,3.296 -1.263,1.341 -2.194,2.821 -2.792,4.442 -0.601,1.621 -0.856,3.341 -0.765,5.156 0.087,1.817 0.548,3.637 1.38,5.459 0.9,1.972 2.045,3.562 3.434,4.769 1.389,1.207 2.934,2.051 4.632,2.533 1.698,0.481 3.508,0.609 5.427,0.382 1.917,-0.226 3.855,-0.786 5.815,-1.68 1.102,-0.503 2.122,-1.054 3.065,-1.657 0.94,-0.602 1.84,-1.222 2.699,-1.861 0.111,-0.083 0.182,-0.186 0.217,-0.309 0.035,-0.122 0.037,-0.234 0.007,-0.336 -0.073,-0.196 -0.168,-0.448 -0.284,-0.758 -0.118,-0.308 -0.246,-0.639 -0.392,-0.992 -0.144,-0.353 -0.288,-0.714 -0.432,-1.084 -0.144,-0.37 -0.281,-0.711 -0.406,-1.023 -0.127,-0.312 -0.236,-0.579 -0.327,-0.799 -0.093,-0.222 -0.151,-0.359 -0.178,-0.413 l -1.064,0.363 c 0.301,0.881 0.38,1.708 0.231,2.483 -0.147,0.774 -0.445,1.481 -0.892,2.121 -0.449,0.639 -1.006,1.21 -1.673,1.712 -0.667,0.501 -1.366,0.92 -2.101,1.255 -1.482,0.676 -2.884,1.02 -4.202,1.03 -1.317,0.01 -2.539,-0.251 -3.661,-0.782 -1.121,-0.532 -2.132,-1.304 -3.028,-2.316 -0.899,-1.012 -1.662,-2.212 -2.297,-3.598 -0.739,-1.62 -1.204,-3.227 -1.4,-4.823 -0.194,-1.596 -0.081,-3.105 0.338,-4.53 0.418,-1.423 1.154,-2.728 2.205,-3.915 1.054,-1.187 2.464,-2.184 4.232,-2.991 1.061,-0.485 2.141,-0.837 3.239,-1.059 1.098,-0.222 2.249,-0.368 3.449,-0.44 z"
           style="fill:#ffffff;fill-opacity:1;fill-rule:nonzero;stroke:none"
           id="path4845"
           inkscape:connector-curvature="0" /><path
           d="m 414.386,514.887 c -1.202,0.835 -2.405,1.306 -3.605,1.413 -1.201,0.106 -2.359,-0.063 -3.477,-0.506 -1.117,-0.442 -2.177,-1.108 -3.177,-1.997 -1.002,-0.89 -1.901,-1.911 -2.704,-3.065 -0.895,-1.289 -1.64,-2.656 -2.235,-4.1 -0.592,-1.444 -0.931,-2.866 -1.012,-4.266 -0.08,-1.4 0.147,-2.737 0.683,-4.01 0.534,-1.273 1.477,-2.378 2.828,-3.318 1.204,-0.835 2.412,-1.297 3.626,-1.385 1.212,-0.088 2.385,0.1 3.515,0.56 1.132,0.462 2.202,1.147 3.216,2.054 1.014,0.907 1.919,1.938 2.722,3.092 0.895,1.289 1.633,2.647 2.215,4.072 0.581,1.426 0.905,2.83 0.973,4.211 0.069,1.382 -0.172,2.7 -0.721,3.955 -0.546,1.255 -1.497,2.352 -2.847,3.29 m 1.996,0.907 c 1.585,-1.102 2.844,-2.34 3.779,-3.719 0.936,-1.378 1.533,-2.844 1.792,-4.398 0.257,-1.553 0.163,-3.176 -0.285,-4.868 -0.446,-1.692 -1.263,-3.391 -2.448,-5.097 -1.297,-1.866 -2.72,-3.328 -4.264,-4.385 -1.546,-1.056 -3.159,-1.723 -4.842,-1.999 -1.685,-0.276 -3.416,-0.177 -5.187,0.298 -1.772,0.477 -3.529,1.32 -5.273,2.531 -1.584,1.101 -2.84,2.352 -3.768,3.753 -0.929,1.401 -1.515,2.887 -1.762,4.459 -0.246,1.572 -0.139,3.209 0.324,4.908 0.462,1.7 1.289,3.409 2.485,5.128 1.287,1.854 2.701,3.303 4.235,4.347 1.537,1.045 3.141,1.696 4.814,1.955 1.671,0.257 3.387,0.139 5.146,-0.355 1.759,-0.494 3.511,-1.347 5.254,-2.558"
           style="fill:#ffffff;fill-opacity:1;fill-rule:nonzero;stroke:none"
           id="path4847"
           inkscape:connector-curvature="0" /><path
           d="m 449.788,485.153 c 0.306,0.16 0.639,0.144 0.998,-0.046 0.192,-0.104 0.38,-0.231 0.572,-0.378 0.192,-0.148 0.373,-0.292 0.549,-0.436 0.175,-0.142 0.331,-0.275 0.469,-0.402 0.136,-0.126 0.244,-0.227 0.318,-0.301 0.116,-0.115 0.173,-0.211 0.174,-0.285 0,-0.075 -0.024,-0.137 -0.078,-0.19 -0.042,-0.043 -0.157,-0.107 -0.348,-0.192 l -25.508,-10.534 c -0.264,-0.095 -0.448,-0.101 -0.555,-0.016 -0.065,0.041 -0.162,0.117 -0.294,0.229 -0.133,0.111 -0.267,0.228 -0.404,0.355 -0.139,0.127 -0.271,0.248 -0.4,0.363 -0.126,0.118 -0.211,0.197 -0.254,0.239 -0.063,0.063 -0.108,0.139 -0.133,0.229 -0.029,0.09 -0.009,0.209 0.054,0.357 l 9.79,22.373 c 0.305,0.686 0.411,1.245 0.323,1.672 -0.092,0.429 -0.307,0.812 -0.647,1.15 -0.105,0.105 -0.22,0.208 -0.342,0.307 -0.122,0.101 -0.258,0.204 -0.404,0.309 l 0.774,0.969 c 0.56,-0.368 1.11,-0.75 1.643,-1.145 0.536,-0.395 1.02,-0.762 1.455,-1.099 0.435,-0.337 0.798,-0.624 1.09,-0.862 0.29,-0.237 0.474,-0.392 0.547,-0.465 0.159,-0.159 0.226,-0.326 0.199,-0.5 -0.024,-0.174 -0.092,-0.388 -0.196,-0.642 l -9.05,-20.452 0.062,-0.064 z"
           style="fill:#ffffff;fill-opacity:1;fill-rule:nonzero;stroke:none"
           id="path4849"
           inkscape:connector-curvature="0" /><path
           d="m 458.968,474.99 c 0.613,-0.546 1.184,-1.073 1.714,-1.58 0.527,-0.509 0.987,-0.965 1.378,-1.371 0.392,-0.406 0.713,-0.747 0.968,-1.024 0.252,-0.278 0.411,-0.457 0.476,-0.539 0.294,-0.377 0.251,-0.713 -0.125,-1.008 l -19.866,-15.453 c -0.283,-0.221 -0.559,-0.207 -0.826,0.039 -0.191,0.173 -0.395,0.37 -0.614,0.588 -0.218,0.22 -0.425,0.437 -0.623,0.653 -0.194,0.217 -0.373,0.421 -0.53,0.61 -0.156,0.19 -0.273,0.332 -0.347,0.427 -0.219,0.284 -0.181,0.539 0.113,0.769 l 17.528,13.635 c 0.329,0.258 0.573,0.499 0.729,0.724 0.157,0.227 0.245,0.447 0.267,0.663 0.022,0.215 -0.011,0.428 -0.098,0.636 -0.084,0.208 -0.211,0.418 -0.375,0.63 -0.203,0.259 -0.422,0.506 -0.66,0.738 z"
           style="fill:#ffffff;fill-opacity:1;fill-rule:nonzero;stroke:none"
           id="path4851"
           inkscape:connector-curvature="0" /><path
           d="m 454.281,440.716 c 0.168,-0.56 0.375,-1.105 0.623,-1.636 0.247,-0.53 0.528,-1.068 0.842,-1.612 0.9,-1.553 1.939,-2.8 3.114,-3.743 1.177,-0.943 2.447,-1.574 3.805,-1.893 1.359,-0.317 2.793,-0.331 4.299,-0.038 1.507,0.295 3.043,0.894 4.611,1.801 1.486,0.863 2.716,1.873 3.688,3.03 0.97,1.159 1.651,2.422 2.044,3.789 0.39,1.368 0.471,2.814 0.236,4.337 -0.233,1.523 -0.814,3.081 -1.733,4.673 l -0.576,0.99 c -0.337,0.582 -0.645,1.004 -0.926,1.265 -0.281,0.261 -0.635,0.267 -1.062,0.02 z m -3.375,2.245 c -0.179,0.31 -0.108,0.56 0.217,0.747 l 19.16,11.096 c 0.658,0.382 1.013,0.778 1.062,1.186 0.048,0.408 -0.059,0.839 -0.321,1.291 -0.15,0.259 -0.335,0.533 -0.553,0.822 l 0.981,0.722 c 1.085,-1.305 2.131,-2.658 3.139,-4.054 1.006,-1.395 1.941,-2.837 2.803,-4.325 0.719,-1.242 1.351,-2.497 1.895,-3.763 0.542,-1.267 0.947,-2.519 1.214,-3.756 0.268,-1.236 0.375,-2.448 0.32,-3.638 -0.053,-1.189 -0.313,-2.338 -0.778,-3.445 -0.465,-1.108 -1.16,-2.162 -2.084,-3.163 -0.924,-1.002 -2.123,-1.93 -3.597,-2.784 -1.954,-1.132 -3.893,-1.792 -5.814,-1.981 -1.922,-0.187 -3.765,0.033 -5.529,0.661 -1.763,0.629 -3.41,1.637 -4.94,3.024 -1.528,1.387 -2.873,3.084 -4.036,5.089 -0.337,0.583 -0.616,1.109 -0.835,1.578 -0.22,0.468 -0.434,0.936 -0.643,1.402 -0.211,0.466 -0.44,0.961 -0.691,1.481 -0.25,0.521 -0.572,1.123 -0.97,1.81"
           style="fill:#ffffff;fill-opacity:1;fill-rule:nonzero;stroke:none"
           id="path4853"
           inkscape:connector-curvature="0" /><path
           d="m 474.823,418.993 4.28,-10.678 -1.957,-0.663 -4.278,10.437 z"
           style="fill:#ffffff;fill-opacity:1;fill-rule:nonzero;stroke:none"
           id="path4855"
           inkscape:connector-curvature="0" /><path
           d="m 492.487,404.631 c 0.791,-1.606 1.391,-2.925 1.799,-3.957 0.409,-1.033 0.65,-1.663 0.717,-1.893 0.137,-0.458 -0.054,-0.764 -0.569,-0.918 l -19.836,-5.909 c -0.346,-0.101 -0.596,0.01 -0.757,0.337 -0.115,0.23 -0.232,0.48 -0.351,0.749 -0.12,0.269 -0.228,0.528 -0.327,0.78 -0.099,0.252 -0.182,0.485 -0.255,0.697 -0.07,0.212 -0.123,0.376 -0.157,0.491 -0.103,0.344 0.026,0.569 0.385,0.676 l 16.976,5.057 c 0.446,0.132 0.81,0.26 1.094,0.384 0.281,0.123 0.493,0.264 0.633,0.423 0.14,0.158 0.214,0.34 0.223,0.546 0.007,0.205 -0.033,0.466 -0.127,0.781 -0.051,0.172 -0.117,0.367 -0.197,0.584 -0.082,0.219 -0.175,0.459 -0.287,0.723 z"
           style="fill:#ffffff;fill-opacity:1;fill-rule:nonzero;stroke:none"
           id="path4857"
           inkscape:connector-curvature="0" /><path
           d="m 488.75,368.803 c 0.678,0.116 1.407,0.279 2.191,0.489 0.785,0.211 1.556,0.471 2.312,0.784 0.76,0.312 1.487,0.67 2.184,1.077 0.696,0.409 1.292,0.874 1.785,1.399 0.494,0.525 0.862,1.1 1.104,1.725 0.241,0.625 0.298,1.315 0.17,2.066 -0.139,0.811 -0.438,1.488 -0.894,2.032 -0.456,0.543 -1.009,0.969 -1.654,1.275 -0.642,0.307 -1.347,0.501 -2.111,0.583 -0.766,0.081 -1.524,0.057 -2.274,-0.071 -1.888,-0.322 -3.288,-1.059 -4.199,-2.209 -0.909,-1.149 -1.196,-2.711 -0.857,-4.686 0.114,-0.664 0.321,-1.392 0.624,-2.181 0.302,-0.791 0.656,-1.583 1.066,-2.377 z m -5.517,6.292 c -0.208,1.223 -0.206,2.343 0.007,3.357 0.214,1.016 0.599,1.905 1.159,2.668 0.56,0.765 1.286,1.4 2.176,1.909 0.892,0.509 1.912,0.862 3.062,1.059 1.372,0.234 2.669,0.206 3.895,-0.084 1.224,-0.291 2.317,-0.791 3.272,-1.499 0.956,-0.709 1.758,-1.607 2.407,-2.694 0.648,-1.087 1.09,-2.31 1.321,-3.665 0.267,-1.563 0.194,-2.991 -0.222,-4.283 -0.415,-1.293 -1.086,-2.427 -2.011,-3.405 -0.926,-0.978 -2.054,-1.789 -3.385,-2.434 -1.329,-0.645 -2.776,-1.101 -4.34,-1.369 -1.989,-0.342 -3.949,-0.391 -5.878,-0.153 -1.929,0.238 -3.696,0.782 -5.298,1.631 -1.6,0.848 -2.962,2.008 -4.087,3.475 -1.124,1.468 -1.868,3.265 -2.231,5.387 -0.224,1.297 -0.235,2.697 -0.038,4.203 l 1.377,-0.059 c -0.1,-0.837 -0.07,-1.726 0.092,-2.67 0.276,-1.606 0.786,-2.945 1.53,-4.016 0.744,-1.071 1.659,-1.917 2.743,-2.535 1.085,-0.618 2.305,-1.031 3.66,-1.239 1.355,-0.208 2.789,-0.25 4.3,-0.129 -0.945,1.538 -1.735,2.836 -2.374,3.895 -0.636,1.059 -1.013,1.942 -1.137,2.65"
           style="fill:#ffffff;fill-opacity:1;fill-rule:nonzero;stroke:none"
           id="path4859"
           inkscape:connector-curvature="0" /><path
           d="m 90.479,277.44 c -0.604,0.655 -1.163,1.396 -1.672,2.225 -0.509,0.83 -0.957,1.656 -1.342,2.478 -0.384,0.823 -0.707,1.597 -0.969,2.326 -0.262,0.728 -0.45,1.326 -0.563,1.791 -0.488,2.005 -0.595,3.918 -0.322,5.737 0.272,1.82 0.86,3.467 1.763,4.941 0.903,1.473 2.096,2.737 3.578,3.791 1.483,1.052 3.197,1.815 5.144,2.29 2.106,0.511 4.063,0.595 5.87,0.251 1.807,-0.346 3.426,-1.037 4.855,-2.074 1.429,-1.037 2.648,-2.38 3.656,-4.026 1.009,-1.647 1.768,-3.517 2.277,-5.607 0.287,-1.177 0.483,-2.322 0.593,-3.434 0.109,-1.111 0.177,-2.203 0.208,-3.273 0.003,-0.138 -0.034,-0.258 -0.109,-0.361 -0.075,-0.102 -0.161,-0.175 -0.259,-0.213 -0.2,-0.065 -0.457,-0.145 -0.771,-0.246 -0.315,-0.098 -0.656,-0.201 -1.022,-0.307 -0.367,-0.103 -0.741,-0.212 -1.12,-0.329 -0.38,-0.116 -0.732,-0.221 -1.054,-0.313 -0.324,-0.095 -0.601,-0.175 -0.831,-0.237 -0.231,-0.064 -0.376,-0.103 -0.433,-0.118 l -0.375,1.062 c 0.879,0.307 1.577,0.759 2.094,1.352 0.517,0.596 0.889,1.267 1.115,2.013 0.225,0.749 0.329,1.539 0.312,2.373 -0.019,0.835 -0.124,1.644 -0.315,2.428 -0.385,1.584 -0.982,2.896 -1.789,3.938 -0.807,1.043 -1.767,1.84 -2.878,2.393 -1.111,0.553 -2.342,0.87 -3.692,0.947 -1.351,0.081 -2.766,-0.06 -4.249,-0.422 -1.728,-0.42 -3.28,-1.046 -4.654,-1.881 -1.374,-0.834 -2.49,-1.857 -3.351,-3.066 -0.859,-1.209 -1.43,-2.595 -1.712,-4.155 -0.281,-1.56 -0.192,-3.286 0.267,-5.174 0.276,-1.133 0.666,-2.2 1.171,-3.2 0.505,-1.002 1.1,-1.994 1.787,-2.982 z"
           style="fill:#ffffff;fill-opacity:1;fill-rule:nonzero;stroke:none"
           id="path4861"
           inkscape:connector-curvature="0" /><path
           d="m 119.571,265.864 c -0.573,1.348 -1.339,2.387 -2.298,3.115 -0.96,0.732 -2.031,1.207 -3.212,1.426 -1.183,0.221 -2.433,0.221 -3.752,0.002 -1.32,-0.219 -2.627,-0.604 -3.92,-1.152 -1.445,-0.613 -2.803,-1.374 -4.075,-2.278 -1.271,-0.908 -2.314,-1.931 -3.128,-3.074 -0.814,-1.14 -1.333,-2.392 -1.559,-3.756 -0.226,-1.361 -0.017,-2.799 0.626,-4.312 0.573,-1.348 1.349,-2.382 2.329,-3.103 0.98,-0.719 2.071,-1.187 3.274,-1.398 1.203,-0.212 2.473,-0.203 3.814,0.023 1.34,0.23 2.657,0.619 3.95,1.167 1.444,0.616 2.793,1.37 4.043,2.266 1.252,0.898 2.273,1.912 3.067,3.046 0.794,1.132 1.293,2.375 1.498,3.727 0.205,1.355 -0.016,2.789 -0.657,4.301 m 2.171,-0.296 c 0.754,-1.774 1.159,-3.493 1.217,-5.158 0.057,-1.665 -0.219,-3.222 -0.828,-4.675 -0.609,-1.452 -1.553,-2.775 -2.833,-3.968 -1.279,-1.194 -2.875,-2.195 -4.787,-3.008 -2.092,-0.888 -4.072,-1.369 -5.941,-1.441 -1.871,-0.07 -3.591,0.225 -5.164,0.888 -1.573,0.664 -2.983,1.671 -4.228,3.017 -1.246,1.346 -2.285,2.997 -3.115,4.948 -0.753,1.776 -1.15,3.503 -1.19,5.183 -0.039,1.68 0.255,3.251 0.886,4.711 0.63,1.461 1.593,2.789 2.888,3.981 1.297,1.191 2.908,2.198 4.834,3.015 2.078,0.882 4.044,1.357 5.9,1.422 1.856,0.065 3.56,-0.238 5.112,-0.91 1.552,-0.673 2.941,-1.685 4.166,-3.043 1.225,-1.353 2.254,-3.008 3.083,-4.962"
           style="fill:#ffffff;fill-opacity:1;fill-rule:nonzero;stroke:none"
           id="path4863"
           inkscape:connector-curvature="0" /><path
           d="m 122.904,234.616 c 0.679,-0.932 1.361,-1.703 2.049,-2.312 0.687,-0.608 1.393,-1.033 2.12,-1.271 0.726,-0.239 1.488,-0.289 2.283,-0.147 0.795,0.142 1.642,0.495 2.539,1.063 0.744,0.474 1.306,1.024 1.686,1.653 0.38,0.632 0.593,1.307 0.641,2.027 0.049,0.722 -0.052,1.472 -0.299,2.252 -0.247,0.781 -0.614,1.557 -1.102,2.327 -0.321,0.506 -0.602,0.858 -0.844,1.061 -0.242,0.199 -0.553,0.178 -0.932,-0.06 l -19.644,-12.445 c -0.303,-0.194 -0.576,-0.154 -0.818,0.117 -0.174,0.191 -0.359,0.405 -0.555,0.645 -0.195,0.238 -0.381,0.475 -0.555,0.709 -0.176,0.235 -0.332,0.453 -0.471,0.658 -0.138,0.205 -0.239,0.357 -0.302,0.458 -0.193,0.304 -0.131,0.556 0.185,0.754 l 19,12.041 c 0.631,0.398 0.963,0.802 0.995,1.213 0.033,0.41 -0.09,0.835 -0.371,1.278 -0.16,0.254 -0.355,0.518 -0.585,0.798 l 0.97,0.773 c 1.015,-1.128 2.025,-2.324 3.03,-3.588 1.006,-1.266 1.956,-2.607 2.852,-4.02 0.384,-0.608 0.764,-1.26 1.137,-1.962 0.374,-0.702 0.694,-1.419 0.964,-2.152 0.269,-0.73 0.465,-1.465 0.586,-2.201 0.122,-0.738 0.122,-1.45 0,-2.139 -0.121,-0.687 -0.38,-1.338 -0.779,-1.954 -0.398,-0.613 -0.982,-1.166 -1.752,-1.654 -0.821,-0.519 -1.622,-0.853 -2.404,-1.005 -0.781,-0.148 -1.55,-0.157 -2.305,-0.027 -0.756,0.133 -1.489,0.381 -2.198,0.745 -0.71,0.366 -1.395,0.805 -2.059,1.322 l -0.114,-0.07 c 0.137,-0.357 0.255,-0.76 0.355,-1.209 0.099,-0.45 0.136,-0.927 0.109,-1.432 -0.026,-0.503 -0.134,-1.022 -0.325,-1.558 -0.191,-0.538 -0.508,-1.071 -0.952,-1.599 l -3.45,-4.152 c -0.474,-0.565 -0.838,-1.038 -1.091,-1.42 -0.253,-0.381 -0.416,-0.719 -0.486,-1.013 -0.072,-0.291 -0.064,-0.57 0.024,-0.834 0.087,-0.263 0.238,-0.565 0.454,-0.905 l -0.949,-0.683 c -0.202,0.208 -0.416,0.442 -0.64,0.698 -0.224,0.255 -0.437,0.514 -0.638,0.776 -0.202,0.263 -0.382,0.499 -0.541,0.707 -0.159,0.209 -0.275,0.371 -0.346,0.483 -0.256,0.406 -0.437,0.793 -0.542,1.17 -0.105,0.376 -0.121,0.764 -0.047,1.164 0.073,0.402 0.24,0.822 0.501,1.262 0.261,0.438 0.63,0.927 1.108,1.458 l 3.77,4.273 c 0.536,0.605 0.917,1.165 1.14,1.678 0.224,0.514 0.313,1.035 0.27,1.564 -0.044,0.532 -0.209,1.1 -0.496,1.704 -0.287,0.606 -0.669,1.316 -1.148,2.128 z"
           style="fill:#ffffff;fill-opacity:1;fill-rule:nonzero;stroke:none"
           id="path4865"
           inkscape:connector-curvature="0" /><path
           d="m 151.751,214.486 c -0.968,1.103 -2.022,1.848 -3.162,2.241 -1.14,0.39 -2.306,0.507 -3.498,0.344 -1.192,-0.16 -2.38,-0.551 -3.565,-1.174 -1.185,-0.623 -2.306,-1.397 -3.361,-2.325 -1.181,-1.036 -2.233,-2.185 -3.157,-3.444 -0.924,-1.259 -1.594,-2.561 -2.009,-3.9 -0.416,-1.338 -0.517,-2.693 -0.303,-4.057 0.213,-1.365 0.863,-2.666 1.949,-3.902 0.967,-1.101 2.029,-1.839 3.186,-2.218 1.156,-0.377 2.34,-0.478 3.549,-0.3 1.209,0.176 2.414,0.583 3.616,1.219 1.202,0.638 2.331,1.421 3.387,2.348 1.18,1.037 2.223,2.177 3.13,3.421 0.908,1.245 1.561,2.531 1.959,3.856 0.4,1.325 0.483,2.662 0.253,4.011 -0.231,1.351 -0.889,2.644 -1.974,3.88 m 2.156,0.402 c 1.273,-1.45 2.198,-2.956 2.776,-4.52 0.576,-1.564 0.803,-3.131 0.68,-4.702 -0.123,-1.571 -0.605,-3.124 -1.447,-4.659 -0.842,-1.534 -2.042,-2.987 -3.605,-4.36 -1.708,-1.501 -3.439,-2.578 -5.193,-3.233 -1.754,-0.652 -3.483,-0.911 -5.184,-0.776 -1.703,0.137 -3.358,0.651 -4.964,1.538 -1.606,0.888 -3.11,2.13 -4.511,3.725 -1.273,1.451 -2.192,2.968 -2.757,4.551 -0.565,1.585 -0.777,3.17 -0.638,4.754 0.141,1.587 0.639,3.148 1.497,4.689 0.856,1.539 2.072,2.999 3.645,4.381 1.697,1.49 3.417,2.556 5.159,3.203 1.743,0.643 3.457,0.89 5.143,0.739 1.686,-0.153 3.324,-0.679 4.912,-1.581 1.59,-0.905 3.085,-2.155 4.487,-3.749"
           style="fill:#ffffff;fill-opacity:1;fill-rule:nonzero;stroke:none"
           id="path4867"
           inkscape:connector-curvature="0" /><path
           d="m 170.427,198.423 c 0.128,-0.105 0.196,-0.222 0.204,-0.355 0.009,-0.13 0.012,-0.291 0.01,-0.483 l -0.929,-25.739 12.246,15.975 c 0.113,0.14 0.268,0.14 0.463,0 0.237,-0.135 0.543,-0.325 0.92,-0.573 0.377,-0.25 0.728,-0.506 1.054,-0.769 0.185,-0.151 0.208,-0.313 0.065,-0.487 l -14.202,-16.642 -2.586,-3.187 c -0.113,-0.14 -0.267,-0.14 -0.463,0 -0.228,0.148 -0.477,0.32 -0.748,0.521 -0.27,0.201 -0.54,0.409 -0.806,0.626 -0.105,0.086 -0.17,0.17 -0.194,0.258 -0.025,0.089 -0.03,0.203 -0.012,0.343 l 0.942,25.932 -12.572,-16.376 c -0.113,-0.141 -0.267,-0.141 -0.462,0 -0.237,0.134 -0.548,0.337 -0.933,0.61 -0.384,0.276 -0.722,0.529 -1.011,0.765 -0.187,0.15 -0.209,0.313 -0.067,0.488 l 15.165,17.794 0.156,3.108 c -0.009,0.086 0.02,0.169 0.086,0.248 0.122,0.152 0.312,0.172 0.568,0.06 0.214,-0.115 0.477,-0.276 0.791,-0.483 0.313,-0.207 0.629,-0.418 0.944,-0.635 0.315,-0.219 0.598,-0.419 0.852,-0.606 0.253,-0.187 0.426,-0.317 0.519,-0.393"
           style="fill:#ffffff;fill-opacity:1;fill-rule:nonzero;stroke:none"
           id="path4869"
           inkscape:connector-curvature="0" /><path
           d="m 188.594,165.773 7.277,-4.21 1.884,11.757 z m -1.575,-1.29 -7.65,-6.323 c -0.134,-0.111 -0.299,-0.129 -0.495,-0.05 -0.249,0.11 -0.524,0.244 -0.83,0.404 -0.305,0.159 -0.645,0.345 -1.02,0.564 -0.207,0.119 -0.273,0.243 -0.197,0.373 0.022,0.04 0.047,0.068 0.075,0.085 l 21.219,16.162 0.245,1.363 c 0.033,0.119 0.062,0.198 0.084,0.235 0.113,0.194 0.303,0.24 0.571,0.138 0.229,-0.083 0.492,-0.188 0.79,-0.316 0.296,-0.13 0.581,-0.255 0.856,-0.378 0.272,-0.124 0.523,-0.243 0.751,-0.357 0.228,-0.116 0.393,-0.202 0.497,-0.261 0.258,-0.151 0.359,-0.407 0.304,-0.772 l -4.239,-27.288 c -0.022,-0.125 -0.043,-0.208 -0.066,-0.246 -0.127,-0.221 -0.332,-0.275 -0.612,-0.165 -0.256,0.096 -0.538,0.212 -0.848,0.348 -0.31,0.138 -0.61,0.275 -0.899,0.417 -0.289,0.143 -0.552,0.278 -0.789,0.405 -0.237,0.128 -0.406,0.222 -0.51,0.282 -0.22,0.128 -0.313,0.311 -0.277,0.549 l 1.599,10.06 z"
           style="fill:#ffffff;fill-opacity:1;fill-rule:nonzero;stroke:none"
           id="path4871"
           inkscape:connector-curvature="0" /><path
           d="m 231.887,160.411 c 0.22,0.267 0.532,0.382 0.939,0.346 0.215,-0.023 0.441,-0.066 0.674,-0.127 0.232,-0.065 0.458,-0.126 0.673,-0.19 0.218,-0.063 0.412,-0.127 0.589,-0.19 0.176,-0.063 0.313,-0.114 0.41,-0.153 0.152,-0.062 0.243,-0.126 0.272,-0.195 0.029,-0.069 0.03,-0.137 0.002,-0.205 -0.023,-0.058 -0.107,-0.162 -0.248,-0.312 L 215.761,139.79 c -0.207,-0.191 -0.374,-0.268 -0.505,-0.23 -0.075,0.013 -0.195,0.046 -0.36,0.097 -0.166,0.051 -0.336,0.108 -0.512,0.17 -0.176,0.064 -0.344,0.123 -0.507,0.181 -0.162,0.057 -0.271,0.097 -0.326,0.122 -0.084,0.032 -0.155,0.086 -0.215,0.158 -0.059,0.072 -0.088,0.189 -0.087,0.351 l 0.36,24.42 c 0.015,0.753 -0.104,1.309 -0.354,1.669 -0.249,0.359 -0.596,0.628 -1.039,0.807 -0.138,0.056 -0.284,0.107 -0.435,0.153 -0.151,0.044 -0.315,0.086 -0.493,0.126 l 0.338,1.195 c 0.661,-0.124 1.315,-0.262 1.961,-0.419 0.646,-0.157 1.235,-0.307 1.767,-0.45 0.53,-0.144 0.976,-0.266 1.336,-0.371 0.361,-0.107 0.59,-0.18 0.687,-0.218 0.208,-0.085 0.334,-0.214 0.378,-0.384 0.043,-0.171 0.065,-0.393 0.067,-0.67 l -0.421,-22.361 0.083,-0.033 z"
           style="fill:#ffffff;fill-opacity:1;fill-rule:nonzero;stroke:none"
           id="path4873"
           inkscape:connector-curvature="0" /><path
           d="m 242.022,157.636 c 0.819,-0.064 1.592,-0.135 2.32,-0.219 0.728,-0.083 1.37,-0.169 1.928,-0.252 0.556,-0.086 1.019,-0.163 1.388,-0.228 0.37,-0.066 0.605,-0.113 0.706,-0.141 0.463,-0.121 0.633,-0.414 0.511,-0.876 l -6.416,-24.325 c -0.091,-0.345 -0.317,-0.502 -0.68,-0.47 -0.258,0.023 -0.539,0.054 -0.844,0.096 -0.307,0.043 -0.602,0.09 -0.89,0.142 -0.288,0.053 -0.552,0.108 -0.793,0.162 -0.239,0.056 -0.418,0.1 -0.534,0.13 -0.346,0.09 -0.472,0.319 -0.377,0.68 l 5.661,21.462 c 0.106,0.404 0.154,0.745 0.141,1.017 -0.013,0.274 -0.077,0.504 -0.19,0.688 -0.114,0.186 -0.267,0.334 -0.462,0.447 -0.194,0.113 -0.421,0.204 -0.681,0.273 -0.319,0.083 -0.643,0.145 -0.972,0.186 z"
           style="fill:#ffffff;fill-opacity:1;fill-rule:nonzero;stroke:none"
           id="path4875"
           inkscape:connector-curvature="0" /><path
           d="m 264.966,140.142 c 1.15,-0.081 2.18,-0.054 3.088,0.082 0.909,0.131 1.689,0.399 2.34,0.802 0.649,0.403 1.176,0.954 1.581,1.654 0.404,0.701 0.677,1.577 0.82,2.629 0.117,0.874 0.058,1.659 -0.18,2.356 -0.237,0.695 -0.616,1.295 -1.137,1.794 -0.521,0.501 -1.16,0.908 -1.918,1.222 -0.757,0.313 -1.588,0.531 -2.493,0.654 -0.592,0.079 -1.043,0.09 -1.352,0.034 -0.31,-0.056 -0.494,-0.306 -0.555,-0.75 l -3.116,-23.053 c -0.048,-0.353 -0.255,-0.538 -0.618,-0.548 -0.259,-0.011 -0.541,-0.013 -0.851,-0.009 -0.308,0.004 -0.609,0.013 -0.901,0.029 -0.292,0.019 -0.56,0.039 -0.806,0.064 -0.245,0.027 -0.428,0.046 -0.547,0.064 -0.355,0.048 -0.508,0.258 -0.457,0.627 l 3.014,22.295 c 0.101,0.742 0.003,1.257 -0.289,1.544 -0.293,0.289 -0.699,0.468 -1.217,0.54 -0.297,0.04 -0.625,0.061 -0.987,0.065 l 0.032,1.241 c 1.516,0.05 3.082,0.053 4.698,0.008 1.616,-0.045 3.254,-0.178 4.913,-0.404 0.712,-0.095 1.457,-0.227 2.234,-0.392 0.778,-0.165 1.532,-0.38 2.267,-0.646 0.733,-0.266 1.421,-0.588 2.063,-0.969 0.643,-0.382 1.188,-0.842 1.637,-1.377 0.447,-0.535 0.779,-1.153 0.994,-1.854 0.215,-0.701 0.26,-1.502 0.139,-2.407 -0.131,-0.962 -0.39,-1.791 -0.778,-2.487 -0.389,-0.693 -0.876,-1.289 -1.463,-1.781 -0.588,-0.495 -1.248,-0.897 -1.985,-1.202 -0.735,-0.309 -1.516,-0.551 -2.339,-0.728 l -0.018,-0.132 c 0.36,-0.126 0.746,-0.294 1.153,-0.507 0.409,-0.213 0.797,-0.492 1.167,-0.836 0.368,-0.344 0.697,-0.763 0.985,-1.253 0.288,-0.492 0.491,-1.077 0.61,-1.758 l 0.957,-5.313 c 0.128,-0.727 0.256,-1.311 0.386,-1.751 0.129,-0.44 0.282,-0.781 0.461,-1.024 0.178,-0.243 0.397,-0.415 0.655,-0.519 0.258,-0.102 0.586,-0.181 0.986,-0.236 l -0.09,-1.164 c -0.289,-0.021 -0.604,-0.035 -0.944,-0.042 -0.34,-0.006 -0.676,-0.003 -1.006,0.011 -0.33,0.016 -0.626,0.029 -0.889,0.042 -0.262,0.013 -0.46,0.029 -0.593,0.046 -0.474,0.064 -0.889,0.176 -1.244,0.34 -0.357,0.16 -0.664,0.397 -0.924,0.711 -0.258,0.314 -0.472,0.713 -0.64,1.195 -0.169,0.485 -0.304,1.079 -0.404,1.787 l -0.845,5.637 c -0.118,0.802 -0.301,1.452 -0.55,1.954 -0.25,0.502 -0.591,0.907 -1.025,1.215 -0.433,0.305 -0.975,0.546 -1.624,0.715 -0.649,0.172 -1.437,0.335 -2.367,0.492 z"
           style="fill:#ffffff;fill-opacity:1;fill-rule:nonzero;stroke:none"
           id="path4877"
           inkscape:connector-curvature="0" /><path
           d="m 293.212,132.54 c 0.006,-1.123 0.166,-2.064 0.48,-2.83 0.313,-0.765 0.744,-1.378 1.29,-1.838 0.547,-0.462 1.181,-0.786 1.903,-0.973 0.721,-0.189 1.5,-0.276 2.34,-0.258 1.074,0.019 2.13,0.212 3.162,0.575 1.033,0.363 2.06,0.807 3.084,1.337 l -0.403,21.395 c -0.006,0.342 0.168,0.556 0.526,0.637 0.238,0.049 0.51,0.092 0.816,0.129 0.307,0.033 0.61,0.066 0.906,0.094 0.299,0.029 0.571,0.051 0.818,0.073 0.247,0.018 0.429,0.028 0.55,0.03 0.359,0.009 0.541,-0.176 0.547,-0.549 l 0.474,-25.095 c 0.006,-0.36 -0.171,-0.573 -0.528,-0.638 -0.253,-0.05 -0.525,-0.096 -0.814,-0.14 -0.293,-0.043 -0.577,-0.078 -0.852,-0.105 -0.277,-0.028 -0.527,-0.047 -0.749,-0.059 -0.227,-0.012 -0.397,-0.019 -0.516,-0.021 -0.345,-0.007 -0.529,0.176 -0.549,0.55 l -0.193,1.835 c -1.391,-0.802 -2.855,-1.477 -4.393,-2.022 -1.538,-0.544 -3.098,-0.833 -4.684,-0.861 -0.987,-0.02 -1.923,0.098 -2.811,0.349 -0.887,0.253 -1.661,0.651 -2.322,1.191 -0.66,0.541 -1.19,1.238 -1.586,2.091 -0.398,0.851 -0.608,1.862 -0.629,3.029 l -0.308,16.281 c -0.007,0.419 -0.054,0.757 -0.141,1.019 -0.087,0.259 -0.211,0.463 -0.37,0.608 -0.16,0.147 -0.349,0.248 -0.567,0.304 -0.218,0.055 -0.462,0.082 -0.732,0.077 -0.298,-0.006 -0.627,-0.035 -0.984,-0.087 l -0.159,1.232 c 0.805,0.164 1.57,0.305 2.292,0.423 0.723,0.117 1.365,0.213 1.924,0.284 0.56,0.07 1.027,0.124 1.401,0.162 0.373,0.035 0.611,0.055 0.716,0.058 0.478,0.008 0.722,-0.227 0.731,-0.705 z"
           style="fill:#ffffff;fill-opacity:1;fill-rule:nonzero;stroke:none"
           id="path4879"
           inkscape:connector-curvature="0" /><path
           d="m 334.153,148.053 c -0.286,0.784 -0.643,1.442 -1.072,1.968 -0.429,0.525 -0.921,0.939 -1.471,1.24 -0.551,0.302 -1.149,0.493 -1.791,0.572 -0.641,0.082 -1.319,0.062 -2.025,-0.058 -0.694,-0.116 -1.342,-0.313 -1.948,-0.589 -0.606,-0.278 -1.119,-0.641 -1.543,-1.09 -0.424,-0.452 -0.732,-0.991 -0.922,-1.614 -0.19,-0.623 -0.217,-1.332 -0.082,-2.128 0.119,-0.707 0.39,-1.288 0.816,-1.737 0.424,-0.451 0.952,-0.816 1.582,-1.097 0.631,-0.28 1.34,-0.504 2.127,-0.675 0.788,-0.17 1.604,-0.336 2.449,-0.495 0.942,-0.191 1.887,-0.406 2.839,-0.648 0.95,-0.241 1.823,-0.581 2.617,-1.024 0.795,-0.441 1.477,-1.022 2.046,-1.746 0.569,-0.721 0.952,-1.665 1.149,-2.829 0.174,-1.018 0.181,-1.942 0.025,-2.771 -0.154,-0.83 -0.438,-1.578 -0.848,-2.246 -0.411,-0.668 -0.921,-1.26 -1.531,-1.773 -0.611,-0.512 -1.287,-0.955 -2.027,-1.33 -0.74,-0.377 -1.525,-0.687 -2.355,-0.934 -0.829,-0.244 -1.657,-0.438 -2.483,-0.577 -0.986,-0.167 -1.982,-0.275 -2.98,-0.323 -1,-0.047 -2.006,-0.044 -3.015,0.013 -0.139,0.007 -0.256,0.052 -0.354,0.135 -0.096,0.081 -0.161,0.173 -0.194,0.273 -0.08,0.305 -0.188,0.753 -0.318,1.345 -0.131,0.593 -0.259,1.194 -0.387,1.811 -0.125,0.615 -0.238,1.172 -0.338,1.672 -0.099,0.497 -0.156,0.791 -0.171,0.88 l 1.087,0.296 c 0.252,-0.865 0.615,-1.592 1.085,-2.181 0.47,-0.586 1.017,-1.044 1.641,-1.37 0.622,-0.328 1.31,-0.531 2.057,-0.607 0.75,-0.08 1.536,-0.048 2.362,0.092 0.736,0.124 1.437,0.33 2.103,0.617 0.664,0.285 1.233,0.661 1.707,1.128 0.473,0.469 0.824,1.023 1.047,1.668 0.225,0.643 0.268,1.388 0.125,2.226 -0.118,0.693 -0.387,1.253 -0.808,1.682 -0.42,0.431 -0.948,0.785 -1.579,1.065 -0.629,0.278 -1.337,0.505 -2.115,0.676 -0.779,0.171 -1.584,0.347 -2.42,0.523 -0.943,0.204 -1.89,0.436 -2.845,0.692 -0.952,0.256 -1.827,0.612 -2.624,1.068 -0.798,0.456 -1.482,1.057 -2.056,1.801 -0.572,0.745 -0.96,1.713 -1.162,2.909 -0.244,1.443 -0.164,2.7 0.238,3.767 0.404,1.07 1.018,1.978 1.836,2.722 0.822,0.746 1.798,1.343 2.928,1.792 1.129,0.449 2.305,0.776 3.527,0.983 0.812,0.137 1.706,0.223 2.686,0.26 0.978,0.037 1.906,0.021 2.781,-0.042 0.139,-0.007 0.256,-0.052 0.353,-0.133 0.098,-0.082 0.161,-0.175 0.195,-0.275 0.081,-0.305 0.182,-0.731 0.306,-1.28 0.123,-0.545 0.248,-1.101 0.372,-1.665 0.125,-0.562 0.233,-1.068 0.327,-1.523 0.091,-0.455 0.144,-0.726 0.16,-0.815 z"
           style="fill:#ffffff;fill-opacity:1;fill-rule:nonzero;stroke:none"
           id="path4881"
           inkscape:connector-curvature="0" /><path
           d="m 393.853,149.666 c -0.534,-0.713 -1.161,-1.396 -1.884,-2.047 -0.724,-0.653 -1.454,-1.242 -2.192,-1.77 -0.738,-0.528 -1.442,-0.987 -2.111,-1.375 -0.669,-0.391 -1.223,-0.682 -1.657,-0.878 -1.884,-0.846 -3.744,-1.297 -5.583,-1.361 -1.839,-0.063 -3.565,0.217 -5.178,0.837 -1.614,0.62 -3.073,1.564 -4.377,2.828 -1.304,1.267 -2.366,2.814 -3.186,4.641 -0.886,1.98 -1.325,3.888 -1.312,5.727 0.011,1.839 0.396,3.556 1.155,5.15 0.76,1.594 1.858,3.036 3.294,4.326 1.437,1.292 3.138,2.377 5.101,3.258 1.104,0.494 2.193,0.896 3.267,1.206 1.075,0.31 2.133,0.575 3.179,0.8 0.136,0.026 0.26,0.013 0.377,-0.041 0.114,-0.056 0.2,-0.129 0.257,-0.217 0.099,-0.187 0.226,-0.425 0.381,-0.715 0.154,-0.291 0.316,-0.607 0.485,-0.949 0.171,-0.34 0.346,-0.689 0.529,-1.04 0.182,-0.354 0.348,-0.679 0.499,-0.981 0.152,-0.3 0.281,-0.558 0.386,-0.773 0.105,-0.215 0.168,-0.351 0.195,-0.405 l -0.978,-0.559 c -0.462,0.807 -1.031,1.412 -1.71,1.814 -0.681,0.397 -1.408,0.641 -2.184,0.728 -0.776,0.085 -1.571,0.045 -2.388,-0.126 -0.818,-0.169 -1.594,-0.419 -2.329,-0.748 -1.488,-0.667 -2.67,-1.492 -3.548,-2.475 -0.878,-0.983 -1.487,-2.071 -1.828,-3.264 -0.342,-1.194 -0.428,-2.461 -0.261,-3.803 0.167,-1.342 0.562,-2.708 1.186,-4.1 0.727,-1.624 1.625,-3.035 2.696,-4.233 1.07,-1.199 2.277,-2.113 3.622,-2.738 1.345,-0.625 2.811,-0.935 4.396,-0.929 1.587,0.007 3.266,0.408 5.04,1.202 1.063,0.477 2.04,1.054 2.934,1.734 0.891,0.677 1.761,1.444 2.605,2.298 z"
           style="fill:#ffffff;fill-opacity:1;fill-rule:nonzero;stroke:none"
           id="path4883"
           inkscape:connector-curvature="0" /><path
           d="m 399.993,180.387 c -1.223,-0.809 -2.106,-1.749 -2.651,-2.825 -0.543,-1.074 -0.817,-2.212 -0.821,-3.416 -0.003,-1.203 0.223,-2.433 0.678,-3.69 0.452,-1.26 1.068,-2.475 1.841,-3.647 0.865,-1.31 1.858,-2.507 2.98,-3.595 1.12,-1.087 2.315,-1.929 3.584,-2.523 1.271,-0.594 2.597,-0.879 3.976,-0.855 1.382,0.025 2.759,0.49 4.13,1.395 1.224,0.808 2.101,1.758 2.632,2.852 0.531,1.096 0.794,2.253 0.783,3.475 -0.009,1.219 -0.245,2.469 -0.712,3.745 -0.468,1.278 -1.089,2.504 -1.862,3.675 -0.864,1.311 -1.851,2.5 -2.96,3.567 -1.108,1.069 -2.291,1.891 -3.55,2.467 -1.257,0.575 -2.569,0.843 -3.938,0.8 -1.369,-0.044 -2.739,-0.519 -4.11,-1.425 m -0.102,2.19 c 1.609,1.062 3.226,1.773 4.854,2.13 1.625,0.356 3.209,0.367 4.748,0.029 1.537,-0.335 3.01,-1.026 4.414,-2.068 1.405,-1.043 2.681,-2.433 3.825,-4.164 1.251,-1.898 2.081,-3.759 2.49,-5.583 0.408,-1.828 0.428,-3.575 0.059,-5.242 -0.368,-1.666 -1.101,-3.236 -2.2,-4.703 -1.099,-1.469 -2.533,-2.788 -4.307,-3.958 -1.609,-1.062 -3.235,-1.766 -4.88,-2.107 -1.647,-0.343 -3.245,-0.338 -4.795,0.019 -1.552,0.355 -3.031,1.063 -4.438,2.122 -1.406,1.059 -2.686,2.463 -3.838,4.21 -1.243,1.883 -2.066,3.731 -2.467,5.545 -0.401,1.813 -0.41,3.545 -0.028,5.191 0.38,1.648 1.125,3.198 2.237,4.648 1.111,1.452 2.552,2.76 4.326,3.931"
           style="fill:#ffffff;fill-opacity:1;fill-rule:nonzero;stroke:none"
           id="path4885"
           inkscape:connector-curvature="0" /><path
           d="m 430.315,205.587 c -0.144,0.313 -0.116,0.646 0.089,0.996 0.116,0.187 0.249,0.37 0.406,0.555 0.156,0.184 0.308,0.36 0.459,0.527 0.15,0.17 0.293,0.318 0.423,0.451 0.134,0.133 0.238,0.234 0.315,0.305 0.122,0.111 0.22,0.164 0.293,0.161 0.075,-0.002 0.137,-0.032 0.187,-0.087 0.041,-0.045 0.099,-0.163 0.175,-0.357 l 9.378,-25.951 c 0.083,-0.268 0.081,-0.455 -0.007,-0.556 -0.045,-0.062 -0.127,-0.156 -0.242,-0.283 -0.116,-0.128 -0.242,-0.257 -0.374,-0.39 -0.133,-0.131 -0.259,-0.26 -0.382,-0.38 -0.121,-0.123 -0.204,-0.204 -0.249,-0.243 -0.065,-0.062 -0.142,-0.104 -0.234,-0.125 -0.091,-0.023 -0.209,0.001 -0.355,0.069 l -21.908,10.785 c -0.674,0.334 -1.226,0.468 -1.658,0.397 -0.433,-0.073 -0.823,-0.272 -1.177,-0.595 -0.109,-0.101 -0.217,-0.209 -0.322,-0.327 -0.106,-0.118 -0.214,-0.248 -0.327,-0.391 l -0.934,0.818 c 0.395,0.543 0.801,1.075 1.219,1.592 0.419,0.515 0.806,0.984 1.162,1.402 0.356,0.419 0.66,0.769 0.91,1.048 0.25,0.282 0.413,0.456 0.491,0.527 0.165,0.152 0.334,0.211 0.506,0.178 0.175,-0.034 0.386,-0.109 0.635,-0.227 l 20.021,-9.957 0.068,0.061 z"
           style="fill:#ffffff;fill-opacity:1;fill-rule:nonzero;stroke:none"
           id="path4887"
           inkscape:connector-curvature="0" /><path
           d="m 437.241,213.629 c 0.408,0.713 0.805,1.378 1.195,1.999 0.386,0.622 0.739,1.166 1.055,1.633 0.318,0.467 0.586,0.853 0.804,1.156 0.219,0.305 0.361,0.497 0.428,0.578 0.309,0.365 0.648,0.393 1.012,0.084 l 19.208,-16.25 c 0.274,-0.232 0.318,-0.504 0.131,-0.816 -0.129,-0.223 -0.278,-0.464 -0.447,-0.722 -0.171,-0.258 -0.341,-0.506 -0.512,-0.744 -0.172,-0.235 -0.335,-0.45 -0.488,-0.645 -0.153,-0.193 -0.268,-0.336 -0.344,-0.425 -0.233,-0.277 -0.492,-0.291 -0.777,-0.049 l -16.949,14.337 c -0.32,0.271 -0.604,0.459 -0.857,0.565 -0.254,0.106 -0.489,0.149 -0.704,0.125 -0.215,-0.023 -0.416,-0.099 -0.601,-0.226 -0.186,-0.125 -0.366,-0.291 -0.54,-0.497 -0.211,-0.252 -0.407,-0.517 -0.584,-0.798 z"
           style="fill:#ffffff;fill-opacity:1;fill-rule:nonzero;stroke:none"
           id="path4889"
           inkscape:connector-curvature="0" /><path
           d="m 471.934,219.199 c 0.42,0.404 0.808,0.838 1.168,1.301 0.359,0.463 0.708,0.958 1.045,1.488 0.969,1.509 1.603,3.003 1.903,4.48 0.299,1.477 0.279,2.893 -0.061,4.249 -0.34,1.354 -0.984,2.634 -1.933,3.838 -0.952,1.203 -2.189,2.293 -3.71,3.27 -1.448,0.928 -2.909,1.558 -4.382,1.892 -1.476,0.331 -2.907,0.36 -4.303,0.08 -1.394,-0.276 -2.716,-0.867 -3.963,-1.774 -1.246,-0.905 -2.366,-2.131 -3.358,-3.679 l -0.617,-0.964 c -0.364,-0.567 -0.598,-1.033 -0.702,-1.401 -0.103,-0.371 0.053,-0.687 0.468,-0.953 z m -0.451,-4.026 c -0.194,-0.303 -0.449,-0.354 -0.763,-0.151 l -18.633,11.947 c -0.641,0.411 -1.153,0.546 -1.54,0.402 -0.385,-0.144 -0.717,-0.437 -1.001,-0.877 -0.161,-0.252 -0.32,-0.541 -0.476,-0.866 l -1.091,0.541 c 0.665,1.561 1.386,3.11 2.166,4.643 0.779,1.535 1.631,3.026 2.56,4.472 0.774,1.208 1.601,2.343 2.477,3.407 0.878,1.063 1.804,1.997 2.781,2.799 0.977,0.804 2.007,1.452 3.089,1.949 1.082,0.495 2.22,0.79 3.417,0.885 1.197,0.095 2.451,-0.041 3.765,-0.402 1.312,-0.363 2.687,-1.004 4.121,-1.924 1.9,-1.219 3.374,-2.639 4.42,-4.261 1.049,-1.622 1.696,-3.36 1.945,-5.214 0.249,-1.856 0.106,-3.782 -0.426,-5.774 -0.534,-1.995 -1.426,-3.967 -2.676,-5.918 -0.362,-0.566 -0.704,-1.054 -1.019,-1.464 -0.316,-0.41 -0.633,-0.815 -0.952,-1.216 -0.318,-0.397 -0.652,-0.829 -1.001,-1.289 -0.347,-0.461 -0.736,-1.022 -1.163,-1.689"
           style="fill:#ffffff;fill-opacity:1;fill-rule:nonzero;stroke:none"
           id="path4891"
           inkscape:connector-curvature="0" /><path
           d="m 479.824,248.627 4.827,10.446 1.826,-0.968 -4.651,-10.279 z"
           style="fill:#ffffff;fill-opacity:1;fill-rule:nonzero;stroke:none"
           id="path4893"
           inkscape:connector-curvature="0" /><path
           d="m 477.491,272.146 c 0.293,1.764 0.572,3.185 0.841,4.262 0.271,1.078 0.442,1.732 0.52,1.957 0.156,0.452 0.49,0.592 0.998,0.415 l 19.575,-6.742 c 0.338,-0.119 0.477,-0.355 0.418,-0.715 -0.042,-0.255 -0.091,-0.525 -0.151,-0.814 -0.059,-0.288 -0.122,-0.563 -0.189,-0.824 -0.065,-0.262 -0.132,-0.501 -0.199,-0.715 -0.066,-0.214 -0.119,-0.378 -0.158,-0.491 -0.117,-0.34 -0.351,-0.449 -0.705,-0.328 l -16.754,5.774 c -0.437,0.15 -0.806,0.258 -1.109,0.322 -0.303,0.066 -0.557,0.074 -0.763,0.027 -0.207,-0.047 -0.373,-0.153 -0.5,-0.315 -0.126,-0.161 -0.243,-0.398 -0.35,-0.709 -0.058,-0.17 -0.119,-0.367 -0.181,-0.59 -0.06,-0.225 -0.123,-0.477 -0.188,-0.754 z"
           style="fill:#ffffff;fill-opacity:1;fill-rule:nonzero;stroke:none"
           id="path4895"
           inkscape:connector-curvature="0" /><path
           d="m 497.9,301.628 c -0.672,0.144 -1.411,0.264 -2.217,0.36 -0.804,0.097 -1.618,0.14 -2.438,0.132 -0.82,-0.008 -1.627,-0.072 -2.426,-0.19 -0.798,-0.12 -1.523,-0.332 -2.177,-0.636 -0.655,-0.304 -1.208,-0.7 -1.665,-1.191 -0.458,-0.492 -0.766,-1.11 -0.926,-1.855 -0.172,-0.805 -0.147,-1.544 0.075,-2.219 0.223,-0.675 0.575,-1.274 1.061,-1.798 0.483,-0.524 1.064,-0.965 1.746,-1.325 0.679,-0.36 1.392,-0.62 2.137,-0.779 1.871,-0.401 3.445,-0.238 4.716,0.491 1.274,0.729 2.118,2.072 2.537,4.032 0.143,0.659 0.221,1.411 0.233,2.256 0.013,0.846 -0.022,1.714 -0.108,2.604 z m 2.783,-7.892 c -0.26,-1.214 -0.678,-2.252 -1.252,-3.115 -0.575,-0.862 -1.265,-1.544 -2.067,-2.045 -0.803,-0.501 -1.713,-0.822 -2.73,-0.964 -1.018,-0.142 -2.097,-0.091 -3.238,0.154 -1.358,0.292 -2.552,0.8 -3.583,1.526 -1.029,0.726 -1.856,1.595 -2.48,2.606 -0.624,1.014 -1.035,2.145 -1.233,3.396 -0.2,1.25 -0.155,2.548 0.134,3.894 0.331,1.55 0.931,2.847 1.795,3.892 0.867,1.047 1.911,1.851 3.133,2.415 1.224,0.565 2.572,0.899 4.046,1.003 1.477,0.105 2.988,-0.01 4.538,-0.342 1.975,-0.422 3.814,-1.102 5.515,-2.041 1.704,-0.938 3.141,-2.099 4.313,-3.482 1.171,-1.383 2.006,-2.964 2.504,-4.745 0.499,-1.782 0.521,-3.726 0.07,-5.829 -0.275,-1.288 -0.785,-2.594 -1.526,-3.917 l -1.254,0.567 c 0.401,0.738 0.703,1.576 0.903,2.511 0.342,1.593 0.366,3.028 0.071,4.298 -0.292,1.271 -0.828,2.395 -1.606,3.373 -0.776,0.975 -1.756,1.812 -2.937,2.51 -1.18,0.697 -2.495,1.269 -3.944,1.715 0.308,-1.777 0.56,-3.277 0.757,-4.497 0.199,-1.22 0.222,-2.18 0.071,-2.883"
           style="fill:#ffffff;fill-opacity:1;fill-rule:nonzero;stroke:none"
           id="path4897"
           inkscape:connector-curvature="0" /></g></g></g></svg>