<?xml version="1.0" encoding="UTF-8" standalone="no"?>
<!-- Created with Inkscape (http://www.inkscape.org/) -->

<svg
   xmlns:dc="http://purl.org/dc/elements/1.1/"
   xmlns:cc="http://creativecommons.org/ns#"
   xmlns:rdf="http://www.w3.org/1999/02/22-rdf-syntax-ns#"
   xmlns:svg="http://www.w3.org/2000/svg"
   xmlns="http://www.w3.org/2000/svg"
   xmlns:sodipodi="http://sodipodi.sourceforge.net/DTD/sodipodi-0.dtd"
   xmlns:inkscape="http://www.inkscape.org/namespaces/inkscape"
   version="1.1"
   id="svg3935"
   xml:space="preserve"
   width="1066.6667"
   height="1066.6667"
   viewBox="0 0 1066.6667 1066.6667"
   sodipodi:docname="corona-virus-sign-warning-freesvg.org.svg"
   inkscape:version="0.92.4 (5da689c313, 2019-01-14)"><metadata
     id="metadata3941"><rdf:RDF><cc:Work
         rdf:about=""><dc:format>image/svg+xml</dc:format><dc:type
           rdf:resource="http://purl.org/dc/dcmitype/StillImage" /><dc:title></dc:title></cc:Work></rdf:RDF></metadata><defs
     id="defs3939"><clipPath
       clipPathUnits="userSpaceOnUse"
       id="clipPath3951"><path
         d="M 0,800 H 800 V 0 H 0 Z"
         id="path3949"
         inkscape:connector-curvature="0" /></clipPath><clipPath
       clipPathUnits="userSpaceOnUse"
       id="clipPath3959"><path
         d="M 120.391,399.154 H 723.008 V 81.917 H 120.391 Z"
         id="path3957"
         inkscape:connector-curvature="0" /></clipPath><linearGradient
       x1="0"
       y1="0"
       x2="1"
       y2="0"
       gradientUnits="userSpaceOnUse"
       gradientTransform="matrix(38.328125,0,0,-38.328125,376.80762,426.62158)"
       spreadMethod="pad"
       id="linearGradient3997"><stop
         style="stop-opacity:1;stop-color:#e4e0de"
         offset="0"
         id="stop3979" /><stop
         style="stop-opacity:1;stop-color:#e4e0de"
         offset="0.0292797"
         id="stop3981" /><stop
         style="stop-opacity:1;stop-color:#adb2b5"
         offset="0.174157"
         id="stop3983" /><stop
         style="stop-opacity:1;stop-color:#e1e3e5"
         offset="0.331461"
         id="stop3985" /><stop
         style="stop-opacity:1;stop-color:#f1f1f1"
         offset="0.494382"
         id="stop3987" /><stop
         style="stop-opacity:1;stop-color:#f1f1f1"
         offset="0.51059159"
         id="stop3989" /><stop
         style="stop-opacity:1;stop-color:#999fa4"
         offset="0.91573"
         id="stop3991" /><stop
         style="stop-opacity:1;stop-color:#999fa4"
         offset="0.9830691"
         id="stop3993" /><stop
         style="stop-opacity:1;stop-color:#999fa4"
         offset="1"
         id="stop3995" /></linearGradient><linearGradient
       x1="0"
       y1="0"
       x2="1"
       y2="0"
       gradientUnits="userSpaceOnUse"
       gradientTransform="matrix(399.19077,-399.19077,-399.19077,-399.19077,196.34424,607.23975)"
       spreadMethod="pad"
       id="linearGradient4017"><stop
         style="stop-opacity:1;stop-color:#fdc70c"
         offset="0"
         id="stop4013" /><stop
         style="stop-opacity:1;stop-color:#f3903f"
         offset="1"
         id="stop4015" /></linearGradient><linearGradient
       x1="0"
       y1="0"
       x2="1"
       y2="0"
       gradientUnits="userSpaceOnUse"
       gradientTransform="matrix(581.0835,0,0,-581.0835,105.4292,194.94922)"
       spreadMethod="pad"
       id="linearGradient4041"><stop
         style="stop-opacity:1;stop-color:#fdc70c"
         offset="0"
         id="stop4037" /><stop
         style="stop-opacity:1;stop-color:#f3903f"
         offset="1"
         id="stop4039" /></linearGradient><clipPath
       clipPathUnits="userSpaceOnUse"
       id="clipPath4053"><path
         d="M 105.429,787.364 H 518.201 V 139.346 H 105.429 Z"
         id="path4051"
         inkscape:connector-curvature="0" /></clipPath><linearGradient
       x1="0"
       y1="0"
       x2="1"
       y2="0"
       gradientUnits="userSpaceOnUse"
       gradientTransform="matrix(65.422577,-65.422562,-65.422562,-65.422562,108.25537,243.54785)"
       spreadMethod="pad"
       id="linearGradient4063"><stop
         style="stop-opacity:1;stop-color:#231f20"
         offset="0"
         id="stop4059" /><stop
         style="stop-opacity:1;stop-color:#414042"
         offset="1"
         id="stop4061" /></linearGradient><linearGradient
       x1="0"
       y1="0"
       x2="1"
       y2="0"
       gradientUnits="userSpaceOnUse"
       gradientTransform="matrix(175.58,-175.58,-175.58,-175.58,196.34424,607.23975)"
       spreadMethod="pad"
       id="linearGradient4073"><stop
         style="stop-opacity:1;stop-color:#231f20"
         offset="0"
         id="stop4069" /><stop
         style="stop-opacity:1;stop-color:#414042"
         offset="1"
         id="stop4071" /></linearGradient></defs><sodipodi:namedview
     pagecolor="#ffffff"
     bordercolor="#666666"
     borderopacity="1"
     objecttolerance="10"
     gridtolerance="10"
     guidetolerance="10"
     inkscape:pageopacity="0"
     inkscape:pageshadow="2"
     inkscape:window-width="1920"
     inkscape:window-height="1018"
     id="namedview3937"
     showgrid="false"
     inkscape:zoom="0.48916988"
     inkscape:cx="980.79104"
     inkscape:cy="524.29383"
     inkscape:window-x="-8"
     inkscape:window-y="-8"
     inkscape:window-maximized="1"
     inkscape:current-layer="g3943" /><g
     id="g3943"
     inkscape:groupmode="layer"
     inkscape:label="corona-virus-sign-publicdomainvectors.org"
     transform="matrix(1.3333333,0,0,-1.3333333,0,1066.6667)"><g
       id="g3953"><g
         id="g3955" /><g
         id="g3965"><g
           clip-path="url(#clipPath3959)"
           id="g3963"><path
             d="m 696.976,156.662 c -84.196,0.214 -168.388,0.596 -252.581,1 1.255,3.259 1.876,4.867 3.11,8.049 74.095,-0.474 148.19,-0.925 222.285,-1.244 15.138,0.673 45.795,1.12 52.781,16.328 1.175,2.553 -0.053,5.603 -3.308,8.049 -64.858,61.71 -114.631,127.649 -166.897,193.326 -13.762,28.16 -59.55,16.053 -78.271,1.24 -97.278,-76.928 -206.053,-131.883 -315.74,-188.455 -5.215,-2.703 -8.918,-5.96 -9.993,-9.037 -5.629,-16.121 30.148,-18.096 38.91,-18.724 74.124,-0.319 148.249,-0.771 222.374,-1.244 -1.259,-3.204 -1.893,-4.821 -3.171,-8.103 -84.194,0.405 -168.388,0.788 -252.583,1 -9.239,0.023 -17.997,-3.028 -19.573,-6.882 -4.587,-11.277 -9.134,-22.567 -13.647,-33.872 -1.692,-4.258 4.421,-7.798 13.684,-7.786 84.685,0.087 169.368,0.117 254.052,0.142 -3.538,-9.495 -7.04,-19.01 -10.506,-28.532 h 38.327 c 3.429,9.527 6.89,19.042 10.389,28.542 84.683,0.025 169.369,0.055 254.052,0.145 9.265,0.01 17.989,3.531 19.436,7.676 3.743,10.687 7.498,21.366 11.326,32.023 1.274,3.542 -5.216,6.338 -14.456,6.359"
             style="fill:#e6e7e8;fill-opacity:1;fill-rule:nonzero;stroke:none"
             id="path3961"
             inkscape:connector-curvature="0" /></g></g></g><g
       id="g3967"><g
         id="g3969"><g
           id="g3975"><g
             id="g3977"><path
               d="M 376.808,771.326 V 442.908 81.917 h 38.328 v 360.991 328.418 z"
               style="fill:url(#linearGradient3997);stroke:none"
               id="path3999"
               inkscape:connector-curvature="0" /></g></g></g></g><g
       id="g4001"><g
         id="g4003"><g
           id="g4009"><g
             id="g4011"><path
               d="m 680.198,341.908 -243.659,421.97 c -18.101,31.315 -63.123,31.315 -81.222,0 l -243.67,-421.97 c -4.087,-7.101 -6.217,-15.234 -6.217,-23.441 0,-25.902 20.899,-46.889 46.81,-46.973 h 487.374 c 25.834,0 46.901,21.071 46.901,46.973 0,8.285 -2.142,16.34 -6.317,23.441"
               style="fill:url(#linearGradient4017);stroke:none"
               id="path4019"
               inkscape:connector-curvature="0" /></g></g></g></g><path
       d="m 639.614,281.447 h -487.37 c -20.311,0.074 -36.858,16.677 -36.858,37.02 0,6.524 1.687,12.909 4.89,18.485 L 363.94,758.899 c 6.694,11.584 18.659,18.506 31.99,18.506 13.332,0 25.298,-6.922 31.992,-18.506 L 671.565,336.931 c 3.282,-5.567 4.986,-11.915 4.986,-18.464 0,-20.412 -16.563,-37.02 -36.937,-37.02 m 40.583,60.461 -243.658,421.97 c -18.101,31.315 -63.123,31.315 -81.222,0 l -243.67,-421.97 c -4.088,-7.101 -6.218,-15.234 -6.218,-23.441 0,-25.902 20.9,-46.889 46.811,-46.973 h 487.374 c 25.834,0 46.899,21.071 46.899,46.973 0,8.285 -2.14,16.34 -6.316,23.441"
       style="fill:#000000;fill-opacity:1;fill-rule:nonzero;stroke:none"
       id="path4021"
       inkscape:connector-curvature="0" /><path
       d="m 359.87,382.053 c -30.416,13.726 -49.932,43.816 -49.932,77.347 0,3.549 0.223,7.122 0.666,10.646 3.117,-0.485 6.198,-1.2 9.204,-2.139 -0.32,-2.833 -0.483,-5.685 -0.483,-8.507 0,-29.349 17.018,-55.95 43.543,-68.364 -0.775,-3.058 -1.777,-6.067 -2.998,-8.983 m 104.54,28.868 c -9.264,-13.282 -21.94,-23.531 -36.767,-29.758 -1.259,2.88 -2.303,5.857 -3.122,8.894 27.846,11.949 45.708,38.926 45.708,69.343 0,3.069 -0.185,6.15 -0.556,9.193 3.024,0.818 6.12,1.414 9.239,1.781 0.469,-3.638 0.705,-7.317 0.705,-10.974 0,-17.455 -5.259,-34.22 -15.207,-48.479 m -69.632,123.931 c -15.47,0 -30.267,-4.638 -42.926,-13.436 -2.358,2.129 -4.561,4.434 -6.581,6.883 14.48,10.438 31.54,15.94 49.507,15.94 17.952,0 34.996,-5.493 49.468,-15.913 -2.016,-2.45 -4.217,-4.755 -6.576,-6.886 -12.65,8.78 -27.437,13.412 -42.892,13.412 m 91.632,-50.769 c -42.655,0 -77.359,-34.702 -77.359,-77.36 0,-42.656 34.704,-77.36 77.359,-77.36 6.994,0 13.87,0.946 20.47,2.751 -12.039,-5.588 -25.31,-8.559 -39.082,-8.559 -28.003,0 -54.228,12.473 -71.943,34.215 l -1.983,2.432 -1.982,-2.432 c -17.715,-21.742 -43.938,-34.215 -71.945,-34.215 -13.124,0 -25.961,2.797 -37.715,8.032 5.989,-1.467 12.189,-2.224 18.495,-2.224 42.656,0 77.358,34.704 77.358,77.36 0,42.658 -34.702,77.36 -77.358,77.36 -31.946,0 -59.431,-19.464 -71.219,-47.155 3.402,14.938 10.479,28.901 20.732,40.571 14.728,16.76 34.948,27.66 56.935,30.687 l 3.297,0.454 -1.288,3.068 c -4.771,11.369 -7.189,23.435 -7.189,35.862 0,28.553 13.053,54.699 34.137,71.913 -11.817,-13.731 -18.742,-31.512 -18.742,-50.498 0,-42.655 34.703,-77.358 77.36,-77.358 42.654,0 77.359,34.703 77.359,77.358 0,18.986 -6.926,36.767 -18.742,50.498 21.083,-17.214 34.137,-43.36 34.137,-71.913 0,-12.519 -2.451,-24.663 -7.284,-36.093 l -1.276,-3.019 3.237,-0.504 c 21.622,-3.364 41.452,-14.387 55.837,-31.037 10.691,-12.374 17.849,-27.295 20.886,-43.179 -10.979,29.376 -39.336,50.345 -72.492,50.345 m -92.538,-2.986 c -11.964,0 -21.699,-9.733 -21.699,-21.697 0,-11.964 9.735,-21.7 21.699,-21.7 11.966,0 21.699,9.736 21.699,21.7 0,11.964 -9.733,21.697 -21.699,21.697"
       style="fill:#000000;fill-opacity:1;fill-rule:nonzero;stroke:none"
       id="path4023"
       inkscape:connector-curvature="0" /><g
       id="g4025"><g
         id="g4027"><g
           id="g4033"><g
             id="g4035"><path
               d="m 686.513,156.126 c 0,-9.266 -7.512,-16.78 -16.78,-16.78 H 122.21 c -9.267,0 -16.781,7.514 -16.781,16.78 v 77.645 c 0,9.269 7.514,16.783 16.781,16.783 h 547.523 c 9.268,0 16.78,-7.514 16.78,-16.783 z"
               style="fill:url(#linearGradient4041);stroke:none"
               id="path4043"
               inkscape:connector-curvature="0" /></g></g></g></g><path
       d="m 122.21,147.737 c -4.626,0 -8.39,3.765 -8.39,8.389 v 77.645 c 0,4.626 3.764,8.392 8.39,8.392 h 547.523 c 4.626,0 8.389,-3.766 8.389,-8.392 v -77.645 c 0,-4.624 -3.763,-8.389 -8.389,-8.389 z M 669.733,250.554 H 122.21 c -9.267,0 -16.781,-7.514 -16.781,-16.783 v -77.645 c 0,-9.266 7.514,-16.78 16.781,-16.78 h 547.523 c 9.268,0 16.78,7.514 16.78,16.78 v 77.645 c 0,9.269 -7.512,16.783 -16.78,16.783"
       style="fill:#000000;fill-opacity:1;fill-rule:nonzero;stroke:none"
       id="path4045"
       inkscape:connector-curvature="0" /><path
       d="m 159.356,167.568 v 4.6 c 1.964,0.148 4.026,0.89 6.192,2.22 1.158,0.727 2.188,1.7 3.095,2.916 0.905,1.217 1.586,2.552 2.038,4.007 0.253,0.802 0.547,1.374 0.887,1.711 0.34,0.338 0.786,0.508 1.34,0.508 0.605,0 1.108,-0.226 1.511,-0.678 0.402,-0.452 0.604,-1.016 0.604,-1.694 0,-1.129 -0.435,-2.497 -1.303,-4.103 -0.868,-1.606 -1.982,-3.087 -3.34,-4.443 -1.662,-1.656 -3.366,-2.886 -5.116,-3.689 -1.749,-0.802 -3.718,-1.256 -5.908,-1.355 m -0.064,48.943 v 4.577 c 1.229,-0.205 2.227,-0.424 2.993,-0.655 0.766,-0.231 2.152,-0.721 4.161,-1.467 1.281,-0.463 2.134,-0.694 2.56,-0.694 0.729,0 1.281,0.329 1.658,0.99 l 0.489,0.914 c 0.302,0.608 0.868,0.914 1.695,0.914 0.678,0 1.199,-0.199 1.564,-0.596 0.363,-0.397 0.545,-0.981 0.545,-1.75 v -15.732 c 0,-1.017 -0.226,-1.755 -0.678,-2.21 -0.452,-0.459 -0.966,-0.687 -1.544,-0.687 -0.602,0 -1.086,0.196 -1.449,0.587 -0.365,0.39 -0.66,1.027 -0.885,1.91 -0.527,1.995 -1.044,3.56 -1.545,4.699 -1.08,2.396 -2.31,4.339 -3.69,5.83 -0.929,1.008 -1.858,1.785 -2.787,2.329 -0.929,0.542 -1.958,0.889 -3.087,1.041 m -3.017,4.616 v -4.578 c -1.475,-0.23 -2.578,-0.885 -3.302,-1.969 -0.726,-1.084 -1.089,-2.637 -1.089,-4.655 v -31.158 -1.621 c 0,-0.579 0.119,-1.189 0.357,-1.83 0.238,-0.639 0.543,-1.187 0.92,-1.64 0.399,-0.502 0.825,-0.861 1.275,-1.076 0.451,-0.214 1.064,-0.359 1.839,-0.432 v -4.6 c -4.876,0 -9.112,1.269 -12.707,3.811 -3.168,2.238 -5.556,5.252 -7.166,9.039 -1.609,3.786 -2.412,8.27 -2.412,13.454 0,3.798 0.52,7.339 1.565,10.622 1.041,3.284 2.556,6.132 4.544,8.548 2.01,2.439 4.417,4.402 7.221,5.887 2.803,1.485 5.499,2.227 8.088,2.227 z"
       style="fill:#000000;fill-opacity:1;fill-rule:nonzero;stroke:none"
       id="path4099"
       inkscape:connector-curvature="0" /><path
       d="m 203.599,217.041 v 4.086 c 2.716,-0.128 5.202,-0.681 7.454,-1.662 2.251,-0.981 4.345,-2.416 6.283,-4.303 5.131,-5.008 7.698,-11.965 7.698,-20.872 0,-8.732 -2.454,-15.538 -7.359,-20.419 -3.774,-3.775 -8.467,-5.876 -14.076,-6.303 v 4.148 c 0.653,0.151 1.161,0.344 1.525,0.584 0.364,0.238 0.697,0.586 0.998,1.037 0.678,1.03 1.017,2.588 1.017,4.675 v 33.729 c 0,1.337 -0.226,2.398 -0.678,3.18 -0.301,0.53 -0.66,0.944 -1.073,1.248 -0.414,0.304 -1.01,0.593 -1.789,0.872 m -3.08,0 c -1.271,-0.455 -2.167,-1.072 -2.69,-1.856 -0.523,-0.782 -0.784,-1.93 -0.784,-3.444 v -33.729 c 0,-2.212 0.297,-3.771 0.895,-4.675 0.474,-0.754 1.334,-1.296 2.579,-1.621 v -4.148 c -5.578,0.452 -10.252,2.552 -14.02,6.303 -4.9,4.881 -7.35,11.687 -7.35,20.419 0,4.377 0.647,8.334 1.941,11.87 1.295,3.536 3.211,6.537 5.749,9.002 1.934,1.887 4.019,3.322 6.255,4.303 2.236,0.981 4.711,1.534 7.425,1.662 z"
       style="fill:#000000;fill-opacity:1;fill-rule:nonzero;stroke:none"
       id="path4101"
       inkscape:connector-curvature="0" /><path
       d="m 261.858,193.811 c 2.312,-0.353 4.09,-0.743 5.334,-1.167 1.244,-0.43 2.369,-1.007 3.374,-1.737 1.055,-0.779 1.866,-1.71 2.432,-2.79 0.565,-1.081 0.848,-2.225 0.848,-3.43 v -7.805 c 0,-0.811 0.261,-1.217 0.787,-1.217 0.2,0 0.369,0.054 0.506,0.168 0.137,0.112 0.332,0.332 0.583,0.656 0.624,0.849 1.262,1.274 1.913,1.274 0.425,0 0.85,-0.227 1.276,-0.679 0.425,-0.453 0.638,-0.905 0.638,-1.358 0,-0.783 -0.371,-1.732 -1.112,-2.85 -0.74,-1.12 -1.662,-2.118 -2.766,-2.999 -1.029,-0.831 -2.147,-1.428 -3.351,-1.792 -1.205,-0.365 -2.623,-0.547 -4.254,-0.547 -3.315,0 -5.899,0.95 -7.755,2.855 -1.859,1.9 -2.787,4.556 -2.787,7.961 v 6.333 c 0,1.407 -0.013,2.223 -0.038,2.45 -0.125,1.006 -0.474,1.873 -1.048,2.602 -0.725,0.88 -1.761,1.393 -3.109,1.546 v 4.033 c 1.348,0.202 2.31,0.554 2.884,1.058 0.499,0.453 0.842,0.967 1.03,1.547 0.187,0.578 0.281,1.431 0.281,2.562 v 10.038 c 0,1.583 -0.309,2.766 -0.924,3.546 -0.617,0.779 -1.73,1.396 -3.34,1.849 v 4.189 h 0.98 c 2.791,0 5.166,-0.102 7.126,-0.301 2.914,-0.28 5.516,-1.237 7.804,-2.872 3.291,-2.343 4.937,-5.682 4.937,-10.012 0,-3.554 -1.105,-6.462 -3.315,-8.729 -0.93,-0.958 -2.019,-1.737 -3.261,-2.342 -1.244,-0.605 -3.135,-1.285 -5.673,-2.04 m -11.544,26.296 V 175.75 c 0,-0.98 0.187,-1.686 0.563,-2.113 0.2,-0.251 0.387,-0.408 0.561,-0.471 0.176,-0.062 0.752,-0.22 1.729,-0.471 1.199,-0.275 1.8,-0.966 1.8,-2.073 0,-0.653 -0.325,-1.183 -0.975,-1.584 -0.475,-0.301 -1.264,-0.451 -2.365,-0.451 h -1.275 -16.857 -0.981 c -0.911,0 -1.614,0.168 -2.108,0.508 -0.493,0.34 -0.74,0.823 -0.74,1.452 0,1.031 0.505,1.707 1.517,2.036 0.834,0.276 1.32,0.446 1.459,0.508 0.14,0.062 0.284,0.208 0.436,0.434 0.304,0.401 0.455,1.043 0.455,1.924 v 37.768 c 0,0.884 -0.151,1.527 -0.455,1.931 -0.152,0.228 -0.296,0.371 -0.436,0.436 -0.139,0.062 -0.625,0.233 -1.459,0.509 -1.012,0.329 -1.517,1.011 -1.517,2.046 0,0.63 0.247,1.116 0.74,1.457 0.494,0.341 1.197,0.511 2.108,0.511 h 0.981 z"
       style="fill:#000000;fill-opacity:1;fill-rule:nonzero;stroke:none"
       id="path4103"
       inkscape:connector-curvature="0" /><path
       d="m 306.634,217.041 v 4.086 c 2.717,-0.128 5.201,-0.681 7.454,-1.662 2.25,-0.981 4.346,-2.416 6.283,-4.303 5.131,-5.008 7.698,-11.965 7.698,-20.872 0,-8.732 -2.453,-15.538 -7.359,-20.419 -3.774,-3.775 -8.466,-5.876 -14.076,-6.303 v 4.148 c 0.653,0.151 1.161,0.344 1.526,0.584 0.363,0.238 0.696,0.586 0.998,1.037 0.677,1.03 1.016,2.588 1.016,4.675 v 33.729 c 0,1.337 -0.226,2.398 -0.678,3.18 -0.301,0.53 -0.66,0.944 -1.073,1.248 -0.414,0.304 -1.01,0.593 -1.789,0.872 m -3.081,0 c -1.269,-0.455 -2.166,-1.072 -2.689,-1.856 -0.524,-0.782 -0.784,-1.93 -0.784,-3.444 v -33.729 c 0,-2.212 0.297,-3.771 0.896,-4.675 0.473,-0.754 1.332,-1.296 2.577,-1.621 v -4.148 c -5.577,0.452 -10.25,2.552 -14.019,6.303 -4.9,4.881 -7.349,11.687 -7.349,20.419 0,4.377 0.646,8.334 1.941,11.87 1.293,3.536 3.209,6.537 5.748,9.002 1.933,1.887 4.019,3.322 6.255,4.303 2.236,0.981 4.711,1.534 7.424,1.662 z"
       style="fill:#000000;fill-opacity:1;fill-rule:nonzero;stroke:none"
       id="path4105"
       inkscape:connector-curvature="0" /><path
       d="m 374.128,191.247 -3.999,6.749 v 10.452 c 0,2.119 -0.308,3.74 -0.922,4.865 -0.615,1.123 -1.701,2.088 -3.257,2.895 -0.527,0.252 -0.891,0.521 -1.092,0.813 -0.201,0.292 -0.301,0.663 -0.301,1.118 0,0.681 0.219,1.179 0.658,1.494 0.438,0.316 1.146,0.474 2.122,0.474 h 9.432 c 1.292,0 2.141,-0.202 2.546,-0.605 0.431,-0.404 0.646,-0.885 0.646,-1.439 0,-0.532 -0.12,-0.928 -0.359,-1.193 -0.241,-0.265 -0.815,-0.625 -1.724,-1.079 -1.339,-0.68 -2.35,-1.728 -3.03,-3.142 -0.48,-1.034 -0.72,-2.435 -0.72,-4.201 z m -20.075,28.86 20.075,-34.893 v -16.627 h -10.301 l -25.603,44.159 c -0.553,0.956 -1.005,1.623 -1.358,2.003 -0.352,0.375 -0.803,0.652 -1.357,0.829 l -1.432,0.528 c -0.378,0.125 -0.68,0.351 -0.906,0.679 -0.226,0.326 -0.339,0.692 -0.339,1.096 0,0.427 0.113,0.822 0.338,1.187 0.225,0.366 0.525,0.622 0.901,0.775 0.426,0.177 1.576,0.264 3.454,0.264 z m -15.781,-13.286 3.999,-6.636 v -20.212 c 0,-1.759 0.296,-3.205 0.89,-4.336 0.593,-1.132 1.534,-2.061 2.823,-2.79 l 1.136,-0.641 c 0.656,-0.377 0.984,-0.943 0.984,-1.697 0,-0.578 -0.24,-1.056 -0.721,-1.433 -0.406,-0.327 -1.242,-0.489 -2.508,-0.489 h -8.716 c -2.305,0 -3.458,0.652 -3.458,1.96 0,0.452 0.12,0.808 0.36,1.073 0.239,0.265 0.763,0.623 1.573,1.075 2.425,1.331 3.638,3.758 3.638,7.278 z"
       style="fill:#000000;fill-opacity:1;fill-rule:nonzero;stroke:none"
       id="path4107"
       inkscape:connector-curvature="0" /><path
       d="m 399.723,220.107 h 15.206 l 10.494,-44.35 c 0.2,-0.78 0.427,-1.472 0.678,-2.076 0.226,-0.477 0.73,-0.868 1.51,-1.169 0.654,-0.279 1.105,-0.554 1.359,-0.832 0.251,-0.276 0.376,-0.655 0.376,-1.132 0,-1.309 -0.982,-1.961 -2.945,-1.961 h -18.83 c -0.752,0 -1.351,0.182 -1.802,0.547 -0.452,0.364 -0.675,0.849 -0.675,1.452 0,0.506 0.1,0.881 0.302,1.134 0.201,0.252 0.653,0.565 1.356,0.944 0.501,0.251 0.854,0.529 1.056,0.83 0.201,0.303 0.3,0.681 0.3,1.132 0,0.431 -0.038,0.808 -0.114,1.136 l -1.216,5.475 h -10.527 l 1.019,4.523 h 8.452 l -6.943,30.636 z m -2.605,-9.616 1.925,-7.819 -6.691,-24.358 c -0.202,-0.705 -0.303,-1.357 -0.303,-1.961 0,-1.583 0.741,-2.716 2.223,-3.392 l 1.319,-0.605 c 0.828,-0.377 1.242,-1.005 1.242,-1.884 0,-1.258 -0.91,-1.885 -2.734,-1.885 h -9.583 c -0.932,0 -1.668,0.193 -2.209,0.583 -0.54,0.389 -0.811,0.924 -0.811,1.604 0,0.729 0.553,1.331 1.661,1.81 1.031,0.453 1.792,0.862 2.282,1.227 0.492,0.364 0.964,0.86 1.415,1.489 0.704,1.03 1.283,2.401 1.736,4.11 z"
       style="fill:#000000;fill-opacity:1;fill-rule:nonzero;stroke:none"
       id="path4109"
       inkscape:connector-curvature="0" /><path
       d="m 462.09,187.175 -2.001,7.09 4.323,15.904 c 0.275,1.009 0.424,1.625 0.451,1.852 0.049,0.555 -0.075,1.171 -0.377,1.852 -0.403,0.881 -1.031,1.459 -1.886,1.737 l -1.246,0.453 c -0.983,0.329 -1.472,0.97 -1.472,1.928 0,0.68 0.275,1.202 0.834,1.567 0.557,0.366 1.329,0.549 2.316,0.549 h 9.246 c 1.146,0 1.893,-0.114 2.243,-0.34 0.595,-0.377 0.896,-0.918 0.896,-1.624 0,-0.479 -0.093,-0.857 -0.283,-1.132 -0.189,-0.28 -0.533,-0.53 -1.035,-0.756 l -1.92,-0.906 c -0.802,-0.379 -1.575,-1.127 -2.316,-2.248 -0.741,-1.121 -1.311,-2.399 -1.712,-3.832 z m -1.434,-5.392 -3.585,-13.196 h -9.925 l -13.409,45.103 c -0.201,0.679 -0.389,1.139 -0.566,1.377 -0.177,0.239 -0.451,0.448 -0.828,0.623 -0.804,0.327 -1.33,0.629 -1.58,0.906 -0.254,0.277 -0.379,0.692 -0.379,1.246 0,0.754 0.338,1.346 1.012,1.774 0.522,0.327 1.383,0.491 2.582,0.491 h 16.791 c 1.063,0 1.793,-0.026 2.185,-0.076 0.392,-0.05 0.715,-0.149 0.968,-0.302 0.254,-0.176 0.469,-0.428 0.646,-0.754 0.176,-0.329 0.265,-0.643 0.265,-0.945 0,-0.932 -0.44,-1.598 -1.319,-2.001 -0.654,-0.329 -1.099,-0.66 -1.337,-1.001 -0.239,-0.34 -0.357,-0.824 -0.357,-1.453 0,-0.404 0.035,-0.757 0.111,-1.057 z"
       style="fill:#000000;fill-opacity:1;fill-rule:nonzero;stroke:none"
       id="path4111"
       inkscape:connector-curvature="0" /><path
       d="m 499.733,168.587 h -16.856 -0.98 c -0.912,0 -1.614,0.168 -2.108,0.508 -0.494,0.34 -0.741,0.823 -0.741,1.452 0,1.031 0.506,1.707 1.517,2.036 0.832,0.276 1.322,0.446 1.458,0.508 0.14,0.062 0.288,0.208 0.439,0.434 0.303,0.401 0.454,1.043 0.454,1.924 v 37.768 c 0,0.884 -0.151,1.527 -0.454,1.931 -0.151,0.228 -0.299,0.371 -0.439,0.436 -0.136,0.062 -0.626,0.233 -1.458,0.509 -1.011,0.329 -1.517,1.011 -1.517,2.046 0,0.63 0.247,1.116 0.741,1.457 0.494,0.341 1.196,0.511 2.108,0.511 h 0.98 16.856 0.983 c 0.911,0 1.612,-0.17 2.107,-0.511 0.493,-0.341 0.741,-0.827 0.741,-1.457 0,-1.035 -0.506,-1.717 -1.517,-2.046 -0.833,-0.276 -1.32,-0.447 -1.458,-0.509 -0.142,-0.065 -0.287,-0.208 -0.438,-0.436 -0.303,-0.404 -0.455,-1.047 -0.455,-1.931 v -37.768 c 0,-0.881 0.152,-1.523 0.455,-1.924 0.151,-0.226 0.296,-0.372 0.438,-0.434 0.138,-0.062 0.625,-0.232 1.458,-0.508 1.011,-0.329 1.517,-1.005 1.517,-2.036 0,-0.629 -0.248,-1.112 -0.741,-1.452 -0.495,-0.34 -1.196,-0.508 -2.107,-0.508 z"
       style="fill:#000000;fill-opacity:1;fill-rule:nonzero;stroke:none"
       id="path4113"
       inkscape:connector-curvature="0" /><path
       d="m 541.875,193.811 c 2.313,-0.353 4.091,-0.743 5.334,-1.167 1.245,-0.43 2.368,-1.007 3.373,-1.737 1.058,-0.779 1.867,-1.71 2.432,-2.79 0.566,-1.081 0.848,-2.225 0.848,-3.43 v -7.805 c 0,-0.811 0.263,-1.217 0.787,-1.217 0.201,0 0.371,0.054 0.507,0.168 0.139,0.112 0.332,0.332 0.582,0.656 0.626,0.849 1.263,1.274 1.914,1.274 0.426,0 0.85,-0.227 1.275,-0.679 0.425,-0.453 0.638,-0.905 0.638,-1.358 0,-0.783 -0.371,-1.732 -1.11,-2.85 -0.74,-1.12 -1.662,-2.118 -2.767,-2.999 -1.031,-0.831 -2.147,-1.428 -3.351,-1.792 -1.205,-0.365 -2.623,-0.547 -4.255,-0.547 -3.313,0 -5.896,0.95 -7.755,2.855 -1.857,1.9 -2.786,4.556 -2.786,7.961 v 6.333 c 0,1.407 -0.014,2.223 -0.037,2.45 -0.126,1.006 -0.475,1.873 -1.049,2.602 -0.724,0.88 -1.761,1.393 -3.107,1.546 v 4.033 c 1.346,0.202 2.308,0.554 2.882,1.058 0.499,0.453 0.842,0.967 1.031,1.547 0.186,0.578 0.28,1.431 0.28,2.562 v 10.038 c 0,1.583 -0.309,2.766 -0.926,3.546 -0.613,0.779 -1.728,1.396 -3.337,1.849 v 4.189 h 0.98 c 2.789,0 5.164,-0.102 7.124,-0.301 2.916,-0.28 5.516,-1.237 7.804,-2.872 3.293,-2.343 4.939,-5.682 4.939,-10.012 0,-3.554 -1.107,-6.462 -3.316,-8.729 -0.929,-0.958 -2.019,-1.737 -3.262,-2.342 -1.243,-0.605 -3.133,-1.285 -5.672,-2.04 m -11.546,26.296 V 175.75 c 0,-0.98 0.19,-1.686 0.565,-2.113 0.202,-0.251 0.388,-0.408 0.562,-0.471 0.177,-0.062 0.752,-0.22 1.726,-0.471 1.201,-0.275 1.804,-0.966 1.804,-2.073 0,-0.653 -0.328,-1.183 -0.977,-1.584 -0.476,-0.301 -1.264,-0.451 -2.364,-0.451 h -1.278 -16.853 -0.983 c -0.912,0 -1.614,0.168 -2.108,0.508 -0.492,0.34 -0.74,0.823 -0.74,1.452 0,1.031 0.506,1.707 1.516,2.036 0.834,0.276 1.322,0.446 1.46,0.508 0.14,0.062 0.284,0.208 0.437,0.434 0.303,0.401 0.455,1.043 0.455,1.924 v 37.768 c 0,0.884 -0.152,1.527 -0.455,1.931 -0.153,0.228 -0.297,0.371 -0.437,0.436 -0.138,0.062 -0.626,0.233 -1.46,0.509 -1.01,0.329 -1.516,1.011 -1.516,2.046 0,0.63 0.248,1.116 0.74,1.457 0.494,0.341 1.196,0.511 2.108,0.511 h 0.983 z"
       style="fill:#000000;fill-opacity:1;fill-rule:nonzero;stroke:none"
       id="path4115"
       inkscape:connector-curvature="0" /><path
       d="m 591.436,167.568 v 4.939 c 2.518,0.326 4.62,1.357 6.308,3.092 1.913,1.985 2.869,4.839 2.869,8.558 v 24.595 c 0,3.456 -1.317,5.866 -3.953,7.229 -0.778,0.404 -1.285,0.748 -1.523,1.04 -0.239,0.292 -0.358,0.713 -0.358,1.268 0,0.656 0.238,1.123 0.712,1.4 0.476,0.278 1.252,0.418 2.328,0.418 h 9.246 c 0.778,0 1.298,-0.02 1.561,-0.056 0.267,-0.04 0.523,-0.134 0.774,-0.285 0.653,-0.378 0.979,-0.896 0.979,-1.553 0,-0.555 -0.201,-1.021 -0.603,-1.398 -0.125,-0.128 -0.666,-0.467 -1.621,-1.024 -1.105,-0.606 -1.971,-1.532 -2.601,-2.782 -0.628,-1.249 -0.942,-2.668 -0.942,-4.257 v -24.631 c 0,-4.223 -0.931,-7.692 -2.795,-10.408 -1.358,-2.011 -3.309,-3.619 -5.851,-4.824 -1.258,-0.604 -2.769,-1.044 -4.53,-1.321 m -24.515,16.063 v 29.586 c 0,0.884 -0.15,1.527 -0.453,1.931 -0.153,0.228 -0.298,0.371 -0.438,0.436 -0.138,0.062 -0.626,0.233 -1.46,0.509 -1.01,0.329 -1.516,0.998 -1.516,2.008 0,0.655 0.245,1.154 0.739,1.495 0.493,0.341 1.195,0.511 2.103,0.511 h 0.988 16.856 0.981 l 1.359,-0.152 c 0.431,-0.126 0.787,-0.353 1.068,-0.681 0.281,-0.329 0.422,-0.72 0.422,-1.173 0,-1.01 -0.507,-1.679 -1.518,-2.008 -0.833,-0.277 -1.32,-0.447 -1.458,-0.509 -0.139,-0.065 -0.285,-0.208 -0.437,-0.436 -0.303,-0.404 -0.456,-1.047 -0.456,-1.931 v -31.649 c 0,-2.138 0.058,-3.63 0.17,-4.472 0.115,-0.843 0.346,-1.606 0.697,-2.283 0.329,-0.63 0.693,-1.084 1.095,-1.36 0.404,-0.275 1.169,-0.592 2.302,-0.941 v -4.944 h -0.829 c -3.277,0 -5.996,0.289 -8.161,0.868 -2.545,0.677 -4.775,1.683 -6.689,3.014 -1.914,1.333 -3.273,2.829 -4.082,4.489 -0.854,1.759 -1.283,4.324 -1.283,7.692"
       style="fill:#000000;fill-opacity:1;fill-rule:nonzero;stroke:none"
       id="path4117"
       inkscape:connector-curvature="0" /><path
       d="m 636.385,216.776 v 4.161 c 1.511,-0.1 2.819,-0.294 3.926,-0.583 1.105,-0.29 2.676,-0.862 4.716,-1.716 0.504,-0.2 0.918,-0.3 1.246,-0.3 0.478,0 0.83,0.163 1.057,0.491 l 0.83,1.099 c 0.402,0.555 0.893,0.836 1.471,0.836 0.678,0 1.176,-0.25 1.491,-0.743 0.316,-0.495 0.471,-1.273 0.471,-2.336 v -12.486 c 0,-0.722 -0.207,-1.312 -0.622,-1.772 -0.415,-0.46 -0.951,-0.69 -1.605,-0.69 -0.503,0 -0.967,0.161 -1.396,0.49 -0.228,0.202 -0.409,0.446 -0.547,0.736 -0.14,0.287 -0.27,0.773 -0.396,1.453 -0.276,1.232 -0.754,2.503 -1.434,3.812 -0.68,1.308 -1.47,2.477 -2.378,3.508 -1.811,2.038 -4.088,3.385 -6.83,4.04 m -2.948,4.351 v -4.351 c -1.558,-0.428 -2.746,-1.088 -3.56,-1.982 -0.818,-0.893 -1.226,-1.993 -1.226,-3.303 0,-1.257 0.34,-2.356 1.019,-3.3 0.681,-0.944 1.788,-1.845 3.324,-2.699 1.059,-0.579 3.45,-1.685 7.177,-3.321 2.266,-0.982 4.022,-1.868 5.269,-2.66 1.247,-0.793 2.423,-1.781 3.532,-2.962 2.971,-3.119 4.457,-6.831 4.457,-11.132 0,-3.247 -0.806,-6.214 -2.418,-8.905 -1.613,-2.693 -3.826,-4.807 -6.647,-6.341 -1.512,-0.805 -3.167,-1.441 -4.967,-1.905 -1.802,-0.465 -3.484,-0.698 -5.043,-0.698 v 4.299 c 2.203,0.528 3.79,1.263 4.764,2.207 0.975,0.944 1.463,2.22 1.463,3.831 0,1.687 -0.756,3.17 -2.265,4.454 -1.009,0.83 -2.923,1.863 -5.742,3.098 -3.097,1.356 -5.219,2.325 -6.364,2.903 -1.147,0.579 -2.248,1.26 -3.306,2.039 -4.732,3.372 -7.101,7.865 -7.101,13.477 0,2.868 0.59,5.517 1.772,7.945 1.18,2.428 2.825,4.386 4.936,5.868 2.938,2.065 6.58,3.21 10.926,3.438 m -2.034,-49.26 v -4.299 c -2.056,0 -4.33,0.59 -6.814,1.77 -0.932,0.427 -1.571,0.702 -1.922,0.829 -0.351,0.125 -0.691,0.187 -1.016,0.187 -0.504,0 -0.88,-0.081 -1.13,-0.243 -0.251,-0.165 -0.654,-0.571 -1.206,-1.221 -0.452,-0.552 -0.942,-0.828 -1.467,-0.828 -1.407,0 -2.11,1.079 -2.11,3.239 v 13.723 c 0,0.706 0.2,1.305 0.602,1.796 0.4,0.491 0.905,0.749 1.508,0.774 0.551,0.025 0.984,-0.132 1.298,-0.472 0.313,-0.339 0.584,-0.936 0.811,-1.792 0.578,-2.162 1.41,-4.185 2.503,-6.072 1.091,-1.886 2.366,-3.482 3.823,-4.79 1.481,-1.357 3.187,-2.225 5.12,-2.601"
       style="fill:#000000;fill-opacity:1;fill-rule:nonzero;stroke:none"
       id="path4119"
       inkscape:connector-curvature="0" /></g></svg>