<?xml version="1.0" encoding="UTF-8" standalone="no"?>
<!-- Created with Inkscape (http://www.inkscape.org/) -->

<svg
   xmlns:dc="http://purl.org/dc/elements/1.1/"
   xmlns:cc="http://creativecommons.org/ns#"
   xmlns:rdf="http://www.w3.org/1999/02/22-rdf-syntax-ns#"
   xmlns:svg="http://www.w3.org/2000/svg"
   xmlns="http://www.w3.org/2000/svg"
   xmlns:xlink="http://www.w3.org/1999/xlink"
   xmlns:sodipodi="http://sodipodi.sourceforge.net/DTD/sodipodi-0.dtd"
   xmlns:inkscape="http://www.inkscape.org/namespaces/inkscape"
   width="333mm"
   height="130mm"
   viewBox="0 0 1179.9213 460.62993"
   id="svg38425"
   version="1.1"
   inkscape:version="0.91 r13725"
   sodipodi:docname="stopcovidlogo.svg">
  <defs
     id="defs38427">
    <linearGradient
       inkscape:collect="always"
       id="linearGradient39857">
      <stop
         style="stop-color:#f4e058;stop-opacity:1;"
         offset="0"
         id="stop39859" />
      <stop
         style="stop-color:#f4e058;stop-opacity:0;"
         offset="1"
         id="stop39861" />
    </linearGradient>
    <radialGradient
       inkscape:collect="always"
       xlink:href="#linearGradient39857"
       id="radialGradient39863"
       cx="-1321.5769"
       cy="40.99295"
       fx="-1321.5769"
       fy="40.99295"
       r="39.134155"
       gradientTransform="matrix(1,0,0,0.93747505,0,2.5630823)"
       gradientUnits="userSpaceOnUse" />
    <filter
       inkscape:collect="always"
       style="color-interpolation-filters:sRGB"
       id="filter39979"
       x="-0.051676068"
       width="1.1033521"
       y="-0.05687033"
       height="1.1137407">
      <feGaussianBlur
         inkscape:collect="always"
         stdDeviation="2.2441902"
         id="feGaussianBlur39981" />
    </filter>
    <radialGradient
       inkscape:collect="always"
       xlink:href="#linearGradient39857"
       id="radialGradient4226"
       gradientUnits="userSpaceOnUse"
       gradientTransform="matrix(1,0,0,0.93747505,0,2.5630823)"
       cx="-1321.5769"
       cy="40.99295"
       fx="-1321.5769"
       fy="40.99295"
       r="39.134155" />
    <radialGradient
       inkscape:collect="always"
       xlink:href="#linearGradient39857"
       id="radialGradient4284"
       gradientUnits="userSpaceOnUse"
       gradientTransform="matrix(1,0,0,0.93747505,0,2.5630823)"
       cx="-1321.5769"
       cy="40.99295"
       fx="-1321.5769"
       fy="40.99295"
       r="39.134155" />
  </defs>
  <sodipodi:namedview
     id="base"
     pagecolor="#ffffff"
     bordercolor="#666666"
     borderopacity="1.0"
     inkscape:pageopacity="0.0"
     inkscape:pageshadow="2"
     inkscape:zoom="0.52015396"
     inkscape:cx="268.43411"
     inkscape:cy="244.40219"
     inkscape:document-units="px"
     inkscape:current-layer="text4286"
     showgrid="false"
     showguides="false"
     fit-margin-top="0"
     fit-margin-left="0"
     fit-margin-right="0"
     fit-margin-bottom="0"
     inkscape:window-width="1916"
     inkscape:window-height="1035"
     inkscape:window-x="4"
     inkscape:window-y="1"
     inkscape:window-maximized="1" />
  <metadata
     id="metadata38430">
    <rdf:RDF>
      <cc:Work
         rdf:about="">
        <dc:format>image/svg+xml</dc:format>
        <dc:type
           rdf:resource="http://purl.org/dc/dcmitype/StillImage" />
        <dc:title></dc:title>
        <dc:creator>
          <cc:Agent>
            <dc:title>j4p4n</dc:title>
          </cc:Agent>
        </dc:creator>
        <dc:description>parody chinese flag with corona virus</dc:description>
        <cc:license
           rdf:resource="http://creativecommons.org/publicdomain/zero/1.0/" />
      </cc:Work>
      <cc:License
         rdf:about="http://creativecommons.org/publicdomain/zero/1.0/">
        <cc:permits
           rdf:resource="http://creativecommons.org/ns#Reproduction" />
        <cc:permits
           rdf:resource="http://creativecommons.org/ns#Distribution" />
        <cc:permits
           rdf:resource="http://creativecommons.org/ns#DerivativeWorks" />
      </cc:License>
    </rdf:RDF>
  </metadata>
  <g
     inkscape:label="Layer 1"
     inkscape:groupmode="layer"
     id="layer1"
     transform="translate(743.02999,-68.09587)">
    <g
       id="g39421">
      <g
         transform="matrix(4.5036669,0,0,4.1533507,5892.0324,141.81933)"
         id="g39038">
        <g
           id="g39985"
           transform="matrix(0.4614442,0,0,0.47173978,-722.18385,13.008871)">
          <path
             inkscape:connector-curvature="0"
             id="path39941"
             d="m -1309.0776,90.100175 c -4.7985,-1.606545 4.8198,-6.467864 -1.9792,-9.161351 -6.9099,-0.39272 -13.9909,-1.90492 -20.1413,-5.335472 -1.8081,-2.254961 -7.17,-2.671101 -3.9717,1.113648 2.9828,4.644245 -8.6186,3.042465 -8.637,-0.813024 2.0892,-1.513492 7.5609,-1.726103 4.8664,-6.174218 -6.1227,-5.356522 -9.8125,-13.194007 -11.1974,-21.138408 -3.4822,-0.499197 -7.5533,6.783952 -10.0829,0.29831 -3.4824,-4.24146 -0.9288,-14.686523 5.5517,-12.519185 2.5893,1.700588 4.6125,10.402992 4.6057,3.094882 -0.3214,-5.298701 5.3726,-11.370888 4.104,-15.31112 -2.6358,-0.833058 -7.9417,3.777091 -6.2831,-1.921891 -0.6616,-3.376532 6.5678,-9.198613 5.1515,-3.361485 2.9044,7.414398 8.9773,-2.635703 12.9075,-4.570533 5.2216,-3.507292 11.2474,-5.7437165 17.4408,-6.7661035 0.9595,-3.8978349 0.8309,-7.33258321 -3.6277,-8.23110972 -1.8516,-6.82976778 10.2247,-4.17836938 13.0279,-0.84853748 2.9989,4.6846109 -7.7488,1.48984899 -4.449,6.8972831 1.6134,3.8385563 9.6401,1.3116422 13.5631,4.000243 9.9794,3.2072556 18.7435,10.4408076 22.9199,20.1503786 2.0971,4.769158 12.559,3.377014 11.752,-2.129344 3.0856,-6.673937 7.8246,4.323349 5.328,7.84031 -0.5983,6.090964 -4.871,4.525626 -6.5281,0.479981 -3.6967,0.544495 -9.1887,1.581295 -7.1058,6.230379 -1.1002,2.917593 -0.4332,11.139866 3.4101,8.205392 4.2184,-6.927677 7.6684,6.271499 3.0958,8.808572 -3.5571,1.23962 -3.7154,-8.967988 -8.6507,-3.873399 -0.4001,5.679863 -7.334,10.995813 -7.9003,14.79056 3.3973,2.082497 6.0264,4.079589 8.7872,0.352548 7.4308,-2.306134 1.8611,7.98875 -1.0897,9.982977 -2.9153,3.132706 -6.8368,1.624677 -4.9177,-2.828166 -2.5747,-3.64406 -9.5714,-5.041162 -13.2163,-1.131237 -3.7556,2.963675 -11.2195,2.54276 -13.4218,5.283918 -0.5904,5.042902 9.7184,1.229266 5.8625,6.153135 -2.6201,2.157964 -5.9205,2.61838 -9.1744,2.432067 z"
             style="fill:#61736a;fill-opacity:1;filter:url(#filter39979)" />
          <g
             transform="translate(10.245026,3.2401685)"
             id="g39865">
            <path
               style="fill:#f0ce5f;fill-opacity:1;fill-rule:evenodd;stroke:#b08c3e;stroke-width:1px;stroke-linecap:butt;stroke-linejoin:miter;stroke-opacity:1"
               d="m -1290.3115,30.66176 21.2061,-2.718735 -1.6312,2.718735 -18.4874,5.437469 z"
               id="path38988"
               inkscape:connector-curvature="0" />
            <path
               inkscape:connector-curvature="0"
               id="path38992"
               d="m -1292.5904,49.435247 18.2032,2.14655 -1.4002,-2.14655 -15.8695,-4.293099 z"
               style="fill:#f0ce5f;fill-opacity:1;fill-rule:evenodd;stroke:#b08c3e;stroke-width:0.82324713px;stroke-linecap:butt;stroke-linejoin:miter;stroke-opacity:1" />
            <path
               style="fill:#f0ce5f;fill-opacity:1;fill-rule:evenodd;stroke:#b08c3e;stroke-width:0.82908094px;stroke-linecap:butt;stroke-linejoin:miter;stroke-opacity:1"
               d="m -1320.2622,69.444389 6.5729,16.425174 -2.5261,-0.747481 -8.1997,-13.688335 z"
               id="path39000"
               inkscape:connector-curvature="0" />
            <path
               inkscape:connector-curvature="0"
               id="path39012"
               d="m -1327.112,14.201589 1.2045,-20.8339557 2.3744,2.0731904 1.9652,18.7381473 z"
               style="fill:#f0ce5f;fill-opacity:1;fill-rule:evenodd;stroke:#b08c3e;stroke-width:0.98814052px;stroke-linecap:butt;stroke-linejoin:miter;stroke-opacity:1" />
            <path
               inkscape:connector-curvature="0"
               id="path39018"
               d="m -1345.7303,62.784779 -5.0156,12.497107 1.9276,-0.568722 6.257,-10.41478 z"
               style="fill:#f0ce5f;fill-opacity:1;fill-rule:evenodd;stroke:#b08c3e;stroke-width:1;stroke-linecap:butt;stroke-linejoin:miter;stroke-miterlimit:4;stroke-dasharray:none;stroke-opacity:1" />
            <path
               style="fill:#f0ce5f;fill-opacity:1;fill-rule:evenodd;stroke:#b08c3e;stroke-width:0.91354507;stroke-linecap:butt;stroke-linejoin:miter;stroke-miterlimit:4;stroke-dasharray:none;stroke-opacity:1"
               d="m -1347.5435,23.82613 -13.2682,-4.269272 1.7423,-1.225456 12.4494,1.82278 z"
               id="path39022"
               inkscape:connector-curvature="0" />
            <ellipse
               style="opacity:1;fill:#f0d628;fill-opacity:1;stroke:#b08c3e;stroke-width:1.60000002;stroke-linecap:butt;stroke-linejoin:bevel;stroke-miterlimit:4;stroke-dasharray:none;stroke-opacity:1"
               id="path38986"
               cx="-1321.5769"
               cy="40.99295"
               rx="38.334156"
               ry="35.887295" />
            <ellipse
               ry="35.887295"
               rx="38.334156"
               cy="40.99295"
               cx="-1321.5769"
               id="ellipse39855"
               style="opacity:1;fill:url(#radialGradient39863);fill-opacity:1;stroke:#b08c3e;stroke-width:1.60000002;stroke-linecap:butt;stroke-linejoin:bevel;stroke-miterlimit:4;stroke-dasharray:none;stroke-opacity:1" />
            <ellipse
               style="opacity:1;fill:#f4d78a;fill-opacity:1;stroke:#b08c3e;stroke-width:0.84911048;stroke-linecap:butt;stroke-linejoin:bevel;stroke-miterlimit:4;stroke-dasharray:none;stroke-opacity:1"
               id="path38990"
               cx="-1271.5522"
               cy="29.302393"
               rx="2.522306"
               ry="7.416028" />
            <ellipse
               ry="5.8552504"
               rx="2.1651309"
               cy="-50.508522"
               cx="-1276.4877"
               id="ellipse38994"
               style="opacity:1;fill:#f4d78a;fill-opacity:1;stroke:#b08c3e;stroke-width:0.69902778;stroke-linecap:butt;stroke-linejoin:bevel;stroke-miterlimit:4;stroke-dasharray:none;stroke-opacity:1"
               transform="scale(1,-1)" />
            <path
               inkscape:connector-curvature="0"
               id="path38996"
               d="m -1300.8219,62.796283 18.7543,10.265172 -2.918,1.240618 -18.1523,-6.467497 z"
               style="fill:#f0ce5f;fill-opacity:1;fill-rule:evenodd;stroke:#b08c3e;stroke-width:1px;stroke-linecap:butt;stroke-linejoin:miter;stroke-opacity:1" />
            <ellipse
               ry="7.416028"
               rx="2.522306"
               cy="814.04785"
               cx="-996.71686"
               id="ellipse38998"
               style="opacity:1;fill:#f4d78a;fill-opacity:1;stroke:#b08c3e;stroke-width:0.84911048;stroke-linecap:butt;stroke-linejoin:bevel;stroke-miterlimit:4;stroke-dasharray:none;stroke-opacity:1"
               transform="matrix(0.80901699,0.58778526,-0.58778526,0.80901699,0,0)" />
            <ellipse
               transform="matrix(0.24992795,0.96826444,-0.96889883,0.24745718,0,0)"
               style="opacity:1;fill:#f4d78a;fill-opacity:1;stroke:#b08c3e;stroke-width:0.70398247;stroke-linecap:butt;stroke-linejoin:bevel;stroke-miterlimit:4;stroke-dasharray:none;stroke-opacity:1"
               id="ellipse39002"
               cx="-243.90749"
               cy="1294.5938"
               rx="2.0863531"
               ry="6.1627784" />
            <path
               inkscape:connector-curvature="0"
               id="path39004"
               d="m -1315.3961,54.231806 4.8026,11.336271 -1.8458,-0.515894 -5.9912,-9.447368 z"
               style="fill:#f0ce5f;fill-opacity:1;fill-rule:evenodd;stroke:#b08c3e;stroke-width:1;stroke-linecap:butt;stroke-linejoin:miter;stroke-miterlimit:4;stroke-dasharray:none;stroke-opacity:1" />
            <ellipse
               ry="6.4209118"
               rx="3.4935224"
               cy="1355.115"
               cx="-492.09665"
               id="ellipse39006"
               style="opacity:1;fill:#f4d78a;fill-opacity:1;stroke:#b08c3e;stroke-width:0.92984337;stroke-linecap:butt;stroke-linejoin:bevel;stroke-miterlimit:4;stroke-dasharray:none;stroke-opacity:1"
               transform="matrix(0.14665762,0.98918731,-0.9137425,0.40629379,0,0)" />
            <path
               inkscape:connector-curvature="0"
               id="path39008"
               d="m -1350.3035,42.080445 -21.2061,-2.718735 1.6312,2.718735 18.4874,5.437469 z"
               style="fill:#f0ce5f;fill-opacity:1;fill-rule:evenodd;stroke:#b08c3e;stroke-width:1px;stroke-linecap:butt;stroke-linejoin:miter;stroke-opacity:1" />
            <ellipse
               ry="7.2753854"
               rx="4.5566511"
               cy="40.721077"
               cx="1366.8878"
               id="ellipse39010"
               style="opacity:1;fill:#f4d78a;fill-opacity:1;stroke:#b08c3e;stroke-width:1.13039577;stroke-linecap:butt;stroke-linejoin:bevel;stroke-miterlimit:4;stroke-dasharray:none;stroke-opacity:1"
               transform="scale(-1,1)" />
            <ellipse
               ry="7.421577"
               rx="2.4609928"
               cy="-1301.7603"
               cx="-243.79225"
               id="ellipse39014"
               style="opacity:1;fill:#f4d78a;fill-opacity:1;stroke:#b08c3e;stroke-width:0.83904046;stroke-linecap:butt;stroke-linejoin:bevel;stroke-miterlimit:4;stroke-dasharray:none;stroke-opacity:1"
               transform="matrix(0.18738131,-0.98228725,0.98228725,0.18738131,0,0)" />
            <ellipse
               ry="4.7018585"
               rx="1.5876944"
               cy="-1287.921"
               cx="404.75116"
               id="ellipse39020"
               style="opacity:1;fill:#f4d78a;fill-opacity:1;stroke:#b08c3e;stroke-width:1.00000393;stroke-linecap:butt;stroke-linejoin:bevel;stroke-miterlimit:4;stroke-dasharray:none;stroke-opacity:1"
               transform="matrix(-0.25061459,0.96808694,0.96907203,0.24677806,0,0)" />
            <ellipse
               transform="matrix(-0.90267316,-0.43032681,0.42129636,-0.90692303,0,0)"
               style="opacity:1;fill:#f4d78a;fill-opacity:1;stroke:#b08c3e;stroke-width:0.9135679;stroke-linecap:butt;stroke-linejoin:bevel;stroke-miterlimit:4;stroke-dasharray:none;stroke-opacity:1"
               id="ellipse39024"
               cx="1225.8768"
               cy="-601.2782"
               rx="1.6452774"
               ry="5.0628247" />
            <ellipse
               style="opacity:1;fill:#f4d78a;fill-opacity:1;stroke:#b08c3e;stroke-width:1;stroke-linecap:butt;stroke-linejoin:bevel;stroke-miterlimit:4;stroke-dasharray:none;stroke-opacity:1"
               id="path39028"
               cx="-1319.6737"
               cy="41.264824"
               rx="8.6999502"
               ry="7.8843303" />
            <ellipse
               style="opacity:1;fill:#f4d78a;fill-opacity:1;stroke:#b08c3e;stroke-width:1;stroke-linecap:butt;stroke-linejoin:bevel;stroke-miterlimit:4;stroke-dasharray:none;stroke-opacity:1"
               id="path39030"
               cx="-1330.0049"
               cy="21.418062"
               rx="7.6124568"
               ry="4.3499751" />
            <ellipse
               style="opacity:1;fill:#f4d78a;fill-opacity:1;stroke:#b08c3e;stroke-width:0.75925314;stroke-linecap:butt;stroke-linejoin:bevel;stroke-miterlimit:4;stroke-dasharray:none;stroke-opacity:1"
               id="path39032"
               cx="-1304.4489"
               cy="23.321177"
               rx="5.0140958"
               ry="6.3734627" />
            <path
               style="fill:#f0ce5f;fill-opacity:1;fill-rule:evenodd;stroke:#b08c3e;stroke-width:0.89734501;stroke-linecap:butt;stroke-linejoin:miter;stroke-miterlimit:4;stroke-dasharray:none;stroke-opacity:1"
               d="m -1337.8661,58.449009 -2.515,7.558674 -1.0909,-1.076943 0.6264,-7.194992 z"
               id="path39034"
               inkscape:connector-curvature="0" />
            <ellipse
               transform="matrix(-0.24555759,0.969382,-0.76299309,-0.64640664,0,0)"
               style="opacity:1;fill:#f4d78a;fill-opacity:1;stroke:#b08c3e;stroke-width:1.05508494;stroke-linecap:butt;stroke-linejoin:bevel;stroke-miterlimit:4;stroke-dasharray:none;stroke-opacity:1"
               id="ellipse39036"
               cx="1018.7803"
               cy="1429.6365"
               rx="1.7502773"
               ry="4.6018262" />
          </g>
        </g>
        <g
           transform="matrix(0,0.51497462,-0.55374055,0,-1281.1627,710.54744)"
           id="g4170">
          <path
             style="fill:#61736a;fill-opacity:1;filter:url(#filter39979)"
             d="m -1309.0776,90.100175 c -4.7985,-1.606545 4.8198,-6.467864 -1.9792,-9.161351 -6.9099,-0.39272 -13.9909,-1.90492 -20.1413,-5.335472 -1.8081,-2.254961 -7.17,-2.671101 -3.9717,1.113648 2.9828,4.644245 -8.6186,3.042465 -8.637,-0.813024 2.0892,-1.513492 7.5609,-1.726103 4.8664,-6.174218 -6.1227,-5.356522 -9.8125,-13.194007 -11.1974,-21.138408 -3.4822,-0.499197 -7.5533,6.783952 -10.0829,0.29831 -3.4824,-4.24146 -0.9288,-14.686523 5.5517,-12.519185 2.5893,1.700588 4.6125,10.402992 4.6057,3.094882 -0.3214,-5.298701 5.3726,-11.370888 4.104,-15.31112 -2.6358,-0.833058 -7.9417,3.777091 -6.2831,-1.921891 -0.6616,-3.376532 6.5678,-9.198613 5.1515,-3.361485 2.9044,7.414398 8.9773,-2.635703 12.9075,-4.570533 5.2216,-3.507292 11.2474,-5.7437165 17.4408,-6.7661035 0.9595,-3.8978349 0.8309,-7.33258321 -3.6277,-8.23110972 -1.8516,-6.82976778 10.2247,-4.17836938 13.0279,-0.84853748 2.9989,4.6846109 -7.7488,1.48984899 -4.449,6.8972831 1.6134,3.8385563 9.6401,1.3116422 13.5631,4.000243 9.9794,3.2072556 18.7435,10.4408076 22.9199,20.1503786 2.0971,4.769158 12.559,3.377014 11.752,-2.129344 3.0856,-6.673937 7.8246,4.323349 5.328,7.84031 -0.5983,6.090964 -4.871,4.525626 -6.5281,0.479981 -3.6967,0.544495 -9.1887,1.581295 -7.1058,6.230379 -1.1002,2.917593 -0.4332,11.139866 3.4101,8.205392 4.2184,-6.927677 7.6684,6.271499 3.0958,8.808572 -3.5571,1.23962 -3.7154,-8.967988 -8.6507,-3.873399 -0.4001,5.679863 -7.334,10.995813 -7.9003,14.79056 3.3973,2.082497 6.0264,4.079589 8.7872,0.352548 7.4308,-2.306134 1.8611,7.98875 -1.0897,9.982977 -2.9153,3.132706 -6.8368,1.624677 -4.9177,-2.828166 -2.5747,-3.64406 -9.5714,-5.041162 -13.2163,-1.131237 -3.7556,2.963675 -11.2195,2.54276 -13.4218,5.283918 -0.5904,5.042902 9.7184,1.229266 5.8625,6.153135 -2.6201,2.157964 -5.9205,2.61838 -9.1744,2.432067 z"
             id="path4172"
             inkscape:connector-curvature="0" />
          <g
             id="g4174"
             transform="translate(10.245026,3.2401685)">
            <path
               inkscape:connector-curvature="0"
               id="path4176"
               d="m -1290.3115,30.66176 21.2061,-2.718735 -1.6312,2.718735 -18.4874,5.437469 z"
               style="fill:#f0ce5f;fill-opacity:1;fill-rule:evenodd;stroke:#b08c3e;stroke-width:1px;stroke-linecap:butt;stroke-linejoin:miter;stroke-opacity:1" />
            <path
               style="fill:#f0ce5f;fill-opacity:1;fill-rule:evenodd;stroke:#b08c3e;stroke-width:0.82324713px;stroke-linecap:butt;stroke-linejoin:miter;stroke-opacity:1"
               d="m -1292.5904,49.435247 18.2032,2.14655 -1.4002,-2.14655 -15.8695,-4.293099 z"
               id="path4178"
               inkscape:connector-curvature="0" />
            <path
               inkscape:connector-curvature="0"
               id="path4180"
               d="m -1320.2622,69.444389 6.5729,16.425174 -2.5261,-0.747481 -8.1997,-13.688335 z"
               style="fill:#f0ce5f;fill-opacity:1;fill-rule:evenodd;stroke:#b08c3e;stroke-width:0.82908094px;stroke-linecap:butt;stroke-linejoin:miter;stroke-opacity:1" />
            <path
               style="fill:#f0ce5f;fill-opacity:1;fill-rule:evenodd;stroke:#b08c3e;stroke-width:0.98814052px;stroke-linecap:butt;stroke-linejoin:miter;stroke-opacity:1"
               d="m -1327.112,14.201589 1.2045,-20.8339557 2.3744,2.0731904 1.9652,18.7381473 z"
               id="path4182"
               inkscape:connector-curvature="0" />
            <path
               style="fill:#f0ce5f;fill-opacity:1;fill-rule:evenodd;stroke:#b08c3e;stroke-width:1;stroke-linecap:butt;stroke-linejoin:miter;stroke-miterlimit:4;stroke-dasharray:none;stroke-opacity:1"
               d="m -1345.7303,62.784779 -5.0156,12.497107 1.9276,-0.568722 6.257,-10.41478 z"
               id="path4184"
               inkscape:connector-curvature="0" />
            <path
               inkscape:connector-curvature="0"
               id="path4186"
               d="m -1347.5435,23.82613 -13.2682,-4.269272 1.7423,-1.225456 12.4494,1.82278 z"
               style="fill:#f0ce5f;fill-opacity:1;fill-rule:evenodd;stroke:#b08c3e;stroke-width:0.91354507;stroke-linecap:butt;stroke-linejoin:miter;stroke-miterlimit:4;stroke-dasharray:none;stroke-opacity:1" />
            <ellipse
               ry="35.887295"
               rx="38.334156"
               cy="40.99295"
               cx="-1321.5769"
               id="ellipse4188"
               style="opacity:1;fill:#f0d628;fill-opacity:1;stroke:#b08c3e;stroke-width:1.60000002;stroke-linecap:butt;stroke-linejoin:bevel;stroke-miterlimit:4;stroke-dasharray:none;stroke-opacity:1" />
            <ellipse
               style="opacity:1;fill:url(#radialGradient4226);fill-opacity:1;stroke:#b08c3e;stroke-width:1.60000002;stroke-linecap:butt;stroke-linejoin:bevel;stroke-miterlimit:4;stroke-dasharray:none;stroke-opacity:1"
               id="ellipse4190"
               cx="-1321.5769"
               cy="40.99295"
               rx="38.334156"
               ry="35.887295" />
            <ellipse
               ry="7.416028"
               rx="2.522306"
               cy="29.302393"
               cx="-1271.5522"
               id="ellipse4192"
               style="opacity:1;fill:#f4d78a;fill-opacity:1;stroke:#b08c3e;stroke-width:0.84911048;stroke-linecap:butt;stroke-linejoin:bevel;stroke-miterlimit:4;stroke-dasharray:none;stroke-opacity:1" />
            <ellipse
               transform="scale(1,-1)"
               style="opacity:1;fill:#f4d78a;fill-opacity:1;stroke:#b08c3e;stroke-width:0.69902778;stroke-linecap:butt;stroke-linejoin:bevel;stroke-miterlimit:4;stroke-dasharray:none;stroke-opacity:1"
               id="ellipse4194"
               cx="-1276.4877"
               cy="-50.508522"
               rx="2.1651309"
               ry="5.8552504" />
            <path
               style="fill:#f0ce5f;fill-opacity:1;fill-rule:evenodd;stroke:#b08c3e;stroke-width:1px;stroke-linecap:butt;stroke-linejoin:miter;stroke-opacity:1"
               d="m -1300.8219,62.796283 18.7543,10.265172 -2.918,1.240618 -18.1523,-6.467497 z"
               id="path4196"
               inkscape:connector-curvature="0" />
            <ellipse
               transform="matrix(0.80901699,0.58778526,-0.58778526,0.80901699,0,0)"
               style="opacity:1;fill:#f4d78a;fill-opacity:1;stroke:#b08c3e;stroke-width:0.84911048;stroke-linecap:butt;stroke-linejoin:bevel;stroke-miterlimit:4;stroke-dasharray:none;stroke-opacity:1"
               id="ellipse4198"
               cx="-996.71686"
               cy="814.04785"
               rx="2.522306"
               ry="7.416028" />
            <ellipse
               ry="6.1627784"
               rx="2.0863531"
               cy="1294.5938"
               cx="-243.90749"
               id="ellipse4200"
               style="opacity:1;fill:#f4d78a;fill-opacity:1;stroke:#b08c3e;stroke-width:0.70398247;stroke-linecap:butt;stroke-linejoin:bevel;stroke-miterlimit:4;stroke-dasharray:none;stroke-opacity:1"
               transform="matrix(0.24992795,0.96826444,-0.96889883,0.24745718,0,0)" />
            <path
               style="fill:#f0ce5f;fill-opacity:1;fill-rule:evenodd;stroke:#b08c3e;stroke-width:1;stroke-linecap:butt;stroke-linejoin:miter;stroke-miterlimit:4;stroke-dasharray:none;stroke-opacity:1"
               d="m -1315.3961,54.231806 4.8026,11.336271 -1.8458,-0.515894 -5.9912,-9.447368 z"
               id="path4202"
               inkscape:connector-curvature="0" />
            <ellipse
               transform="matrix(0.14665762,0.98918731,-0.9137425,0.40629379,0,0)"
               style="opacity:1;fill:#f4d78a;fill-opacity:1;stroke:#b08c3e;stroke-width:0.92984337;stroke-linecap:butt;stroke-linejoin:bevel;stroke-miterlimit:4;stroke-dasharray:none;stroke-opacity:1"
               id="ellipse4204"
               cx="-492.09665"
               cy="1355.115"
               rx="3.4935224"
               ry="6.4209118" />
            <path
               style="fill:#f0ce5f;fill-opacity:1;fill-rule:evenodd;stroke:#b08c3e;stroke-width:1px;stroke-linecap:butt;stroke-linejoin:miter;stroke-opacity:1"
               d="m -1350.3035,42.080445 -21.2061,-2.718735 1.6312,2.718735 18.4874,5.437469 z"
               id="path4206"
               inkscape:connector-curvature="0" />
            <ellipse
               transform="scale(-1,1)"
               style="opacity:1;fill:#f4d78a;fill-opacity:1;stroke:#b08c3e;stroke-width:1.13039577;stroke-linecap:butt;stroke-linejoin:bevel;stroke-miterlimit:4;stroke-dasharray:none;stroke-opacity:1"
               id="ellipse4208"
               cx="1366.8878"
               cy="40.721077"
               rx="4.5566511"
               ry="7.2753854" />
            <ellipse
               transform="matrix(0.18738131,-0.98228725,0.98228725,0.18738131,0,0)"
               style="opacity:1;fill:#f4d78a;fill-opacity:1;stroke:#b08c3e;stroke-width:0.83904046;stroke-linecap:butt;stroke-linejoin:bevel;stroke-miterlimit:4;stroke-dasharray:none;stroke-opacity:1"
               id="ellipse4210"
               cx="-243.79225"
               cy="-1301.7603"
               rx="2.4609928"
               ry="7.421577" />
            <ellipse
               transform="matrix(-0.25061459,0.96808694,0.96907203,0.24677806,0,0)"
               style="opacity:1;fill:#f4d78a;fill-opacity:1;stroke:#b08c3e;stroke-width:1.00000393;stroke-linecap:butt;stroke-linejoin:bevel;stroke-miterlimit:4;stroke-dasharray:none;stroke-opacity:1"
               id="ellipse4212"
               cx="404.75116"
               cy="-1287.921"
               rx="1.5876944"
               ry="4.7018585" />
            <ellipse
               ry="5.0628247"
               rx="1.6452774"
               cy="-601.2782"
               cx="1225.8768"
               id="ellipse4214"
               style="opacity:1;fill:#f4d78a;fill-opacity:1;stroke:#b08c3e;stroke-width:0.9135679;stroke-linecap:butt;stroke-linejoin:bevel;stroke-miterlimit:4;stroke-dasharray:none;stroke-opacity:1"
               transform="matrix(-0.90267316,-0.43032681,0.42129636,-0.90692303,0,0)" />
            <ellipse
               ry="7.8843303"
               rx="8.6999502"
               cy="41.264824"
               cx="-1319.6737"
               id="ellipse4216"
               style="opacity:1;fill:#f4d78a;fill-opacity:1;stroke:#b08c3e;stroke-width:1;stroke-linecap:butt;stroke-linejoin:bevel;stroke-miterlimit:4;stroke-dasharray:none;stroke-opacity:1" />
            <ellipse
               ry="4.3499751"
               rx="7.6124568"
               cy="21.418062"
               cx="-1330.0049"
               id="ellipse4218"
               style="opacity:1;fill:#f4d78a;fill-opacity:1;stroke:#b08c3e;stroke-width:1;stroke-linecap:butt;stroke-linejoin:bevel;stroke-miterlimit:4;stroke-dasharray:none;stroke-opacity:1" />
            <ellipse
               ry="6.3734627"
               rx="5.0140958"
               cy="23.321177"
               cx="-1304.4489"
               id="ellipse4220"
               style="opacity:1;fill:#f4d78a;fill-opacity:1;stroke:#b08c3e;stroke-width:0.75925314;stroke-linecap:butt;stroke-linejoin:bevel;stroke-miterlimit:4;stroke-dasharray:none;stroke-opacity:1" />
            <path
               inkscape:connector-curvature="0"
               id="path4222"
               d="m -1337.8661,58.449009 -2.515,7.558674 -1.0909,-1.076943 0.6264,-7.194992 z"
               style="fill:#f0ce5f;fill-opacity:1;fill-rule:evenodd;stroke:#b08c3e;stroke-width:0.89734501;stroke-linecap:butt;stroke-linejoin:miter;stroke-miterlimit:4;stroke-dasharray:none;stroke-opacity:1" />
            <ellipse
               ry="4.6018262"
               rx="1.7502773"
               cy="1429.6365"
               cx="1018.7803"
               id="ellipse4224"
               style="opacity:1;fill:#f4d78a;fill-opacity:1;stroke:#b08c3e;stroke-width:1.05508494;stroke-linecap:butt;stroke-linejoin:bevel;stroke-miterlimit:4;stroke-dasharray:none;stroke-opacity:1"
               transform="matrix(-0.24555759,0.969382,-0.76299309,-0.64640664,0,0)" />
          </g>
        </g>
        <g
           id="g4228"
           transform="matrix(0,-0.22571179,0.32409725,0,-1335.1969,-239.82369)">
          <path
             inkscape:connector-curvature="0"
             id="path4230"
             d="m -1309.0776,90.100175 c -4.7985,-1.606545 4.8198,-6.467864 -1.9792,-9.161351 -6.9099,-0.39272 -13.9909,-1.90492 -20.1413,-5.335472 -1.8081,-2.254961 -7.17,-2.671101 -3.9717,1.113648 2.9828,4.644245 -8.6186,3.042465 -8.637,-0.813024 2.0892,-1.513492 7.5609,-1.726103 4.8664,-6.174218 -6.1227,-5.356522 -9.8125,-13.194007 -11.1974,-21.138408 -3.4822,-0.499197 -7.5533,6.783952 -10.0829,0.29831 -3.4824,-4.24146 -0.9288,-14.686523 5.5517,-12.519185 2.5893,1.700588 4.6125,10.402992 4.6057,3.094882 -0.3214,-5.298701 5.3726,-11.370888 4.104,-15.31112 -2.6358,-0.833058 -7.9417,3.777091 -6.2831,-1.921891 -0.6616,-3.376532 6.5678,-9.198613 5.1515,-3.361485 2.9044,7.414398 8.9773,-2.635703 12.9075,-4.570533 5.2216,-3.507292 11.2474,-5.7437165 17.4408,-6.7661035 0.9595,-3.8978349 0.8309,-7.33258321 -3.6277,-8.23110972 -1.8516,-6.82976778 10.2247,-4.17836938 13.0279,-0.84853748 2.9989,4.6846109 -7.7488,1.48984899 -4.449,6.8972831 1.6134,3.8385563 9.6401,1.3116422 13.5631,4.000243 9.9794,3.2072556 18.7435,10.4408076 22.9199,20.1503786 2.0971,4.769158 12.559,3.377014 11.752,-2.129344 3.0856,-6.673937 7.8246,4.323349 5.328,7.84031 -0.5983,6.090964 -4.871,4.525626 -6.5281,0.479981 -3.6967,0.544495 -9.1887,1.581295 -7.1058,6.230379 -1.1002,2.917593 -0.4332,11.139866 3.4101,8.205392 4.2184,-6.927677 7.6684,6.271499 3.0958,8.808572 -3.5571,1.23962 -3.7154,-8.967988 -8.6507,-3.873399 -0.4001,5.679863 -7.334,10.995813 -7.9003,14.79056 3.3973,2.082497 6.0264,4.079589 8.7872,0.352548 7.4308,-2.306134 1.8611,7.98875 -1.0897,9.982977 -2.9153,3.132706 -6.8368,1.624677 -4.9177,-2.828166 -2.5747,-3.64406 -9.5714,-5.041162 -13.2163,-1.131237 -3.7556,2.963675 -11.2195,2.54276 -13.4218,5.283918 -0.5904,5.042902 9.7184,1.229266 5.8625,6.153135 -2.6201,2.157964 -5.9205,2.61838 -9.1744,2.432067 z"
             style="fill:#61736a;fill-opacity:1;filter:url(#filter39979)" />
          <g
             transform="translate(10.245026,3.2401685)"
             id="g4232">
            <path
               style="fill:#f0ce5f;fill-opacity:1;fill-rule:evenodd;stroke:#b08c3e;stroke-width:1px;stroke-linecap:butt;stroke-linejoin:miter;stroke-opacity:1"
               d="m -1290.3115,30.66176 21.2061,-2.718735 -1.6312,2.718735 -18.4874,5.437469 z"
               id="path4234"
               inkscape:connector-curvature="0" />
            <path
               inkscape:connector-curvature="0"
               id="path4236"
               d="m -1292.5904,49.435247 18.2032,2.14655 -1.4002,-2.14655 -15.8695,-4.293099 z"
               style="fill:#f0ce5f;fill-opacity:1;fill-rule:evenodd;stroke:#b08c3e;stroke-width:0.82324713px;stroke-linecap:butt;stroke-linejoin:miter;stroke-opacity:1" />
            <path
               style="fill:#f0ce5f;fill-opacity:1;fill-rule:evenodd;stroke:#b08c3e;stroke-width:0.82908094px;stroke-linecap:butt;stroke-linejoin:miter;stroke-opacity:1"
               d="m -1320.2622,69.444389 6.5729,16.425174 -2.5261,-0.747481 -8.1997,-13.688335 z"
               id="path4238"
               inkscape:connector-curvature="0" />
            <path
               inkscape:connector-curvature="0"
               id="path4240"
               d="m -1327.112,14.201589 1.2045,-20.8339557 2.3744,2.0731904 1.9652,18.7381473 z"
               style="fill:#f0ce5f;fill-opacity:1;fill-rule:evenodd;stroke:#b08c3e;stroke-width:0.98814052px;stroke-linecap:butt;stroke-linejoin:miter;stroke-opacity:1" />
            <path
               inkscape:connector-curvature="0"
               id="path4242"
               d="m -1345.7303,62.784779 -5.0156,12.497107 1.9276,-0.568722 6.257,-10.41478 z"
               style="fill:#f0ce5f;fill-opacity:1;fill-rule:evenodd;stroke:#b08c3e;stroke-width:1;stroke-linecap:butt;stroke-linejoin:miter;stroke-miterlimit:4;stroke-dasharray:none;stroke-opacity:1" />
            <path
               style="fill:#f0ce5f;fill-opacity:1;fill-rule:evenodd;stroke:#b08c3e;stroke-width:0.91354507;stroke-linecap:butt;stroke-linejoin:miter;stroke-miterlimit:4;stroke-dasharray:none;stroke-opacity:1"
               d="m -1347.5435,23.82613 -13.2682,-4.269272 1.7423,-1.225456 12.4494,1.82278 z"
               id="path4244"
               inkscape:connector-curvature="0" />
            <ellipse
               style="opacity:1;fill:#f0d628;fill-opacity:1;stroke:#b08c3e;stroke-width:1.60000002;stroke-linecap:butt;stroke-linejoin:bevel;stroke-miterlimit:4;stroke-dasharray:none;stroke-opacity:1"
               id="ellipse4246"
               cx="-1321.5769"
               cy="40.99295"
               rx="38.334156"
               ry="35.887295" />
            <ellipse
               ry="35.887295"
               rx="38.334156"
               cy="40.99295"
               cx="-1321.5769"
               id="ellipse4248"
               style="opacity:1;fill:url(#radialGradient4284);fill-opacity:1;stroke:#b08c3e;stroke-width:1.60000002;stroke-linecap:butt;stroke-linejoin:bevel;stroke-miterlimit:4;stroke-dasharray:none;stroke-opacity:1" />
            <ellipse
               style="opacity:1;fill:#f4d78a;fill-opacity:1;stroke:#b08c3e;stroke-width:0.84911048;stroke-linecap:butt;stroke-linejoin:bevel;stroke-miterlimit:4;stroke-dasharray:none;stroke-opacity:1"
               id="ellipse4250"
               cx="-1271.5522"
               cy="29.302393"
               rx="2.522306"
               ry="7.416028" />
            <ellipse
               ry="5.8552504"
               rx="2.1651309"
               cy="-50.508522"
               cx="-1276.4877"
               id="ellipse4252"
               style="opacity:1;fill:#f4d78a;fill-opacity:1;stroke:#b08c3e;stroke-width:0.69902778;stroke-linecap:butt;stroke-linejoin:bevel;stroke-miterlimit:4;stroke-dasharray:none;stroke-opacity:1"
               transform="scale(1,-1)" />
            <path
               inkscape:connector-curvature="0"
               id="path4254"
               d="m -1300.8219,62.796283 18.7543,10.265172 -2.918,1.240618 -18.1523,-6.467497 z"
               style="fill:#f0ce5f;fill-opacity:1;fill-rule:evenodd;stroke:#b08c3e;stroke-width:1px;stroke-linecap:butt;stroke-linejoin:miter;stroke-opacity:1" />
            <ellipse
               ry="7.416028"
               rx="2.522306"
               cy="814.04785"
               cx="-996.71686"
               id="ellipse4256"
               style="opacity:1;fill:#f4d78a;fill-opacity:1;stroke:#b08c3e;stroke-width:0.84911048;stroke-linecap:butt;stroke-linejoin:bevel;stroke-miterlimit:4;stroke-dasharray:none;stroke-opacity:1"
               transform="matrix(0.80901699,0.58778526,-0.58778526,0.80901699,0,0)" />
            <ellipse
               transform="matrix(0.24992795,0.96826444,-0.96889883,0.24745718,0,0)"
               style="opacity:1;fill:#f4d78a;fill-opacity:1;stroke:#b08c3e;stroke-width:0.70398247;stroke-linecap:butt;stroke-linejoin:bevel;stroke-miterlimit:4;stroke-dasharray:none;stroke-opacity:1"
               id="ellipse4258"
               cx="-243.90749"
               cy="1294.5938"
               rx="2.0863531"
               ry="6.1627784" />
            <path
               inkscape:connector-curvature="0"
               id="path4260"
               d="m -1315.3961,54.231806 4.8026,11.336271 -1.8458,-0.515894 -5.9912,-9.447368 z"
               style="fill:#f0ce5f;fill-opacity:1;fill-rule:evenodd;stroke:#b08c3e;stroke-width:1;stroke-linecap:butt;stroke-linejoin:miter;stroke-miterlimit:4;stroke-dasharray:none;stroke-opacity:1" />
            <ellipse
               ry="6.4209118"
               rx="3.4935224"
               cy="1355.115"
               cx="-492.09665"
               id="ellipse4262"
               style="opacity:1;fill:#f4d78a;fill-opacity:1;stroke:#b08c3e;stroke-width:0.92984337;stroke-linecap:butt;stroke-linejoin:bevel;stroke-miterlimit:4;stroke-dasharray:none;stroke-opacity:1"
               transform="matrix(0.14665762,0.98918731,-0.9137425,0.40629379,0,0)" />
            <path
               inkscape:connector-curvature="0"
               id="path4264"
               d="m -1350.3035,42.080445 -21.2061,-2.718735 1.6312,2.718735 18.4874,5.437469 z"
               style="fill:#f0ce5f;fill-opacity:1;fill-rule:evenodd;stroke:#b08c3e;stroke-width:1px;stroke-linecap:butt;stroke-linejoin:miter;stroke-opacity:1" />
            <ellipse
               ry="7.2753854"
               rx="4.5566511"
               cy="40.721077"
               cx="1366.8878"
               id="ellipse4266"
               style="opacity:1;fill:#f4d78a;fill-opacity:1;stroke:#b08c3e;stroke-width:1.13039577;stroke-linecap:butt;stroke-linejoin:bevel;stroke-miterlimit:4;stroke-dasharray:none;stroke-opacity:1"
               transform="scale(-1,1)" />
            <ellipse
               ry="7.421577"
               rx="2.4609928"
               cy="-1301.7603"
               cx="-243.79225"
               id="ellipse4268"
               style="opacity:1;fill:#f4d78a;fill-opacity:1;stroke:#b08c3e;stroke-width:0.83904046;stroke-linecap:butt;stroke-linejoin:bevel;stroke-miterlimit:4;stroke-dasharray:none;stroke-opacity:1"
               transform="matrix(0.18738131,-0.98228725,0.98228725,0.18738131,0,0)" />
            <ellipse
               ry="4.7018585"
               rx="1.5876944"
               cy="-1287.921"
               cx="404.75116"
               id="ellipse4270"
               style="opacity:1;fill:#f4d78a;fill-opacity:1;stroke:#b08c3e;stroke-width:1.00000393;stroke-linecap:butt;stroke-linejoin:bevel;stroke-miterlimit:4;stroke-dasharray:none;stroke-opacity:1"
               transform="matrix(-0.25061459,0.96808694,0.96907203,0.24677806,0,0)" />
            <ellipse
               transform="matrix(-0.90267316,-0.43032681,0.42129636,-0.90692303,0,0)"
               style="opacity:1;fill:#f4d78a;fill-opacity:1;stroke:#b08c3e;stroke-width:0.9135679;stroke-linecap:butt;stroke-linejoin:bevel;stroke-miterlimit:4;stroke-dasharray:none;stroke-opacity:1"
               id="ellipse4272"
               cx="1225.8768"
               cy="-601.2782"
               rx="1.6452774"
               ry="5.0628247" />
            <ellipse
               style="opacity:1;fill:#f4d78a;fill-opacity:1;stroke:#b08c3e;stroke-width:1;stroke-linecap:butt;stroke-linejoin:bevel;stroke-miterlimit:4;stroke-dasharray:none;stroke-opacity:1"
               id="ellipse4274"
               cx="-1319.6737"
               cy="41.264824"
               rx="8.6999502"
               ry="7.8843303" />
            <ellipse
               style="opacity:1;fill:#f4d78a;fill-opacity:1;stroke:#b08c3e;stroke-width:1;stroke-linecap:butt;stroke-linejoin:bevel;stroke-miterlimit:4;stroke-dasharray:none;stroke-opacity:1"
               id="ellipse4276"
               cx="-1330.0049"
               cy="21.418062"
               rx="7.6124568"
               ry="4.3499751" />
            <ellipse
               style="opacity:1;fill:#f4d78a;fill-opacity:1;stroke:#b08c3e;stroke-width:0.75925314;stroke-linecap:butt;stroke-linejoin:bevel;stroke-miterlimit:4;stroke-dasharray:none;stroke-opacity:1"
               id="ellipse4278"
               cx="-1304.4489"
               cy="23.321177"
               rx="5.0140958"
               ry="6.3734627" />
            <path
               style="fill:#f0ce5f;fill-opacity:1;fill-rule:evenodd;stroke:#b08c3e;stroke-width:0.89734501;stroke-linecap:butt;stroke-linejoin:miter;stroke-miterlimit:4;stroke-dasharray:none;stroke-opacity:1"
               d="m -1337.8661,58.449009 -2.515,7.558674 -1.0909,-1.076943 0.6264,-7.194992 z"
               id="path4280"
               inkscape:connector-curvature="0" />
            <ellipse
               transform="matrix(-0.24555759,0.969382,-0.76299309,-0.64640664,0,0)"
               style="opacity:1;fill:#f4d78a;fill-opacity:1;stroke:#b08c3e;stroke-width:1.05508494;stroke-linecap:butt;stroke-linejoin:bevel;stroke-miterlimit:4;stroke-dasharray:none;stroke-opacity:1"
               id="ellipse4282"
               cx="1018.7803"
               cy="1429.6365"
               rx="1.7502773"
               ry="4.6018262" />
          </g>
        </g>
        <g
           transform="scale(0.91518053,1.0926806)"
           style="font-style:normal;font-weight:normal;font-size:20.9338131px;line-height:125%;font-family:sans-serif;letter-spacing:0px;word-spacing:0px;fill:#000000;fill-opacity:1;stroke:none;stroke-width:1px;stroke-linecap:butt;stroke-linejoin:miter;stroke-opacity:1"
           id="text4286">
          <path
             d="m -1549.8465,47.80576 q 0,10.119373 -8.6014,16.46698 -8.5555,6.301609 -23.2746,6.301609 -8.5095,0 -14.8571,-1.471908 -6.3016,-1.517906 -11.8213,-3.817764 l 0,-16.420982 1.9319,0 q 5.4737,4.369729 12.2353,6.715583 6.8075,2.345855 13.0632,2.345855 1.6099,0 4.2317,-0.275983 2.6218,-0.275983 4.2777,-0.919943 2.0239,-0.827949 3.3118,-2.069872 1.3339,-1.241923 1.3339,-3.679772 0,-2.25386 -1.9318,-3.86376 -1.8859,-1.655898 -5.5657,-2.529843 -3.8638,-0.919943 -8.1875,-1.701895 -4.2777,-0.827949 -8.0495,-2.069872 -8.6474,-2.805826 -12.4652,-7.58953 -3.7718,-4.8297 -3.7718,-11.959259 0,-9.567407 8.5555,-15.5930336 8.6015,-6.07162296 22.0786,-6.07162296 6.7616,0 13.3392,1.333917 6.6236,1.28791996 11.4533,3.26579796 l 0,15.7770216 -1.8859,0 q -4.1397,-3.311795 -10.1654,-5.519658 -5.9796,-2.25386 -12.2352,-2.25386 -2.2079,0 -4.4157,0.32198 -2.1619,0.275983 -4.1858,1.103931 -1.7939,0.689958 -3.0818,2.115869 -1.2879,1.379915 -1.2879,3.173804 0,2.713832 2.0699,4.18574 2.0698,1.425912 7.8195,2.621838 3.7717,0.781951 7.2215,1.517906 3.4958,0.735954 7.4976,2.023874 7.8655,2.575841 11.5913,7.037564 3.7717,4.415727 3.7717,11.499288 z"
             style="font-style:normal;font-variant:normal;font-weight:bold;font-stretch:normal;font-size:94.2021637px;font-family:sans-serif;-inkscape-font-specification:'sans-serif Bold'"
             id="path4291"
             inkscape:connector-curvature="0" />
          <path
             d="m -1484.3005,14.089849 -21.3887,0 0,55.242577 -17.6629,0 0,-55.242577 -21.3887,0 0,-13.24717856 60.4403,0 0,13.24717856 z"
             style="font-style:normal;font-variant:normal;font-weight:bold;font-stretch:normal;font-size:94.2021637px;font-family:sans-serif;-inkscape-font-specification:'sans-serif Bold'"
             id="path4293"
             inkscape:connector-curvature="0" />
          <path
             d="m -1324.9175,22.46133 q 0,4.599715 -1.6099,9.015442 -1.6099,4.369729 -4.5997,7.359544 -4.0937,4.047749 -9.1534,6.117621 -5.0137,2.069871 -12.5113,2.069871 l -10.9933,0 0,22.308618 -17.6629,0 0,-68.48975556 29.0702,0 q 6.5316,0 10.9933,1.14992796 4.5078,1.103932 7.9575,3.357792 4.1398,2.713832 6.3017,6.9455696 2.2078,4.231738 2.2078,10.16537 z m -18.2609,0.413975 q 0,-2.897821 -1.5639,-4.967693 -1.5639,-2.115869 -3.6337,-2.943817 -2.7599,-1.103932 -5.3817,-1.195926 -2.6218,-0.137992 -6.9916,-0.137992 l -3.0358,0 0,20.514729 5.0597,0 q 4.5077,0 7.4056,-0.551965 2.9438,-0.551966 4.9216,-2.207864 1.7019,-1.471908 2.4379,-3.495783 0.7819,-2.069872 0.7819,-5.013689 z"
             style="font-style:normal;font-variant:normal;font-weight:bold;font-stretch:normal;font-size:94.2021637px;font-family:sans-serif;-inkscape-font-specification:'sans-serif Bold'"
             id="path4295"
             inkscape:connector-curvature="0" />
          <ellipse
             style="opacity:1;fill:none;fill-opacity:1;stroke:#ff0000;stroke-width:6.68213749;stroke-linecap:round;stroke-linejoin:bevel;stroke-miterlimit:4;stroke-dasharray:none;stroke-opacity:1"
             id="path4297"
             cx="-1435.8105"
             cy="34.043774"
             rx="48.04324"
             ry="36.854923" />
          <path
             style="fill:none;fill-rule:evenodd;stroke:#ff0000;stroke-width:6.68213749;stroke-linecap:butt;stroke-linejoin:miter;stroke-miterlimit:4;stroke-dasharray:none;stroke-opacity:1"
             d="m -1405.0256,5.6612464 -59.2377,58.0359136 0,0 0,0 0,0 0,0 0,0 0.4664,-0.84724"
             id="path4299"
             inkscape:connector-curvature="0" />
        </g>
      </g>
    </g>
    <g
       transform="matrix(3.7795279,0,0,3.7795277,-7.1550692,-927.76746)"
       id="layer1-5"
       inkscape:label="Layer 1" />
  </g>
</svg>
