<?xml version="1.0" encoding="UTF-8" standalone="no"?>
<!-- Created with Inkscape (http://www.inkscape.org/) -->

<svg
   xmlns:dc="http://purl.org/dc/elements/1.1/"
   xmlns:cc="http://creativecommons.org/ns#"
   xmlns:rdf="http://www.w3.org/1999/02/22-rdf-syntax-ns#"
   xmlns:svg="http://www.w3.org/2000/svg"
   xmlns="http://www.w3.org/2000/svg"
   xmlns:sodipodi="http://sodipodi.sourceforge.net/DTD/sodipodi-0.dtd"
   xmlns:inkscape="http://www.inkscape.org/namespaces/inkscape"
   id="svg2690"
   sodipodi:docname="stopcovid19sign.svg"
   viewBox="0 0 246.95 243.57"
   sodipodi:version="0.32"
   version="1.0"
   inkscape:output_extension="org.inkscape.output.svg.inkscape"
   inkscape:version="0.91 r13725">
  <title
     id="title4885">Stop Covid-19</title>
  <defs
     id="defs4303" />
  <sodipodi:namedview
     id="base"
     bordercolor="#666666"
     inkscape:pageshadow="2"
     guidetolerance="10.0"
     pagecolor="#ffffff"
     gridtolerance="10.0"
     inkscape:zoom="1.66"
     objecttolerance="10.0"
     borderopacity="1.0"
     inkscape:current-layer="svg2690"
     inkscape:cx="58.913311"
     inkscape:cy="116.55657"
     inkscape:window-y="1"
     inkscape:window-x="4"
     inkscape:window-height="1035"
     showgrid="true"
     inkscape:pageopacity="0.0"
     inkscape:window-width="1916"
     showguides="true"
     inkscape:guide-bbox="true"
     inkscape:window-maximized="1">
    <inkscape:grid
       id="grid2732"
       visible="true"
       enabled="true"
       type="xygrid" />
    <sodipodi:guide
       position="20,-15"
       orientation="1,0"
       id="guide4849" />
  </sodipodi:namedview>
  <metadata
     id="metadata4301">
    <rdf:RDF>
      <cc:Work>
        <dc:format>image/svg+xml</dc:format>
        <dc:type
           rdf:resource="http://purl.org/dc/dcmitype/StillImage" />
        <cc:license
           rdf:resource="http://creativecommons.org/publicdomain/zero/1.0/" />
        <dc:publisher>
          <cc:Agent
             rdf:about="http://openclipart.org/">
            <dc:title></dc:title>
          </cc:Agent>
        </dc:publisher>
        <dc:title>Stop Covid-19</dc:title>
        <dc:date></dc:date>
        <dc:description></dc:description>
        <dc:source></dc:source>
        <dc:creator>
          <cc:Agent>
            <dc:title></dc:title>
          </cc:Agent>
        </dc:creator>
        <dc:subject>
          <rdf:Bag />
        </dc:subject>
      </cc:Work>
      <cc:License
         rdf:about="http://creativecommons.org/publicdomain/zero/1.0/">
        <cc:permits
           rdf:resource="http://creativecommons.org/ns#Reproduction" />
        <cc:permits
           rdf:resource="http://creativecommons.org/ns#Distribution" />
        <cc:permits
           rdf:resource="http://creativecommons.org/ns#DerivativeWorks" />
      </cc:License>
    </rdf:RDF>
  </metadata>
  <g
     id="g4871">
    <path
       d="m246.55 174.15v-102.32l-71.43-71.429-101.36-0.0004-73.359 73.362-0.0004 97.497 71.914 71.91h83.495 19.31l71.43-69.02z"
       style="fill-rule:evenodd;stroke:#000000;stroke-width:.80119px;fill:#ffffff"
       id="path2734" />
    <path
       d="m240.89 170.75v-97.331l-67.94-67.948-96.415-0.0001-69.785 69.784 0.0004 92.735 68.407 68.41h79.423 18.37l67.94-65.65z"
       style="fill-rule:evenodd;stroke:#000000;stroke-width:.76212px;fill:#ff0000"
       id="path2715" />
    <path
       inkscape:connector-curvature="0"
       d="m 21.908189,102.14301 10.971232,-0.88891 c 1.316686,5.84974 5.403779,8.76501 12.262354,8.75797 3.398972,-0.003 6.063136,-0.59742 7.993314,-1.7879 1.929926,-1.20877 2.882273,-2.6969 2.857946,-4.46439 -0.01434,-1.04222 -0.365863,-1.92562 -1.055458,-2.6502 -0.690585,-0.73068 -1.733074,-1.320823 -3.130265,-1.776503 -1.396622,-0.48006 -4.774742,-1.26284 -10.135433,-2.36052 -4.802473,-0.97635 -8.323729,-2.03325 -10.563853,-3.1768 -2.240125,-1.14354 -4.037083,-2.63494 -5.391044,-4.4864 -1.323443,-1.869777 -1.999971,-3.880398 -2.029466,-6.023332 -0.03437,-2.497042 0.769061,-4.745053 2.410289,-6.744032 1.671083,-1.99962 3.983268,-3.510477 6.934737,-4.533179 2.952374,-1.022703 6.606767,-1.535983 10.96317,-1.540451 6.549084,-0.0067 11.679392,1.184451 15.389116,3.573501 3.708819,2.389052 5.702466,5.809899 5.980035,10.262543 L 54.109312,84.72126 c -0.527881,-2.453872 -1.617537,-4.169686 -3.268951,-5.146223 -1.6505,-0.975928 -3.990183,-1.462949 -7.018127,-1.459844 -3.027945,0.0031 -5.354115,0.432133 -6.98032,1.287086 -1.625301,0.854951 -2.429671,1.916897 -2.412197,3.186445 0.01718,1.248217 0.773696,2.2982 2.26774,3.149953 1.494948,0.851752 4.922222,1.786851 10.280834,2.799203 5.669277,1.097357 9.76298,2.257287 12.282918,3.479777 2.549549,1.20417 4.502343,2.77465 5.857478,4.71144 1.354799,1.91241 2.051073,4.239943 2.088906,6.988703 0.05469,3.97381 -1.721894,7.31564 -5.33067,10.02547 -3.577102,2.7098 -9.227957,4.06866 -16.951659,4.07658 -13.655613,0.014 -21.328301,-5.21364 -23.017075,-15.67684 m 67.495623,14.81452 -0.523219,-38.014535 -16.545101,0.01697 -0.106537,-7.740405 44.259035,-0.04539 0.10653,7.740405 -16.49714,0.01692 0.52322,38.014525 -11.216788,0.0115 M 120.65279,94.331699 c -0.0751,-5.454848 1.0487,-9.938794 3.3803,-13.457938 2.36751,-3.539903 5.46239,-6.175461 9.30273,-7.906691 3.84034,-1.731231 8.50702,-2.599053 14.00909,-2.604695 7.96351,-0.0082 14.48017,2.034863 19.54093,6.128489 5.09696,4.094198 7.69306,9.929223 7.79733,17.505065 0.10536,7.655081 -2.46375,13.642901 -7.7256,17.951291 -4.60804,3.81403 -10.91647,5.72211 -18.91618,5.73031 -8.06306,0.008 -14.45979,-1.86849 -19.1721,-5.6303 -5.37125,-4.29749 -8.11315,-10.20672 -8.2165,-17.715531 m 11.57893,-0.3288 c 0.0725,5.26591 1.61103,9.219921 4.61557,11.855921 3.00437,2.62382 6.69648,3.93044 11.08546,3.92594 4.41613,-0.005 8.06321,-1.31258 10.92329,-3.91194 2.86872,-2.62984 4.27048,-6.641711 4.19599,-12.053901 -0.0731,-5.308578 -1.54777,-9.226082 -4.42426,-11.763483 -2.84931,-2.535601 -6.55896,-3.801363 -11.12893,-3.796677 -4.57902,0.0047 -8.28073,1.288419 -11.11418,3.85057 -2.84251,2.560942 -4.22676,6.530136 -4.15294,11.89357 m 51.57139,22.857811 -0.62976,-45.75493 18.08079,-0.01854 c 6.73279,-0.0069 11.13382,0.20678 13.21216,0.641652 3.31279,0.70422 6.05743,2.209891 8.21585,4.517642 2.19461,2.307714 3.32149,5.282085 3.37165,8.92617 0.0455,3.303385 -0.84837,6.083576 -2.66351,8.334446 -1.82451,2.22651 -4.11953,3.80135 -6.89418,4.71842 -2.76584,0.89879 -7.54688,1.34862 -14.34301,1.35559 l -7.36625,0.008 0.23757,17.2605 -11.22131,0.0115 m 10.69809,-38.026032 0.1787,12.983162 6.20791,-0.006 c 4.1718,-0.004 6.99254,-0.20221 8.4712,-0.59989 1.5058,-0.39771 2.73585,-1.10598 3.68108,-2.1248 0.94489,-1.043195 1.39802,-2.311398 1.37738,-3.81072 -0.0209,-1.519435 -0.5272,-2.798844 -1.52791,-3.838216 -1.00976,-1.039362 -2.24103,-1.735355 -3.6938,-2.087369 -1.45278,-0.352014 -4.53203,-0.526218 -9.2287,-0.521402 l -5.46586,0.0056"
       style="fill:#ffffff"
       id="text2717" />
    <g
       id="text4845"
       style="font-style:normal;font-weight:normal;font-size:42.34178925px;line-height:125%;font-family:sans-serif;letter-spacing:0px;word-spacing:0px;fill:#ffffff;fill-opacity:1;stroke:none;stroke-width:1px;stroke-linecap:butt;stroke-linejoin:miter;stroke-opacity:1"
       transform="scale(0.9676886,1.0333903)">
      <path
         id="path4855"
         style="font-style:normal;font-variant:normal;font-weight:normal;font-stretch:normal;font-family:'.Hiragino Kaku Gothic Interface';-inkscape-font-specification:'.Hiragino Kaku Gothic Interface';fill:#ffffff"
         d="m 49.44984,133.46991 c -1.047872,-2.7167 -1.824073,-4.07505 -3.454096,-5.62746 -2.406225,-2.3286 -5.627461,-3.4929 -9.702518,-3.4929 -4.036248,0 -7.296294,1.24192 -9.818949,3.64814 -3.221236,3.14362 -4.967689,7.83964 -4.967689,13.38948 0,5.35579 1.630023,10.013 4.579589,13.00137 2.483844,2.52266 5.976751,3.8422 10.168239,3.8422 4.812449,0 8.771076,-1.70764 11.138491,-4.81245 1.125492,-1.43597 1.707643,-2.79432 2.483844,-5.43341 l -4.269108,-0.89263 c -0.34929,1.90169 -0.737391,2.94957 -1.630023,4.15268 -1.630023,2.21217 -4.307918,3.45409 -7.567964,3.45409 -6.597712,0 -10.7892,-5.23936 -10.7892,-13.42828 0,-8.22774 4.113867,-13.35067 10.7892,-13.35067 2.910755,0 5.35579,1.00907 6.985813,2.91076 0.892632,1.08668 1.358353,1.90169 1.940504,3.72577 l 4.113867,-1.08669 z" />
      <path
         id="path4857"
         style="font-style:normal;font-variant:normal;font-weight:normal;font-stretch:normal;font-family:'.Hiragino Kaku Gothic Interface';-inkscape-font-specification:'.Hiragino Kaku Gothic Interface';fill:#ffffff"
         d="m 68.987906,124.34955 c -9.120368,0 -14.980689,6.67533 -14.980689,16.96 0,10.36229 5.821511,16.96 14.941878,16.96 9.120368,0 14.980688,-6.63652 14.980688,-16.96 0,-10.36229 -5.82151,-16.96 -14.941877,-16.96 z m 0.03881,30.38828 c -6.597713,0 -10.944441,-5.35579 -10.944441,-13.42828 0,-8.15012 4.307918,-13.38948 10.905631,-13.38948 2.794325,0 5.278169,0.97026 7.141053,2.83314 2.367414,2.36741 3.648147,6.01556 3.648147,10.59515 0,8.18892 -4.191488,13.38947 -10.75039,13.38947 z" />
      <path
         id="path4859"
         style="font-style:normal;font-variant:normal;font-weight:normal;font-stretch:normal;font-family:'.Hiragino Kaku Gothic Interface';-inkscape-font-specification:'.Hiragino Kaku Gothic Interface';fill:#ffffff"
         d="m 92.896652,129.35605 c -0.543341,-1.5136 -0.931442,-2.98838 -1.203112,-4.34673 l -5.12293,0 c 0.504531,0.89263 1.241923,2.52265 2.173364,4.92888 l 9.042747,23.63533 c 0.815012,2.17337 1.164303,3.14362 1.358353,4.07506 l 5.006496,0 c 0.19405,-0.93144 0.58215,-2.17336 1.31955,-4.07506 l 9.04274,-23.63533 c 1.08668,-2.79433 1.55241,-3.8422 2.17337,-4.92888 l -5.12293,0 c -0.15524,1.1643 -0.46572,2.28979 -1.24193,4.34673 l -7.64558,21.46197 c -0.34929,0.89263 -0.50453,1.39716 -1.00906,3.06599 -0.46572,-1.51359 -0.81501,-2.56146 -1.00906,-3.06599 l -7.762018,-21.46197 z" />
      <path
         id="path4861"
         style="font-style:normal;font-variant:normal;font-weight:normal;font-stretch:normal;font-family:'.Hiragino Kaku Gothic Interface';-inkscape-font-specification:'.Hiragino Kaku Gothic Interface';fill:#ffffff"
         d="m 120.38715,125.00932 c 0.23286,1.5524 0.34929,2.67789 0.34929,4.92888 l 0,22.7427 c 0,2.25099 -0.11643,3.37648 -0.34929,4.96769 l 4.69602,0 c -0.27167,-1.47478 -0.34929,-2.91076 -0.34929,-4.96769 l 0,-22.7427 c 0,-1.97932 0.0776,-3.41529 0.34929,-4.92888 l -4.69602,0 z" />
      <path
         id="path4863"
         style="font-style:normal;font-variant:normal;font-weight:normal;font-stretch:normal;font-family:'.Hiragino Kaku Gothic Interface';-inkscape-font-specification:'.Hiragino Kaku Gothic Interface';fill:#ffffff"
         d="m 131.81807,152.56447 c 0,2.25098 -0.11643,3.53172 -0.34929,5.16174 1.51359,-0.0776 2.56147,-0.0776 4.81245,-0.0776 l 7.3351,0 c 4.42435,0 7.95607,-1.28073 10.55634,-3.76458 3.02719,-2.94956 4.65721,-7.37391 4.65721,-12.88494 0,-5.23936 -1.51359,-9.43085 -4.42435,-12.22517 -2.52265,-2.56147 -6.13199,-3.76458 -10.82801,-3.76458 l -7.29629,0 c -2.13455,0 -3.37648,-0.0388 -4.81245,-0.11643 0.23286,1.86288 0.34929,3.02718 0.34929,5.0065 l 0,22.66508 z m 3.91982,1.51359 0,-25.53702 7.83963,0 c 3.53172,0 6.05438,0.89263 7.91726,2.79432 2.17336,2.21217 3.22124,5.43341 3.22124,9.74133 0,4.30792 -1.20312,7.80082 -3.4541,10.09062 -1.90169,1.97931 -4.42435,2.91075 -7.80083,2.91075 l -7.7232,0 z" />
      <path
         id="path4865"
         style="font-style:normal;font-variant:normal;font-weight:normal;font-stretch:normal;font-family:'.Hiragino Kaku Gothic Interface';-inkscape-font-specification:'.Hiragino Kaku Gothic Interface';fill:#ffffff"
         d="m 162.23312,147.20868 c 1.24192,-0.19405 2.17336,-0.23286 3.88101,-0.23286 l 5.47222,0 c 1.78526,0 2.67789,0.0388 3.91981,0.23286 l 0,-4.11387 c -1.1643,0.15524 -2.09574,0.19405 -3.91981,0.19405 l -5.47222,0 c -1.78527,0 -2.71671,-0.0388 -3.88101,-0.19405 l 0,4.11387 z" />
      <path
         id="path4867"
         style="font-style:normal;font-variant:normal;font-weight:normal;font-stretch:normal;font-family:'.Hiragino Kaku Gothic Interface';-inkscape-font-specification:'.Hiragino Kaku Gothic Interface';fill:#ffffff"
         d="m 183.462,128.73509 c 1.35835,-0.19405 2.48385,-0.27167 3.91982,-0.27167 l 2.21217,0 0,24.17867 c 0,2.01812 -0.11643,3.4541 -0.34929,5.0065 l 4.69602,0 c -0.27167,-1.66883 -0.34929,-2.94957 -0.34929,-5.0065 l 0,-20.84101 c 0,-2.3286 0.11643,-4.46316 0.3881,-7.02462 -1.43597,0.19405 -2.17336,0.23286 -3.76458,0.23286 l -3.02718,0 c -1.66884,0 -2.52266,-0.0388 -3.72577,-0.23286 l 0,3.95863 z" />
      <path
         id="path4869"
         style="font-style:normal;font-variant:normal;font-weight:normal;font-stretch:normal;font-family:'.Hiragino Kaku Gothic Interface';-inkscape-font-specification:'.Hiragino Kaku Gothic Interface';fill:#ffffff"
         d="m 207.91296,151.47779 c 1.12549,2.36741 1.90169,3.37647 3.22123,4.42435 1.86289,1.5524 4.26911,2.25098 7.2963,2.25098 3.881,0 6.71414,-1.1643 8.8875,-3.72577 2.44504,-2.91075 3.76458,-7.80082 3.76458,-14.12686 0,-4.50197 -0.65977,-7.91726 -2.01812,-10.36229 -1.94051,-3.53172 -5.58865,-5.62746 -9.85776,-5.62746 -7.17986,0 -11.83707,4.50197 -11.83707,11.41016 0,2.98837 1.04787,5.7827 2.91075,7.64558 1.86289,1.86289 4.65721,2.91076 7.87845,2.91076 3.06599,0 5.31698,-0.81501 7.45153,-2.6779 0.85382,-0.7762 1.24192,-1.24192 1.86288,-2.36741 -0.0776,1.9405 -0.23286,3.4541 -0.34929,4.38554 -0.27167,1.97931 -0.97025,3.99744 -1.78526,5.35579 -1.51359,2.56146 -3.64815,3.80338 -6.63652,3.80338 -2.25099,0 -4.07506,-0.69858 -5.20055,-1.90169 -0.65977,-0.69858 -0.93144,-1.28073 -1.43597,-2.63908 l -4.15268,1.24192 z m 10.71158,-8.53822 c -4.46316,0 -7.2963,-2.91075 -7.2963,-7.52915 0,-2.2898 0.69859,-4.11387 2.13456,-5.51103 1.39716,-1.39716 3.33766,-2.17337 5.3946,-2.17337 4.42435,0 7.7232,3.26005 7.7232,7.64559 0,4.38554 -3.37647,7.56796 -7.95606,7.56796 z" />
    </g>
  </g>
</svg>
